<?xml version="1.0" encoding="UTF-8" standalone="no"?>
<!DOCTYPE svg PUBLIC "-//W3C//DTD SVG 1.1//EN"
 "http://www.w3.org/Graphics/SVG/1.1/DTD/svg11.dtd">
<!-- Generated by graphviz version 2.40.1 (20161225.0304)
 -->
<!-- Title: dependencies Pages: 1 -->
<svg width="806pt" height="349pt"
 viewBox="0.00 0.00 806.00 349.00" xmlns="http://www.w3.org/2000/svg" xmlns:xlink="http://www.w3.org/1999/xlink">
<g id="graph0" class="graph" transform="scale(1 1) rotate(0) translate(4 345)">
<title>dependencies</title>
<polygon fill="#ffffff" stroke="transparent" points="-4,4 -4,-345 802,-345 802,4 -4,4"/>
<text text-anchor="start" x="378.0091" y="-42.4" font-family="sans-serif" font-weight="bold" font-size="14.00" fill="#000000">Legend</text>
<polygon fill="#ffffb3" stroke="transparent" points="165,-10 165,-30 185,-30 185,-10 165,-10"/>
<text text-anchor="start" x="188.629" y="-15.4" font-family="sans-serif" font-size="14.00" fill="#000000"> &#160;Declarations</text>
<polygon fill="#8dd3c7" stroke="transparent" points="278,-10 278,-30 298,-30 298,-10 278,-10"/>
<text text-anchor="start" x="301.7251" y="-15.4" font-family="sans-serif" font-size="14.00" fill="#000000"> &#160;Module</text>
<polygon fill="#80b1d3" stroke="transparent" points="364,-10 364,-30 384,-30 384,-10 364,-10"/>
<text text-anchor="start" x="387.7812" y="-15.4" font-family="sans-serif" font-size="14.00" fill="#000000"> &#160;Bootstrap</text>
<polygon fill="#fdb462" stroke="transparent" points="461,-10 461,-30 481,-30 481,-10 461,-10"/>
<text text-anchor="start" x="484.6732" y="-15.4" font-family="sans-serif" font-size="14.00" fill="#000000"> &#160;Providers</text>
<polygon fill="#fb8072" stroke="transparent" points="557,-10 557,-30 577,-30 577,-10 557,-10"/>
<text text-anchor="start" x="580.7258" y="-15.4" font-family="sans-serif" font-size="14.00" fill="#000000"> &#160;Exports</text>
<g id="clust1" class="cluster">
<title>cluster_NgxTinynodesMatTagInputModule</title>
<polygon fill="none" stroke="#000000" stroke-dasharray="1,5" points="8,-70 8,-333 790,-333 790,-70 8,-70"/>
</g>
<g id="clust2" class="cluster">
<title>cluster_NgxTinynodesMatTagInputModule_declarations</title>
<polygon fill="none" stroke="#000000" points="267,-143 267,-195 521,-195 521,-143 267,-143"/>
</g>
<g id="clust3" class="cluster">
<title>cluster_NgxTinynodesMatTagInputModule_NgxTinynodesMatTagInputComponent_providers</title>
<polygon fill="none" stroke="#000000" points="16,-78 16,-130 782,-130 782,-78 16,-78"/>
</g>
<g id="clust5" class="cluster">
<title>cluster_NgxTinynodesMatTagInputModule_exports</title>
<polygon fill="none" stroke="#000000" points="265,-273 265,-325 523,-325 523,-273 265,-273"/>
</g>
<!-- NgxTinynodesMatTagInputComponent -->
<g id="node1" class="node">
<title>NgxTinynodesMatTagInputComponent</title>
<polygon fill="#ffffb3" stroke="#000000" points="513.41,-187 274.59,-187 274.59,-151 513.41,-151 513.41,-187"/>
<text text-anchor="middle" x="394" y="-164.8" font-family="Times,serif" font-size="14.00" fill="#000000">NgxTinynodesMatTagInputComponent</text>
</g>
<!-- NgxTinynodesMatTagInputModule -->
<g id="node2" class="node">
<title>NgxTinynodesMatTagInputModule</title>
<polygon fill="#8dd3c7" stroke="#000000" points="502.1273,-252 499.1273,-256 478.1273,-256 475.1273,-252 285.8727,-252 285.8727,-216 502.1273,-216 502.1273,-252"/>
<text text-anchor="middle" x="394" y="-229.8" font-family="Times,serif" font-size="14.00" fill="#000000">NgxTinynodesMatTagInputModule</text>
</g>
<!-- NgxTinynodesMatTagInputComponent&#45;&gt;NgxTinynodesMatTagInputModule -->
<g id="edge1" class="edge">
<title>NgxTinynodesMatTagInputComponent&#45;&gt;NgxTinynodesMatTagInputModule</title>
<path fill="none" stroke="#000000" d="M394,-187.1061C394,-187.1061 394,-205.991 394,-205.991"/>
<polygon fill="#000000" stroke="#000000" points="390.5001,-205.9909 394,-215.991 397.5001,-205.991 390.5001,-205.9909"/>
</g>
<!-- NgxTinynodesMatTagInputComponent  -->
<g id="node5" class="node">
<title>NgxTinynodesMatTagInputComponent </title>
<polygon fill="#fb8072" stroke="#000000" points="514.9096,-317 273.0904,-317 273.0904,-281 514.9096,-281 514.9096,-317"/>
<text text-anchor="middle" x="394" y="-294.8" font-family="Times,serif" font-size="14.00" fill="#000000">NgxTinynodesMatTagInputComponent </text>
</g>
<!-- NgxTinynodesMatTagInputModule&#45;&gt;NgxTinynodesMatTagInputComponent  -->
<g id="edge4" class="edge">
<title>NgxTinynodesMatTagInputModule&#45;&gt;NgxTinynodesMatTagInputComponent </title>
<path fill="none" stroke="#000000" stroke-dasharray="5,2" d="M394,-252.1061C394,-252.1061 394,-270.991 394,-270.991"/>
<polygon fill="#000000" stroke="#000000" points="390.5001,-270.9909 394,-280.991 397.5001,-270.991 390.5001,-270.9909"/>
</g>
<!-- TAG_COMPONENT_VALUE_ACCESSOR -->
<g id="node3" class="node">
<title>TAG_COMPONENT_VALUE_ACCESSOR</title>
<ellipse fill="#fdb462" stroke="#000000" cx="586" cy="-104" rx="188.1063" ry="18"/>
<text text-anchor="middle" x="586" y="-99.8" font-family="Times,serif" font-size="14.00" fill="#000000">TAG_COMPONENT_VALUE_ACCESSOR</text>
</g>
<!-- TAG_COMPONENT_VALUE_ACCESSOR&#45;&gt;NgxTinynodesMatTagInputComponent -->
<g id="edge2" class="edge">
<title>TAG_COMPONENT_VALUE_ACCESSOR&#45;&gt;NgxTinynodesMatTagInputComponent</title>
<path fill="none" stroke="#000000" d="M455.5758,-117.1537C455.5758,-117.1537 455.5758,-140.6938 455.5758,-140.6938"/>
<polygon fill="#000000" stroke="#000000" points="452.0759,-140.6938 455.5758,-150.6938 459.0759,-140.6939 452.0759,-140.6938"/>
</g>
<!-- TAG_COMPONENT_FIELD_CONTROL -->
<g id="node4" class="node">
<title>TAG_COMPONENT_FIELD_CONTROL</title>
<ellipse fill="#fdb462" stroke="#000000" cx="202" cy="-104" rx="178.2751" ry="18"/>
<text text-anchor="middle" x="202" y="-99.8" font-family="Times,serif" font-size="14.00" fill="#000000">TAG_COMPONENT_FIELD_CONTROL</text>
</g>
<!-- TAG_COMPONENT_FIELD_CONTROL&#45;&gt;NgxTinynodesMatTagInputComponent -->
<g id="edge3" class="edge">
<title>TAG_COMPONENT_FIELD_CONTROL&#45;&gt;NgxTinynodesMatTagInputComponent</title>
<path fill="none" stroke="#000000" d="M327.5913,-116.8419C327.5913,-116.8419 327.5913,-140.5231 327.5913,-140.5231"/>
<polygon fill="#000000" stroke="#000000" points="324.0914,-140.523 327.5913,-150.5231 331.0914,-140.5231 324.0914,-140.523"/>
</g>
</g>
</svg>
