<?xml version="1.0" encoding="UTF-8" standalone="no"?>
<!DOCTYPE svg PUBLIC "-//W3C//DTD SVG 1.1//EN"
 "http://www.w3.org/Graphics/SVG/1.1/DTD/svg11.dtd">
<!-- Generated by graphviz version 2.40.1 (20161225.0304)
 -->
<!-- Title: dependencies Pages: 1 -->
<svg width="504pt" height="284pt"
 viewBox="0.00 0.00 504.00 284.00" xmlns="http://www.w3.org/2000/svg" xmlns:xlink="http://www.w3.org/1999/xlink">
<g id="graph0" class="graph" transform="scale(1 1) rotate(0) translate(4 280)">
<title>dependencies</title>
<polygon fill="#ffffff" stroke="transparent" points="-4,4 -4,-280 500,-280 500,4 -4,4"/>
<text text-anchor="start" x="227.0091" y="-42.4" font-family="sans-serif" font-weight="bold" font-size="14.00" fill="#000000">Legend</text>
<polygon fill="#ffffb3" stroke="transparent" points="14,-10 14,-30 34,-30 34,-10 14,-10"/>
<text text-anchor="start" x="37.629" y="-15.4" font-family="sans-serif" font-size="14.00" fill="#000000"> &#160;Declarations</text>
<polygon fill="#8dd3c7" stroke="transparent" points="127,-10 127,-30 147,-30 147,-10 127,-10"/>
<text text-anchor="start" x="150.7251" y="-15.4" font-family="sans-serif" font-size="14.00" fill="#000000"> &#160;Module</text>
<polygon fill="#80b1d3" stroke="transparent" points="213,-10 213,-30 233,-30 233,-10 213,-10"/>
<text text-anchor="start" x="236.7812" y="-15.4" font-family="sans-serif" font-size="14.00" fill="#000000"> &#160;Bootstrap</text>
<polygon fill="#fdb462" stroke="transparent" points="310,-10 310,-30 330,-30 330,-10 310,-10"/>
<text text-anchor="start" x="333.6732" y="-15.4" font-family="sans-serif" font-size="14.00" fill="#000000"> &#160;Providers</text>
<polygon fill="#fb8072" stroke="transparent" points="406,-10 406,-30 426,-30 426,-10 406,-10"/>
<text text-anchor="start" x="429.7258" y="-15.4" font-family="sans-serif" font-size="14.00" fill="#000000"> &#160;Exports</text>
<g id="clust1" class="cluster">
<title>cluster_NgxTinynodesMatJsonOutputModule</title>
<polygon fill="none" stroke="#000000" stroke-dasharray="1,5" points="105,-70 105,-268 391,-268 391,-70 105,-70"/>
</g>
<g id="clust2" class="cluster">
<title>cluster_NgxTinynodesMatJsonOutputModule_declarations</title>
<polygon fill="none" stroke="#000000" points="115,-78 115,-130 381,-130 381,-78 115,-78"/>
</g>
<g id="clust5" class="cluster">
<title>cluster_NgxTinynodesMatJsonOutputModule_exports</title>
<polygon fill="none" stroke="#000000" points="113,-208 113,-260 383,-260 383,-208 113,-208"/>
</g>
<!-- NgxTinynodesMatJsonOutputComponent -->
<g id="node1" class="node">
<title>NgxTinynodesMatJsonOutputComponent</title>
<polygon fill="#ffffb3" stroke="#000000" points="373.3682,-122 122.6318,-122 122.6318,-86 373.3682,-86 373.3682,-122"/>
<text text-anchor="middle" x="248" y="-99.8" font-family="Times,serif" font-size="14.00" fill="#000000">NgxTinynodesMatJsonOutputComponent</text>
</g>
<!-- NgxTinynodesMatJsonOutputModule -->
<g id="node2" class="node">
<title>NgxTinynodesMatJsonOutputModule</title>
<polygon fill="#8dd3c7" stroke="#000000" points="362.5856,-187 359.5856,-191 338.5856,-191 335.5856,-187 133.4144,-187 133.4144,-151 362.5856,-151 362.5856,-187"/>
<text text-anchor="middle" x="248" y="-164.8" font-family="Times,serif" font-size="14.00" fill="#000000">NgxTinynodesMatJsonOutputModule</text>
</g>
<!-- NgxTinynodesMatJsonOutputComponent&#45;&gt;NgxTinynodesMatJsonOutputModule -->
<g id="edge1" class="edge">
<title>NgxTinynodesMatJsonOutputComponent&#45;&gt;NgxTinynodesMatJsonOutputModule</title>
<path fill="none" stroke="#000000" d="M248,-122.1061C248,-122.1061 248,-140.991 248,-140.991"/>
<polygon fill="#000000" stroke="#000000" points="244.5001,-140.9909 248,-150.991 251.5001,-140.991 244.5001,-140.9909"/>
</g>
<!-- NgxTinynodesMatJsonOutputComponent  -->
<g id="node3" class="node">
<title>NgxTinynodesMatJsonOutputComponent </title>
<polygon fill="#fb8072" stroke="#000000" points="375.3685,-252 120.6315,-252 120.6315,-216 375.3685,-216 375.3685,-252"/>
<text text-anchor="middle" x="248" y="-229.8" font-family="Times,serif" font-size="14.00" fill="#000000">NgxTinynodesMatJsonOutputComponent </text>
</g>
<!-- NgxTinynodesMatJsonOutputModule&#45;&gt;NgxTinynodesMatJsonOutputComponent  -->
<g id="edge2" class="edge">
<title>NgxTinynodesMatJsonOutputModule&#45;&gt;NgxTinynodesMatJsonOutputComponent </title>
<path fill="none" stroke="#000000" stroke-dasharray="5,2" d="M248,-187.1061C248,-187.1061 248,-205.991 248,-205.991"/>
<polygon fill="#000000" stroke="#000000" points="244.5001,-205.9909 248,-215.991 251.5001,-205.991 244.5001,-205.9909"/>
</g>
</g>
</svg>
