<?xml version="1.0" encoding="UTF-8" standalone="no"?>
<!DOCTYPE svg PUBLIC "-//W3C//DTD SVG 1.1//EN"
 "http://www.w3.org/Graphics/SVG/1.1/DTD/svg11.dtd">
<!-- Generated by graphviz version 2.40.1 (20161225.0304)
 -->
<!-- Title: dependencies Pages: 1 -->
<svg width="1123pt" height="211pt"
 viewBox="0.00 0.00 1123.00 211.00" xmlns="http://www.w3.org/2000/svg" xmlns:xlink="http://www.w3.org/1999/xlink">
<g id="graph0" class="graph" transform="scale(1 1) rotate(0) translate(4 207)">
<title>dependencies</title>
<polygon fill="#ffffff" stroke="transparent" points="-4,4 -4,-207 1119,-207 1119,4 -4,4"/>
<text text-anchor="start" x="536.5091" y="-42.4" font-family="sans-serif" font-weight="bold" font-size="14.00" fill="#000000">Legend</text>
<polygon fill="#ffffb3" stroke="transparent" points="323.5,-10 323.5,-30 343.5,-30 343.5,-10 323.5,-10"/>
<text text-anchor="start" x="347.129" y="-15.4" font-family="sans-serif" font-size="14.00" fill="#000000"> &#160;Declarations</text>
<polygon fill="#8dd3c7" stroke="transparent" points="436.5,-10 436.5,-30 456.5,-30 456.5,-10 436.5,-10"/>
<text text-anchor="start" x="460.2251" y="-15.4" font-family="sans-serif" font-size="14.00" fill="#000000"> &#160;Module</text>
<polygon fill="#80b1d3" stroke="transparent" points="522.5,-10 522.5,-30 542.5,-30 542.5,-10 522.5,-10"/>
<text text-anchor="start" x="546.2812" y="-15.4" font-family="sans-serif" font-size="14.00" fill="#000000"> &#160;Bootstrap</text>
<polygon fill="#fdb462" stroke="transparent" points="619.5,-10 619.5,-30 639.5,-30 639.5,-10 619.5,-10"/>
<text text-anchor="start" x="643.1732" y="-15.4" font-family="sans-serif" font-size="14.00" fill="#000000"> &#160;Providers</text>
<polygon fill="#fb8072" stroke="transparent" points="715.5,-10 715.5,-30 735.5,-30 735.5,-10 715.5,-10"/>
<text text-anchor="start" x="739.2258" y="-15.4" font-family="sans-serif" font-size="14.00" fill="#000000"> &#160;Exports</text>
<g id="clust1" class="cluster">
<title>cluster_NgxTinynodesMaterialFormFieldDemo</title>
<polygon fill="none" stroke="#000000" stroke-dasharray="1,5" points="8,-70 8,-195 1107,-195 1107,-70 8,-70"/>
</g>
<g id="clust2" class="cluster">
<title>cluster_NgxTinynodesMaterialFormFieldDemo_declarations</title>
<polygon fill="none" stroke="#000000" points="777,-78 777,-130 1099,-130 1099,-78 777,-78"/>
</g>
<g id="clust4" class="cluster">
<title>cluster_NgxTinynodesMaterialFormFieldDemo_imports</title>
<polygon fill="none" stroke="#000000" points="16,-78 16,-130 769,-130 769,-78 16,-78"/>
</g>
<!-- NgxTinynodesMaterialFormFieldDemoComponent -->
<g id="node1" class="node">
<title>NgxTinynodesMaterialFormFieldDemoComponent</title>
<polygon fill="#ffffb3" stroke="#000000" points="1090.7863,-122 785.2137,-122 785.2137,-86 1090.7863,-86 1090.7863,-122"/>
<text text-anchor="middle" x="938" y="-99.8" font-family="Times,serif" font-size="14.00" fill="#000000">NgxTinynodesMaterialFormFieldDemoComponent</text>
</g>
<!-- NgxTinynodesMaterialFormFieldDemo -->
<g id="node2" class="node">
<title>NgxTinynodesMaterialFormFieldDemo</title>
<polygon fill="#8dd3c7" stroke="#000000" points="557.9538,-187 554.9538,-191 533.9538,-191 530.9538,-187 318.0462,-187 318.0462,-151 557.9538,-151 557.9538,-187"/>
<text text-anchor="middle" x="438" y="-164.8" font-family="Times,serif" font-size="14.00" fill="#000000">NgxTinynodesMaterialFormFieldDemo</text>
</g>
<!-- NgxTinynodesMaterialFormFieldDemoComponent&#45;&gt;NgxTinynodesMaterialFormFieldDemo -->
<g id="edge1" class="edge">
<title>NgxTinynodesMaterialFormFieldDemoComponent&#45;&gt;NgxTinynodesMaterialFormFieldDemo</title>
<path fill="none" stroke="#000000" d="M938,-122.1061C938,-141.3391 938,-169 938,-169 938,-169 568.0805,-169 568.0805,-169"/>
<polygon fill="#000000" stroke="#000000" points="568.0805,-165.5001 558.0805,-169 568.0804,-172.5001 568.0805,-165.5001"/>
</g>
<!-- NgxEditorJSDemoMaterialModule -->
<g id="node3" class="node">
<title>NgxEditorJSDemoMaterialModule</title>
<polygon fill="#8dd3c7" stroke="#000000" points="760.5112,-122 757.5112,-126 736.5112,-126 733.5112,-122 547.4888,-122 547.4888,-86 760.5112,-86 760.5112,-122"/>
<text text-anchor="middle" x="654" y="-99.8" font-family="Times,serif" font-size="14.00" fill="#000000">NgxEditorJSDemoMaterialModule</text>
</g>
<!-- NgxEditorJSDemoMaterialModule&#45;&gt;NgxTinynodesMaterialFormFieldDemo -->
<g id="edge2" class="edge">
<title>NgxEditorJSDemoMaterialModule&#45;&gt;NgxTinynodesMaterialFormFieldDemo</title>
<path fill="none" stroke="#000000" d="M552.6108,-122.1061C552.6108,-122.1061 552.6108,-140.991 552.6108,-140.991"/>
<polygon fill="#000000" stroke="#000000" points="549.1109,-140.9909 552.6108,-150.991 556.1109,-140.991 549.1109,-140.9909"/>
</g>
<!-- NgxEditorJSMatFieldModule -->
<g id="node4" class="node">
<title>NgxEditorJSMatFieldModule</title>
<polygon fill="#8dd3c7" stroke="#000000" points="529.7063,-122 526.7063,-126 505.7063,-126 502.7063,-122 346.2937,-122 346.2937,-86 529.7063,-86 529.7063,-122"/>
<text text-anchor="middle" x="438" y="-99.8" font-family="Times,serif" font-size="14.00" fill="#000000">NgxEditorJSMatFieldModule</text>
</g>
<!-- NgxEditorJSMatFieldModule&#45;&gt;NgxTinynodesMaterialFormFieldDemo -->
<g id="edge3" class="edge">
<title>NgxEditorJSMatFieldModule&#45;&gt;NgxTinynodesMaterialFormFieldDemo</title>
<path fill="none" stroke="#000000" d="M438,-122.1061C438,-122.1061 438,-140.991 438,-140.991"/>
<polygon fill="#000000" stroke="#000000" points="434.5001,-140.9909 438,-150.991 441.5001,-140.991 434.5001,-140.9909"/>
</g>
<!-- NgxEditorjsPluginsModule -->
<g id="node5" class="node">
<title>NgxEditorjsPluginsModule</title>
<polygon fill="#8dd3c7" stroke="#000000" points="327.9944,-122 324.9944,-126 303.9944,-126 300.9944,-122 158.0056,-122 158.0056,-86 327.9944,-86 327.9944,-122"/>
<text text-anchor="middle" x="243" y="-99.8" font-family="Times,serif" font-size="14.00" fill="#000000">NgxEditorjsPluginsModule</text>
</g>
<!-- NgxEditorjsPluginsModule&#45;&gt;NgxTinynodesMaterialFormFieldDemo -->
<g id="edge4" class="edge">
<title>NgxEditorjsPluginsModule&#45;&gt;NgxTinynodesMaterialFormFieldDemo</title>
<path fill="none" stroke="#000000" d="M323.0101,-122.1061C323.0101,-122.1061 323.0101,-140.991 323.0101,-140.991"/>
<polygon fill="#000000" stroke="#000000" points="319.5102,-140.9909 323.0101,-150.991 326.5102,-140.991 319.5102,-140.9909"/>
</g>
<!-- PageStoreModule -->
<g id="node6" class="node">
<title>PageStoreModule</title>
<polygon fill="#8dd3c7" stroke="#000000" points="140.3104,-122 137.3104,-126 116.3104,-126 113.3104,-122 23.6896,-122 23.6896,-86 140.3104,-86 140.3104,-122"/>
<text text-anchor="middle" x="82" y="-99.8" font-family="Times,serif" font-size="14.00" fill="#000000">PageStoreModule</text>
</g>
<!-- PageStoreModule&#45;&gt;NgxTinynodesMaterialFormFieldDemo -->
<g id="edge5" class="edge">
<title>PageStoreModule&#45;&gt;NgxTinynodesMaterialFormFieldDemo</title>
<path fill="none" stroke="#000000" d="M82,-122.1061C82,-141.3391 82,-169 82,-169 82,-169 307.9709,-169 307.9709,-169"/>
<polygon fill="#000000" stroke="#000000" points="307.971,-172.5001 317.9709,-169 307.9709,-165.5001 307.971,-172.5001"/>
</g>
</g>
</svg>
