<?xml version="1.0" encoding="UTF-8" standalone="no"?>
<!DOCTYPE svg PUBLIC "-//W3C//DTD SVG 1.1//EN"
 "http://www.w3.org/Graphics/SVG/1.1/DTD/svg11.dtd">
<!-- Generated by graphviz version 2.40.1 (20161225.0304)
 -->
<!-- Title: dependencies Pages: 1 -->
<svg width="1186pt" height="360pt"
 viewBox="0.00 0.00 1186.00 360.00" xmlns="http://www.w3.org/2000/svg" xmlns:xlink="http://www.w3.org/1999/xlink">
<g id="graph0" class="graph" transform="scale(1 1) rotate(0) translate(4 356)">
<title>dependencies</title>
<polygon fill="#ffffff" stroke="transparent" points="-4,4 -4,-356 1182,-356 1182,4 -4,4"/>
<text text-anchor="start" x="568.0091" y="-42.4" font-family="sans-serif" font-weight="bold" font-size="14.00" fill="#000000">Legend</text>
<polygon fill="#ffffb3" stroke="transparent" points="355,-10 355,-30 375,-30 375,-10 355,-10"/>
<text text-anchor="start" x="378.629" y="-15.4" font-family="sans-serif" font-size="14.00" fill="#000000"> &#160;Declarations</text>
<polygon fill="#8dd3c7" stroke="transparent" points="468,-10 468,-30 488,-30 488,-10 468,-10"/>
<text text-anchor="start" x="491.7251" y="-15.4" font-family="sans-serif" font-size="14.00" fill="#000000"> &#160;Module</text>
<polygon fill="#80b1d3" stroke="transparent" points="554,-10 554,-30 574,-30 574,-10 554,-10"/>
<text text-anchor="start" x="577.7812" y="-15.4" font-family="sans-serif" font-size="14.00" fill="#000000"> &#160;Bootstrap</text>
<polygon fill="#fdb462" stroke="transparent" points="651,-10 651,-30 671,-30 671,-10 651,-10"/>
<text text-anchor="start" x="674.6732" y="-15.4" font-family="sans-serif" font-size="14.00" fill="#000000"> &#160;Providers</text>
<polygon fill="#fb8072" stroke="transparent" points="747,-10 747,-30 767,-30 767,-10 747,-10"/>
<text text-anchor="start" x="770.7258" y="-15.4" font-family="sans-serif" font-size="14.00" fill="#000000"> &#160;Exports</text>
<g id="clust1" class="cluster">
<title>cluster_NgxEditorJSModule</title>
<polygon fill="none" stroke="#000000" stroke-dasharray="1,5" points="8,-146 8,-344 1170,-344 1170,-146 8,-146"/>
</g>
<g id="clust2" class="cluster">
<title>cluster_NgxEditorJSModule_declarations</title>
<polygon fill="none" stroke="#000000" points="834,-154 834,-206 1162,-206 1162,-154 834,-154"/>
</g>
<g id="clust5" class="cluster">
<title>cluster_NgxEditorJSModule_imports</title>
<polygon fill="none" stroke="#000000" points="368,-154 368,-206 826,-206 826,-154 368,-154"/>
</g>
<g id="clust6" class="cluster">
<title>cluster_NgxEditorJSModule_exports</title>
<polygon fill="none" stroke="#000000" points="337,-284 337,-336 1005,-336 1005,-284 337,-284"/>
</g>
<g id="clust8" class="cluster">
<title>cluster_NgxEditorJSModule_providers</title>
<polygon fill="none" stroke="#000000" points="16,-154 16,-206 360,-206 360,-154 16,-154"/>
</g>
<g id="clust9" class="cluster">
<title>cluster_PluginHeaderModule</title>
<polygon fill="none" stroke="#000000" stroke-dasharray="1,5" points="354,-70 354,-138 514,-138 514,-70 354,-70"/>
</g>
<g id="clust14" class="cluster">
<title>cluster_PluginHeaderModule_providers</title>
<polygon fill="none" stroke="#000000" points="362,-78 362,-130 506,-130 506,-78 362,-78"/>
</g>
<g id="clust15" class="cluster">
<title>cluster_PluginListModule</title>
<polygon fill="none" stroke="#000000" stroke-dasharray="1,5" points="522,-70 522,-138 656,-138 656,-70 522,-70"/>
</g>
<g id="clust20" class="cluster">
<title>cluster_PluginListModule_providers</title>
<polygon fill="none" stroke="#000000" points="530,-78 530,-130 648,-130 648,-78 530,-78"/>
</g>
<g id="clust21" class="cluster">
<title>cluster_PluginParagraphModule</title>
<polygon fill="none" stroke="#000000" stroke-dasharray="1,5" points="664,-70 664,-138 846,-138 846,-70 664,-70"/>
</g>
<g id="clust26" class="cluster">
<title>cluster_PluginParagraphModule_providers</title>
<polygon fill="none" stroke="#000000" points="672,-78 672,-130 838,-130 838,-78 672,-78"/>
</g>
<!-- NgxEditorJSComponent -->
<g id="node1" class="node">
<title>NgxEditorJSComponent</title>
<polygon fill="#ffffb3" stroke="#000000" points="1153.661,-198 1000.339,-198 1000.339,-162 1153.661,-162 1153.661,-198"/>
<text text-anchor="middle" x="1077" y="-175.8" font-family="Times,serif" font-size="14.00" fill="#000000">NgxEditorJSComponent</text>
</g>
<!-- NgxEditorJSModule -->
<g id="node3" class="node">
<title>NgxEditorJSModule</title>
<polygon fill="#8dd3c7" stroke="#000000" points="654.8781,-263 651.8781,-267 630.8781,-267 627.8781,-263 523.1219,-263 523.1219,-227 654.8781,-227 654.8781,-263"/>
<text text-anchor="middle" x="589" y="-240.8" font-family="Times,serif" font-size="14.00" fill="#000000">NgxEditorJSModule</text>
</g>
<!-- NgxEditorJSComponent&#45;&gt;NgxEditorJSModule -->
<g id="edge1" class="edge">
<title>NgxEditorJSComponent&#45;&gt;NgxEditorJSModule</title>
<path fill="none" stroke="#000000" d="M1077,-198.1061C1077,-217.3391 1077,-245 1077,-245 1077,-245 665.0676,-245 665.0676,-245"/>
<polygon fill="#000000" stroke="#000000" points="665.0676,-241.5001 655.0676,-245 665.0676,-248.5001 665.0676,-241.5001"/>
</g>
<!-- NgxEditorJSDirective -->
<g id="node2" class="node">
<title>NgxEditorJSDirective</title>
<polygon fill="#ffffb3" stroke="#000000" points="982.4116,-198 841.5884,-198 841.5884,-162 982.4116,-162 982.4116,-198"/>
<text text-anchor="middle" x="912" y="-175.8" font-family="Times,serif" font-size="14.00" fill="#000000">NgxEditorJSDirective</text>
</g>
<!-- NgxEditorJSDirective&#45;&gt;NgxEditorJSModule -->
<g id="edge2" class="edge">
<title>NgxEditorJSDirective&#45;&gt;NgxEditorJSModule</title>
<path fill="none" stroke="#000000" d="M935.4018,-198.0225C935.4018,-215.3734 935.4018,-239 935.4018,-239 935.4018,-239 664.9709,-239 664.9709,-239"/>
<polygon fill="#000000" stroke="#000000" points="664.9709,-235.5001 654.9709,-239 664.9709,-242.5001 664.9709,-235.5001"/>
</g>
<!-- NgxEditorJSComponent  -->
<g id="node7" class="node">
<title>NgxEditorJSComponent </title>
<polygon fill="#fb8072" stroke="#000000" points="996.6607,-328 839.3393,-328 839.3393,-292 996.6607,-292 996.6607,-328"/>
<text text-anchor="middle" x="918" y="-305.8" font-family="Times,serif" font-size="14.00" fill="#000000">NgxEditorJSComponent </text>
</g>
<!-- NgxEditorJSModule&#45;&gt;NgxEditorJSComponent  -->
<g id="edge6" class="edge">
<title>NgxEditorJSModule&#45;&gt;NgxEditorJSComponent </title>
<path fill="none" stroke="#000000" stroke-dasharray="5,2" d="M655.119,-251C743.3474,-251 888.5982,-251 888.5982,-251 888.5982,-251 888.5982,-281.9775 888.5982,-281.9775"/>
<polygon fill="#000000" stroke="#000000" points="885.0983,-281.9774 888.5982,-291.9775 892.0983,-281.9775 885.0983,-281.9774"/>
</g>
<!-- NgxEditorJSDirective  -->
<g id="node8" class="node">
<title>NgxEditorJSDirective </title>
<polygon fill="#fb8072" stroke="#000000" points="820.911,-328 677.089,-328 677.089,-292 820.911,-292 820.911,-328"/>
<text text-anchor="middle" x="749" y="-305.8" font-family="Times,serif" font-size="14.00" fill="#000000">NgxEditorJSDirective </text>
</g>
<!-- NgxEditorJSModule&#45;&gt;NgxEditorJSDirective  -->
<g id="edge7" class="edge">
<title>NgxEditorJSModule&#45;&gt;NgxEditorJSDirective </title>
<path fill="none" stroke="#000000" stroke-dasharray="5,2" d="M654.94,-257C698.5529,-257 747.7376,-257 747.7376,-257 747.7376,-257 747.7376,-281.7604 747.7376,-281.7604"/>
<polygon fill="#000000" stroke="#000000" points="744.2376,-281.7604 747.7376,-291.7604 751.2376,-281.7604 744.2376,-281.7604"/>
</g>
<!-- PluginHeaderModule  -->
<g id="node9" class="node">
<title>PluginHeaderModule </title>
<polygon fill="#fb8072" stroke="#000000" points="659.0246,-328 518.9754,-328 518.9754,-292 659.0246,-292 659.0246,-328"/>
<text text-anchor="middle" x="589" y="-305.8" font-family="Times,serif" font-size="14.00" fill="#000000">PluginHeaderModule </text>
</g>
<!-- NgxEditorJSModule&#45;&gt;PluginHeaderModule  -->
<g id="edge8" class="edge">
<title>NgxEditorJSModule&#45;&gt;PluginHeaderModule </title>
<path fill="none" stroke="#000000" stroke-dasharray="5,2" d="M589,-263.1061C589,-263.1061 589,-281.991 589,-281.991"/>
<polygon fill="#000000" stroke="#000000" points="585.5001,-281.9909 589,-291.991 592.5001,-281.991 585.5001,-281.9909"/>
</g>
<!-- PluginParagraphModule  -->
<g id="node10" class="node">
<title>PluginParagraphModule </title>
<polygon fill="#fb8072" stroke="#000000" points="501.3616,-328 344.6384,-328 344.6384,-292 501.3616,-292 501.3616,-328"/>
<text text-anchor="middle" x="423" y="-305.8" font-family="Times,serif" font-size="14.00" fill="#000000">PluginParagraphModule </text>
</g>
<!-- NgxEditorJSModule&#45;&gt;PluginParagraphModule  -->
<g id="edge9" class="edge">
<title>NgxEditorJSModule&#45;&gt;PluginParagraphModule </title>
<path fill="none" stroke="#000000" stroke-dasharray="5,2" d="M523.0438,-257C491.0196,-257 459.3663,-257 459.3663,-257 459.3663,-257 459.3663,-281.7604 459.3663,-281.7604"/>
<polygon fill="#000000" stroke="#000000" points="455.8664,-281.7604 459.3663,-291.7604 462.8664,-281.7604 455.8664,-281.7604"/>
</g>
<!-- NgxEditorJSModule&#45;&gt;PluginParagraphModule  -->
<g id="edge10" class="edge">
<title>NgxEditorJSModule&#45;&gt;PluginParagraphModule </title>
<path fill="none" stroke="#000000" stroke-dasharray="5,2" d="M522.7137,-251C474.4683,-251 417.552,-251 417.552,-251 417.552,-251 417.552,-281.9775 417.552,-281.9775"/>
<polygon fill="#000000" stroke="#000000" points="414.0521,-281.9774 417.552,-291.9775 421.0521,-281.9775 414.0521,-281.9774"/>
</g>
<!-- PluginHeaderModule -->
<g id="node4" class="node">
<title>PluginHeaderModule</title>
<polygon fill="#8dd3c7" stroke="#000000" points="512.0254,-198 509.0254,-202 488.0254,-202 485.0254,-198 375.9746,-198 375.9746,-162 512.0254,-162 512.0254,-198"/>
<text text-anchor="middle" x="444" y="-175.8" font-family="Times,serif" font-size="14.00" fill="#000000">PluginHeaderModule</text>
</g>
<!-- PluginHeaderModule&#45;&gt;NgxEditorJSModule -->
<g id="edge3" class="edge">
<title>PluginHeaderModule&#45;&gt;NgxEditorJSModule</title>
<path fill="none" stroke="#000000" d="M506.7215,-198.2396C506.7215,-213.5706 506.7215,-233 506.7215,-233 506.7215,-233 512.977,-233 512.977,-233"/>
<polygon fill="#000000" stroke="#000000" points="512.9771,-236.5001 522.977,-233 512.977,-229.5001 512.9771,-236.5001"/>
</g>
<!-- PluginListModule -->
<g id="node5" class="node">
<title>PluginListModule</title>
<polygon fill="#8dd3c7" stroke="#000000" points="647.892,-198 644.892,-202 623.892,-202 620.892,-198 530.108,-198 530.108,-162 647.892,-162 647.892,-198"/>
<text text-anchor="middle" x="589" y="-175.8" font-family="Times,serif" font-size="14.00" fill="#000000">PluginListModule</text>
</g>
<!-- PluginListModule&#45;&gt;NgxEditorJSModule -->
<g id="edge4" class="edge">
<title>PluginListModule&#45;&gt;NgxEditorJSModule</title>
<path fill="none" stroke="#000000" d="M589,-198.1061C589,-198.1061 589,-216.991 589,-216.991"/>
<polygon fill="#000000" stroke="#000000" points="585.5001,-216.9909 589,-226.991 592.5001,-216.991 585.5001,-216.9909"/>
</g>
<!-- PluginParagraphModule -->
<g id="node6" class="node">
<title>PluginParagraphModule</title>
<polygon fill="#8dd3c7" stroke="#000000" points="818.3613,-198 815.3613,-202 794.3613,-202 791.3613,-198 665.6387,-198 665.6387,-162 818.3613,-162 818.3613,-198"/>
<text text-anchor="middle" x="742" y="-175.8" font-family="Times,serif" font-size="14.00" fill="#000000">PluginParagraphModule</text>
</g>
<!-- PluginParagraphModule&#45;&gt;NgxEditorJSModule -->
<g id="edge5" class="edge">
<title>PluginParagraphModule&#45;&gt;NgxEditorJSModule</title>
<path fill="none" stroke="#000000" d="M671.3069,-198.2396C671.3069,-213.5706 671.3069,-233 671.3069,-233 671.3069,-233 665.0457,-233 665.0457,-233"/>
<polygon fill="#000000" stroke="#000000" points="665.0458,-229.5001 655.0457,-233 665.0457,-236.5001 665.0458,-229.5001"/>
</g>
<!-- NgxEditorJSService -->
<g id="node11" class="node">
<title>NgxEditorJSService</title>
<ellipse fill="#fdb462" stroke="#000000" cx="262" cy="-180" rx="89.7653" ry="18"/>
<text text-anchor="middle" x="262" y="-175.8" font-family="Times,serif" font-size="14.00" fill="#000000">NgxEditorJSService</text>
</g>
<!-- NgxEditorJSService&#45;&gt;NgxEditorJSModule -->
<g id="edge11" class="edge">
<title>NgxEditorJSService&#45;&gt;NgxEditorJSModule</title>
<path fill="none" stroke="#000000" d="M348.351,-185.0303C348.351,-199.2982 348.351,-239 348.351,-239 348.351,-239 512.9233,-239 512.9233,-239"/>
<polygon fill="#000000" stroke="#000000" points="512.9233,-242.5001 522.9233,-239 512.9233,-235.5001 512.9233,-242.5001"/>
</g>
<!-- PluginService -->
<g id="node12" class="node">
<title>PluginService</title>
<ellipse fill="#fdb462" stroke="#000000" cx="89" cy="-180" rx="65.4266" ry="18"/>
<text text-anchor="middle" x="89" y="-175.8" font-family="Times,serif" font-size="14.00" fill="#000000">PluginService</text>
</g>
<!-- PluginService&#45;&gt;NgxEditorJSModule -->
<g id="edge12" class="edge">
<title>PluginService&#45;&gt;NgxEditorJSModule</title>
<path fill="none" stroke="#000000" d="M89,-198.1061C89,-217.3391 89,-245 89,-245 89,-245 513.1196,-245 513.1196,-245"/>
<polygon fill="#000000" stroke="#000000" points="513.1196,-248.5001 523.1196,-245 513.1195,-241.5001 513.1196,-248.5001"/>
</g>
<!-- PluginHeader -->
<g id="node13" class="node">
<title>PluginHeader</title>
<ellipse fill="#fdb462" stroke="#000000" cx="434" cy="-104" rx="64.2649" ry="18"/>
<text text-anchor="middle" x="434" y="-99.8" font-family="Times,serif" font-size="14.00" fill="#000000">PluginHeader</text>
</g>
<!-- PluginHeader&#45;&gt;PluginHeaderModule -->
<g id="edge13" class="edge">
<title>PluginHeader&#45;&gt;PluginHeaderModule</title>
<path fill="none" stroke="#000000" d="M436.935,-122.0109C436.935,-122.0109 436.935,-151.855 436.935,-151.855"/>
<polygon fill="#000000" stroke="#000000" points="433.4351,-151.8549 436.935,-161.855 440.4351,-151.855 433.4351,-151.8549"/>
</g>
<!-- PluginList -->
<g id="node14" class="node">
<title>PluginList</title>
<ellipse fill="#fdb462" stroke="#000000" cx="589" cy="-104" rx="51.0607" ry="18"/>
<text text-anchor="middle" x="589" y="-99.8" font-family="Times,serif" font-size="14.00" fill="#000000">PluginList</text>
</g>
<!-- PluginList&#45;&gt;PluginListModule -->
<g id="edge14" class="edge">
<title>PluginList&#45;&gt;PluginListModule</title>
<path fill="none" stroke="#000000" d="M589,-122.0109C589,-122.0109 589,-151.855 589,-151.855"/>
<polygon fill="#000000" stroke="#000000" points="585.5001,-151.8549 589,-161.855 592.5001,-151.855 585.5001,-151.8549"/>
</g>
<!-- PluginParagraph -->
<g id="node15" class="node">
<title>PluginParagraph</title>
<ellipse fill="#fdb462" stroke="#000000" cx="755" cy="-104" rx="75.3021" ry="18"/>
<text text-anchor="middle" x="755" y="-99.8" font-family="Times,serif" font-size="14.00" fill="#000000">PluginParagraph</text>
</g>
<!-- PluginParagraph&#45;&gt;PluginParagraphModule -->
<g id="edge15" class="edge">
<title>PluginParagraph&#45;&gt;PluginParagraphModule</title>
<path fill="none" stroke="#000000" d="M749.0148,-122.0109C749.0148,-122.0109 749.0148,-151.855 749.0148,-151.855"/>
<polygon fill="#000000" stroke="#000000" points="745.5149,-151.8549 749.0148,-161.855 752.5149,-151.855 745.5149,-151.8549"/>
</g>
</g>
</svg>
