<?xml version="1.0" encoding="UTF-8" standalone="no"?>
<!DOCTYPE svg PUBLIC "-//W3C//DTD SVG 1.1//EN"
 "http://www.w3.org/Graphics/SVG/1.1/DTD/svg11.dtd">
<!-- Generated by graphviz version 2.40.1 (20161225.0304)
 -->
<!-- Title: dependencies Pages: 1 -->
<svg width="998pt" height="284pt"
 viewBox="0.00 0.00 998.00 284.00" xmlns="http://www.w3.org/2000/svg" xmlns:xlink="http://www.w3.org/1999/xlink">
<g id="graph0" class="graph" transform="scale(1 1) rotate(0) translate(4 280)">
<title>dependencies</title>
<polygon fill="#ffffff" stroke="transparent" points="-4,4 -4,-280 994,-280 994,4 -4,4"/>
<text text-anchor="start" x="474.0091" y="-42.4" font-family="sans-serif" font-weight="bold" font-size="14.00" fill="#000000">Legend</text>
<polygon fill="#ffffb3" stroke="transparent" points="261,-10 261,-30 281,-30 281,-10 261,-10"/>
<text text-anchor="start" x="284.629" y="-15.4" font-family="sans-serif" font-size="14.00" fill="#000000"> &#160;Declarations</text>
<polygon fill="#8dd3c7" stroke="transparent" points="374,-10 374,-30 394,-30 394,-10 374,-10"/>
<text text-anchor="start" x="397.7251" y="-15.4" font-family="sans-serif" font-size="14.00" fill="#000000"> &#160;Module</text>
<polygon fill="#80b1d3" stroke="transparent" points="460,-10 460,-30 480,-30 480,-10 460,-10"/>
<text text-anchor="start" x="483.7812" y="-15.4" font-family="sans-serif" font-size="14.00" fill="#000000"> &#160;Bootstrap</text>
<polygon fill="#fdb462" stroke="transparent" points="557,-10 557,-30 577,-30 577,-10 557,-10"/>
<text text-anchor="start" x="580.6732" y="-15.4" font-family="sans-serif" font-size="14.00" fill="#000000"> &#160;Providers</text>
<polygon fill="#fb8072" stroke="transparent" points="653,-10 653,-30 673,-30 673,-10 653,-10"/>
<text text-anchor="start" x="676.7258" y="-15.4" font-family="sans-serif" font-size="14.00" fill="#000000"> &#160;Exports</text>
<g id="clust1" class="cluster">
<title>cluster_NgxEditorJSModule</title>
<polygon fill="none" stroke="#000000" stroke-dasharray="1,5" points="8,-70 8,-268 982,-268 982,-70 8,-70"/>
</g>
<g id="clust2" class="cluster">
<title>cluster_NgxEditorJSModule_declarations</title>
<polygon fill="none" stroke="#000000" points="646,-78 646,-130 974,-130 974,-78 646,-78"/>
</g>
<g id="clust5" class="cluster">
<title>cluster_NgxEditorJSModule_imports</title>
<polygon fill="none" stroke="#000000" points="468,-78 468,-130 638,-130 638,-78 468,-78"/>
</g>
<g id="clust6" class="cluster">
<title>cluster_NgxEditorJSModule_exports</title>
<polygon fill="none" stroke="#000000" points="304,-208 304,-260 816,-260 816,-208 304,-208"/>
</g>
<g id="clust8" class="cluster">
<title>cluster_NgxEditorJSModule_providers</title>
<polygon fill="none" stroke="#000000" points="16,-78 16,-130 460,-130 460,-78 16,-78"/>
</g>
<!-- NgxEditorJSComponent -->
<g id="node1" class="node">
<title>NgxEditorJSComponent</title>
<polygon fill="#ffffb3" stroke="#000000" points="965.661,-122 812.339,-122 812.339,-86 965.661,-86 965.661,-122"/>
<text text-anchor="middle" x="889" y="-99.8" font-family="Times,serif" font-size="14.00" fill="#000000">NgxEditorJSComponent</text>
</g>
<!-- NgxEditorJSModule -->
<g id="node3" class="node">
<title>NgxEditorJSModule</title>
<polygon fill="#8dd3c7" stroke="#000000" points="618.8781,-187 615.8781,-191 594.8781,-191 591.8781,-187 487.1219,-187 487.1219,-151 618.8781,-151 618.8781,-187"/>
<text text-anchor="middle" x="553" y="-164.8" font-family="Times,serif" font-size="14.00" fill="#000000">NgxEditorJSModule</text>
</g>
<!-- NgxEditorJSComponent&#45;&gt;NgxEditorJSModule -->
<g id="edge1" class="edge">
<title>NgxEditorJSComponent&#45;&gt;NgxEditorJSModule</title>
<path fill="none" stroke="#000000" d="M889,-122.1061C889,-141.3391 889,-169 889,-169 889,-169 628.9819,-169 628.9819,-169"/>
<polygon fill="#000000" stroke="#000000" points="628.9819,-165.5001 618.9819,-169 628.9819,-172.5001 628.9819,-165.5001"/>
</g>
<!-- NgxEditorJSDirective -->
<g id="node2" class="node">
<title>NgxEditorJSDirective</title>
<polygon fill="#ffffb3" stroke="#000000" points="794.4116,-122 653.5884,-122 653.5884,-86 794.4116,-86 794.4116,-122"/>
<text text-anchor="middle" x="724" y="-99.8" font-family="Times,serif" font-size="14.00" fill="#000000">NgxEditorJSDirective</text>
</g>
<!-- NgxEditorJSDirective&#45;&gt;NgxEditorJSModule -->
<g id="edge2" class="edge">
<title>NgxEditorJSDirective&#45;&gt;NgxEditorJSModule</title>
<path fill="none" stroke="#000000" d="M747.4018,-122.027C747.4018,-138.3976 747.4018,-160 747.4018,-160 747.4018,-160 629.0869,-160 629.0869,-160"/>
<polygon fill="#000000" stroke="#000000" points="629.0869,-156.5001 619.0869,-160 629.0868,-163.5001 629.0869,-156.5001"/>
</g>
<!-- EditorJSInstanceModule  -->
<g id="node5" class="node">
<title>EditorJSInstanceModule </title>
<polygon fill="#fb8072" stroke="#000000" points="807.911,-252 650.089,-252 650.089,-216 807.911,-216 807.911,-252"/>
<text text-anchor="middle" x="729" y="-229.8" font-family="Times,serif" font-size="14.00" fill="#000000">EditorJSInstanceModule </text>
</g>
<!-- NgxEditorJSModule&#45;&gt;EditorJSInstanceModule  -->
<g id="edge4" class="edge">
<title>NgxEditorJSModule&#45;&gt;EditorJSInstanceModule </title>
<path fill="none" stroke="#000000" stroke-dasharray="5,2" d="M619.0284,-178C658.3272,-178 700.5982,-178 700.5982,-178 700.5982,-178 700.5982,-205.973 700.5982,-205.973"/>
<polygon fill="#000000" stroke="#000000" points="697.0983,-205.973 700.5982,-215.973 704.0983,-205.973 697.0983,-205.973"/>
</g>
<!-- NgxEditorJSComponent  -->
<g id="node6" class="node">
<title>NgxEditorJSComponent </title>
<polygon fill="#fb8072" stroke="#000000" points="631.6607,-252 474.3393,-252 474.3393,-216 631.6607,-216 631.6607,-252"/>
<text text-anchor="middle" x="553" y="-229.8" font-family="Times,serif" font-size="14.00" fill="#000000">NgxEditorJSComponent </text>
</g>
<!-- NgxEditorJSModule&#45;&gt;NgxEditorJSComponent  -->
<g id="edge5" class="edge">
<title>NgxEditorJSModule&#45;&gt;NgxEditorJSComponent </title>
<path fill="none" stroke="#000000" stroke-dasharray="5,2" d="M553,-187.1061C553,-187.1061 553,-205.991 553,-205.991"/>
<polygon fill="#000000" stroke="#000000" points="549.5001,-205.9909 553,-215.991 556.5001,-205.991 549.5001,-205.9909"/>
</g>
<!-- NgxEditorJSDirective  -->
<g id="node7" class="node">
<title>NgxEditorJSDirective </title>
<polygon fill="#fb8072" stroke="#000000" points="455.911,-252 312.089,-252 312.089,-216 455.911,-216 455.911,-252"/>
<text text-anchor="middle" x="384" y="-229.8" font-family="Times,serif" font-size="14.00" fill="#000000">NgxEditorJSDirective </text>
</g>
<!-- NgxEditorJSModule&#45;&gt;NgxEditorJSDirective  -->
<g id="edge6" class="edge">
<title>NgxEditorJSModule&#45;&gt;NgxEditorJSDirective </title>
<path fill="none" stroke="#000000" stroke-dasharray="5,2" d="M486.9785,-178C447.6838,-178 405.4172,-178 405.4172,-178 405.4172,-178 405.4172,-205.973 405.4172,-205.973"/>
<polygon fill="#000000" stroke="#000000" points="401.9173,-205.973 405.4172,-215.973 408.9173,-205.973 401.9173,-205.973"/>
</g>
<!-- EditorJSInstanceModule -->
<g id="node4" class="node">
<title>EditorJSInstanceModule</title>
<polygon fill="#8dd3c7" stroke="#000000" points="630.4115,-122 627.4115,-126 606.4115,-126 603.4115,-122 475.5885,-122 475.5885,-86 630.4115,-86 630.4115,-122"/>
<text text-anchor="middle" x="553" y="-99.8" font-family="Times,serif" font-size="14.00" fill="#000000">EditorJSInstanceModule</text>
</g>
<!-- EditorJSInstanceModule&#45;&gt;NgxEditorJSModule -->
<g id="edge3" class="edge">
<title>EditorJSInstanceModule&#45;&gt;NgxEditorJSModule</title>
<path fill="none" stroke="#000000" d="M553,-122.1061C553,-122.1061 553,-140.991 553,-140.991"/>
<polygon fill="#000000" stroke="#000000" points="549.5001,-140.9909 553,-150.991 556.5001,-140.991 549.5001,-140.9909"/>
</g>
<!-- NgxEditorJSPluginService -->
<g id="node8" class="node">
<title>NgxEditorJSPluginService</title>
<ellipse fill="#fdb462" stroke="#000000" cx="337" cy="-104" rx="115.2073" ry="18"/>
<text text-anchor="middle" x="337" y="-99.8" font-family="Times,serif" font-size="14.00" fill="#000000">NgxEditorJSPluginService</text>
</g>
<!-- NgxEditorJSPluginService&#45;&gt;NgxEditorJSModule -->
<g id="edge7" class="edge">
<title>NgxEditorJSPluginService&#45;&gt;NgxEditorJSModule</title>
<path fill="none" stroke="#000000" d="M358.7309,-121.7188C358.7309,-138.125 358.7309,-160 358.7309,-160 358.7309,-160 476.9583,-160 476.9583,-160"/>
<polygon fill="#000000" stroke="#000000" points="476.9583,-163.5001 486.9583,-160 476.9582,-156.5001 476.9583,-163.5001"/>
</g>
<!-- NgxEditorJSService -->
<g id="node9" class="node">
<title>NgxEditorJSService</title>
<ellipse fill="#fdb462" stroke="#000000" cx="114" cy="-104" rx="89.7653" ry="18"/>
<text text-anchor="middle" x="114" y="-99.8" font-family="Times,serif" font-size="14.00" fill="#000000">NgxEditorJSService</text>
</g>
<!-- NgxEditorJSService&#45;&gt;NgxEditorJSModule -->
<g id="edge8" class="edge">
<title>NgxEditorJSService&#45;&gt;NgxEditorJSModule</title>
<path fill="none" stroke="#000000" d="M114,-122.1061C114,-141.3391 114,-169 114,-169 114,-169 476.8019,-169 476.8019,-169"/>
<polygon fill="#000000" stroke="#000000" points="476.802,-172.5001 486.8019,-169 476.8019,-165.5001 476.802,-172.5001"/>
</g>
</g>
</svg>
