<?xml version="1.0" encoding="UTF-8" standalone="no"?>
<!DOCTYPE svg PUBLIC "-//W3C//DTD SVG 1.1//EN"
 "http://www.w3.org/Graphics/SVG/1.1/DTD/svg11.dtd">
<!-- Generated by graphviz version 2.40.1 (20161225.0304)
 -->
<!-- Title: dependencies Pages: 1 -->
<svg width="1266pt" height="284pt"
 viewBox="0.00 0.00 1266.00 284.00" xmlns="http://www.w3.org/2000/svg" xmlns:xlink="http://www.w3.org/1999/xlink">
<g id="graph0" class="graph" transform="scale(1 1) rotate(0) translate(4 280)">
<title>dependencies</title>
<polygon fill="#ffffff" stroke="transparent" points="-4,4 -4,-280 1262,-280 1262,4 -4,4"/>
<text text-anchor="start" x="608.0091" y="-42.4" font-family="sans-serif" font-weight="bold" font-size="14.00" fill="#000000">Legend</text>
<polygon fill="#ffffb3" stroke="transparent" points="395,-10 395,-30 415,-30 415,-10 395,-10"/>
<text text-anchor="start" x="418.629" y="-15.4" font-family="sans-serif" font-size="14.00" fill="#000000"> &#160;Declarations</text>
<polygon fill="#8dd3c7" stroke="transparent" points="508,-10 508,-30 528,-30 528,-10 508,-10"/>
<text text-anchor="start" x="531.7251" y="-15.4" font-family="sans-serif" font-size="14.00" fill="#000000"> &#160;Module</text>
<polygon fill="#80b1d3" stroke="transparent" points="594,-10 594,-30 614,-30 614,-10 594,-10"/>
<text text-anchor="start" x="617.7812" y="-15.4" font-family="sans-serif" font-size="14.00" fill="#000000"> &#160;Bootstrap</text>
<polygon fill="#fdb462" stroke="transparent" points="691,-10 691,-30 711,-30 711,-10 691,-10"/>
<text text-anchor="start" x="714.6732" y="-15.4" font-family="sans-serif" font-size="14.00" fill="#000000"> &#160;Providers</text>
<polygon fill="#fb8072" stroke="transparent" points="787,-10 787,-30 807,-30 807,-10 787,-10"/>
<text text-anchor="start" x="810.7258" y="-15.4" font-family="sans-serif" font-size="14.00" fill="#000000"> &#160;Exports</text>
<g id="clust1" class="cluster">
<title>cluster_NgxEditorJSModule</title>
<polygon fill="none" stroke="#000000" stroke-dasharray="1,5" points="8,-70 8,-268 1250,-268 1250,-70 8,-70"/>
</g>
<g id="clust2" class="cluster">
<title>cluster_NgxEditorJSModule_declarations</title>
<polygon fill="none" stroke="#000000" points="914,-78 914,-130 1242,-130 1242,-78 914,-78"/>
</g>
<g id="clust5" class="cluster">
<title>cluster_NgxEditorJSModule_imports</title>
<polygon fill="none" stroke="#000000" points="220,-78 220,-130 906,-130 906,-78 220,-78"/>
</g>
<g id="clust6" class="cluster">
<title>cluster_NgxEditorJSModule_exports</title>
<polygon fill="none" stroke="#000000" points="438,-208 438,-260 774,-260 774,-208 438,-208"/>
</g>
<g id="clust8" class="cluster">
<title>cluster_NgxEditorJSModule_providers</title>
<polygon fill="none" stroke="#000000" points="16,-78 16,-130 212,-130 212,-78 16,-78"/>
</g>
<!-- NgxEditorJSComponent -->
<g id="node1" class="node">
<title>NgxEditorJSComponent</title>
<polygon fill="#ffffb3" stroke="#000000" points="1233.661,-122 1080.339,-122 1080.339,-86 1233.661,-86 1233.661,-122"/>
<text text-anchor="middle" x="1157" y="-99.8" font-family="Times,serif" font-size="14.00" fill="#000000">NgxEditorJSComponent</text>
</g>
<!-- NgxEditorJSModule -->
<g id="node3" class="node">
<title>NgxEditorJSModule</title>
<polygon fill="#8dd3c7" stroke="#000000" points="667.8781,-187 664.8781,-191 643.8781,-191 640.8781,-187 536.1219,-187 536.1219,-151 667.8781,-151 667.8781,-187"/>
<text text-anchor="middle" x="602" y="-164.8" font-family="Times,serif" font-size="14.00" fill="#000000">NgxEditorJSModule</text>
</g>
<!-- NgxEditorJSComponent&#45;&gt;NgxEditorJSModule -->
<g id="edge1" class="edge">
<title>NgxEditorJSComponent&#45;&gt;NgxEditorJSModule</title>
<path fill="none" stroke="#000000" d="M1157,-122.2921C1157,-144.2057 1157,-178 1157,-178 1157,-178 678.1197,-178 678.1197,-178"/>
<polygon fill="#000000" stroke="#000000" points="678.1198,-174.5001 668.1197,-178 678.1197,-181.5001 678.1198,-174.5001"/>
</g>
<!-- NgxEditorJSDirective -->
<g id="node2" class="node">
<title>NgxEditorJSDirective</title>
<polygon fill="#ffffb3" stroke="#000000" points="1062.4116,-122 921.5884,-122 921.5884,-86 1062.4116,-86 1062.4116,-122"/>
<text text-anchor="middle" x="992" y="-99.8" font-family="Times,serif" font-size="14.00" fill="#000000">NgxEditorJSDirective</text>
</g>
<!-- NgxEditorJSDirective&#45;&gt;NgxEditorJSModule -->
<g id="edge2" class="edge">
<title>NgxEditorJSDirective&#45;&gt;NgxEditorJSModule</title>
<path fill="none" stroke="#000000" d="M992,-122.1061C992,-141.3391 992,-169 992,-169 992,-169 678.1582,-169 678.1582,-169"/>
<polygon fill="#000000" stroke="#000000" points="678.1582,-165.5001 668.1582,-169 678.1581,-172.5001 678.1582,-165.5001"/>
</g>
<!-- NgxEditorJSComponent  -->
<g id="node8" class="node">
<title>NgxEditorJSComponent </title>
<polygon fill="#fb8072" stroke="#000000" points="765.6607,-252 608.3393,-252 608.3393,-216 765.6607,-216 765.6607,-252"/>
<text text-anchor="middle" x="687" y="-229.8" font-family="Times,serif" font-size="14.00" fill="#000000">NgxEditorJSComponent </text>
</g>
<!-- NgxEditorJSModule&#45;&gt;NgxEditorJSComponent  -->
<g id="edge7" class="edge">
<title>NgxEditorJSModule&#45;&gt;NgxEditorJSComponent </title>
<path fill="none" stroke="#000000" stroke-dasharray="5,2" d="M638.1794,-187.1061C638.1794,-187.1061 638.1794,-205.991 638.1794,-205.991"/>
<polygon fill="#000000" stroke="#000000" points="634.6794,-205.9909 638.1794,-215.991 641.6794,-205.991 634.6794,-205.9909"/>
</g>
<!-- NgxEditorJSDirective  -->
<g id="node9" class="node">
<title>NgxEditorJSDirective </title>
<polygon fill="#fb8072" stroke="#000000" points="589.911,-252 446.089,-252 446.089,-216 589.911,-216 589.911,-252"/>
<text text-anchor="middle" x="518" y="-229.8" font-family="Times,serif" font-size="14.00" fill="#000000">NgxEditorJSDirective </text>
</g>
<!-- NgxEditorJSModule&#45;&gt;NgxEditorJSDirective  -->
<g id="edge8" class="edge">
<title>NgxEditorJSModule&#45;&gt;NgxEditorJSDirective </title>
<path fill="none" stroke="#000000" stroke-dasharray="5,2" d="M563.0083,-187.1061C563.0083,-187.1061 563.0083,-205.991 563.0083,-205.991"/>
<polygon fill="#000000" stroke="#000000" points="559.5083,-205.9909 563.0083,-215.991 566.5083,-205.991 559.5083,-205.9909"/>
</g>
<!-- NgxEditorJSPluginServiceModule -->
<g id="node4" class="node">
<title>NgxEditorJSPluginServiceModule</title>
<polygon fill="#8dd3c7" stroke="#000000" points="898.4198,-122 895.4198,-126 874.4198,-126 871.4198,-122 687.5802,-122 687.5802,-86 898.4198,-86 898.4198,-122"/>
<text text-anchor="middle" x="793" y="-99.8" font-family="Times,serif" font-size="14.00" fill="#000000">NgxEditorJSPluginServiceModule</text>
</g>
<!-- NgxEditorJSPluginServiceModule&#45;&gt;NgxEditorJSModule -->
<g id="edge3" class="edge">
<title>NgxEditorJSPluginServiceModule&#45;&gt;NgxEditorJSModule</title>
<path fill="none" stroke="#000000" d="M726.6853,-122.027C726.6853,-138.3976 726.6853,-160 726.6853,-160 726.6853,-160 677.9937,-160 677.9937,-160"/>
<polygon fill="#000000" stroke="#000000" points="677.9937,-156.5001 667.9937,-160 677.9936,-163.5001 677.9937,-156.5001"/>
</g>
<!-- PluginHeaderModule -->
<g id="node5" class="node">
<title>PluginHeaderModule</title>
<polygon fill="#8dd3c7" stroke="#000000" points="670.0254,-122 667.0254,-126 646.0254,-126 643.0254,-122 533.9746,-122 533.9746,-86 670.0254,-86 670.0254,-122"/>
<text text-anchor="middle" x="602" y="-99.8" font-family="Times,serif" font-size="14.00" fill="#000000">PluginHeaderModule</text>
</g>
<!-- PluginHeaderModule&#45;&gt;NgxEditorJSModule -->
<g id="edge4" class="edge">
<title>PluginHeaderModule&#45;&gt;NgxEditorJSModule</title>
<path fill="none" stroke="#000000" d="M602,-122.1061C602,-122.1061 602,-140.991 602,-140.991"/>
<polygon fill="#000000" stroke="#000000" points="598.5001,-140.9909 602,-150.991 605.5001,-140.991 598.5001,-140.9909"/>
</g>
<!-- PluginListModule -->
<g id="node6" class="node">
<title>PluginListModule</title>
<polygon fill="#8dd3c7" stroke="#000000" points="515.892,-122 512.892,-126 491.892,-126 488.892,-122 398.108,-122 398.108,-86 515.892,-86 515.892,-122"/>
<text text-anchor="middle" x="457" y="-99.8" font-family="Times,serif" font-size="14.00" fill="#000000">PluginListModule</text>
</g>
<!-- PluginListModule&#45;&gt;NgxEditorJSModule -->
<g id="edge5" class="edge">
<title>PluginListModule&#45;&gt;NgxEditorJSModule</title>
<path fill="none" stroke="#000000" d="M480.9953,-122.027C480.9953,-138.3976 480.9953,-160 480.9953,-160 480.9953,-160 525.8329,-160 525.8329,-160"/>
<polygon fill="#000000" stroke="#000000" points="525.8329,-163.5001 535.8329,-160 525.8329,-156.5001 525.8329,-163.5001"/>
</g>
<!-- PluginParagraphModule -->
<g id="node7" class="node">
<title>PluginParagraphModule</title>
<polygon fill="#8dd3c7" stroke="#000000" points="380.3613,-122 377.3613,-126 356.3613,-126 353.3613,-122 227.6387,-122 227.6387,-86 380.3613,-86 380.3613,-122"/>
<text text-anchor="middle" x="304" y="-99.8" font-family="Times,serif" font-size="14.00" fill="#000000">PluginParagraphModule</text>
</g>
<!-- PluginParagraphModule&#45;&gt;NgxEditorJSModule -->
<g id="edge6" class="edge">
<title>PluginParagraphModule&#45;&gt;NgxEditorJSModule</title>
<path fill="none" stroke="#000000" d="M304,-122.1061C304,-141.3391 304,-169 304,-169 304,-169 525.8641,-169 525.8641,-169"/>
<polygon fill="#000000" stroke="#000000" points="525.8642,-172.5001 535.8641,-169 525.8641,-165.5001 525.8642,-172.5001"/>
</g>
<!-- NgxEditorJSService -->
<g id="node10" class="node">
<title>NgxEditorJSService</title>
<ellipse fill="#fdb462" stroke="#000000" cx="114" cy="-104" rx="89.7653" ry="18"/>
<text text-anchor="middle" x="114" y="-99.8" font-family="Times,serif" font-size="14.00" fill="#000000">NgxEditorJSService</text>
</g>
<!-- NgxEditorJSService&#45;&gt;NgxEditorJSModule -->
<g id="edge9" class="edge">
<title>NgxEditorJSService&#45;&gt;NgxEditorJSModule</title>
<path fill="none" stroke="#000000" d="M114,-122.2921C114,-144.2057 114,-178 114,-178 114,-178 525.9324,-178 525.9324,-178"/>
<polygon fill="#000000" stroke="#000000" points="525.9324,-181.5001 535.9324,-178 525.9324,-174.5001 525.9324,-181.5001"/>
</g>
</g>
</svg>
