<?xml version="1.0" encoding="UTF-8" standalone="no"?>
<!DOCTYPE svg PUBLIC "-//W3C//DTD SVG 1.1//EN"
 "http://www.w3.org/Graphics/SVG/1.1/DTD/svg11.dtd">
<!-- Generated by graphviz version 2.40.1 (20161225.0304)
 -->
<!-- Title: dependencies Pages: 1 -->
<svg width="1146pt" height="284pt"
 viewBox="0.00 0.00 1146.00 284.00" xmlns="http://www.w3.org/2000/svg" xmlns:xlink="http://www.w3.org/1999/xlink">
<g id="graph0" class="graph" transform="scale(1 1) rotate(0) translate(4 280)">
<title>dependencies</title>
<polygon fill="#ffffff" stroke="transparent" points="-4,4 -4,-280 1142,-280 1142,4 -4,4"/>
<text text-anchor="start" x="548.0091" y="-42.4" font-family="sans-serif" font-weight="bold" font-size="14.00" fill="#000000">Legend</text>
<polygon fill="#ffffb3" stroke="transparent" points="335,-10 335,-30 355,-30 355,-10 335,-10"/>
<text text-anchor="start" x="358.629" y="-15.4" font-family="sans-serif" font-size="14.00" fill="#000000"> &#160;Declarations</text>
<polygon fill="#8dd3c7" stroke="transparent" points="448,-10 448,-30 468,-30 468,-10 448,-10"/>
<text text-anchor="start" x="471.7251" y="-15.4" font-family="sans-serif" font-size="14.00" fill="#000000"> &#160;Module</text>
<polygon fill="#80b1d3" stroke="transparent" points="534,-10 534,-30 554,-30 554,-10 534,-10"/>
<text text-anchor="start" x="557.7812" y="-15.4" font-family="sans-serif" font-size="14.00" fill="#000000"> &#160;Bootstrap</text>
<polygon fill="#fdb462" stroke="transparent" points="631,-10 631,-30 651,-30 651,-10 631,-10"/>
<text text-anchor="start" x="654.6732" y="-15.4" font-family="sans-serif" font-size="14.00" fill="#000000"> &#160;Providers</text>
<polygon fill="#fb8072" stroke="transparent" points="727,-10 727,-30 747,-30 747,-10 727,-10"/>
<text text-anchor="start" x="750.7258" y="-15.4" font-family="sans-serif" font-size="14.00" fill="#000000"> &#160;Exports</text>
<g id="clust1" class="cluster">
<title>cluster_NgxEditorJSModule</title>
<polygon fill="none" stroke="#000000" stroke-dasharray="1,5" points="8,-70 8,-268 1130,-268 1130,-70 8,-70"/>
</g>
<g id="clust2" class="cluster">
<title>cluster_NgxEditorJSModule_declarations</title>
<polygon fill="none" stroke="#000000" points="730,-78 730,-130 1122,-130 1122,-78 730,-78"/>
</g>
<g id="clust6" class="cluster">
<title>cluster_NgxEditorJSModule_exports</title>
<polygon fill="none" stroke="#000000" points="380,-208 380,-260 780,-260 780,-208 380,-208"/>
</g>
<g id="clust8" class="cluster">
<title>cluster_NgxEditorJSModule_providers</title>
<polygon fill="none" stroke="#000000" points="16,-78 16,-130 722,-130 722,-78 16,-78"/>
</g>
<!-- NgxEditorJSComponent -->
<g id="node1" class="node">
<title>NgxEditorJSComponent</title>
<polygon fill="#ffffb3" stroke="#000000" points="1113.661,-122 960.339,-122 960.339,-86 1113.661,-86 1113.661,-122"/>
<text text-anchor="middle" x="1037" y="-99.8" font-family="Times,serif" font-size="14.00" fill="#000000">NgxEditorJSComponent</text>
</g>
<!-- NgxEditorJSModule -->
<g id="node3" class="node">
<title>NgxEditorJSModule</title>
<polygon fill="#8dd3c7" stroke="#000000" points="657.8781,-187 654.8781,-191 633.8781,-191 630.8781,-187 526.1219,-187 526.1219,-151 657.8781,-151 657.8781,-187"/>
<text text-anchor="middle" x="592" y="-164.8" font-family="Times,serif" font-size="14.00" fill="#000000">NgxEditorJSModule</text>
</g>
<!-- NgxEditorJSComponent&#45;&gt;NgxEditorJSModule -->
<g id="edge1" class="edge">
<title>NgxEditorJSComponent&#45;&gt;NgxEditorJSModule</title>
<path fill="none" stroke="#000000" d="M1037,-122.2843C1037,-143.3211 1037,-175 1037,-175 1037,-175 668.1405,-175 668.1405,-175"/>
<polygon fill="#000000" stroke="#000000" points="668.1405,-171.5001 658.1405,-175 668.1405,-178.5001 668.1405,-171.5001"/>
</g>
<!-- NgxEditorJSMatFieldComponent -->
<g id="node2" class="node">
<title>NgxEditorJSMatFieldComponent</title>
<polygon fill="#ffffb3" stroke="#000000" points="942.4888,-122 737.5112,-122 737.5112,-86 942.4888,-86 942.4888,-122"/>
<text text-anchor="middle" x="840" y="-99.8" font-family="Times,serif" font-size="14.00" fill="#000000">NgxEditorJSMatFieldComponent</text>
</g>
<!-- NgxEditorJSMatFieldComponent&#45;&gt;NgxEditorJSModule -->
<g id="edge2" class="edge">
<title>NgxEditorJSMatFieldComponent&#45;&gt;NgxEditorJSModule</title>
<path fill="none" stroke="#000000" d="M754.543,-122.0225C754.543,-139.3734 754.543,-163 754.543,-163 754.543,-163 668.1124,-163 668.1124,-163"/>
<polygon fill="#000000" stroke="#000000" points="668.1125,-159.5001 658.1124,-163 668.1124,-166.5001 668.1125,-159.5001"/>
</g>
<!-- NgxEditorJSComponent  -->
<g id="node4" class="node">
<title>NgxEditorJSComponent </title>
<polygon fill="#fb8072" stroke="#000000" points="771.6607,-252 614.3393,-252 614.3393,-216 771.6607,-216 771.6607,-252"/>
<text text-anchor="middle" x="693" y="-229.8" font-family="Times,serif" font-size="14.00" fill="#000000">NgxEditorJSComponent </text>
</g>
<!-- NgxEditorJSModule&#45;&gt;NgxEditorJSComponent  -->
<g id="edge3" class="edge">
<title>NgxEditorJSModule&#45;&gt;NgxEditorJSComponent </title>
<path fill="none" stroke="#000000" stroke-dasharray="5,2" d="M636.1794,-187.1061C636.1794,-187.1061 636.1794,-205.991 636.1794,-205.991"/>
<polygon fill="#000000" stroke="#000000" points="632.6794,-205.9909 636.1794,-215.991 639.6794,-205.991 632.6794,-205.9909"/>
</g>
<!-- NgxEditorJSMatFieldComponent  -->
<g id="node5" class="node">
<title>NgxEditorJSMatFieldComponent </title>
<polygon fill="#fb8072" stroke="#000000" points="596.4894,-252 387.5106,-252 387.5106,-216 596.4894,-216 596.4894,-252"/>
<text text-anchor="middle" x="492" y="-229.8" font-family="Times,serif" font-size="14.00" fill="#000000">NgxEditorJSMatFieldComponent </text>
</g>
<!-- NgxEditorJSModule&#45;&gt;NgxEditorJSMatFieldComponent  -->
<g id="edge4" class="edge">
<title>NgxEditorJSModule&#45;&gt;NgxEditorJSMatFieldComponent </title>
<path fill="none" stroke="#000000" stroke-dasharray="5,2" d="M561.1527,-187.1061C561.1527,-187.1061 561.1527,-205.991 561.1527,-205.991"/>
<polygon fill="#000000" stroke="#000000" points="557.6528,-205.9909 561.1527,-215.991 564.6528,-205.991 557.6528,-205.9909"/>
</g>
<!-- NgxEditorJSInstanceService -->
<g id="node6" class="node">
<title>NgxEditorJSInstanceService</title>
<ellipse fill="#fdb462" stroke="#000000" cx="592" cy="-104" rx="122.1074" ry="18"/>
<text text-anchor="middle" x="592" y="-99.8" font-family="Times,serif" font-size="14.00" fill="#000000">NgxEditorJSInstanceService</text>
</g>
<!-- NgxEditorJSInstanceService&#45;&gt;NgxEditorJSModule -->
<g id="edge5" class="edge">
<title>NgxEditorJSInstanceService&#45;&gt;NgxEditorJSModule</title>
<path fill="none" stroke="#000000" d="M592,-122.1061C592,-122.1061 592,-140.991 592,-140.991"/>
<polygon fill="#000000" stroke="#000000" points="588.5001,-140.9909 592,-150.991 595.5001,-140.991 588.5001,-140.9909"/>
</g>
<!-- NgxEditorJSPluginService -->
<g id="node7" class="node">
<title>NgxEditorJSPluginService</title>
<ellipse fill="#fdb462" stroke="#000000" cx="337" cy="-104" rx="115.2073" ry="18"/>
<text text-anchor="middle" x="337" y="-99.8" font-family="Times,serif" font-size="14.00" fill="#000000">NgxEditorJSPluginService</text>
</g>
<!-- NgxEditorJSPluginService&#45;&gt;NgxEditorJSModule -->
<g id="edge6" class="edge">
<title>NgxEditorJSPluginService&#45;&gt;NgxEditorJSModule</title>
<path fill="none" stroke="#000000" d="M419.9296,-116.5124C419.9296,-133.8313 419.9296,-163 419.9296,-163 419.9296,-163 515.9652,-163 515.9652,-163"/>
<polygon fill="#000000" stroke="#000000" points="515.9652,-166.5001 525.9652,-163 515.9652,-159.5001 515.9652,-166.5001"/>
</g>
<!-- NgxEditorJSService -->
<g id="node8" class="node">
<title>NgxEditorJSService</title>
<ellipse fill="#fdb462" stroke="#000000" cx="114" cy="-104" rx="89.7653" ry="18"/>
<text text-anchor="middle" x="114" y="-99.8" font-family="Times,serif" font-size="14.00" fill="#000000">NgxEditorJSService</text>
</g>
<!-- NgxEditorJSService&#45;&gt;NgxEditorJSModule -->
<g id="edge7" class="edge">
<title>NgxEditorJSService&#45;&gt;NgxEditorJSModule</title>
<path fill="none" stroke="#000000" d="M114,-122.2843C114,-143.3211 114,-175 114,-175 114,-175 516.038,-175 516.038,-175"/>
<polygon fill="#000000" stroke="#000000" points="516.038,-178.5001 526.038,-175 516.038,-171.5001 516.038,-178.5001"/>
</g>
</g>
</svg>
