<?xml version="1.0" encoding="UTF-8" standalone="no"?>
<!DOCTYPE svg PUBLIC "-//W3C//DTD SVG 1.1//EN"
 "http://www.w3.org/Graphics/SVG/1.1/DTD/svg11.dtd">
<!-- Generated by graphviz version 2.40.1 (20161225.0304)
 -->
<!-- Title: dependencies Pages: 1 -->
<svg width="1186pt" height="284pt"
 viewBox="0.00 0.00 1186.00 284.00" xmlns="http://www.w3.org/2000/svg" xmlns:xlink="http://www.w3.org/1999/xlink">
<g id="graph0" class="graph" transform="scale(1 1) rotate(0) translate(4 280)">
<title>dependencies</title>
<polygon fill="#ffffff" stroke="transparent" points="-4,4 -4,-280 1182,-280 1182,4 -4,4"/>
<text text-anchor="start" x="568.0091" y="-42.4" font-family="sans-serif" font-weight="bold" font-size="14.00" fill="#000000">Legend</text>
<polygon fill="#ffffb3" stroke="transparent" points="355,-10 355,-30 375,-30 375,-10 355,-10"/>
<text text-anchor="start" x="378.629" y="-15.4" font-family="sans-serif" font-size="14.00" fill="#000000"> &#160;Declarations</text>
<polygon fill="#8dd3c7" stroke="transparent" points="468,-10 468,-30 488,-30 488,-10 468,-10"/>
<text text-anchor="start" x="491.7251" y="-15.4" font-family="sans-serif" font-size="14.00" fill="#000000"> &#160;Module</text>
<polygon fill="#80b1d3" stroke="transparent" points="554,-10 554,-30 574,-30 574,-10 554,-10"/>
<text text-anchor="start" x="577.7812" y="-15.4" font-family="sans-serif" font-size="14.00" fill="#000000"> &#160;Bootstrap</text>
<polygon fill="#fdb462" stroke="transparent" points="651,-10 651,-30 671,-30 671,-10 651,-10"/>
<text text-anchor="start" x="674.6732" y="-15.4" font-family="sans-serif" font-size="14.00" fill="#000000"> &#160;Providers</text>
<polygon fill="#fb8072" stroke="transparent" points="747,-10 747,-30 767,-30 767,-10 747,-10"/>
<text text-anchor="start" x="770.7258" y="-15.4" font-family="sans-serif" font-size="14.00" fill="#000000"> &#160;Exports</text>
<g id="clust1" class="cluster">
<title>cluster_NgxEditorJSModule</title>
<polygon fill="none" stroke="#000000" stroke-dasharray="1,5" points="8,-70 8,-268 1170,-268 1170,-70 8,-70"/>
</g>
<g id="clust2" class="cluster">
<title>cluster_NgxEditorJSModule_declarations</title>
<polygon fill="none" stroke="#000000" points="834,-78 834,-130 1162,-130 1162,-78 834,-78"/>
</g>
<g id="clust5" class="cluster">
<title>cluster_NgxEditorJSModule_imports</title>
<polygon fill="none" stroke="#000000" points="468,-78 468,-130 826,-130 826,-78 468,-78"/>
</g>
<g id="clust6" class="cluster">
<title>cluster_NgxEditorJSModule_exports</title>
<polygon fill="none" stroke="#000000" points="402,-208 402,-260 914,-260 914,-208 402,-208"/>
</g>
<g id="clust8" class="cluster">
<title>cluster_NgxEditorJSModule_providers</title>
<polygon fill="none" stroke="#000000" points="16,-78 16,-130 460,-130 460,-78 16,-78"/>
</g>
<!-- NgxEditorJSComponent -->
<g id="node1" class="node">
<title>NgxEditorJSComponent</title>
<polygon fill="#ffffb3" stroke="#000000" points="1153.661,-122 1000.339,-122 1000.339,-86 1153.661,-86 1153.661,-122"/>
<text text-anchor="middle" x="1077" y="-99.8" font-family="Times,serif" font-size="14.00" fill="#000000">NgxEditorJSComponent</text>
</g>
<!-- NgxEditorJSModule -->
<g id="node3" class="node">
<title>NgxEditorJSModule</title>
<polygon fill="#8dd3c7" stroke="#000000" points="716.8781,-187 713.8781,-191 692.8781,-191 689.8781,-187 585.1219,-187 585.1219,-151 716.8781,-151 716.8781,-187"/>
<text text-anchor="middle" x="651" y="-164.8" font-family="Times,serif" font-size="14.00" fill="#000000">NgxEditorJSModule</text>
</g>
<!-- NgxEditorJSComponent&#45;&gt;NgxEditorJSModule -->
<g id="edge1" class="edge">
<title>NgxEditorJSComponent&#45;&gt;NgxEditorJSModule</title>
<path fill="none" stroke="#000000" d="M1077,-122.1061C1077,-141.3391 1077,-169 1077,-169 1077,-169 727.0951,-169 727.0951,-169"/>
<polygon fill="#000000" stroke="#000000" points="727.0951,-165.5001 717.0951,-169 727.0951,-172.5001 727.0951,-165.5001"/>
</g>
<!-- NgxEditorJSDirective -->
<g id="node2" class="node">
<title>NgxEditorJSDirective</title>
<polygon fill="#ffffb3" stroke="#000000" points="982.4116,-122 841.5884,-122 841.5884,-86 982.4116,-86 982.4116,-122"/>
<text text-anchor="middle" x="912" y="-99.8" font-family="Times,serif" font-size="14.00" fill="#000000">NgxEditorJSDirective</text>
</g>
<!-- NgxEditorJSDirective&#45;&gt;NgxEditorJSModule -->
<g id="edge2" class="edge">
<title>NgxEditorJSDirective&#45;&gt;NgxEditorJSModule</title>
<path fill="none" stroke="#000000" d="M873.875,-122.027C873.875,-138.3976 873.875,-160 873.875,-160 873.875,-160 726.9652,-160 726.9652,-160"/>
<polygon fill="#000000" stroke="#000000" points="726.9653,-156.5001 716.9652,-160 726.9652,-163.5001 726.9653,-156.5001"/>
</g>
<!-- EditorJSInstanceModule  -->
<g id="node6" class="node">
<title>EditorJSInstanceModule </title>
<polygon fill="#fb8072" stroke="#000000" points="905.911,-252 748.089,-252 748.089,-216 905.911,-216 905.911,-252"/>
<text text-anchor="middle" x="827" y="-229.8" font-family="Times,serif" font-size="14.00" fill="#000000">EditorJSInstanceModule </text>
</g>
<!-- NgxEditorJSModule&#45;&gt;EditorJSInstanceModule  -->
<g id="edge5" class="edge">
<title>NgxEditorJSModule&#45;&gt;EditorJSInstanceModule </title>
<path fill="none" stroke="#000000" stroke-dasharray="5,2" d="M717.0625,-178C750.0938,-178 783.125,-178 783.125,-178 783.125,-178 783.125,-205.973 783.125,-205.973"/>
<polygon fill="#000000" stroke="#000000" points="779.6251,-205.973 783.125,-215.973 786.6251,-205.973 779.6251,-205.973"/>
</g>
<!-- NgxEditorJSComponent  -->
<g id="node7" class="node">
<title>NgxEditorJSComponent </title>
<polygon fill="#fb8072" stroke="#000000" points="729.6607,-252 572.3393,-252 572.3393,-216 729.6607,-216 729.6607,-252"/>
<text text-anchor="middle" x="651" y="-229.8" font-family="Times,serif" font-size="14.00" fill="#000000">NgxEditorJSComponent </text>
</g>
<!-- NgxEditorJSModule&#45;&gt;NgxEditorJSComponent  -->
<g id="edge6" class="edge">
<title>NgxEditorJSModule&#45;&gt;NgxEditorJSComponent </title>
<path fill="none" stroke="#000000" stroke-dasharray="5,2" d="M651,-187.1061C651,-187.1061 651,-205.991 651,-205.991"/>
<polygon fill="#000000" stroke="#000000" points="647.5001,-205.9909 651,-215.991 654.5001,-205.991 647.5001,-205.9909"/>
</g>
<!-- NgxEditorJSDirective  -->
<g id="node8" class="node">
<title>NgxEditorJSDirective </title>
<polygon fill="#fb8072" stroke="#000000" points="553.911,-252 410.089,-252 410.089,-216 553.911,-216 553.911,-252"/>
<text text-anchor="middle" x="482" y="-229.8" font-family="Times,serif" font-size="14.00" fill="#000000">NgxEditorJSDirective </text>
</g>
<!-- NgxEditorJSModule&#45;&gt;NgxEditorJSDirective  -->
<g id="edge7" class="edge">
<title>NgxEditorJSModule&#45;&gt;NgxEditorJSDirective </title>
<path fill="none" stroke="#000000" stroke-dasharray="5,2" d="M584.9847,-178C550.3301,-178 514.9851,-178 514.9851,-178 514.9851,-178 514.9851,-205.973 514.9851,-205.973"/>
<polygon fill="#000000" stroke="#000000" points="511.4852,-205.973 514.9851,-215.973 518.4852,-205.973 511.4852,-205.973"/>
</g>
<!-- EditorJSInstanceModule -->
<g id="node4" class="node">
<title>EditorJSInstanceModule</title>
<polygon fill="#8dd3c7" stroke="#000000" points="818.4115,-122 815.4115,-126 794.4115,-126 791.4115,-122 663.5885,-122 663.5885,-86 818.4115,-86 818.4115,-122"/>
<text text-anchor="middle" x="741" y="-99.8" font-family="Times,serif" font-size="14.00" fill="#000000">EditorJSInstanceModule</text>
</g>
<!-- EditorJSInstanceModule&#45;&gt;NgxEditorJSModule -->
<g id="edge3" class="edge">
<title>EditorJSInstanceModule&#45;&gt;NgxEditorJSModule</title>
<path fill="none" stroke="#000000" d="M690.3667,-122.1061C690.3667,-122.1061 690.3667,-140.991 690.3667,-140.991"/>
<polygon fill="#000000" stroke="#000000" points="686.8668,-140.9909 690.3667,-150.991 693.8668,-140.991 686.8668,-140.9909"/>
</g>
<!-- NgxTinynodesCoreModule -->
<g id="node5" class="node">
<title>NgxTinynodesCoreModule</title>
<polygon fill="#8dd3c7" stroke="#000000" points="645.9706,-122 642.9706,-126 621.9706,-126 618.9706,-122 476.0294,-122 476.0294,-86 645.9706,-86 645.9706,-122"/>
<text text-anchor="middle" x="561" y="-99.8" font-family="Times,serif" font-size="14.00" fill="#000000">NgxTinynodesCoreModule</text>
</g>
<!-- NgxTinynodesCoreModule&#45;&gt;NgxEditorJSModule -->
<g id="edge4" class="edge">
<title>NgxTinynodesCoreModule&#45;&gt;NgxEditorJSModule</title>
<path fill="none" stroke="#000000" d="M615.5232,-122.1061C615.5232,-122.1061 615.5232,-140.991 615.5232,-140.991"/>
<polygon fill="#000000" stroke="#000000" points="612.0232,-140.9909 615.5232,-150.991 619.0232,-140.991 612.0232,-140.9909"/>
</g>
<!-- NgxEditorJSPluginService -->
<g id="node9" class="node">
<title>NgxEditorJSPluginService</title>
<ellipse fill="#fdb462" stroke="#000000" cx="337" cy="-104" rx="115.2073" ry="18"/>
<text text-anchor="middle" x="337" y="-99.8" font-family="Times,serif" font-size="14.00" fill="#000000">NgxEditorJSPluginService</text>
</g>
<!-- NgxEditorJSPluginService&#45;&gt;NgxEditorJSModule -->
<g id="edge8" class="edge">
<title>NgxEditorJSPluginService&#45;&gt;NgxEditorJSModule</title>
<path fill="none" stroke="#000000" d="M431.0741,-114.5332C431.0741,-130.755 431.0741,-160 431.0741,-160 431.0741,-160 575.015,-160 575.015,-160"/>
<polygon fill="#000000" stroke="#000000" points="575.015,-163.5001 585.015,-160 575.0149,-156.5001 575.015,-163.5001"/>
</g>
<!-- NgxEditorJSService -->
<g id="node10" class="node">
<title>NgxEditorJSService</title>
<ellipse fill="#fdb462" stroke="#000000" cx="114" cy="-104" rx="89.7653" ry="18"/>
<text text-anchor="middle" x="114" y="-99.8" font-family="Times,serif" font-size="14.00" fill="#000000">NgxEditorJSService</text>
</g>
<!-- NgxEditorJSService&#45;&gt;NgxEditorJSModule -->
<g id="edge9" class="edge">
<title>NgxEditorJSService&#45;&gt;NgxEditorJSModule</title>
<path fill="none" stroke="#000000" d="M114,-122.1061C114,-141.3391 114,-169 114,-169 114,-169 574.8842,-169 574.8842,-169"/>
<polygon fill="#000000" stroke="#000000" points="574.8842,-172.5001 584.8842,-169 574.8841,-165.5001 574.8842,-172.5001"/>
</g>
</g>
</svg>
