<?xml version="1.0" encoding="UTF-8" standalone="no"?>
<!DOCTYPE svg PUBLIC "-//W3C//DTD SVG 1.1//EN"
 "http://www.w3.org/Graphics/SVG/1.1/DTD/svg11.dtd">
<!-- Generated by graphviz version 2.40.1 (20161225.0304)
 -->
<!-- Title: dependencies Pages: 1 -->
<svg width="989pt" height="284pt"
 viewBox="0.00 0.00 989.00 284.00" xmlns="http://www.w3.org/2000/svg" xmlns:xlink="http://www.w3.org/1999/xlink">
<g id="graph0" class="graph" transform="scale(1 1) rotate(0) translate(4 280)">
<title>dependencies</title>
<polygon fill="#ffffff" stroke="transparent" points="-4,4 -4,-280 985,-280 985,4 -4,4"/>
<text text-anchor="start" x="469.5091" y="-42.4" font-family="sans-serif" font-weight="bold" font-size="14.00" fill="#000000">Legend</text>
<polygon fill="#ffffb3" stroke="transparent" points="256.5,-10 256.5,-30 276.5,-30 276.5,-10 256.5,-10"/>
<text text-anchor="start" x="280.129" y="-15.4" font-family="sans-serif" font-size="14.00" fill="#000000"> &#160;Declarations</text>
<polygon fill="#8dd3c7" stroke="transparent" points="369.5,-10 369.5,-30 389.5,-30 389.5,-10 369.5,-10"/>
<text text-anchor="start" x="393.2251" y="-15.4" font-family="sans-serif" font-size="14.00" fill="#000000"> &#160;Module</text>
<polygon fill="#80b1d3" stroke="transparent" points="455.5,-10 455.5,-30 475.5,-30 475.5,-10 455.5,-10"/>
<text text-anchor="start" x="479.2812" y="-15.4" font-family="sans-serif" font-size="14.00" fill="#000000"> &#160;Bootstrap</text>
<polygon fill="#fdb462" stroke="transparent" points="552.5,-10 552.5,-30 572.5,-30 572.5,-10 552.5,-10"/>
<text text-anchor="start" x="576.1732" y="-15.4" font-family="sans-serif" font-size="14.00" fill="#000000"> &#160;Providers</text>
<polygon fill="#fb8072" stroke="transparent" points="648.5,-10 648.5,-30 668.5,-30 668.5,-10 648.5,-10"/>
<text text-anchor="start" x="672.2258" y="-15.4" font-family="sans-serif" font-size="14.00" fill="#000000"> &#160;Exports</text>
<g id="clust1" class="cluster">
<title>cluster_NgxEditorJSModule</title>
<polygon fill="none" stroke="#000000" stroke-dasharray="1,5" points="8,-70 8,-268 973,-268 973,-70 8,-70"/>
</g>
<g id="clust2" class="cluster">
<title>cluster_NgxEditorJSModule_declarations</title>
<polygon fill="none" stroke="#000000" points="414,-78 414,-130 965,-130 965,-78 414,-78"/>
</g>
<g id="clust6" class="cluster">
<title>cluster_NgxEditorJSModule_imports</title>
<polygon fill="none" stroke="#000000" points="220,-78 220,-130 406,-130 406,-78 220,-78"/>
</g>
<g id="clust7" class="cluster">
<title>cluster_NgxEditorJSModule_exports</title>
<polygon fill="none" stroke="#000000" points="218,-208 218,-260 780,-260 780,-208 218,-208"/>
</g>
<g id="clust9" class="cluster">
<title>cluster_NgxEditorJSModule_providers</title>
<polygon fill="none" stroke="#000000" points="16,-78 16,-130 212,-130 212,-78 16,-78"/>
</g>
<!-- NgxEditorJSComponent -->
<g id="node1" class="node">
<title>NgxEditorJSComponent</title>
<polygon fill="#ffffb3" stroke="#000000" points="956.661,-122 803.339,-122 803.339,-86 956.661,-86 956.661,-122"/>
<text text-anchor="middle" x="880" y="-99.8" font-family="Times,serif" font-size="14.00" fill="#000000">NgxEditorJSComponent</text>
</g>
<!-- NgxEditorJSModule -->
<g id="node4" class="node">
<title>NgxEditorJSModule</title>
<polygon fill="#8dd3c7" stroke="#000000" points="589.8781,-187 586.8781,-191 565.8781,-191 562.8781,-187 458.1219,-187 458.1219,-151 589.8781,-151 589.8781,-187"/>
<text text-anchor="middle" x="524" y="-164.8" font-family="Times,serif" font-size="14.00" fill="#000000">NgxEditorJSModule</text>
</g>
<!-- NgxEditorJSComponent&#45;&gt;NgxEditorJSModule -->
<g id="edge1" class="edge">
<title>NgxEditorJSComponent&#45;&gt;NgxEditorJSModule</title>
<path fill="none" stroke="#000000" d="M880,-122.1061C880,-141.3391 880,-169 880,-169 880,-169 600.1266,-169 600.1266,-169"/>
<polygon fill="#000000" stroke="#000000" points="600.1266,-165.5001 590.1266,-169 600.1265,-172.5001 600.1266,-165.5001"/>
</g>
<!-- NgxEditorJSDirective -->
<g id="node2" class="node">
<title>NgxEditorJSDirective</title>
<polygon fill="#ffffb3" stroke="#000000" points="785.4116,-122 644.5884,-122 644.5884,-86 785.4116,-86 785.4116,-122"/>
<text text-anchor="middle" x="715" y="-99.8" font-family="Times,serif" font-size="14.00" fill="#000000">NgxEditorJSDirective</text>
</g>
<!-- NgxEditorJSDirective&#45;&gt;NgxEditorJSModule -->
<g id="edge2" class="edge">
<title>NgxEditorJSDirective&#45;&gt;NgxEditorJSModule</title>
<path fill="none" stroke="#000000" d="M708.1874,-122.027C708.1874,-138.3976 708.1874,-160 708.1874,-160 708.1874,-160 599.9756,-160 599.9756,-160"/>
<polygon fill="#000000" stroke="#000000" points="599.9757,-156.5001 589.9756,-160 599.9756,-163.5001 599.9757,-156.5001"/>
</g>
<!-- NgxEditorJSMatFieldComponent -->
<g id="node3" class="node">
<title>NgxEditorJSMatFieldComponent</title>
<polygon fill="#ffffb3" stroke="#000000" points="626.4888,-122 421.5112,-122 421.5112,-86 626.4888,-86 626.4888,-122"/>
<text text-anchor="middle" x="524" y="-99.8" font-family="Times,serif" font-size="14.00" fill="#000000">NgxEditorJSMatFieldComponent</text>
</g>
<!-- NgxEditorJSMatFieldComponent&#45;&gt;NgxEditorJSModule -->
<g id="edge3" class="edge">
<title>NgxEditorJSMatFieldComponent&#45;&gt;NgxEditorJSModule</title>
<path fill="none" stroke="#000000" d="M524,-122.1061C524,-122.1061 524,-140.991 524,-140.991"/>
<polygon fill="#000000" stroke="#000000" points="520.5001,-140.9909 524,-150.991 527.5001,-140.991 520.5001,-140.9909"/>
</g>
<!-- NgxEditorJSComponent  -->
<g id="node6" class="node">
<title>NgxEditorJSComponent </title>
<polygon fill="#fb8072" stroke="#000000" points="771.6607,-252 614.3393,-252 614.3393,-216 771.6607,-216 771.6607,-252"/>
<text text-anchor="middle" x="693" y="-229.8" font-family="Times,serif" font-size="14.00" fill="#000000">NgxEditorJSComponent </text>
</g>
<!-- NgxEditorJSModule&#45;&gt;NgxEditorJSComponent  -->
<g id="edge5" class="edge">
<title>NgxEditorJSModule&#45;&gt;NgxEditorJSComponent </title>
<path fill="none" stroke="#000000" stroke-dasharray="5,2" d="M589.9374,-178C606.8928,-178 620.4571,-178 620.4571,-178 620.4571,-178 620.4571,-205.973 620.4571,-205.973"/>
<polygon fill="#000000" stroke="#000000" points="616.9571,-205.973 620.4571,-215.973 623.9571,-205.973 616.9571,-205.973"/>
</g>
<!-- NgxEditorJSDirective  -->
<g id="node7" class="node">
<title>NgxEditorJSDirective </title>
<polygon fill="#fb8072" stroke="#000000" points="595.911,-252 452.089,-252 452.089,-216 595.911,-216 595.911,-252"/>
<text text-anchor="middle" x="524" y="-229.8" font-family="Times,serif" font-size="14.00" fill="#000000">NgxEditorJSDirective </text>
</g>
<!-- NgxEditorJSModule&#45;&gt;NgxEditorJSDirective  -->
<g id="edge6" class="edge">
<title>NgxEditorJSModule&#45;&gt;NgxEditorJSDirective </title>
<path fill="none" stroke="#000000" stroke-dasharray="5,2" d="M524,-187.1061C524,-187.1061 524,-205.991 524,-205.991"/>
<polygon fill="#000000" stroke="#000000" points="520.5001,-205.9909 524,-215.991 527.5001,-205.991 520.5001,-205.9909"/>
</g>
<!-- NgxEditorJSMatFieldComponent  -->
<g id="node8" class="node">
<title>NgxEditorJSMatFieldComponent </title>
<polygon fill="#fb8072" stroke="#000000" points="434.4894,-252 225.5106,-252 225.5106,-216 434.4894,-216 434.4894,-252"/>
<text text-anchor="middle" x="330" y="-229.8" font-family="Times,serif" font-size="14.00" fill="#000000">NgxEditorJSMatFieldComponent </text>
</g>
<!-- NgxEditorJSModule&#45;&gt;NgxEditorJSMatFieldComponent  -->
<g id="edge7" class="edge">
<title>NgxEditorJSModule&#45;&gt;NgxEditorJSMatFieldComponent </title>
<path fill="none" stroke="#000000" stroke-dasharray="5,2" d="M458.0258,-178C441.2521,-178 427.875,-178 427.875,-178 427.875,-178 427.875,-205.973 427.875,-205.973"/>
<polygon fill="#000000" stroke="#000000" points="424.3751,-205.973 427.875,-215.973 431.3751,-205.973 424.3751,-205.973"/>
</g>
<!-- NgxEditorjsPluginsModule -->
<g id="node5" class="node">
<title>NgxEditorjsPluginsModule</title>
<polygon fill="#8dd3c7" stroke="#000000" points="397.9944,-122 394.9944,-126 373.9944,-126 370.9944,-122 228.0056,-122 228.0056,-86 397.9944,-86 397.9944,-122"/>
<text text-anchor="middle" x="313" y="-99.8" font-family="Times,serif" font-size="14.00" fill="#000000">NgxEditorjsPluginsModule</text>
</g>
<!-- NgxEditorjsPluginsModule&#45;&gt;NgxEditorJSModule -->
<g id="edge4" class="edge">
<title>NgxEditorjsPluginsModule&#45;&gt;NgxEditorJSModule</title>
<path fill="none" stroke="#000000" d="M313,-122.027C313,-138.3976 313,-160 313,-160 313,-160 448.1062,-160 448.1062,-160"/>
<polygon fill="#000000" stroke="#000000" points="448.1062,-163.5001 458.1062,-160 448.1062,-156.5001 448.1062,-163.5001"/>
</g>
<!-- NgxEditorJSService -->
<g id="node9" class="node">
<title>NgxEditorJSService</title>
<ellipse fill="#fdb462" stroke="#000000" cx="114" cy="-104" rx="89.7653" ry="18"/>
<text text-anchor="middle" x="114" y="-99.8" font-family="Times,serif" font-size="14.00" fill="#000000">NgxEditorJSService</text>
</g>
<!-- NgxEditorJSService&#45;&gt;NgxEditorJSModule -->
<g id="edge8" class="edge">
<title>NgxEditorJSService&#45;&gt;NgxEditorJSModule</title>
<path fill="none" stroke="#000000" d="M114,-122.1061C114,-141.3391 114,-169 114,-169 114,-169 447.6707,-169 447.6707,-169"/>
<polygon fill="#000000" stroke="#000000" points="447.6708,-172.5001 457.6707,-169 447.6707,-165.5001 447.6708,-172.5001"/>
</g>
</g>
</svg>
