<?xml version="1.0" encoding="UTF-8" standalone="no"?>
<!DOCTYPE svg PUBLIC "-//W3C//DTD SVG 1.1//EN"
 "http://www.w3.org/Graphics/SVG/1.1/DTD/svg11.dtd">
<!-- Generated by graphviz version 2.40.1 (20161225.0304)
 -->
<!-- Title: dependencies Pages: 1 -->
<svg width="1286pt" height="284pt"
 viewBox="0.00 0.00 1286.00 284.00" xmlns="http://www.w3.org/2000/svg" xmlns:xlink="http://www.w3.org/1999/xlink">
<g id="graph0" class="graph" transform="scale(1 1) rotate(0) translate(4 280)">
<title>dependencies</title>
<polygon fill="#ffffff" stroke="transparent" points="-4,4 -4,-280 1282,-280 1282,4 -4,4"/>
<text text-anchor="start" x="618.0091" y="-42.4" font-family="sans-serif" font-weight="bold" font-size="14.00" fill="#000000">Legend</text>
<polygon fill="#ffffb3" stroke="transparent" points="405,-10 405,-30 425,-30 425,-10 405,-10"/>
<text text-anchor="start" x="428.629" y="-15.4" font-family="sans-serif" font-size="14.00" fill="#000000"> &#160;Declarations</text>
<polygon fill="#8dd3c7" stroke="transparent" points="518,-10 518,-30 538,-30 538,-10 518,-10"/>
<text text-anchor="start" x="541.7251" y="-15.4" font-family="sans-serif" font-size="14.00" fill="#000000"> &#160;Module</text>
<polygon fill="#80b1d3" stroke="transparent" points="604,-10 604,-30 624,-30 624,-10 604,-10"/>
<text text-anchor="start" x="627.7812" y="-15.4" font-family="sans-serif" font-size="14.00" fill="#000000"> &#160;Bootstrap</text>
<polygon fill="#fdb462" stroke="transparent" points="701,-10 701,-30 721,-30 721,-10 701,-10"/>
<text text-anchor="start" x="724.6732" y="-15.4" font-family="sans-serif" font-size="14.00" fill="#000000"> &#160;Providers</text>
<polygon fill="#fb8072" stroke="transparent" points="797,-10 797,-30 817,-30 817,-10 797,-10"/>
<text text-anchor="start" x="820.7258" y="-15.4" font-family="sans-serif" font-size="14.00" fill="#000000"> &#160;Exports</text>
<g id="clust1" class="cluster">
<title>cluster_NgxEditorJSModule</title>
<polygon fill="none" stroke="#000000" stroke-dasharray="1,5" points="8,-70 8,-268 1270,-268 1270,-70 8,-70"/>
</g>
<g id="clust2" class="cluster">
<title>cluster_NgxEditorJSModule_declarations</title>
<polygon fill="none" stroke="#000000" points="934,-78 934,-130 1262,-130 1262,-78 934,-78"/>
</g>
<g id="clust5" class="cluster">
<title>cluster_NgxEditorJSModule_imports</title>
<polygon fill="none" stroke="#000000" points="468,-78 468,-130 926,-130 926,-78 468,-78"/>
</g>
<g id="clust6" class="cluster">
<title>cluster_NgxEditorJSModule_exports</title>
<polygon fill="none" stroke="#000000" points="453,-208 453,-260 1121,-260 1121,-208 453,-208"/>
</g>
<g id="clust8" class="cluster">
<title>cluster_NgxEditorJSModule_providers</title>
<polygon fill="none" stroke="#000000" points="16,-78 16,-130 460,-130 460,-78 16,-78"/>
</g>
<!-- NgxEditorJSComponent -->
<g id="node1" class="node">
<title>NgxEditorJSComponent</title>
<polygon fill="#ffffb3" stroke="#000000" points="1253.661,-122 1100.339,-122 1100.339,-86 1253.661,-86 1253.661,-122"/>
<text text-anchor="middle" x="1177" y="-99.8" font-family="Times,serif" font-size="14.00" fill="#000000">NgxEditorJSComponent</text>
</g>
<!-- NgxEditorJSModule -->
<g id="node3" class="node">
<title>NgxEditorJSModule</title>
<polygon fill="#8dd3c7" stroke="#000000" points="770.8781,-187 767.8781,-191 746.8781,-191 743.8781,-187 639.1219,-187 639.1219,-151 770.8781,-151 770.8781,-187"/>
<text text-anchor="middle" x="705" y="-164.8" font-family="Times,serif" font-size="14.00" fill="#000000">NgxEditorJSModule</text>
</g>
<!-- NgxEditorJSComponent&#45;&gt;NgxEditorJSModule -->
<g id="edge1" class="edge">
<title>NgxEditorJSComponent&#45;&gt;NgxEditorJSModule</title>
<path fill="none" stroke="#000000" d="M1106.375,-122.1061C1106.375,-141.3391 1106.375,-169 1106.375,-169 1106.375,-169 781.2789,-169 781.2789,-169"/>
<polygon fill="#000000" stroke="#000000" points="781.279,-165.5001 771.2789,-169 781.2789,-172.5001 781.279,-165.5001"/>
</g>
<!-- NgxEditorJSDirective -->
<g id="node2" class="node">
<title>NgxEditorJSDirective</title>
<polygon fill="#ffffb3" stroke="#000000" points="1082.4116,-122 941.5884,-122 941.5884,-86 1082.4116,-86 1082.4116,-122"/>
<text text-anchor="middle" x="1012" y="-99.8" font-family="Times,serif" font-size="14.00" fill="#000000">NgxEditorJSDirective</text>
</g>
<!-- NgxEditorJSDirective&#45;&gt;NgxEditorJSModule -->
<g id="edge2" class="edge">
<title>NgxEditorJSDirective&#45;&gt;NgxEditorJSModule</title>
<path fill="none" stroke="#000000" d="M948.6071,-122.0225C948.6071,-139.3734 948.6071,-163 948.6071,-163 948.6071,-163 780.9236,-163 780.9236,-163"/>
<polygon fill="#000000" stroke="#000000" points="780.9236,-159.5001 770.9236,-163 780.9236,-166.5001 780.9236,-159.5001"/>
</g>
<!-- NgxEditorJSComponent  -->
<g id="node7" class="node">
<title>NgxEditorJSComponent </title>
<polygon fill="#fb8072" stroke="#000000" points="1112.6607,-252 955.3393,-252 955.3393,-216 1112.6607,-216 1112.6607,-252"/>
<text text-anchor="middle" x="1034" y="-229.8" font-family="Times,serif" font-size="14.00" fill="#000000">NgxEditorJSComponent </text>
</g>
<!-- NgxEditorJSModule&#45;&gt;NgxEditorJSComponent  -->
<g id="edge6" class="edge">
<title>NgxEditorJSModule&#45;&gt;NgxEditorJSComponent </title>
<path fill="none" stroke="#000000" stroke-dasharray="5,2" d="M771.1681,-175C863.2372,-175 1018.8126,-175 1018.8126,-175 1018.8126,-175 1018.8126,-205.9775 1018.8126,-205.9775"/>
<polygon fill="#000000" stroke="#000000" points="1015.3127,-205.9774 1018.8126,-215.9775 1022.3127,-205.9775 1015.3127,-205.9774"/>
</g>
<!-- NgxEditorJSDirective  -->
<g id="node8" class="node">
<title>NgxEditorJSDirective </title>
<polygon fill="#fb8072" stroke="#000000" points="936.911,-252 793.089,-252 793.089,-216 936.911,-216 936.911,-252"/>
<text text-anchor="middle" x="865" y="-229.8" font-family="Times,serif" font-size="14.00" fill="#000000">NgxEditorJSDirective </text>
</g>
<!-- NgxEditorJSModule&#45;&gt;NgxEditorJSDirective  -->
<g id="edge7" class="edge">
<title>NgxEditorJSModule&#45;&gt;NgxEditorJSDirective </title>
<path fill="none" stroke="#000000" stroke-dasharray="5,2" d="M771.0788,-181C811.5575,-181 855.6534,-181 855.6534,-181 855.6534,-181 855.6534,-205.7604 855.6534,-205.7604"/>
<polygon fill="#000000" stroke="#000000" points="852.1535,-205.7604 855.6534,-215.7604 859.1535,-205.7604 852.1535,-205.7604"/>
</g>
<!-- PluginHeaderModule  -->
<g id="node9" class="node">
<title>PluginHeaderModule </title>
<polygon fill="#fb8072" stroke="#000000" points="775.0246,-252 634.9754,-252 634.9754,-216 775.0246,-216 775.0246,-252"/>
<text text-anchor="middle" x="705" y="-229.8" font-family="Times,serif" font-size="14.00" fill="#000000">PluginHeaderModule </text>
</g>
<!-- NgxEditorJSModule&#45;&gt;PluginHeaderModule  -->
<g id="edge8" class="edge">
<title>NgxEditorJSModule&#45;&gt;PluginHeaderModule </title>
<path fill="none" stroke="#000000" stroke-dasharray="5,2" d="M705,-187.1061C705,-187.1061 705,-205.991 705,-205.991"/>
<polygon fill="#000000" stroke="#000000" points="701.5001,-205.9909 705,-215.991 708.5001,-205.991 701.5001,-205.9909"/>
</g>
<!-- PluginParagraphModule  -->
<g id="node10" class="node">
<title>PluginParagraphModule </title>
<polygon fill="#fb8072" stroke="#000000" points="617.3616,-252 460.6384,-252 460.6384,-216 617.3616,-216 617.3616,-252"/>
<text text-anchor="middle" x="539" y="-229.8" font-family="Times,serif" font-size="14.00" fill="#000000">PluginParagraphModule </text>
</g>
<!-- NgxEditorJSModule&#45;&gt;PluginParagraphModule  -->
<g id="edge9" class="edge">
<title>NgxEditorJSModule&#45;&gt;PluginParagraphModule </title>
<path fill="none" stroke="#000000" stroke-dasharray="5,2" d="M638.9543,-175C586.8041,-175 522.7731,-175 522.7731,-175 522.7731,-175 522.7731,-205.9775 522.7731,-205.9775"/>
<polygon fill="#000000" stroke="#000000" points="519.2732,-205.9774 522.7731,-215.9775 526.2732,-205.9775 519.2732,-205.9774"/>
</g>
<!-- NgxEditorJSModule&#45;&gt;PluginParagraphModule  -->
<g id="edge10" class="edge">
<title>NgxEditorJSModule&#45;&gt;PluginParagraphModule </title>
<path fill="none" stroke="#000000" stroke-dasharray="5,2" d="M639.0706,-181C604.7958,-181 569.9769,-181 569.9769,-181 569.9769,-181 569.9769,-205.7604 569.9769,-205.7604"/>
<polygon fill="#000000" stroke="#000000" points="566.477,-205.7604 569.9769,-215.7604 573.477,-205.7604 566.477,-205.7604"/>
</g>
<!-- PluginHeaderModule -->
<g id="node4" class="node">
<title>PluginHeaderModule</title>
<polygon fill="#8dd3c7" stroke="#000000" points="918.0254,-122 915.0254,-126 894.0254,-126 891.0254,-122 781.9746,-122 781.9746,-86 918.0254,-86 918.0254,-122"/>
<text text-anchor="middle" x="850" y="-99.8" font-family="Times,serif" font-size="14.00" fill="#000000">PluginHeaderModule</text>
</g>
<!-- PluginHeaderModule&#45;&gt;NgxEditorJSModule -->
<g id="edge3" class="edge">
<title>PluginHeaderModule&#45;&gt;NgxEditorJSModule</title>
<path fill="none" stroke="#000000" d="M787.3911,-122.2396C787.3911,-137.5706 787.3911,-157 787.3911,-157 787.3911,-157 781.1133,-157 781.1133,-157"/>
<polygon fill="#000000" stroke="#000000" points="781.1133,-153.5001 771.1133,-157 781.1132,-160.5001 781.1133,-153.5001"/>
</g>
<!-- PluginListModule -->
<g id="node5" class="node">
<title>PluginListModule</title>
<polygon fill="#8dd3c7" stroke="#000000" points="763.892,-122 760.892,-126 739.892,-126 736.892,-122 646.108,-122 646.108,-86 763.892,-86 763.892,-122"/>
<text text-anchor="middle" x="705" y="-99.8" font-family="Times,serif" font-size="14.00" fill="#000000">PluginListModule</text>
</g>
<!-- PluginListModule&#45;&gt;NgxEditorJSModule -->
<g id="edge4" class="edge">
<title>PluginListModule&#45;&gt;NgxEditorJSModule</title>
<path fill="none" stroke="#000000" d="M705,-122.1061C705,-122.1061 705,-140.991 705,-140.991"/>
<polygon fill="#000000" stroke="#000000" points="701.5001,-140.9909 705,-150.991 708.5001,-140.991 701.5001,-140.9909"/>
</g>
<!-- PluginParagraphModule -->
<g id="node6" class="node">
<title>PluginParagraphModule</title>
<polygon fill="#8dd3c7" stroke="#000000" points="628.3613,-122 625.3613,-126 604.3613,-126 601.3613,-122 475.6387,-122 475.6387,-86 628.3613,-86 628.3613,-122"/>
<text text-anchor="middle" x="552" y="-99.8" font-family="Times,serif" font-size="14.00" fill="#000000">PluginParagraphModule</text>
</g>
<!-- PluginParagraphModule&#45;&gt;NgxEditorJSModule -->
<g id="edge5" class="edge">
<title>PluginParagraphModule&#45;&gt;NgxEditorJSModule</title>
<path fill="none" stroke="#000000" d="M622.8056,-122.2396C622.8056,-137.5706 622.8056,-157 622.8056,-157 622.8056,-157 629.0446,-157 629.0446,-157"/>
<polygon fill="#000000" stroke="#000000" points="629.0446,-160.5001 639.0446,-157 629.0445,-153.5001 629.0446,-160.5001"/>
</g>
<!-- NgxEditorJSPluginService -->
<g id="node11" class="node">
<title>NgxEditorJSPluginService</title>
<ellipse fill="#fdb462" stroke="#000000" cx="337" cy="-104" rx="115.2073" ry="18"/>
<text text-anchor="middle" x="337" y="-99.8" font-family="Times,serif" font-size="14.00" fill="#000000">NgxEditorJSPluginService</text>
</g>
<!-- NgxEditorJSPluginService&#45;&gt;NgxEditorJSModule -->
<g id="edge11" class="edge">
<title>NgxEditorJSPluginService&#45;&gt;NgxEditorJSModule</title>
<path fill="none" stroke="#000000" d="M337,-122.0225C337,-139.3734 337,-163 337,-163 337,-163 628.784,-163 628.784,-163"/>
<polygon fill="#000000" stroke="#000000" points="628.784,-166.5001 638.784,-163 628.7839,-159.5001 628.784,-166.5001"/>
</g>
<!-- NgxEditorJSService -->
<g id="node12" class="node">
<title>NgxEditorJSService</title>
<ellipse fill="#fdb462" stroke="#000000" cx="114" cy="-104" rx="89.7653" ry="18"/>
<text text-anchor="middle" x="114" y="-99.8" font-family="Times,serif" font-size="14.00" fill="#000000">NgxEditorJSService</text>
</g>
<!-- NgxEditorJSService&#45;&gt;NgxEditorJSModule -->
<g id="edge12" class="edge">
<title>NgxEditorJSService&#45;&gt;NgxEditorJSModule</title>
<path fill="none" stroke="#000000" d="M114,-122.1061C114,-141.3391 114,-169 114,-169 114,-169 628.9251,-169 628.9251,-169"/>
<polygon fill="#000000" stroke="#000000" points="628.9251,-172.5001 638.9251,-169 628.925,-165.5001 628.9251,-172.5001"/>
</g>
</g>
</svg>
