<?xml version="1.0" encoding="UTF-8" standalone="no"?>
<!DOCTYPE svg PUBLIC "-//W3C//DTD SVG 1.1//EN"
 "http://www.w3.org/Graphics/SVG/1.1/DTD/svg11.dtd">
<!-- Generated by graphviz version 2.40.1 (20161225.0304)
 -->
<!-- Title: dependencies Pages: 1 -->
<svg width="795pt" height="284pt"
 viewBox="0.00 0.00 795.00 284.00" xmlns="http://www.w3.org/2000/svg" xmlns:xlink="http://www.w3.org/1999/xlink">
<g id="graph0" class="graph" transform="scale(1 1) rotate(0) translate(4 280)">
<title>dependencies</title>
<polygon fill="#ffffff" stroke="transparent" points="-4,4 -4,-280 791,-280 791,4 -4,4"/>
<text text-anchor="start" x="372.5091" y="-42.4" font-family="sans-serif" font-weight="bold" font-size="14.00" fill="#000000">Legend</text>
<polygon fill="#ffffb3" stroke="transparent" points="159.5,-10 159.5,-30 179.5,-30 179.5,-10 159.5,-10"/>
<text text-anchor="start" x="183.129" y="-15.4" font-family="sans-serif" font-size="14.00" fill="#000000"> &#160;Declarations</text>
<polygon fill="#8dd3c7" stroke="transparent" points="272.5,-10 272.5,-30 292.5,-30 292.5,-10 272.5,-10"/>
<text text-anchor="start" x="296.2251" y="-15.4" font-family="sans-serif" font-size="14.00" fill="#000000"> &#160;Module</text>
<polygon fill="#80b1d3" stroke="transparent" points="358.5,-10 358.5,-30 378.5,-30 378.5,-10 358.5,-10"/>
<text text-anchor="start" x="382.2812" y="-15.4" font-family="sans-serif" font-size="14.00" fill="#000000"> &#160;Bootstrap</text>
<polygon fill="#fdb462" stroke="transparent" points="455.5,-10 455.5,-30 475.5,-30 475.5,-10 455.5,-10"/>
<text text-anchor="start" x="479.1732" y="-15.4" font-family="sans-serif" font-size="14.00" fill="#000000"> &#160;Providers</text>
<polygon fill="#fb8072" stroke="transparent" points="551.5,-10 551.5,-30 571.5,-30 571.5,-10 551.5,-10"/>
<text text-anchor="start" x="575.2258" y="-15.4" font-family="sans-serif" font-size="14.00" fill="#000000"> &#160;Exports</text>
<g id="clust1" class="cluster">
<title>cluster_NgxEditorJSModule</title>
<polygon fill="none" stroke="#000000" stroke-dasharray="1,5" points="8,-70 8,-268 779,-268 779,-70 8,-70"/>
</g>
<g id="clust2" class="cluster">
<title>cluster_NgxEditorJSModule_declarations</title>
<polygon fill="none" stroke="#000000" points="220,-78 220,-130 771,-130 771,-78 220,-78"/>
</g>
<g id="clust7" class="cluster">
<title>cluster_NgxEditorJSModule_exports</title>
<polygon fill="none" stroke="#000000" points="116,-208 116,-260 678,-260 678,-208 116,-208"/>
</g>
<g id="clust9" class="cluster">
<title>cluster_NgxEditorJSModule_providers</title>
<polygon fill="none" stroke="#000000" points="16,-78 16,-130 212,-130 212,-78 16,-78"/>
</g>
<!-- NgxEditorJSComponent -->
<g id="node1" class="node">
<title>NgxEditorJSComponent</title>
<polygon fill="#ffffb3" stroke="#000000" points="762.661,-122 609.339,-122 609.339,-86 762.661,-86 762.661,-122"/>
<text text-anchor="middle" x="686" y="-99.8" font-family="Times,serif" font-size="14.00" fill="#000000">NgxEditorJSComponent</text>
</g>
<!-- NgxEditorJSModule -->
<g id="node4" class="node">
<title>NgxEditorJSModule</title>
<polygon fill="#8dd3c7" stroke="#000000" points="487.8781,-187 484.8781,-191 463.8781,-191 460.8781,-187 356.1219,-187 356.1219,-151 487.8781,-151 487.8781,-187"/>
<text text-anchor="middle" x="422" y="-164.8" font-family="Times,serif" font-size="14.00" fill="#000000">NgxEditorJSModule</text>
</g>
<!-- NgxEditorJSComponent&#45;&gt;NgxEditorJSModule -->
<g id="edge1" class="edge">
<title>NgxEditorJSComponent&#45;&gt;NgxEditorJSModule</title>
<path fill="none" stroke="#000000" d="M639.375,-122.0225C639.375,-139.3734 639.375,-163 639.375,-163 639.375,-163 498.105,-163 498.105,-163"/>
<polygon fill="#000000" stroke="#000000" points="498.1051,-159.5001 488.105,-163 498.105,-166.5001 498.1051,-159.5001"/>
</g>
<!-- NgxEditorJSDirective -->
<g id="node2" class="node">
<title>NgxEditorJSDirective</title>
<polygon fill="#ffffb3" stroke="#000000" points="591.4116,-122 450.5884,-122 450.5884,-86 591.4116,-86 591.4116,-122"/>
<text text-anchor="middle" x="521" y="-99.8" font-family="Times,serif" font-size="14.00" fill="#000000">NgxEditorJSDirective</text>
</g>
<!-- NgxEditorJSDirective&#45;&gt;NgxEditorJSModule -->
<g id="edge2" class="edge">
<title>NgxEditorJSDirective&#45;&gt;NgxEditorJSModule</title>
<path fill="none" stroke="#000000" d="M469.3668,-122.1061C469.3668,-122.1061 469.3668,-140.991 469.3668,-140.991"/>
<polygon fill="#000000" stroke="#000000" points="465.8668,-140.9909 469.3668,-150.991 472.8668,-140.991 465.8668,-140.9909"/>
</g>
<!-- NgxEditorJSMatFieldComponent -->
<g id="node3" class="node">
<title>NgxEditorJSMatFieldComponent</title>
<polygon fill="#ffffb3" stroke="#000000" points="432.4888,-122 227.5112,-122 227.5112,-86 432.4888,-86 432.4888,-122"/>
<text text-anchor="middle" x="330" y="-99.8" font-family="Times,serif" font-size="14.00" fill="#000000">NgxEditorJSMatFieldComponent</text>
</g>
<!-- NgxEditorJSMatFieldComponent&#45;&gt;NgxEditorJSModule -->
<g id="edge3" class="edge">
<title>NgxEditorJSMatFieldComponent&#45;&gt;NgxEditorJSModule</title>
<path fill="none" stroke="#000000" d="M394.2777,-122.1061C394.2777,-122.1061 394.2777,-140.991 394.2777,-140.991"/>
<polygon fill="#000000" stroke="#000000" points="390.7778,-140.9909 394.2777,-150.991 397.7778,-140.991 390.7778,-140.9909"/>
</g>
<!-- NgxEditorJSComponent  -->
<g id="node5" class="node">
<title>NgxEditorJSComponent </title>
<polygon fill="#fb8072" stroke="#000000" points="669.6607,-252 512.3393,-252 512.3393,-216 669.6607,-216 669.6607,-252"/>
<text text-anchor="middle" x="591" y="-229.8" font-family="Times,serif" font-size="14.00" fill="#000000">NgxEditorJSComponent </text>
</g>
<!-- NgxEditorJSModule&#45;&gt;NgxEditorJSComponent  -->
<g id="edge4" class="edge">
<title>NgxEditorJSModule&#45;&gt;NgxEditorJSComponent </title>
<path fill="none" stroke="#000000" stroke-dasharray="5,2" d="M488.0472,-175C520.1156,-175 551.8126,-175 551.8126,-175 551.8126,-175 551.8126,-205.9775 551.8126,-205.9775"/>
<polygon fill="#000000" stroke="#000000" points="548.3127,-205.9774 551.8126,-215.9775 555.3127,-205.9775 548.3127,-205.9774"/>
</g>
<!-- NgxEditorJSDirective  -->
<g id="node6" class="node">
<title>NgxEditorJSDirective </title>
<polygon fill="#fb8072" stroke="#000000" points="493.911,-252 350.089,-252 350.089,-216 493.911,-216 493.911,-252"/>
<text text-anchor="middle" x="422" y="-229.8" font-family="Times,serif" font-size="14.00" fill="#000000">NgxEditorJSDirective </text>
</g>
<!-- NgxEditorJSModule&#45;&gt;NgxEditorJSDirective  -->
<g id="edge5" class="edge">
<title>NgxEditorJSModule&#45;&gt;NgxEditorJSDirective </title>
<path fill="none" stroke="#000000" stroke-dasharray="5,2" d="M422,-187.1061C422,-187.1061 422,-205.991 422,-205.991"/>
<polygon fill="#000000" stroke="#000000" points="418.5001,-205.9909 422,-215.991 425.5001,-205.991 418.5001,-205.9909"/>
</g>
<!-- NgxEditorJSMatFieldComponent  -->
<g id="node7" class="node">
<title>NgxEditorJSMatFieldComponent </title>
<polygon fill="#fb8072" stroke="#000000" points="332.4894,-252 123.5106,-252 123.5106,-216 332.4894,-216 332.4894,-252"/>
<text text-anchor="middle" x="228" y="-229.8" font-family="Times,serif" font-size="14.00" fill="#000000">NgxEditorJSMatFieldComponent </text>
</g>
<!-- NgxEditorJSModule&#45;&gt;NgxEditorJSMatFieldComponent  -->
<g id="edge6" class="edge">
<title>NgxEditorJSModule&#45;&gt;NgxEditorJSMatFieldComponent </title>
<path fill="none" stroke="#000000" stroke-dasharray="5,2" d="M355.9304,-175C318.8154,-175 279.875,-175 279.875,-175 279.875,-175 279.875,-205.9775 279.875,-205.9775"/>
<polygon fill="#000000" stroke="#000000" points="276.3751,-205.9774 279.875,-215.9775 283.3751,-205.9775 276.3751,-205.9774"/>
</g>
<!-- NgxEditorJSService -->
<g id="node8" class="node">
<title>NgxEditorJSService</title>
<ellipse fill="#fdb462" stroke="#000000" cx="114" cy="-104" rx="89.7653" ry="18"/>
<text text-anchor="middle" x="114" y="-99.8" font-family="Times,serif" font-size="14.00" fill="#000000">NgxEditorJSService</text>
</g>
<!-- NgxEditorJSService&#45;&gt;NgxEditorJSModule -->
<g id="edge7" class="edge">
<title>NgxEditorJSService&#45;&gt;NgxEditorJSModule</title>
<path fill="none" stroke="#000000" d="M163.8191,-119.194C163.8191,-136.6752 163.8191,-163 163.8191,-163 163.8191,-163 345.8473,-163 345.8473,-163"/>
<polygon fill="#000000" stroke="#000000" points="345.8473,-166.5001 355.8473,-163 345.8472,-159.5001 345.8473,-166.5001"/>
</g>
</g>
</svg>
