<?xml version="1.0" encoding="UTF-8" standalone="no"?>
<!DOCTYPE svg PUBLIC "-//W3C//DTD SVG 1.1//EN"
 "http://www.w3.org/Graphics/SVG/1.1/DTD/svg11.dtd">
<!-- Generated by graphviz version 2.40.1 (20161225.0304)
 -->
<!-- Title: dependencies Pages: 1 -->
<svg width="504pt" height="211pt"
 viewBox="0.00 0.00 504.00 211.00" xmlns="http://www.w3.org/2000/svg" xmlns:xlink="http://www.w3.org/1999/xlink">
<g id="graph0" class="graph" transform="scale(1 1) rotate(0) translate(4 207)">
<title>dependencies</title>
<polygon fill="#ffffff" stroke="transparent" points="-4,4 -4,-207 500,-207 500,4 -4,4"/>
<text text-anchor="start" x="227.0091" y="-42.4" font-family="sans-serif" font-weight="bold" font-size="14.00" fill="#000000">Legend</text>
<polygon fill="#ffffb3" stroke="transparent" points="14,-10 14,-30 34,-30 34,-10 14,-10"/>
<text text-anchor="start" x="37.629" y="-15.4" font-family="sans-serif" font-size="14.00" fill="#000000"> &#160;Declarations</text>
<polygon fill="#8dd3c7" stroke="transparent" points="127,-10 127,-30 147,-30 147,-10 127,-10"/>
<text text-anchor="start" x="150.7251" y="-15.4" font-family="sans-serif" font-size="14.00" fill="#000000"> &#160;Module</text>
<polygon fill="#80b1d3" stroke="transparent" points="213,-10 213,-30 233,-30 233,-10 213,-10"/>
<text text-anchor="start" x="236.7812" y="-15.4" font-family="sans-serif" font-size="14.00" fill="#000000"> &#160;Bootstrap</text>
<polygon fill="#fdb462" stroke="transparent" points="310,-10 310,-30 330,-30 330,-10 310,-10"/>
<text text-anchor="start" x="333.6732" y="-15.4" font-family="sans-serif" font-size="14.00" fill="#000000"> &#160;Providers</text>
<polygon fill="#fb8072" stroke="transparent" points="406,-10 406,-30 426,-30 426,-10 406,-10"/>
<text text-anchor="start" x="429.7258" y="-15.4" font-family="sans-serif" font-size="14.00" fill="#000000"> &#160;Exports</text>
<g id="clust1" class="cluster">
<title>cluster_PageStoreModule</title>
<polygon fill="none" stroke="#000000" stroke-dasharray="1,5" points="40,-70 40,-195 456,-195 456,-70 40,-70"/>
</g>
<g id="clust6" class="cluster">
<title>cluster_PageStoreModule_providers</title>
<polygon fill="none" stroke="#000000" points="48,-78 48,-130 448,-130 448,-78 48,-78"/>
</g>
<!-- PagesQuery -->
<g id="node1" class="node">
<title>PagesQuery</title>
<ellipse fill="#fdb462" stroke="#000000" cx="382" cy="-104" rx="57.8849" ry="18"/>
<text text-anchor="middle" x="382" y="-99.8" font-family="Times,serif" font-size="14.00" fill="#000000">PagesQuery</text>
</g>
<!-- PageStoreModule -->
<g id="node4" class="node">
<title>PageStoreModule</title>
<polygon fill="#8dd3c7" stroke="#000000" points="302.3104,-187 299.3104,-191 278.3104,-191 275.3104,-187 185.6896,-187 185.6896,-151 302.3104,-151 302.3104,-187"/>
<text text-anchor="middle" x="244" y="-164.8" font-family="Times,serif" font-size="14.00" fill="#000000">PageStoreModule</text>
</g>
<!-- PagesQuery&#45;&gt;PageStoreModule -->
<g id="edge1" class="edge">
<title>PagesQuery&#45;&gt;PageStoreModule</title>
<path fill="none" stroke="#000000" d="M382,-122.1061C382,-141.3391 382,-169 382,-169 382,-169 312.5244,-169 312.5244,-169"/>
<polygon fill="#000000" stroke="#000000" points="312.5245,-165.5001 302.5244,-169 312.5244,-172.5001 312.5245,-165.5001"/>
</g>
<!-- PagesService -->
<g id="node2" class="node">
<title>PagesService</title>
<ellipse fill="#fdb462" stroke="#000000" cx="244" cy="-104" rx="62.5354" ry="18"/>
<text text-anchor="middle" x="244" y="-99.8" font-family="Times,serif" font-size="14.00" fill="#000000">PagesService</text>
</g>
<!-- PagesService&#45;&gt;PageStoreModule -->
<g id="edge2" class="edge">
<title>PagesService&#45;&gt;PageStoreModule</title>
<path fill="none" stroke="#000000" d="M244,-122.1061C244,-122.1061 244,-140.991 244,-140.991"/>
<polygon fill="#000000" stroke="#000000" points="240.5001,-140.9909 244,-150.991 247.5001,-140.991 240.5001,-140.9909"/>
</g>
<!-- PagesStore -->
<g id="node3" class="node">
<title>PagesStore</title>
<ellipse fill="#fdb462" stroke="#000000" cx="110" cy="-104" rx="53.8885" ry="18"/>
<text text-anchor="middle" x="110" y="-99.8" font-family="Times,serif" font-size="14.00" fill="#000000">PagesStore</text>
</g>
<!-- PagesStore&#45;&gt;PageStoreModule -->
<g id="edge3" class="edge">
<title>PagesStore&#45;&gt;PageStoreModule</title>
<path fill="none" stroke="#000000" d="M110,-122.1061C110,-141.3391 110,-169 110,-169 110,-169 175.6155,-169 175.6155,-169"/>
<polygon fill="#000000" stroke="#000000" points="175.6155,-172.5001 185.6155,-169 175.6154,-165.5001 175.6155,-172.5001"/>
</g>
</g>
</svg>
