<?xml version="1.0" encoding="UTF-8" standalone="no"?>
<!DOCTYPE svg PUBLIC "-//W3C//DTD SVG 1.1//EN"
 "http://www.w3.org/Graphics/SVG/1.1/DTD/svg11.dtd">
<!-- Generated by graphviz version 2.40.1 (20161225.0304)
 -->
<!-- Title: dependencies Pages: 1 -->
<svg width="1186pt" height="284pt"
 viewBox="0.00 0.00 1186.00 284.00" xmlns="http://www.w3.org/2000/svg" xmlns:xlink="http://www.w3.org/1999/xlink">
<g id="graph0" class="graph" transform="scale(1 1) rotate(0) translate(4 280)">
<title>dependencies</title>
<polygon fill="#ffffff" stroke="transparent" points="-4,4 -4,-280 1182,-280 1182,4 -4,4"/>
<text text-anchor="start" x="568.0091" y="-42.4" font-family="sans-serif" font-weight="bold" font-size="14.00" fill="#000000">Legend</text>
<polygon fill="#ffffb3" stroke="transparent" points="355,-10 355,-30 375,-30 375,-10 355,-10"/>
<text text-anchor="start" x="378.629" y="-15.4" font-family="sans-serif" font-size="14.00" fill="#000000"> &#160;Declarations</text>
<polygon fill="#8dd3c7" stroke="transparent" points="468,-10 468,-30 488,-30 488,-10 468,-10"/>
<text text-anchor="start" x="491.7251" y="-15.4" font-family="sans-serif" font-size="14.00" fill="#000000"> &#160;Module</text>
<polygon fill="#80b1d3" stroke="transparent" points="554,-10 554,-30 574,-30 574,-10 554,-10"/>
<text text-anchor="start" x="577.7812" y="-15.4" font-family="sans-serif" font-size="14.00" fill="#000000"> &#160;Bootstrap</text>
<polygon fill="#fdb462" stroke="transparent" points="651,-10 651,-30 671,-30 671,-10 651,-10"/>
<text text-anchor="start" x="674.6732" y="-15.4" font-family="sans-serif" font-size="14.00" fill="#000000"> &#160;Providers</text>
<polygon fill="#fb8072" stroke="transparent" points="747,-10 747,-30 767,-30 767,-10 747,-10"/>
<text text-anchor="start" x="770.7258" y="-15.4" font-family="sans-serif" font-size="14.00" fill="#000000"> &#160;Exports</text>
<g id="clust1" class="cluster">
<title>cluster_NgxEditorJSModule</title>
<polygon fill="none" stroke="#000000" stroke-dasharray="1,5" points="8,-70 8,-268 1170,-268 1170,-70 8,-70"/>
</g>
<g id="clust2" class="cluster">
<title>cluster_NgxEditorJSModule_declarations</title>
<polygon fill="none" stroke="#000000" points="834,-78 834,-130 1162,-130 1162,-78 834,-78"/>
</g>
<g id="clust5" class="cluster">
<title>cluster_NgxEditorJSModule_imports</title>
<polygon fill="none" stroke="#000000" points="368,-78 368,-130 826,-130 826,-78 368,-78"/>
</g>
<g id="clust6" class="cluster">
<title>cluster_NgxEditorJSModule_exports</title>
<polygon fill="none" stroke="#000000" points="353,-208 353,-260 1021,-260 1021,-208 353,-208"/>
</g>
<g id="clust8" class="cluster">
<title>cluster_NgxEditorJSModule_providers</title>
<polygon fill="none" stroke="#000000" points="16,-78 16,-130 360,-130 360,-78 16,-78"/>
</g>
<!-- NgxEditorJSComponent -->
<g id="node1" class="node">
<title>NgxEditorJSComponent</title>
<polygon fill="#ffffb3" stroke="#000000" points="1153.661,-122 1000.339,-122 1000.339,-86 1153.661,-86 1153.661,-122"/>
<text text-anchor="middle" x="1077" y="-99.8" font-family="Times,serif" font-size="14.00" fill="#000000">NgxEditorJSComponent</text>
</g>
<!-- NgxEditorJSModule -->
<g id="node3" class="node">
<title>NgxEditorJSModule</title>
<polygon fill="#8dd3c7" stroke="#000000" points="670.8781,-187 667.8781,-191 646.8781,-191 643.8781,-187 539.1219,-187 539.1219,-151 670.8781,-151 670.8781,-187"/>
<text text-anchor="middle" x="605" y="-164.8" font-family="Times,serif" font-size="14.00" fill="#000000">NgxEditorJSModule</text>
</g>
<!-- NgxEditorJSComponent&#45;&gt;NgxEditorJSModule -->
<g id="edge1" class="edge">
<title>NgxEditorJSComponent&#45;&gt;NgxEditorJSModule</title>
<path fill="none" stroke="#000000" d="M1006.375,-122.1061C1006.375,-141.3391 1006.375,-169 1006.375,-169 1006.375,-169 681.2789,-169 681.2789,-169"/>
<polygon fill="#000000" stroke="#000000" points="681.279,-165.5001 671.2789,-169 681.2789,-172.5001 681.279,-165.5001"/>
</g>
<!-- NgxEditorJSDirective -->
<g id="node2" class="node">
<title>NgxEditorJSDirective</title>
<polygon fill="#ffffb3" stroke="#000000" points="982.4116,-122 841.5884,-122 841.5884,-86 982.4116,-86 982.4116,-122"/>
<text text-anchor="middle" x="912" y="-99.8" font-family="Times,serif" font-size="14.00" fill="#000000">NgxEditorJSDirective</text>
</g>
<!-- NgxEditorJSDirective&#45;&gt;NgxEditorJSModule -->
<g id="edge2" class="edge">
<title>NgxEditorJSDirective&#45;&gt;NgxEditorJSModule</title>
<path fill="none" stroke="#000000" d="M848.6071,-122.0225C848.6071,-139.3734 848.6071,-163 848.6071,-163 848.6071,-163 680.9236,-163 680.9236,-163"/>
<polygon fill="#000000" stroke="#000000" points="680.9236,-159.5001 670.9236,-163 680.9236,-166.5001 680.9236,-159.5001"/>
</g>
<!-- NgxEditorJSComponent  -->
<g id="node7" class="node">
<title>NgxEditorJSComponent </title>
<polygon fill="#fb8072" stroke="#000000" points="1012.6607,-252 855.3393,-252 855.3393,-216 1012.6607,-216 1012.6607,-252"/>
<text text-anchor="middle" x="934" y="-229.8" font-family="Times,serif" font-size="14.00" fill="#000000">NgxEditorJSComponent </text>
</g>
<!-- NgxEditorJSModule&#45;&gt;NgxEditorJSComponent  -->
<g id="edge6" class="edge">
<title>NgxEditorJSModule&#45;&gt;NgxEditorJSComponent </title>
<path fill="none" stroke="#000000" stroke-dasharray="5,2" d="M671.1681,-175C763.2372,-175 918.8126,-175 918.8126,-175 918.8126,-175 918.8126,-205.9775 918.8126,-205.9775"/>
<polygon fill="#000000" stroke="#000000" points="915.3127,-205.9774 918.8126,-215.9775 922.3127,-205.9775 915.3127,-205.9774"/>
</g>
<!-- NgxEditorJSDirective  -->
<g id="node8" class="node">
<title>NgxEditorJSDirective </title>
<polygon fill="#fb8072" stroke="#000000" points="836.911,-252 693.089,-252 693.089,-216 836.911,-216 836.911,-252"/>
<text text-anchor="middle" x="765" y="-229.8" font-family="Times,serif" font-size="14.00" fill="#000000">NgxEditorJSDirective </text>
</g>
<!-- NgxEditorJSModule&#45;&gt;NgxEditorJSDirective  -->
<g id="edge7" class="edge">
<title>NgxEditorJSModule&#45;&gt;NgxEditorJSDirective </title>
<path fill="none" stroke="#000000" stroke-dasharray="5,2" d="M671.0788,-181C711.5575,-181 755.6534,-181 755.6534,-181 755.6534,-181 755.6534,-205.7604 755.6534,-205.7604"/>
<polygon fill="#000000" stroke="#000000" points="752.1535,-205.7604 755.6534,-215.7604 759.1535,-205.7604 752.1535,-205.7604"/>
</g>
<!-- PluginHeaderModule  -->
<g id="node9" class="node">
<title>PluginHeaderModule </title>
<polygon fill="#fb8072" stroke="#000000" points="675.0246,-252 534.9754,-252 534.9754,-216 675.0246,-216 675.0246,-252"/>
<text text-anchor="middle" x="605" y="-229.8" font-family="Times,serif" font-size="14.00" fill="#000000">PluginHeaderModule </text>
</g>
<!-- NgxEditorJSModule&#45;&gt;PluginHeaderModule  -->
<g id="edge8" class="edge">
<title>NgxEditorJSModule&#45;&gt;PluginHeaderModule </title>
<path fill="none" stroke="#000000" stroke-dasharray="5,2" d="M605,-187.1061C605,-187.1061 605,-205.991 605,-205.991"/>
<polygon fill="#000000" stroke="#000000" points="601.5001,-205.9909 605,-215.991 608.5001,-205.991 601.5001,-205.9909"/>
</g>
<!-- PluginParagraphModule  -->
<g id="node10" class="node">
<title>PluginParagraphModule </title>
<polygon fill="#fb8072" stroke="#000000" points="517.3616,-252 360.6384,-252 360.6384,-216 517.3616,-216 517.3616,-252"/>
<text text-anchor="middle" x="439" y="-229.8" font-family="Times,serif" font-size="14.00" fill="#000000">PluginParagraphModule </text>
</g>
<!-- NgxEditorJSModule&#45;&gt;PluginParagraphModule  -->
<g id="edge9" class="edge">
<title>NgxEditorJSModule&#45;&gt;PluginParagraphModule </title>
<path fill="none" stroke="#000000" stroke-dasharray="5,2" d="M538.9543,-175C486.8041,-175 422.7731,-175 422.7731,-175 422.7731,-175 422.7731,-205.9775 422.7731,-205.9775"/>
<polygon fill="#000000" stroke="#000000" points="419.2732,-205.9774 422.7731,-215.9775 426.2732,-205.9775 419.2732,-205.9774"/>
</g>
<!-- NgxEditorJSModule&#45;&gt;PluginParagraphModule  -->
<g id="edge10" class="edge">
<title>NgxEditorJSModule&#45;&gt;PluginParagraphModule </title>
<path fill="none" stroke="#000000" stroke-dasharray="5,2" d="M539.0706,-181C504.7958,-181 469.9769,-181 469.9769,-181 469.9769,-181 469.9769,-205.7604 469.9769,-205.7604"/>
<polygon fill="#000000" stroke="#000000" points="466.477,-205.7604 469.9769,-215.7604 473.477,-205.7604 466.477,-205.7604"/>
</g>
<!-- PluginHeaderModule -->
<g id="node4" class="node">
<title>PluginHeaderModule</title>
<polygon fill="#8dd3c7" stroke="#000000" points="818.0254,-122 815.0254,-126 794.0254,-126 791.0254,-122 681.9746,-122 681.9746,-86 818.0254,-86 818.0254,-122"/>
<text text-anchor="middle" x="750" y="-99.8" font-family="Times,serif" font-size="14.00" fill="#000000">PluginHeaderModule</text>
</g>
<!-- PluginHeaderModule&#45;&gt;NgxEditorJSModule -->
<g id="edge3" class="edge">
<title>PluginHeaderModule&#45;&gt;NgxEditorJSModule</title>
<path fill="none" stroke="#000000" d="M687.3911,-122.2396C687.3911,-137.5706 687.3911,-157 687.3911,-157 687.3911,-157 681.1133,-157 681.1133,-157"/>
<polygon fill="#000000" stroke="#000000" points="681.1133,-153.5001 671.1133,-157 681.1132,-160.5001 681.1133,-153.5001"/>
</g>
<!-- PluginListModule -->
<g id="node5" class="node">
<title>PluginListModule</title>
<polygon fill="#8dd3c7" stroke="#000000" points="663.892,-122 660.892,-126 639.892,-126 636.892,-122 546.108,-122 546.108,-86 663.892,-86 663.892,-122"/>
<text text-anchor="middle" x="605" y="-99.8" font-family="Times,serif" font-size="14.00" fill="#000000">PluginListModule</text>
</g>
<!-- PluginListModule&#45;&gt;NgxEditorJSModule -->
<g id="edge4" class="edge">
<title>PluginListModule&#45;&gt;NgxEditorJSModule</title>
<path fill="none" stroke="#000000" d="M605,-122.1061C605,-122.1061 605,-140.991 605,-140.991"/>
<polygon fill="#000000" stroke="#000000" points="601.5001,-140.9909 605,-150.991 608.5001,-140.991 601.5001,-140.9909"/>
</g>
<!-- PluginParagraphModule -->
<g id="node6" class="node">
<title>PluginParagraphModule</title>
<polygon fill="#8dd3c7" stroke="#000000" points="528.3613,-122 525.3613,-126 504.3613,-126 501.3613,-122 375.6387,-122 375.6387,-86 528.3613,-86 528.3613,-122"/>
<text text-anchor="middle" x="452" y="-99.8" font-family="Times,serif" font-size="14.00" fill="#000000">PluginParagraphModule</text>
</g>
<!-- PluginParagraphModule&#45;&gt;NgxEditorJSModule -->
<g id="edge5" class="edge">
<title>PluginParagraphModule&#45;&gt;NgxEditorJSModule</title>
<path fill="none" stroke="#000000" d="M522.8056,-122.2396C522.8056,-137.5706 522.8056,-157 522.8056,-157 522.8056,-157 529.0446,-157 529.0446,-157"/>
<polygon fill="#000000" stroke="#000000" points="529.0446,-160.5001 539.0446,-157 529.0445,-153.5001 529.0446,-160.5001"/>
</g>
<!-- NgxEditorJSService -->
<g id="node11" class="node">
<title>NgxEditorJSService</title>
<ellipse fill="#fdb462" stroke="#000000" cx="262" cy="-104" rx="89.7653" ry="18"/>
<text text-anchor="middle" x="262" y="-99.8" font-family="Times,serif" font-size="14.00" fill="#000000">NgxEditorJSService</text>
</g>
<!-- NgxEditorJSService&#45;&gt;NgxEditorJSModule -->
<g id="edge11" class="edge">
<title>NgxEditorJSService&#45;&gt;NgxEditorJSModule</title>
<path fill="none" stroke="#000000" d="M262,-122.0225C262,-139.3734 262,-163 262,-163 262,-163 528.8661,-163 528.8661,-163"/>
<polygon fill="#000000" stroke="#000000" points="528.8662,-166.5001 538.8661,-163 528.8661,-159.5001 528.8662,-166.5001"/>
</g>
<!-- PluginService -->
<g id="node12" class="node">
<title>PluginService</title>
<ellipse fill="#fdb462" stroke="#000000" cx="89" cy="-104" rx="65.4266" ry="18"/>
<text text-anchor="middle" x="89" y="-99.8" font-family="Times,serif" font-size="14.00" fill="#000000">PluginService</text>
</g>
<!-- PluginService&#45;&gt;NgxEditorJSModule -->
<g id="edge12" class="edge">
<title>PluginService&#45;&gt;NgxEditorJSModule</title>
<path fill="none" stroke="#000000" d="M89,-122.1061C89,-141.3391 89,-169 89,-169 89,-169 528.8615,-169 528.8615,-169"/>
<polygon fill="#000000" stroke="#000000" points="528.8615,-172.5001 538.8615,-169 528.8614,-165.5001 528.8615,-172.5001"/>
</g>
</g>
</svg>
