<?xml version="1.0" encoding="UTF-8" standalone="no"?>
<!DOCTYPE svg PUBLIC "-//W3C//DTD SVG 1.1//EN"
 "http://www.w3.org/Graphics/SVG/1.1/DTD/svg11.dtd">
<!-- Generated by graphviz version 2.40.1 (20161225.0304)
 -->
<!-- Title: dependencies Pages: 1 -->
<svg width="1170pt" height="284pt"
 viewBox="0.00 0.00 1170.00 284.00" xmlns="http://www.w3.org/2000/svg" xmlns:xlink="http://www.w3.org/1999/xlink">
<g id="graph0" class="graph" transform="scale(1 1) rotate(0) translate(4 280)">
<title>dependencies</title>
<polygon fill="#ffffff" stroke="transparent" points="-4,4 -4,-280 1166,-280 1166,4 -4,4"/>
<text text-anchor="start" x="560.0091" y="-42.4" font-family="sans-serif" font-weight="bold" font-size="14.00" fill="#000000">Legend</text>
<polygon fill="#ffffb3" stroke="transparent" points="347,-10 347,-30 367,-30 367,-10 347,-10"/>
<text text-anchor="start" x="370.629" y="-15.4" font-family="sans-serif" font-size="14.00" fill="#000000"> &#160;Declarations</text>
<polygon fill="#8dd3c7" stroke="transparent" points="460,-10 460,-30 480,-30 480,-10 460,-10"/>
<text text-anchor="start" x="483.7251" y="-15.4" font-family="sans-serif" font-size="14.00" fill="#000000"> &#160;Module</text>
<polygon fill="#80b1d3" stroke="transparent" points="546,-10 546,-30 566,-30 566,-10 546,-10"/>
<text text-anchor="start" x="569.7812" y="-15.4" font-family="sans-serif" font-size="14.00" fill="#000000"> &#160;Bootstrap</text>
<polygon fill="#fdb462" stroke="transparent" points="643,-10 643,-30 663,-30 663,-10 643,-10"/>
<text text-anchor="start" x="666.6732" y="-15.4" font-family="sans-serif" font-size="14.00" fill="#000000"> &#160;Providers</text>
<polygon fill="#fb8072" stroke="transparent" points="739,-10 739,-30 759,-30 759,-10 739,-10"/>
<text text-anchor="start" x="762.7258" y="-15.4" font-family="sans-serif" font-size="14.00" fill="#000000"> &#160;Exports</text>
<g id="clust1" class="cluster">
<title>cluster_NgxEditorjsDemoModule</title>
<polygon fill="none" stroke="#000000" stroke-dasharray="1,5" points="8,-70 8,-268 1154,-268 1154,-70 8,-70"/>
</g>
<g id="clust2" class="cluster">
<title>cluster_NgxEditorjsDemoModule_declarations</title>
<polygon fill="none" stroke="#000000" points="726,-78 726,-130 1146,-130 1146,-78 726,-78"/>
</g>
<g id="clust5" class="cluster">
<title>cluster_NgxEditorjsDemoModule_imports</title>
<polygon fill="none" stroke="#000000" points="16,-78 16,-130 718,-130 718,-78 16,-78"/>
</g>
<g id="clust6" class="cluster">
<title>cluster_NgxEditorjsDemoModule_exports</title>
<polygon fill="none" stroke="#000000" points="358,-208 358,-260 680,-260 680,-208 358,-208"/>
</g>
<!-- NgxEditorJSDemoHomeComponent -->
<g id="node1" class="node">
<title>NgxEditorJSDemoHomeComponent</title>
<polygon fill="#ffffb3" stroke="#000000" points="1138.0842,-122 915.9158,-122 915.9158,-86 1138.0842,-86 1138.0842,-122"/>
<text text-anchor="middle" x="1027" y="-99.8" font-family="Times,serif" font-size="14.00" fill="#000000">NgxEditorJSDemoHomeComponent</text>
</g>
<!-- NgxEditorjsDemoModule -->
<g id="node3" class="node">
<title>NgxEditorjsDemoModule</title>
<polygon fill="#8dd3c7" stroke="#000000" points="588.1979,-187 585.1979,-191 564.1979,-191 561.1979,-187 425.8021,-187 425.8021,-151 588.1979,-151 588.1979,-187"/>
<text text-anchor="middle" x="507" y="-164.8" font-family="Times,serif" font-size="14.00" fill="#000000">NgxEditorjsDemoModule</text>
</g>
<!-- NgxEditorJSDemoHomeComponent&#45;&gt;NgxEditorjsDemoModule -->
<g id="edge1" class="edge">
<title>NgxEditorJSDemoHomeComponent&#45;&gt;NgxEditorjsDemoModule</title>
<path fill="none" stroke="#000000" d="M1027,-122.2843C1027,-143.3211 1027,-175 1027,-175 1027,-175 598.25,-175 598.25,-175"/>
<polygon fill="#000000" stroke="#000000" points="598.25,-171.5001 588.25,-175 598.25,-178.5001 598.25,-171.5001"/>
</g>
<!-- PageContainerComponent -->
<g id="node2" class="node">
<title>PageContainerComponent</title>
<polygon fill="#ffffb3" stroke="#000000" points="897.752,-122 734.248,-122 734.248,-86 897.752,-86 897.752,-122"/>
<text text-anchor="middle" x="816" y="-99.8" font-family="Times,serif" font-size="14.00" fill="#000000">PageContainerComponent</text>
</g>
<!-- PageContainerComponent&#45;&gt;NgxEditorjsDemoModule -->
<g id="edge2" class="edge">
<title>PageContainerComponent&#45;&gt;NgxEditorjsDemoModule</title>
<path fill="none" stroke="#000000" d="M816,-122.0225C816,-139.3734 816,-163 816,-163 816,-163 598.1861,-163 598.1861,-163"/>
<polygon fill="#000000" stroke="#000000" points="598.1861,-159.5001 588.1861,-163 598.1861,-166.5001 598.1861,-159.5001"/>
</g>
<!-- PageContainerComponent  -->
<g id="node8" class="node">
<title>PageContainerComponent </title>
<polygon fill="#fb8072" stroke="#000000" points="671.752,-252 504.248,-252 504.248,-216 671.752,-216 671.752,-252"/>
<text text-anchor="middle" x="588" y="-229.8" font-family="Times,serif" font-size="14.00" fill="#000000">PageContainerComponent </text>
</g>
<!-- NgxEditorjsDemoModule&#45;&gt;PageContainerComponent  -->
<g id="edge7" class="edge">
<title>NgxEditorjsDemoModule&#45;&gt;PageContainerComponent </title>
<path fill="none" stroke="#000000" stroke-dasharray="5,2" d="M546.2365,-187.1061C546.2365,-187.1061 546.2365,-205.991 546.2365,-205.991"/>
<polygon fill="#000000" stroke="#000000" points="542.7366,-205.9909 546.2365,-215.991 549.7366,-205.991 542.7366,-205.9909"/>
</g>
<!-- PageStoreModule  -->
<g id="node9" class="node">
<title>PageStoreModule </title>
<polygon fill="#fb8072" stroke="#000000" points="485.8102,-252 366.1898,-252 366.1898,-216 485.8102,-216 485.8102,-252"/>
<text text-anchor="middle" x="426" y="-229.8" font-family="Times,serif" font-size="14.00" fill="#000000">PageStoreModule </text>
</g>
<!-- NgxEditorjsDemoModule&#45;&gt;PageStoreModule  -->
<g id="edge8" class="edge">
<title>NgxEditorjsDemoModule&#45;&gt;PageStoreModule </title>
<path fill="none" stroke="#000000" stroke-dasharray="5,2" d="M455.9031,-187.1061C455.9031,-187.1061 455.9031,-205.991 455.9031,-205.991"/>
<polygon fill="#000000" stroke="#000000" points="452.4031,-205.9909 455.9031,-215.991 459.4031,-205.991 452.4031,-205.9909"/>
</g>
<!-- NgxEditorJSDemoMaterialModule -->
<g id="node4" class="node">
<title>NgxEditorJSDemoMaterialModule</title>
<polygon fill="#8dd3c7" stroke="#000000" points="709.5112,-122 706.5112,-126 685.5112,-126 682.5112,-122 496.4888,-122 496.4888,-86 709.5112,-86 709.5112,-122"/>
<text text-anchor="middle" x="603" y="-99.8" font-family="Times,serif" font-size="14.00" fill="#000000">NgxEditorJSDemoMaterialModule</text>
</g>
<!-- NgxEditorJSDemoMaterialModule&#45;&gt;NgxEditorjsDemoModule -->
<g id="edge3" class="edge">
<title>NgxEditorJSDemoMaterialModule&#45;&gt;NgxEditorjsDemoModule</title>
<path fill="none" stroke="#000000" d="M542.1718,-122.1061C542.1718,-122.1061 542.1718,-140.991 542.1718,-140.991"/>
<polygon fill="#000000" stroke="#000000" points="538.6719,-140.9909 542.1718,-150.991 545.6719,-140.991 538.6719,-140.9909"/>
</g>
<!-- NgxEditorJSModule -->
<g id="node5" class="node">
<title>NgxEditorJSModule</title>
<polygon fill="#8dd3c7" stroke="#000000" points="477.8781,-122 474.8781,-126 453.8781,-126 450.8781,-122 346.1219,-122 346.1219,-86 477.8781,-86 477.8781,-122"/>
<text text-anchor="middle" x="412" y="-99.8" font-family="Times,serif" font-size="14.00" fill="#000000">NgxEditorJSModule</text>
</g>
<!-- NgxEditorJSModule&#45;&gt;NgxEditorjsDemoModule -->
<g id="edge4" class="edge">
<title>NgxEditorJSModule&#45;&gt;NgxEditorjsDemoModule</title>
<path fill="none" stroke="#000000" d="M451.9201,-122.1061C451.9201,-122.1061 451.9201,-140.991 451.9201,-140.991"/>
<polygon fill="#000000" stroke="#000000" points="448.4201,-140.9909 451.9201,-150.991 455.4201,-140.991 448.4201,-140.9909"/>
</g>
<!-- NgxEditorjsPluginsModule -->
<g id="node6" class="node">
<title>NgxEditorjsPluginsModule</title>
<polygon fill="#8dd3c7" stroke="#000000" points="327.9944,-122 324.9944,-126 303.9944,-126 300.9944,-122 158.0056,-122 158.0056,-86 327.9944,-86 327.9944,-122"/>
<text text-anchor="middle" x="243" y="-99.8" font-family="Times,serif" font-size="14.00" fill="#000000">NgxEditorjsPluginsModule</text>
</g>
<!-- NgxEditorjsPluginsModule&#45;&gt;NgxEditorjsDemoModule -->
<g id="edge5" class="edge">
<title>NgxEditorjsPluginsModule&#45;&gt;NgxEditorjsDemoModule</title>
<path fill="none" stroke="#000000" d="M243,-122.0225C243,-139.3734 243,-163 243,-163 243,-163 415.6371,-163 415.6371,-163"/>
<polygon fill="#000000" stroke="#000000" points="415.6372,-166.5001 425.6371,-163 415.6371,-159.5001 415.6372,-166.5001"/>
</g>
<!-- PageStoreModule -->
<g id="node7" class="node">
<title>PageStoreModule</title>
<polygon fill="#8dd3c7" stroke="#000000" points="140.3104,-122 137.3104,-126 116.3104,-126 113.3104,-122 23.6896,-122 23.6896,-86 140.3104,-86 140.3104,-122"/>
<text text-anchor="middle" x="82" y="-99.8" font-family="Times,serif" font-size="14.00" fill="#000000">PageStoreModule</text>
</g>
<!-- PageStoreModule&#45;&gt;NgxEditorjsDemoModule -->
<g id="edge6" class="edge">
<title>PageStoreModule&#45;&gt;NgxEditorjsDemoModule</title>
<path fill="none" stroke="#000000" d="M82,-122.2843C82,-143.3211 82,-175 82,-175 82,-175 415.8096,-175 415.8096,-175"/>
<polygon fill="#000000" stroke="#000000" points="415.8097,-178.5001 425.8096,-175 415.8096,-171.5001 415.8097,-178.5001"/>
</g>
</g>
</svg>
