<?xml version="1.0" encoding="UTF-8" standalone="no"?>
<!DOCTYPE svg PUBLIC "-//W3C//DTD SVG 1.1//EN"
 "http://www.w3.org/Graphics/SVG/1.1/DTD/svg11.dtd">
<!-- Generated by graphviz version 2.40.1 (20161225.0304)
 -->
<!-- Title: dependencies Pages: 1 -->
<svg width="1912pt" height="284pt"
 viewBox="0.00 0.00 1912.00 284.00" xmlns="http://www.w3.org/2000/svg" xmlns:xlink="http://www.w3.org/1999/xlink">
<g id="graph0" class="graph" transform="scale(1 1) rotate(0) translate(4 280)">
<title>dependencies</title>
<polygon fill="#ffffff" stroke="transparent" points="-4,4 -4,-280 1908,-280 1908,4 -4,4"/>
<text text-anchor="start" x="931.0091" y="-42.4" font-family="sans-serif" font-weight="bold" font-size="14.00" fill="#000000">Legend</text>
<polygon fill="#ffffb3" stroke="transparent" points="718,-10 718,-30 738,-30 738,-10 718,-10"/>
<text text-anchor="start" x="741.629" y="-15.4" font-family="sans-serif" font-size="14.00" fill="#000000"> &#160;Declarations</text>
<polygon fill="#8dd3c7" stroke="transparent" points="831,-10 831,-30 851,-30 851,-10 831,-10"/>
<text text-anchor="start" x="854.7251" y="-15.4" font-family="sans-serif" font-size="14.00" fill="#000000"> &#160;Module</text>
<polygon fill="#80b1d3" stroke="transparent" points="917,-10 917,-30 937,-30 937,-10 917,-10"/>
<text text-anchor="start" x="940.7812" y="-15.4" font-family="sans-serif" font-size="14.00" fill="#000000"> &#160;Bootstrap</text>
<polygon fill="#fdb462" stroke="transparent" points="1014,-10 1014,-30 1034,-30 1034,-10 1014,-10"/>
<text text-anchor="start" x="1037.6732" y="-15.4" font-family="sans-serif" font-size="14.00" fill="#000000"> &#160;Providers</text>
<polygon fill="#fb8072" stroke="transparent" points="1110,-10 1110,-30 1130,-30 1130,-10 1110,-10"/>
<text text-anchor="start" x="1133.7258" y="-15.4" font-family="sans-serif" font-size="14.00" fill="#000000"> &#160;Exports</text>
<g id="clust1" class="cluster">
<title>cluster_NgxEditorjsDemoModule</title>
<polygon fill="none" stroke="#000000" stroke-dasharray="1,5" points="8,-70 8,-268 1896,-268 1896,-70 8,-70"/>
</g>
<g id="clust2" class="cluster">
<title>cluster_NgxEditorjsDemoModule_declarations</title>
<polygon fill="none" stroke="#000000" points="1708,-78 1708,-130 1888,-130 1888,-78 1708,-78"/>
</g>
<g id="clust4" class="cluster">
<title>cluster_NgxEditorjsDemoModule_imports</title>
<polygon fill="none" stroke="#000000" points="16,-78 16,-130 1700,-130 1700,-78 16,-78"/>
</g>
<g id="clust5" class="cluster">
<title>cluster_NgxEditorjsDemoModule_exports</title>
<polygon fill="none" stroke="#000000" points="809,-208 809,-260 1131,-260 1131,-208 809,-208"/>
</g>
<!-- PageContainerComponent -->
<g id="node1" class="node">
<title>PageContainerComponent</title>
<polygon fill="#ffffb3" stroke="#000000" points="1879.752,-122 1716.248,-122 1716.248,-86 1879.752,-86 1879.752,-122"/>
<text text-anchor="middle" x="1798" y="-99.8" font-family="Times,serif" font-size="14.00" fill="#000000">PageContainerComponent</text>
</g>
<!-- NgxEditorjsDemoModule -->
<g id="node2" class="node">
<title>NgxEditorjsDemoModule</title>
<polygon fill="#8dd3c7" stroke="#000000" points="1039.1979,-187 1036.1979,-191 1015.1979,-191 1012.1979,-187 876.8021,-187 876.8021,-151 1039.1979,-151 1039.1979,-187"/>
<text text-anchor="middle" x="958" y="-164.8" font-family="Times,serif" font-size="14.00" fill="#000000">NgxEditorjsDemoModule</text>
</g>
<!-- PageContainerComponent&#45;&gt;NgxEditorjsDemoModule -->
<g id="edge1" class="edge">
<title>PageContainerComponent&#45;&gt;NgxEditorjsDemoModule</title>
<path fill="none" stroke="#000000" d="M1798,-122.2479C1798,-145.0179 1798,-181 1798,-181 1798,-181 1049.306,-181 1049.306,-181"/>
<polygon fill="#000000" stroke="#000000" points="1049.306,-177.5001 1039.306,-181 1049.3059,-184.5001 1049.306,-177.5001"/>
</g>
<!-- PageContainerComponent  -->
<g id="node14" class="node">
<title>PageContainerComponent </title>
<polygon fill="#fb8072" stroke="#000000" points="1122.752,-252 955.248,-252 955.248,-216 1122.752,-216 1122.752,-252"/>
<text text-anchor="middle" x="1039" y="-229.8" font-family="Times,serif" font-size="14.00" fill="#000000">PageContainerComponent </text>
</g>
<!-- NgxEditorjsDemoModule&#45;&gt;PageContainerComponent  -->
<g id="edge13" class="edge">
<title>NgxEditorjsDemoModule&#45;&gt;PageContainerComponent </title>
<path fill="none" stroke="#000000" stroke-dasharray="5,2" d="M997.2365,-187.1061C997.2365,-187.1061 997.2365,-205.991 997.2365,-205.991"/>
<polygon fill="#000000" stroke="#000000" points="993.7366,-205.9909 997.2365,-215.991 1000.7366,-205.991 993.7366,-205.9909"/>
</g>
<!-- PageStoreModule  -->
<g id="node15" class="node">
<title>PageStoreModule </title>
<polygon fill="#fb8072" stroke="#000000" points="936.8102,-252 817.1898,-252 817.1898,-216 936.8102,-216 936.8102,-252"/>
<text text-anchor="middle" x="877" y="-229.8" font-family="Times,serif" font-size="14.00" fill="#000000">PageStoreModule </text>
</g>
<!-- NgxEditorjsDemoModule&#45;&gt;PageStoreModule  -->
<g id="edge14" class="edge">
<title>NgxEditorjsDemoModule&#45;&gt;PageStoreModule </title>
<path fill="none" stroke="#000000" stroke-dasharray="5,2" d="M906.9031,-187.1061C906.9031,-187.1061 906.9031,-205.991 906.9031,-205.991"/>
<polygon fill="#000000" stroke="#000000" points="903.4031,-205.9909 906.9031,-215.991 910.4031,-205.991 903.4031,-205.9909"/>
</g>
<!-- MaterialModule -->
<g id="node3" class="node">
<title>MaterialModule</title>
<polygon fill="#8dd3c7" stroke="#000000" points="1692.4706,-122 1689.4706,-126 1668.4706,-126 1665.4706,-122 1585.5294,-122 1585.5294,-86 1692.4706,-86 1692.4706,-122"/>
<text text-anchor="middle" x="1639" y="-99.8" font-family="Times,serif" font-size="14.00" fill="#000000">MaterialModule</text>
</g>
<!-- MaterialModule&#45;&gt;NgxEditorjsDemoModule -->
<g id="edge2" class="edge">
<title>MaterialModule&#45;&gt;NgxEditorjsDemoModule</title>
<path fill="none" stroke="#000000" d="M1639,-122.2843C1639,-143.3211 1639,-175 1639,-175 1639,-175 1049.1307,-175 1049.1307,-175"/>
<polygon fill="#000000" stroke="#000000" points="1049.1307,-171.5001 1039.1307,-175 1049.1307,-178.5001 1049.1307,-171.5001"/>
</g>
<!-- NgxEditorJSModule -->
<g id="node4" class="node">
<title>NgxEditorJSModule</title>
<polygon fill="#8dd3c7" stroke="#000000" points="1567.8781,-122 1564.8781,-126 1543.8781,-126 1540.8781,-122 1436.1219,-122 1436.1219,-86 1567.8781,-86 1567.8781,-122"/>
<text text-anchor="middle" x="1502" y="-99.8" font-family="Times,serif" font-size="14.00" fill="#000000">NgxEditorJSModule</text>
</g>
<!-- NgxEditorJSModule&#45;&gt;NgxEditorjsDemoModule -->
<g id="edge3" class="edge">
<title>NgxEditorJSModule&#45;&gt;NgxEditorjsDemoModule</title>
<path fill="none" stroke="#000000" d="M1502,-122.1061C1502,-141.3391 1502,-169 1502,-169 1502,-169 1049.1484,-169 1049.1484,-169"/>
<polygon fill="#000000" stroke="#000000" points="1049.1484,-165.5001 1039.1484,-169 1049.1484,-172.5001 1049.1484,-165.5001"/>
</g>
<!-- NgxTinynodesCoreModule -->
<g id="node5" class="node">
<title>NgxTinynodesCoreModule</title>
<polygon fill="#8dd3c7" stroke="#000000" points="1417.9706,-122 1414.9706,-126 1393.9706,-126 1390.9706,-122 1248.0294,-122 1248.0294,-86 1417.9706,-86 1417.9706,-122"/>
<text text-anchor="middle" x="1333" y="-99.8" font-family="Times,serif" font-size="14.00" fill="#000000">NgxTinynodesCoreModule</text>
</g>
<!-- NgxTinynodesCoreModule&#45;&gt;NgxEditorjsDemoModule -->
<g id="edge4" class="edge">
<title>NgxTinynodesCoreModule&#45;&gt;NgxEditorjsDemoModule</title>
<path fill="none" stroke="#000000" d="M1333,-122.0225C1333,-139.3734 1333,-163 1333,-163 1333,-163 1049.3694,-163 1049.3694,-163"/>
<polygon fill="#000000" stroke="#000000" points="1049.3694,-159.5001 1039.3694,-163 1049.3694,-166.5001 1049.3694,-159.5001"/>
</g>
<!-- PageStoreModule -->
<g id="node6" class="node">
<title>PageStoreModule</title>
<polygon fill="#8dd3c7" stroke="#000000" points="1230.3104,-122 1227.3104,-126 1206.3104,-126 1203.3104,-122 1113.6896,-122 1113.6896,-86 1230.3104,-86 1230.3104,-122"/>
<text text-anchor="middle" x="1172" y="-99.8" font-family="Times,serif" font-size="14.00" fill="#000000">PageStoreModule</text>
</g>
<!-- PageStoreModule&#45;&gt;NgxEditorjsDemoModule -->
<g id="edge5" class="edge">
<title>PageStoreModule&#45;&gt;NgxEditorjsDemoModule</title>
<path fill="none" stroke="#000000" d="M1118.2355,-122.2396C1118.2355,-137.5706 1118.2355,-157 1118.2355,-157 1118.2355,-157 1049.526,-157 1049.526,-157"/>
<polygon fill="#000000" stroke="#000000" points="1049.526,-153.5001 1039.526,-157 1049.5259,-160.5001 1049.526,-153.5001"/>
</g>
<!-- PluginCodeModule -->
<g id="node7" class="node">
<title>PluginCodeModule</title>
<polygon fill="#8dd3c7" stroke="#000000" points="1095.6652,-122 1092.6652,-126 1071.6652,-126 1068.6652,-122 970.3348,-122 970.3348,-86 1095.6652,-86 1095.6652,-122"/>
<text text-anchor="middle" x="1033" y="-99.8" font-family="Times,serif" font-size="14.00" fill="#000000">PluginCodeModule</text>
</g>
<!-- PluginCodeModule&#45;&gt;NgxEditorjsDemoModule -->
<g id="edge6" class="edge">
<title>PluginCodeModule&#45;&gt;NgxEditorjsDemoModule</title>
<path fill="none" stroke="#000000" d="M1004.6333,-122.1061C1004.6333,-122.1061 1004.6333,-140.991 1004.6333,-140.991"/>
<polygon fill="#000000" stroke="#000000" points="1001.1333,-140.9909 1004.6333,-150.991 1008.1333,-140.991 1001.1333,-140.9909"/>
</g>
<!-- PluginHeaderModule -->
<g id="node8" class="node">
<title>PluginHeaderModule</title>
<polygon fill="#8dd3c7" stroke="#000000" points="952.0254,-122 949.0254,-126 928.0254,-126 925.0254,-122 815.9746,-122 815.9746,-86 952.0254,-86 952.0254,-122"/>
<text text-anchor="middle" x="884" y="-99.8" font-family="Times,serif" font-size="14.00" fill="#000000">PluginHeaderModule</text>
</g>
<!-- PluginHeaderModule&#45;&gt;NgxEditorjsDemoModule -->
<g id="edge7" class="edge">
<title>PluginHeaderModule&#45;&gt;NgxEditorjsDemoModule</title>
<path fill="none" stroke="#000000" d="M914.5817,-122.1061C914.5817,-122.1061 914.5817,-140.991 914.5817,-140.991"/>
<polygon fill="#000000" stroke="#000000" points="911.0818,-140.9909 914.5817,-150.991 918.0818,-140.991 911.0818,-140.9909"/>
</g>
<!-- PluginLinkModule -->
<g id="node9" class="node">
<title>PluginLinkModule</title>
<polygon fill="#8dd3c7" stroke="#000000" points="797.0576,-122 794.0576,-126 773.0576,-126 770.0576,-122 674.9424,-122 674.9424,-86 797.0576,-86 797.0576,-122"/>
<text text-anchor="middle" x="736" y="-99.8" font-family="Times,serif" font-size="14.00" fill="#000000">PluginLinkModule</text>
</g>
<!-- PluginLinkModule&#45;&gt;NgxEditorjsDemoModule -->
<g id="edge8" class="edge">
<title>PluginLinkModule&#45;&gt;NgxEditorjsDemoModule</title>
<path fill="none" stroke="#000000" d="M736,-122.2396C736,-137.5706 736,-157 736,-157 736,-157 866.596,-157 866.596,-157"/>
<polygon fill="#000000" stroke="#000000" points="866.596,-160.5001 876.596,-157 866.5959,-153.5001 866.596,-160.5001"/>
</g>
<!-- PluginListModule -->
<g id="node10" class="node">
<title>PluginListModule</title>
<polygon fill="#8dd3c7" stroke="#000000" points="656.892,-122 653.892,-126 632.892,-126 629.892,-122 539.108,-122 539.108,-86 656.892,-86 656.892,-122"/>
<text text-anchor="middle" x="598" y="-99.8" font-family="Times,serif" font-size="14.00" fill="#000000">PluginListModule</text>
</g>
<!-- PluginListModule&#45;&gt;NgxEditorjsDemoModule -->
<g id="edge9" class="edge">
<title>PluginListModule&#45;&gt;NgxEditorjsDemoModule</title>
<path fill="none" stroke="#000000" d="M598,-122.0225C598,-139.3734 598,-163 598,-163 598,-163 866.7601,-163 866.7601,-163"/>
<polygon fill="#000000" stroke="#000000" points="866.7601,-166.5001 876.7601,-163 866.7601,-159.5001 866.7601,-166.5001"/>
</g>
<!-- PluginMarkerModule -->
<g id="node11" class="node">
<title>PluginMarkerModule</title>
<polygon fill="#8dd3c7" stroke="#000000" points="520.8089,-122 517.8089,-126 496.8089,-126 493.8089,-122 383.1911,-122 383.1911,-86 520.8089,-86 520.8089,-122"/>
<text text-anchor="middle" x="452" y="-99.8" font-family="Times,serif" font-size="14.00" fill="#000000">PluginMarkerModule</text>
</g>
<!-- PluginMarkerModule&#45;&gt;NgxEditorjsDemoModule -->
<g id="edge10" class="edge">
<title>PluginMarkerModule&#45;&gt;NgxEditorjsDemoModule</title>
<path fill="none" stroke="#000000" d="M452,-122.1061C452,-141.3391 452,-169 452,-169 452,-169 866.7023,-169 866.7023,-169"/>
<polygon fill="#000000" stroke="#000000" points="866.7024,-172.5001 876.7023,-169 866.7023,-165.5001 866.7024,-172.5001"/>
</g>
<!-- PluginParagraphModule -->
<g id="node12" class="node">
<title>PluginParagraphModule</title>
<polygon fill="#8dd3c7" stroke="#000000" points="365.3613,-122 362.3613,-126 341.3613,-126 338.3613,-122 212.6387,-122 212.6387,-86 365.3613,-86 365.3613,-122"/>
<text text-anchor="middle" x="289" y="-99.8" font-family="Times,serif" font-size="14.00" fill="#000000">PluginParagraphModule</text>
</g>
<!-- PluginParagraphModule&#45;&gt;NgxEditorjsDemoModule -->
<g id="edge11" class="edge">
<title>PluginParagraphModule&#45;&gt;NgxEditorjsDemoModule</title>
<path fill="none" stroke="#000000" d="M289,-122.2843C289,-143.3211 289,-175 289,-175 289,-175 866.6363,-175 866.6363,-175"/>
<polygon fill="#000000" stroke="#000000" points="866.6363,-178.5001 876.6363,-175 866.6363,-171.5001 866.6363,-178.5001"/>
</g>
<!-- PluginSimpleImageModule -->
<g id="node13" class="node">
<title>PluginSimpleImageModule</title>
<polygon fill="#8dd3c7" stroke="#000000" points="194.2632,-122 191.2632,-126 170.2632,-126 167.2632,-122 23.7368,-122 23.7368,-86 194.2632,-86 194.2632,-122"/>
<text text-anchor="middle" x="109" y="-99.8" font-family="Times,serif" font-size="14.00" fill="#000000">PluginSimpleImageModule</text>
</g>
<!-- PluginSimpleImageModule&#45;&gt;NgxEditorjsDemoModule -->
<g id="edge12" class="edge">
<title>PluginSimpleImageModule&#45;&gt;NgxEditorjsDemoModule</title>
<path fill="none" stroke="#000000" d="M109,-122.2479C109,-145.0179 109,-181 109,-181 109,-181 866.5943,-181 866.5943,-181"/>
<polygon fill="#000000" stroke="#000000" points="866.5943,-184.5001 876.5943,-181 866.5943,-177.5001 866.5943,-184.5001"/>
</g>
</g>
</svg>
