<?xml version="1.0" encoding="UTF-8" standalone="no"?>
<!DOCTYPE svg PUBLIC "-//W3C//DTD SVG 1.1//EN"
 "http://www.w3.org/Graphics/SVG/1.1/DTD/svg11.dtd">
<!-- Generated by graphviz version 2.40.1 (20161225.0304)
 -->
<!-- Title: dependencies Pages: 1 -->
<svg width="2564pt" height="284pt"
 viewBox="0.00 0.00 2564.00 284.00" xmlns="http://www.w3.org/2000/svg" xmlns:xlink="http://www.w3.org/1999/xlink">
<g id="graph0" class="graph" transform="scale(1 1) rotate(0) translate(4 280)">
<title>dependencies</title>
<polygon fill="#ffffff" stroke="transparent" points="-4,4 -4,-280 2560,-280 2560,4 -4,4"/>
<text text-anchor="start" x="1257.0091" y="-42.4" font-family="sans-serif" font-weight="bold" font-size="14.00" fill="#000000">Legend</text>
<polygon fill="#ffffb3" stroke="transparent" points="1044,-10 1044,-30 1064,-30 1064,-10 1044,-10"/>
<text text-anchor="start" x="1067.629" y="-15.4" font-family="sans-serif" font-size="14.00" fill="#000000"> &#160;Declarations</text>
<polygon fill="#8dd3c7" stroke="transparent" points="1157,-10 1157,-30 1177,-30 1177,-10 1157,-10"/>
<text text-anchor="start" x="1180.7251" y="-15.4" font-family="sans-serif" font-size="14.00" fill="#000000"> &#160;Module</text>
<polygon fill="#80b1d3" stroke="transparent" points="1243,-10 1243,-30 1263,-30 1263,-10 1243,-10"/>
<text text-anchor="start" x="1266.7812" y="-15.4" font-family="sans-serif" font-size="14.00" fill="#000000"> &#160;Bootstrap</text>
<polygon fill="#fdb462" stroke="transparent" points="1340,-10 1340,-30 1360,-30 1360,-10 1340,-10"/>
<text text-anchor="start" x="1363.6732" y="-15.4" font-family="sans-serif" font-size="14.00" fill="#000000"> &#160;Providers</text>
<polygon fill="#fb8072" stroke="transparent" points="1436,-10 1436,-30 1456,-30 1456,-10 1436,-10"/>
<text text-anchor="start" x="1459.7258" y="-15.4" font-family="sans-serif" font-size="14.00" fill="#000000"> &#160;Exports</text>
<g id="clust1" class="cluster">
<title>cluster_NgxEditorjsDemoModule</title>
<polygon fill="none" stroke="#000000" stroke-dasharray="1,5" points="8,-70 8,-268 2548,-268 2548,-70 8,-70"/>
</g>
<g id="clust2" class="cluster">
<title>cluster_NgxEditorjsDemoModule_declarations</title>
<polygon fill="none" stroke="#000000" points="1708,-78 1708,-130 2540,-130 2540,-78 1708,-78"/>
</g>
<g id="clust7" class="cluster">
<title>cluster_NgxEditorjsDemoModule_imports</title>
<polygon fill="none" stroke="#000000" points="16,-78 16,-130 1700,-130 1700,-78 16,-78"/>
</g>
<g id="clust8" class="cluster">
<title>cluster_NgxEditorjsDemoModule_exports</title>
<polygon fill="none" stroke="#000000" points="942,-208 942,-260 1452,-260 1452,-208 942,-208"/>
</g>
<!-- FormContainerComponent -->
<g id="node1" class="node">
<title>FormContainerComponent</title>
<polygon fill="#ffffb3" stroke="#000000" points="2532.3738,-122 2365.6262,-122 2365.6262,-86 2532.3738,-86 2532.3738,-122"/>
<text text-anchor="middle" x="2449" y="-99.8" font-family="Times,serif" font-size="14.00" fill="#000000">FormContainerComponent</text>
</g>
<!-- NgxEditorjsDemoModule -->
<g id="node5" class="node">
<title>NgxEditorjsDemoModule</title>
<polygon fill="#8dd3c7" stroke="#000000" points="1253.1979,-187 1250.1979,-191 1229.1979,-191 1226.1979,-187 1090.8021,-187 1090.8021,-151 1253.1979,-151 1253.1979,-187"/>
<text text-anchor="middle" x="1172" y="-164.8" font-family="Times,serif" font-size="14.00" fill="#000000">NgxEditorjsDemoModule</text>
</g>
<!-- FormContainerComponent&#45;&gt;NgxEditorjsDemoModule -->
<g id="edge1" class="edge">
<title>FormContainerComponent&#45;&gt;NgxEditorjsDemoModule</title>
<path fill="none" stroke="#000000" d="M2449,-122.2921C2449,-144.2057 2449,-178 2449,-178 2449,-178 1263.3371,-178 1263.3371,-178"/>
<polygon fill="#000000" stroke="#000000" points="1263.3372,-174.5001 1253.3371,-178 1263.3371,-181.5001 1263.3372,-174.5001"/>
</g>
<!-- NgxEditorJSDemoHomeComponent -->
<g id="node2" class="node">
<title>NgxEditorJSDemoHomeComponent</title>
<polygon fill="#ffffb3" stroke="#000000" points="2348.0842,-122 2125.9158,-122 2125.9158,-86 2348.0842,-86 2348.0842,-122"/>
<text text-anchor="middle" x="2237" y="-99.8" font-family="Times,serif" font-size="14.00" fill="#000000">NgxEditorJSDemoHomeComponent</text>
</g>
<!-- NgxEditorJSDemoHomeComponent&#45;&gt;NgxEditorjsDemoModule -->
<g id="edge2" class="edge">
<title>NgxEditorJSDemoHomeComponent&#45;&gt;NgxEditorjsDemoModule</title>
<path fill="none" stroke="#000000" d="M2237,-122.0267C2237,-142.7672 2237,-174 2237,-174 2237,-174 1263.3608,-174 1263.3608,-174"/>
<polygon fill="#000000" stroke="#000000" points="1263.3608,-170.5001 1253.3608,-174 1263.3608,-177.5001 1263.3608,-170.5001"/>
</g>
<!-- NgxEditorJSDemoTagComponent -->
<g id="node3" class="node">
<title>NgxEditorJSDemoTagComponent</title>
<polygon fill="#ffffb3" stroke="#000000" points="2107.6399,-122 1898.3601,-122 1898.3601,-86 2107.6399,-86 2107.6399,-122"/>
<text text-anchor="middle" x="2003" y="-99.8" font-family="Times,serif" font-size="14.00" fill="#000000">NgxEditorJSDemoTagComponent</text>
</g>
<!-- NgxEditorJSDemoTagComponent&#45;&gt;NgxEditorjsDemoModule -->
<g id="edge3" class="edge">
<title>NgxEditorJSDemoTagComponent&#45;&gt;NgxEditorjsDemoModule</title>
<path fill="none" stroke="#000000" d="M2003,-122.1061C2003,-141.3391 2003,-169 2003,-169 2003,-169 1263.1928,-169 1263.1928,-169"/>
<polygon fill="#000000" stroke="#000000" points="1263.1929,-165.5001 1253.1928,-169 1263.1928,-172.5001 1263.1929,-165.5001"/>
</g>
<!-- PageContainerComponent -->
<g id="node4" class="node">
<title>PageContainerComponent</title>
<polygon fill="#ffffb3" stroke="#000000" points="1879.752,-122 1716.248,-122 1716.248,-86 1879.752,-86 1879.752,-122"/>
<text text-anchor="middle" x="1798" y="-99.8" font-family="Times,serif" font-size="14.00" fill="#000000">PageContainerComponent</text>
</g>
<!-- PageContainerComponent&#45;&gt;NgxEditorjsDemoModule -->
<g id="edge4" class="edge">
<title>PageContainerComponent&#45;&gt;NgxEditorjsDemoModule</title>
<path fill="none" stroke="#000000" d="M1798,-122.302C1798,-140.2699 1798,-165 1798,-165 1798,-165 1263.1968,-165 1263.1968,-165"/>
<polygon fill="#000000" stroke="#000000" points="1263.1968,-161.5001 1253.1968,-165 1263.1968,-168.5001 1263.1968,-161.5001"/>
</g>
<!-- FormContainerComponent  -->
<g id="node17" class="node">
<title>FormContainerComponent </title>
<polygon fill="#fb8072" stroke="#000000" points="1444.3742,-252 1273.6258,-252 1273.6258,-216 1444.3742,-216 1444.3742,-252"/>
<text text-anchor="middle" x="1359" y="-229.8" font-family="Times,serif" font-size="14.00" fill="#000000">FormContainerComponent </text>
</g>
<!-- NgxEditorjsDemoModule&#45;&gt;FormContainerComponent  -->
<g id="edge16" class="edge">
<title>NgxEditorjsDemoModule&#45;&gt;FormContainerComponent </title>
<path fill="none" stroke="#000000" stroke-dasharray="5,2" d="M1253.3489,-183C1298.608,-183 1345.8992,-183 1345.8992,-183 1345.8992,-183 1345.8992,-205.8757 1345.8992,-205.8757"/>
<polygon fill="#000000" stroke="#000000" points="1342.3993,-205.8757 1345.8992,-215.8757 1349.3993,-205.8757 1342.3993,-205.8757"/>
</g>
<!-- PageContainerComponent  -->
<g id="node18" class="node">
<title>PageContainerComponent </title>
<polygon fill="#fb8072" stroke="#000000" points="1255.752,-252 1088.248,-252 1088.248,-216 1255.752,-216 1255.752,-252"/>
<text text-anchor="middle" x="1172" y="-229.8" font-family="Times,serif" font-size="14.00" fill="#000000">PageContainerComponent </text>
</g>
<!-- NgxEditorjsDemoModule&#45;&gt;PageContainerComponent  -->
<g id="edge17" class="edge">
<title>NgxEditorjsDemoModule&#45;&gt;PageContainerComponent </title>
<path fill="none" stroke="#000000" stroke-dasharray="5,2" d="M1172,-187.1061C1172,-187.1061 1172,-205.991 1172,-205.991"/>
<polygon fill="#000000" stroke="#000000" points="1168.5001,-205.9909 1172,-215.991 1175.5001,-205.991 1168.5001,-205.9909"/>
</g>
<!-- PageStoreModule  -->
<g id="node19" class="node">
<title>PageStoreModule </title>
<polygon fill="#fb8072" stroke="#000000" points="1069.8102,-252 950.1898,-252 950.1898,-216 1069.8102,-216 1069.8102,-252"/>
<text text-anchor="middle" x="1010" y="-229.8" font-family="Times,serif" font-size="14.00" fill="#000000">PageStoreModule </text>
</g>
<!-- NgxEditorjsDemoModule&#45;&gt;PageStoreModule  -->
<g id="edge18" class="edge">
<title>NgxEditorjsDemoModule&#45;&gt;PageStoreModule </title>
<path fill="none" stroke="#000000" stroke-dasharray="5,2" d="M1090.6796,-183C1054.5491,-183 1020.0363,-183 1020.0363,-183 1020.0363,-183 1020.0363,-205.8757 1020.0363,-205.8757"/>
<polygon fill="#000000" stroke="#000000" points="1016.5364,-205.8757 1020.0363,-215.8757 1023.5364,-205.8757 1016.5364,-205.8757"/>
</g>
<!-- MaterialModule -->
<g id="node6" class="node">
<title>MaterialModule</title>
<polygon fill="#8dd3c7" stroke="#000000" points="1692.4706,-122 1689.4706,-126 1668.4706,-126 1665.4706,-122 1585.5294,-122 1585.5294,-86 1692.4706,-86 1692.4706,-122"/>
<text text-anchor="middle" x="1639" y="-99.8" font-family="Times,serif" font-size="14.00" fill="#000000">MaterialModule</text>
</g>
<!-- MaterialModule&#45;&gt;NgxEditorjsDemoModule -->
<g id="edge5" class="edge">
<title>MaterialModule&#45;&gt;NgxEditorjsDemoModule</title>
<path fill="none" stroke="#000000" d="M1639,-122.027C1639,-138.3976 1639,-160 1639,-160 1639,-160 1263.3452,-160 1263.3452,-160"/>
<polygon fill="#000000" stroke="#000000" points="1263.3452,-156.5001 1253.3452,-160 1263.3452,-163.5001 1263.3452,-156.5001"/>
</g>
<!-- NgxEditorJSModule -->
<g id="node7" class="node">
<title>NgxEditorJSModule</title>
<polygon fill="#8dd3c7" stroke="#000000" points="1567.8781,-122 1564.8781,-126 1543.8781,-126 1540.8781,-122 1436.1219,-122 1436.1219,-86 1567.8781,-86 1567.8781,-122"/>
<text text-anchor="middle" x="1502" y="-99.8" font-family="Times,serif" font-size="14.00" fill="#000000">NgxEditorJSModule</text>
</g>
<!-- NgxEditorJSModule&#45;&gt;NgxEditorjsDemoModule -->
<g id="edge6" class="edge">
<title>NgxEditorJSModule&#45;&gt;NgxEditorjsDemoModule</title>
<path fill="none" stroke="#000000" d="M1440.124,-122.1871C1440.124,-137.1824 1440.124,-156 1440.124,-156 1440.124,-156 1263.1736,-156 1263.1736,-156"/>
<polygon fill="#000000" stroke="#000000" points="1263.1737,-152.5001 1253.1736,-156 1263.1736,-159.5001 1263.1737,-152.5001"/>
</g>
<!-- NgxTinynodesCoreModule -->
<g id="node8" class="node">
<title>NgxTinynodesCoreModule</title>
<polygon fill="#8dd3c7" stroke="#000000" points="1417.9706,-122 1414.9706,-126 1393.9706,-126 1390.9706,-122 1248.0294,-122 1248.0294,-86 1417.9706,-86 1417.9706,-122"/>
<text text-anchor="middle" x="1333" y="-99.8" font-family="Times,serif" font-size="14.00" fill="#000000">NgxTinynodesCoreModule</text>
</g>
<!-- NgxTinynodesCoreModule&#45;&gt;NgxEditorjsDemoModule -->
<g id="edge7" class="edge">
<title>NgxTinynodesCoreModule&#45;&gt;NgxEditorjsDemoModule</title>
<path fill="none" stroke="#000000" d="M1247.7518,-104C1242.3866,-104 1239.0849,-104 1239.0849,-104 1239.0849,-104 1239.0849,-140.8939 1239.0849,-140.8939"/>
<polygon fill="#000000" stroke="#000000" points="1235.5849,-140.8938 1239.0849,-150.8939 1242.5849,-140.8939 1235.5849,-140.8938"/>
</g>
<!-- PageStoreModule -->
<g id="node9" class="node">
<title>PageStoreModule</title>
<polygon fill="#8dd3c7" stroke="#000000" points="1230.3104,-122 1227.3104,-126 1206.3104,-126 1203.3104,-122 1113.6896,-122 1113.6896,-86 1230.3104,-86 1230.3104,-122"/>
<text text-anchor="middle" x="1172" y="-99.8" font-family="Times,serif" font-size="14.00" fill="#000000">PageStoreModule</text>
</g>
<!-- PageStoreModule&#45;&gt;NgxEditorjsDemoModule -->
<g id="edge8" class="edge">
<title>PageStoreModule&#45;&gt;NgxEditorjsDemoModule</title>
<path fill="none" stroke="#000000" d="M1172,-122.1061C1172,-122.1061 1172,-140.991 1172,-140.991"/>
<polygon fill="#000000" stroke="#000000" points="1168.5001,-140.9909 1172,-150.991 1175.5001,-140.991 1168.5001,-140.9909"/>
</g>
<!-- PluginCodeModule -->
<g id="node10" class="node">
<title>PluginCodeModule</title>
<polygon fill="#8dd3c7" stroke="#000000" points="1095.6652,-122 1092.6652,-126 1071.6652,-126 1068.6652,-122 970.3348,-122 970.3348,-86 1095.6652,-86 1095.6652,-122"/>
<text text-anchor="middle" x="1033" y="-99.8" font-family="Times,serif" font-size="14.00" fill="#000000">PluginCodeModule</text>
</g>
<!-- PluginCodeModule&#45;&gt;NgxEditorjsDemoModule -->
<g id="edge9" class="edge">
<title>PluginCodeModule&#45;&gt;NgxEditorjsDemoModule</title>
<path fill="none" stroke="#000000" d="M1095.7403,-104C1101.2772,-104 1104.8387,-104 1104.8387,-104 1104.8387,-104 1104.8387,-140.8939 1104.8387,-140.8939"/>
<polygon fill="#000000" stroke="#000000" points="1101.3388,-140.8938 1104.8387,-150.8939 1108.3388,-140.8939 1101.3388,-140.8938"/>
</g>
<!-- PluginHeaderModule -->
<g id="node11" class="node">
<title>PluginHeaderModule</title>
<polygon fill="#8dd3c7" stroke="#000000" points="952.0254,-122 949.0254,-126 928.0254,-126 925.0254,-122 815.9746,-122 815.9746,-86 952.0254,-86 952.0254,-122"/>
<text text-anchor="middle" x="884" y="-99.8" font-family="Times,serif" font-size="14.00" fill="#000000">PluginHeaderModule</text>
</g>
<!-- PluginHeaderModule&#45;&gt;NgxEditorjsDemoModule -->
<g id="edge10" class="edge">
<title>PluginHeaderModule&#45;&gt;NgxEditorjsDemoModule</title>
<path fill="none" stroke="#000000" d="M882.9164,-122.1871C882.9164,-137.1824 882.9164,-156 882.9164,-156 882.9164,-156 1080.7048,-156 1080.7048,-156"/>
<polygon fill="#000000" stroke="#000000" points="1080.7048,-159.5001 1090.7048,-156 1080.7047,-152.5001 1080.7048,-159.5001"/>
</g>
<!-- PluginLinkModule -->
<g id="node12" class="node">
<title>PluginLinkModule</title>
<polygon fill="#8dd3c7" stroke="#000000" points="797.0576,-122 794.0576,-126 773.0576,-126 770.0576,-122 674.9424,-122 674.9424,-86 797.0576,-86 797.0576,-122"/>
<text text-anchor="middle" x="736" y="-99.8" font-family="Times,serif" font-size="14.00" fill="#000000">PluginLinkModule</text>
</g>
<!-- PluginLinkModule&#45;&gt;NgxEditorjsDemoModule -->
<g id="edge11" class="edge">
<title>PluginLinkModule&#45;&gt;NgxEditorjsDemoModule</title>
<path fill="none" stroke="#000000" d="M736,-122.027C736,-138.3976 736,-160 736,-160 736,-160 1080.7585,-160 1080.7585,-160"/>
<polygon fill="#000000" stroke="#000000" points="1080.7585,-163.5001 1090.7585,-160 1080.7585,-156.5001 1080.7585,-163.5001"/>
</g>
<!-- PluginListModule -->
<g id="node13" class="node">
<title>PluginListModule</title>
<polygon fill="#8dd3c7" stroke="#000000" points="656.892,-122 653.892,-126 632.892,-126 629.892,-122 539.108,-122 539.108,-86 656.892,-86 656.892,-122"/>
<text text-anchor="middle" x="598" y="-99.8" font-family="Times,serif" font-size="14.00" fill="#000000">PluginListModule</text>
</g>
<!-- PluginListModule&#45;&gt;NgxEditorjsDemoModule -->
<g id="edge12" class="edge">
<title>PluginListModule&#45;&gt;NgxEditorjsDemoModule</title>
<path fill="none" stroke="#000000" d="M598,-122.302C598,-140.2699 598,-165 598,-165 598,-165 1080.6735,-165 1080.6735,-165"/>
<polygon fill="#000000" stroke="#000000" points="1080.6736,-168.5001 1090.6735,-165 1080.6735,-161.5001 1080.6736,-168.5001"/>
</g>
<!-- PluginMarkerModule -->
<g id="node14" class="node">
<title>PluginMarkerModule</title>
<polygon fill="#8dd3c7" stroke="#000000" points="520.8089,-122 517.8089,-126 496.8089,-126 493.8089,-122 383.1911,-122 383.1911,-86 520.8089,-86 520.8089,-122"/>
<text text-anchor="middle" x="452" y="-99.8" font-family="Times,serif" font-size="14.00" fill="#000000">PluginMarkerModule</text>
</g>
<!-- PluginMarkerModule&#45;&gt;NgxEditorjsDemoModule -->
<g id="edge13" class="edge">
<title>PluginMarkerModule&#45;&gt;NgxEditorjsDemoModule</title>
<path fill="none" stroke="#000000" d="M452,-122.1061C452,-141.3391 452,-169 452,-169 452,-169 1080.8064,-169 1080.8064,-169"/>
<polygon fill="#000000" stroke="#000000" points="1080.8065,-172.5001 1090.8064,-169 1080.8064,-165.5001 1080.8065,-172.5001"/>
</g>
<!-- PluginParagraphModule -->
<g id="node15" class="node">
<title>PluginParagraphModule</title>
<polygon fill="#8dd3c7" stroke="#000000" points="365.3613,-122 362.3613,-126 341.3613,-126 338.3613,-122 212.6387,-122 212.6387,-86 365.3613,-86 365.3613,-122"/>
<text text-anchor="middle" x="289" y="-99.8" font-family="Times,serif" font-size="14.00" fill="#000000">PluginParagraphModule</text>
</g>
<!-- PluginParagraphModule&#45;&gt;NgxEditorjsDemoModule -->
<g id="edge14" class="edge">
<title>PluginParagraphModule&#45;&gt;NgxEditorjsDemoModule</title>
<path fill="none" stroke="#000000" d="M289,-122.0267C289,-142.7672 289,-174 289,-174 289,-174 1080.5122,-174 1080.5122,-174"/>
<polygon fill="#000000" stroke="#000000" points="1080.5122,-177.5001 1090.5122,-174 1080.5122,-170.5001 1080.5122,-177.5001"/>
</g>
<!-- PluginSimpleImageModule -->
<g id="node16" class="node">
<title>PluginSimpleImageModule</title>
<polygon fill="#8dd3c7" stroke="#000000" points="194.2632,-122 191.2632,-126 170.2632,-126 167.2632,-122 23.7368,-122 23.7368,-86 194.2632,-86 194.2632,-122"/>
<text text-anchor="middle" x="109" y="-99.8" font-family="Times,serif" font-size="14.00" fill="#000000">PluginSimpleImageModule</text>
</g>
<!-- PluginSimpleImageModule&#45;&gt;NgxEditorjsDemoModule -->
<g id="edge15" class="edge">
<title>PluginSimpleImageModule&#45;&gt;NgxEditorjsDemoModule</title>
<path fill="none" stroke="#000000" d="M109,-122.2921C109,-144.2057 109,-178 109,-178 109,-178 1080.792,-178 1080.792,-178"/>
<polygon fill="#000000" stroke="#000000" points="1080.792,-181.5001 1090.792,-178 1080.792,-174.5001 1080.792,-181.5001"/>
</g>
</g>
</svg>
