<?xml version="1.0" encoding="UTF-8" standalone="no"?>
<!DOCTYPE svg PUBLIC "-//W3C//DTD SVG 1.1//EN"
 "http://www.w3.org/Graphics/SVG/1.1/DTD/svg11.dtd">
<!-- Generated by graphviz version 2.40.1 (20161225.0304)
 -->
<!-- Title: dependencies Pages: 1 -->
<svg width="1724pt" height="284pt"
 viewBox="0.00 0.00 1724.00 284.00" xmlns="http://www.w3.org/2000/svg" xmlns:xlink="http://www.w3.org/1999/xlink">
<g id="graph0" class="graph" transform="scale(1 1) rotate(0) translate(4 280)">
<title>dependencies</title>
<polygon fill="#ffffff" stroke="transparent" points="-4,4 -4,-280 1720,-280 1720,4 -4,4"/>
<text text-anchor="start" x="837.0091" y="-42.4" font-family="sans-serif" font-weight="bold" font-size="14.00" fill="#000000">Legend</text>
<polygon fill="#ffffb3" stroke="transparent" points="624,-10 624,-30 644,-30 644,-10 624,-10"/>
<text text-anchor="start" x="647.629" y="-15.4" font-family="sans-serif" font-size="14.00" fill="#000000"> &#160;Declarations</text>
<polygon fill="#8dd3c7" stroke="transparent" points="737,-10 737,-30 757,-30 757,-10 737,-10"/>
<text text-anchor="start" x="760.7251" y="-15.4" font-family="sans-serif" font-size="14.00" fill="#000000"> &#160;Module</text>
<polygon fill="#80b1d3" stroke="transparent" points="823,-10 823,-30 843,-30 843,-10 823,-10"/>
<text text-anchor="start" x="846.7812" y="-15.4" font-family="sans-serif" font-size="14.00" fill="#000000"> &#160;Bootstrap</text>
<polygon fill="#fdb462" stroke="transparent" points="920,-10 920,-30 940,-30 940,-10 920,-10"/>
<text text-anchor="start" x="943.6732" y="-15.4" font-family="sans-serif" font-size="14.00" fill="#000000"> &#160;Providers</text>
<polygon fill="#fb8072" stroke="transparent" points="1016,-10 1016,-30 1036,-30 1036,-10 1016,-10"/>
<text text-anchor="start" x="1039.7258" y="-15.4" font-family="sans-serif" font-size="14.00" fill="#000000"> &#160;Exports</text>
<g id="clust1" class="cluster">
<title>cluster_NgxEditorjsDemoModule</title>
<polygon fill="none" stroke="#000000" stroke-dasharray="1,5" points="8,-70 8,-268 1708,-268 1708,-70 8,-70"/>
</g>
<g id="clust3" class="cluster">
<title>cluster_NgxEditorjsDemoModule_imports</title>
<polygon fill="none" stroke="#000000" points="16,-78 16,-130 1700,-130 1700,-78 16,-78"/>
</g>
<g id="clust4" class="cluster">
<title>cluster_NgxEditorjsDemoModule_exports</title>
<polygon fill="none" stroke="#000000" points="816,-208 816,-260 952,-260 952,-208 816,-208"/>
</g>
<!-- MaterialModule -->
<g id="node1" class="node">
<title>MaterialModule</title>
<polygon fill="#8dd3c7" stroke="#000000" points="1692.4706,-122 1689.4706,-126 1668.4706,-126 1665.4706,-122 1585.5294,-122 1585.5294,-86 1692.4706,-86 1692.4706,-122"/>
<text text-anchor="middle" x="1639" y="-99.8" font-family="Times,serif" font-size="14.00" fill="#000000">MaterialModule</text>
</g>
<!-- NgxEditorjsDemoModule -->
<g id="node12" class="node">
<title>NgxEditorjsDemoModule</title>
<polygon fill="#8dd3c7" stroke="#000000" points="965.1979,-187 962.1979,-191 941.1979,-191 938.1979,-187 802.8021,-187 802.8021,-151 965.1979,-151 965.1979,-187"/>
<text text-anchor="middle" x="884" y="-164.8" font-family="Times,serif" font-size="14.00" fill="#000000">NgxEditorjsDemoModule</text>
</g>
<!-- MaterialModule&#45;&gt;NgxEditorjsDemoModule -->
<g id="edge1" class="edge">
<title>MaterialModule&#45;&gt;NgxEditorjsDemoModule</title>
<path fill="none" stroke="#000000" d="M1639,-122.0109C1639,-144.4852 1639,-180 1639,-180 1639,-180 975.1566,-180 975.1566,-180"/>
<polygon fill="#000000" stroke="#000000" points="975.1566,-176.5001 965.1566,-180 975.1565,-183.5001 975.1566,-176.5001"/>
</g>
<!-- NgxEditorJSModule -->
<g id="node2" class="node">
<title>NgxEditorJSModule</title>
<polygon fill="#8dd3c7" stroke="#000000" points="1567.8781,-122 1564.8781,-126 1543.8781,-126 1540.8781,-122 1436.1219,-122 1436.1219,-86 1567.8781,-86 1567.8781,-122"/>
<text text-anchor="middle" x="1502" y="-99.8" font-family="Times,serif" font-size="14.00" fill="#000000">NgxEditorJSModule</text>
</g>
<!-- NgxEditorJSModule&#45;&gt;NgxEditorjsDemoModule -->
<g id="edge2" class="edge">
<title>NgxEditorJSModule&#45;&gt;NgxEditorjsDemoModule</title>
<path fill="none" stroke="#000000" d="M1502,-122.1289C1502,-142.5724 1502,-173 1502,-173 1502,-173 975.1102,-173 975.1102,-173"/>
<polygon fill="#000000" stroke="#000000" points="975.1102,-169.5001 965.1102,-173 975.1102,-176.5001 975.1102,-169.5001"/>
</g>
<!-- NgxTinynodesCoreModule -->
<g id="node3" class="node">
<title>NgxTinynodesCoreModule</title>
<polygon fill="#8dd3c7" stroke="#000000" points="1417.9706,-122 1414.9706,-126 1393.9706,-126 1390.9706,-122 1248.0294,-122 1248.0294,-86 1417.9706,-86 1417.9706,-122"/>
<text text-anchor="middle" x="1333" y="-99.8" font-family="Times,serif" font-size="14.00" fill="#000000">NgxTinynodesCoreModule</text>
</g>
<!-- NgxTinynodesCoreModule&#45;&gt;NgxEditorjsDemoModule -->
<g id="edge3" class="edge">
<title>NgxTinynodesCoreModule&#45;&gt;NgxEditorjsDemoModule</title>
<path fill="none" stroke="#000000" d="M1333,-122.2667C1333,-140.5552 1333,-166 1333,-166 1333,-166 975.3105,-166 975.3105,-166"/>
<polygon fill="#000000" stroke="#000000" points="975.3105,-162.5001 965.3105,-166 975.3105,-169.5001 975.3105,-162.5001"/>
</g>
<!-- PageStoreModule -->
<g id="node4" class="node">
<title>PageStoreModule</title>
<polygon fill="#8dd3c7" stroke="#000000" points="1230.3104,-122 1227.3104,-126 1206.3104,-126 1203.3104,-122 1113.6896,-122 1113.6896,-86 1230.3104,-86 1230.3104,-122"/>
<text text-anchor="middle" x="1172" y="-99.8" font-family="Times,serif" font-size="14.00" fill="#000000">PageStoreModule</text>
</g>
<!-- PageStoreModule&#45;&gt;NgxEditorjsDemoModule -->
<g id="edge4" class="edge">
<title>PageStoreModule&#45;&gt;NgxEditorjsDemoModule</title>
<path fill="none" stroke="#000000" d="M1172,-122.0091C1172,-138.0494 1172,-159 1172,-159 1172,-159 975.3744,-159 975.3744,-159"/>
<polygon fill="#000000" stroke="#000000" points="975.3745,-155.5001 965.3744,-159 975.3744,-162.5001 975.3745,-155.5001"/>
</g>
<!-- PluginCodeModule -->
<g id="node5" class="node">
<title>PluginCodeModule</title>
<polygon fill="#8dd3c7" stroke="#000000" points="1095.6652,-122 1092.6652,-126 1071.6652,-126 1068.6652,-122 970.3348,-122 970.3348,-86 1095.6652,-86 1095.6652,-122"/>
<text text-anchor="middle" x="1033" y="-99.8" font-family="Times,serif" font-size="14.00" fill="#000000">PluginCodeModule</text>
</g>
<!-- PluginCodeModule&#45;&gt;NgxEditorjsDemoModule -->
<g id="edge5" class="edge">
<title>PluginCodeModule&#45;&gt;NgxEditorjsDemoModule</title>
<path fill="none" stroke="#000000" d="M970.293,-104C963.3256,-104 958.6806,-104 958.6806,-104 958.6806,-104 958.6806,-140.8939 958.6806,-140.8939"/>
<polygon fill="#000000" stroke="#000000" points="955.1807,-140.8938 958.6806,-150.8939 962.1807,-140.8939 955.1807,-140.8938"/>
</g>
<!-- PluginHeaderModule -->
<g id="node6" class="node">
<title>PluginHeaderModule</title>
<polygon fill="#8dd3c7" stroke="#000000" points="952.0254,-122 949.0254,-126 928.0254,-126 925.0254,-122 815.9746,-122 815.9746,-86 952.0254,-86 952.0254,-122"/>
<text text-anchor="middle" x="884" y="-99.8" font-family="Times,serif" font-size="14.00" fill="#000000">PluginHeaderModule</text>
</g>
<!-- PluginHeaderModule&#45;&gt;NgxEditorjsDemoModule -->
<g id="edge6" class="edge">
<title>PluginHeaderModule&#45;&gt;NgxEditorjsDemoModule</title>
<path fill="none" stroke="#000000" d="M884,-122.1061C884,-122.1061 884,-140.991 884,-140.991"/>
<polygon fill="#000000" stroke="#000000" points="880.5001,-140.9909 884,-150.991 887.5001,-140.991 880.5001,-140.9909"/>
</g>
<!-- PluginLinkModule -->
<g id="node7" class="node">
<title>PluginLinkModule</title>
<polygon fill="#8dd3c7" stroke="#000000" points="797.0576,-122 794.0576,-126 773.0576,-126 770.0576,-122 674.9424,-122 674.9424,-86 797.0576,-86 797.0576,-122"/>
<text text-anchor="middle" x="736" y="-99.8" font-family="Times,serif" font-size="14.00" fill="#000000">PluginLinkModule</text>
</g>
<!-- PluginLinkModule&#45;&gt;NgxEditorjsDemoModule -->
<g id="edge7" class="edge">
<title>PluginLinkModule&#45;&gt;NgxEditorjsDemoModule</title>
<path fill="none" stroke="#000000" d="M797.2122,-104C804.4461,-104 809.3194,-104 809.3194,-104 809.3194,-104 809.3194,-140.8939 809.3194,-140.8939"/>
<polygon fill="#000000" stroke="#000000" points="805.8195,-140.8938 809.3194,-150.8939 812.8195,-140.8939 805.8195,-140.8938"/>
</g>
<!-- PluginListModule -->
<g id="node8" class="node">
<title>PluginListModule</title>
<polygon fill="#8dd3c7" stroke="#000000" points="656.892,-122 653.892,-126 632.892,-126 629.892,-122 539.108,-122 539.108,-86 656.892,-86 656.892,-122"/>
<text text-anchor="middle" x="598" y="-99.8" font-family="Times,serif" font-size="14.00" fill="#000000">PluginListModule</text>
</g>
<!-- PluginListModule&#45;&gt;NgxEditorjsDemoModule -->
<g id="edge8" class="edge">
<title>PluginListModule&#45;&gt;NgxEditorjsDemoModule</title>
<path fill="none" stroke="#000000" d="M598,-122.0091C598,-138.0494 598,-159 598,-159 598,-159 792.8089,-159 792.8089,-159"/>
<polygon fill="#000000" stroke="#000000" points="792.8089,-162.5001 802.8089,-159 792.8089,-155.5001 792.8089,-162.5001"/>
</g>
<!-- PluginMarkerModule -->
<g id="node9" class="node">
<title>PluginMarkerModule</title>
<polygon fill="#8dd3c7" stroke="#000000" points="520.8089,-122 517.8089,-126 496.8089,-126 493.8089,-122 383.1911,-122 383.1911,-86 520.8089,-86 520.8089,-122"/>
<text text-anchor="middle" x="452" y="-99.8" font-family="Times,serif" font-size="14.00" fill="#000000">PluginMarkerModule</text>
</g>
<!-- PluginMarkerModule&#45;&gt;NgxEditorjsDemoModule -->
<g id="edge9" class="edge">
<title>PluginMarkerModule&#45;&gt;NgxEditorjsDemoModule</title>
<path fill="none" stroke="#000000" d="M452,-122.2667C452,-140.5552 452,-166 452,-166 452,-166 792.7441,-166 792.7441,-166"/>
<polygon fill="#000000" stroke="#000000" points="792.7441,-169.5001 802.7441,-166 792.7441,-162.5001 792.7441,-169.5001"/>
</g>
<!-- PluginParagraphModule -->
<g id="node10" class="node">
<title>PluginParagraphModule</title>
<polygon fill="#8dd3c7" stroke="#000000" points="365.3613,-122 362.3613,-126 341.3613,-126 338.3613,-122 212.6387,-122 212.6387,-86 365.3613,-86 365.3613,-122"/>
<text text-anchor="middle" x="289" y="-99.8" font-family="Times,serif" font-size="14.00" fill="#000000">PluginParagraphModule</text>
</g>
<!-- PluginParagraphModule&#45;&gt;NgxEditorjsDemoModule -->
<g id="edge10" class="edge">
<title>PluginParagraphModule&#45;&gt;NgxEditorjsDemoModule</title>
<path fill="none" stroke="#000000" d="M289,-122.1289C289,-142.5724 289,-173 289,-173 289,-173 792.8261,-173 792.8261,-173"/>
<polygon fill="#000000" stroke="#000000" points="792.8262,-176.5001 802.8261,-173 792.8261,-169.5001 792.8262,-176.5001"/>
</g>
<!-- PluginSimpleImageModule -->
<g id="node11" class="node">
<title>PluginSimpleImageModule</title>
<polygon fill="#8dd3c7" stroke="#000000" points="194.2632,-122 191.2632,-126 170.2632,-126 167.2632,-122 23.7368,-122 23.7368,-86 194.2632,-86 194.2632,-122"/>
<text text-anchor="middle" x="109" y="-99.8" font-family="Times,serif" font-size="14.00" fill="#000000">PluginSimpleImageModule</text>
</g>
<!-- PluginSimpleImageModule&#45;&gt;NgxEditorjsDemoModule -->
<g id="edge11" class="edge">
<title>PluginSimpleImageModule&#45;&gt;NgxEditorjsDemoModule</title>
<path fill="none" stroke="#000000" d="M109,-122.0109C109,-144.4852 109,-180 109,-180 109,-180 792.8908,-180 792.8908,-180"/>
<polygon fill="#000000" stroke="#000000" points="792.8908,-183.5001 802.8908,-180 792.8907,-176.5001 792.8908,-183.5001"/>
</g>
<!-- PageStoreModule  -->
<g id="node13" class="node">
<title>PageStoreModule </title>
<polygon fill="#fb8072" stroke="#000000" points="943.8102,-252 824.1898,-252 824.1898,-216 943.8102,-216 943.8102,-252"/>
<text text-anchor="middle" x="884" y="-229.8" font-family="Times,serif" font-size="14.00" fill="#000000">PageStoreModule </text>
</g>
<!-- NgxEditorjsDemoModule&#45;&gt;PageStoreModule  -->
<g id="edge12" class="edge">
<title>NgxEditorjsDemoModule&#45;&gt;PageStoreModule </title>
<path fill="none" stroke="#000000" stroke-dasharray="5,2" d="M884,-187.1061C884,-187.1061 884,-205.991 884,-205.991"/>
<polygon fill="#000000" stroke="#000000" points="880.5001,-205.9909 884,-215.991 887.5001,-205.991 880.5001,-205.9909"/>
</g>
</g>
</svg>
