<?xml version="1.0" encoding="UTF-8" standalone="no"?>
<!DOCTYPE svg PUBLIC "-//W3C//DTD SVG 1.1//EN"
 "http://www.w3.org/Graphics/SVG/1.1/DTD/svg11.dtd">
<!-- Generated by graphviz version 2.40.1 (20161225.0304)
 -->
<!-- Title: dependencies Pages: 1 -->
<svg width="1762pt" height="284pt"
 viewBox="0.00 0.00 1762.00 284.00" xmlns="http://www.w3.org/2000/svg" xmlns:xlink="http://www.w3.org/1999/xlink">
<g id="graph0" class="graph" transform="scale(1 1) rotate(0) translate(4 280)">
<title>dependencies</title>
<polygon fill="#ffffff" stroke="transparent" points="-4,4 -4,-280 1758,-280 1758,4 -4,4"/>
<text text-anchor="start" x="856.0091" y="-42.4" font-family="sans-serif" font-weight="bold" font-size="14.00" fill="#000000">Legend</text>
<polygon fill="#ffffb3" stroke="transparent" points="643,-10 643,-30 663,-30 663,-10 643,-10"/>
<text text-anchor="start" x="666.629" y="-15.4" font-family="sans-serif" font-size="14.00" fill="#000000"> &#160;Declarations</text>
<polygon fill="#8dd3c7" stroke="transparent" points="756,-10 756,-30 776,-30 776,-10 756,-10"/>
<text text-anchor="start" x="779.7251" y="-15.4" font-family="sans-serif" font-size="14.00" fill="#000000"> &#160;Module</text>
<polygon fill="#80b1d3" stroke="transparent" points="842,-10 842,-30 862,-30 862,-10 842,-10"/>
<text text-anchor="start" x="865.7812" y="-15.4" font-family="sans-serif" font-size="14.00" fill="#000000"> &#160;Bootstrap</text>
<polygon fill="#fdb462" stroke="transparent" points="939,-10 939,-30 959,-30 959,-10 939,-10"/>
<text text-anchor="start" x="962.6732" y="-15.4" font-family="sans-serif" font-size="14.00" fill="#000000"> &#160;Providers</text>
<polygon fill="#fb8072" stroke="transparent" points="1035,-10 1035,-30 1055,-30 1055,-10 1035,-10"/>
<text text-anchor="start" x="1058.7258" y="-15.4" font-family="sans-serif" font-size="14.00" fill="#000000"> &#160;Exports</text>
<g id="clust1" class="cluster">
<title>cluster_NgxEditorjsDemoModule</title>
<polygon fill="none" stroke="#000000" stroke-dasharray="1,5" points="8,-70 8,-268 1746,-268 1746,-70 8,-70"/>
</g>
<g id="clust2" class="cluster">
<title>cluster_NgxEditorjsDemoModule_declarations</title>
<polygon fill="none" stroke="#000000" points="1396,-78 1396,-130 1738,-130 1738,-78 1396,-78"/>
</g>
<g id="clust5" class="cluster">
<title>cluster_NgxEditorjsDemoModule_imports</title>
<polygon fill="none" stroke="#000000" points="16,-78 16,-130 1388,-130 1388,-78 16,-78"/>
</g>
<g id="clust6" class="cluster">
<title>cluster_NgxEditorjsDemoModule_exports</title>
<polygon fill="none" stroke="#000000" points="654,-208 654,-260 1141,-260 1141,-208 654,-208"/>
</g>
<!-- EditorPageComponent -->
<g id="node1" class="node">
<title>EditorPageComponent</title>
<polygon fill="#ffffb3" stroke="#000000" points="1729.5393,-122 1586.4607,-122 1586.4607,-86 1729.5393,-86 1729.5393,-122"/>
<text text-anchor="middle" x="1658" y="-99.8" font-family="Times,serif" font-size="14.00" fill="#000000">EditorPageComponent</text>
</g>
<!-- NgxEditorjsDemoModule -->
<g id="node3" class="node">
<title>NgxEditorjsDemoModule</title>
<polygon fill="#8dd3c7" stroke="#000000" points="965.1979,-187 962.1979,-191 941.1979,-191 938.1979,-187 802.8021,-187 802.8021,-151 965.1979,-151 965.1979,-187"/>
<text text-anchor="middle" x="884" y="-164.8" font-family="Times,serif" font-size="14.00" fill="#000000">NgxEditorjsDemoModule</text>
</g>
<!-- EditorPageComponent&#45;&gt;NgxEditorjsDemoModule -->
<g id="edge1" class="edge">
<title>EditorPageComponent&#45;&gt;NgxEditorjsDemoModule</title>
<path fill="none" stroke="#000000" d="M1658,-122.2843C1658,-143.3211 1658,-175 1658,-175 1658,-175 975.3687,-175 975.3687,-175"/>
<polygon fill="#000000" stroke="#000000" points="975.3687,-171.5001 965.3687,-175 975.3686,-178.5001 975.3687,-171.5001"/>
</g>
<!-- PageContainerComponent -->
<g id="node2" class="node">
<title>PageContainerComponent</title>
<polygon fill="#ffffb3" stroke="#000000" points="1567.752,-122 1404.248,-122 1404.248,-86 1567.752,-86 1567.752,-122"/>
<text text-anchor="middle" x="1486" y="-99.8" font-family="Times,serif" font-size="14.00" fill="#000000">PageContainerComponent</text>
</g>
<!-- PageContainerComponent&#45;&gt;NgxEditorjsDemoModule -->
<g id="edge2" class="edge">
<title>PageContainerComponent&#45;&gt;NgxEditorjsDemoModule</title>
<path fill="none" stroke="#000000" d="M1486,-122.1061C1486,-141.3391 1486,-169 1486,-169 1486,-169 975.1884,-169 975.1884,-169"/>
<polygon fill="#000000" stroke="#000000" points="975.1884,-165.5001 965.1884,-169 975.1884,-172.5001 975.1884,-165.5001"/>
</g>
<!-- EditorPageComponent  -->
<g id="node13" class="node">
<title>EditorPageComponent </title>
<polygon fill="#fb8072" stroke="#000000" points="1132.5386,-252 985.4614,-252 985.4614,-216 1132.5386,-216 1132.5386,-252"/>
<text text-anchor="middle" x="1059" y="-229.8" font-family="Times,serif" font-size="14.00" fill="#000000">EditorPageComponent </text>
</g>
<!-- NgxEditorjsDemoModule&#45;&gt;EditorPageComponent  -->
<g id="edge12" class="edge">
<title>NgxEditorjsDemoModule&#45;&gt;EditorPageComponent </title>
<path fill="none" stroke="#000000" stroke-dasharray="5,2" d="M965.5402,-181C1003.6049,-181 1040.6566,-181 1040.6566,-181 1040.6566,-181 1040.6566,-205.7604 1040.6566,-205.7604"/>
<polygon fill="#000000" stroke="#000000" points="1037.1566,-205.7604 1040.6566,-215.7604 1044.1566,-205.7604 1037.1566,-205.7604"/>
</g>
<!-- PageContainerComponent  -->
<g id="node14" class="node">
<title>PageContainerComponent </title>
<polygon fill="#fb8072" stroke="#000000" points="967.752,-252 800.248,-252 800.248,-216 967.752,-216 967.752,-252"/>
<text text-anchor="middle" x="884" y="-229.8" font-family="Times,serif" font-size="14.00" fill="#000000">PageContainerComponent </text>
</g>
<!-- NgxEditorjsDemoModule&#45;&gt;PageContainerComponent  -->
<g id="edge13" class="edge">
<title>NgxEditorjsDemoModule&#45;&gt;PageContainerComponent </title>
<path fill="none" stroke="#000000" stroke-dasharray="5,2" d="M884,-187.1061C884,-187.1061 884,-205.991 884,-205.991"/>
<polygon fill="#000000" stroke="#000000" points="880.5001,-205.9909 884,-215.991 887.5001,-205.991 880.5001,-205.9909"/>
</g>
<!-- PageStoreModule  -->
<g id="node15" class="node">
<title>PageStoreModule </title>
<polygon fill="#fb8072" stroke="#000000" points="781.8102,-252 662.1898,-252 662.1898,-216 781.8102,-216 781.8102,-252"/>
<text text-anchor="middle" x="722" y="-229.8" font-family="Times,serif" font-size="14.00" fill="#000000">PageStoreModule </text>
</g>
<!-- NgxEditorjsDemoModule&#45;&gt;PageStoreModule  -->
<g id="edge14" class="edge">
<title>NgxEditorjsDemoModule&#45;&gt;PageStoreModule </title>
<path fill="none" stroke="#000000" stroke-dasharray="5,2" d="M802.5089,-181C764.8404,-181 728.3133,-181 728.3133,-181 728.3133,-181 728.3133,-205.7604 728.3133,-205.7604"/>
<polygon fill="#000000" stroke="#000000" points="724.8134,-205.7604 728.3133,-215.7604 731.8134,-205.7604 724.8134,-205.7604"/>
</g>
<!-- NgxEditorJSModule -->
<g id="node4" class="node">
<title>NgxEditorJSModule</title>
<polygon fill="#8dd3c7" stroke="#000000" points="1379.8781,-122 1376.8781,-126 1355.8781,-126 1352.8781,-122 1248.1219,-122 1248.1219,-86 1379.8781,-86 1379.8781,-122"/>
<text text-anchor="middle" x="1314" y="-99.8" font-family="Times,serif" font-size="14.00" fill="#000000">NgxEditorJSModule</text>
</g>
<!-- NgxEditorJSModule&#45;&gt;NgxEditorjsDemoModule -->
<g id="edge3" class="edge">
<title>NgxEditorJSModule&#45;&gt;NgxEditorjsDemoModule</title>
<path fill="none" stroke="#000000" d="M1314,-122.0225C1314,-139.3734 1314,-163 1314,-163 1314,-163 975.1323,-163 975.1323,-163"/>
<polygon fill="#000000" stroke="#000000" points="975.1324,-159.5001 965.1323,-163 975.1323,-166.5001 975.1324,-159.5001"/>
</g>
<!-- PageStoreModule -->
<g id="node5" class="node">
<title>PageStoreModule</title>
<polygon fill="#8dd3c7" stroke="#000000" points="1230.3104,-122 1227.3104,-126 1206.3104,-126 1203.3104,-122 1113.6896,-122 1113.6896,-86 1230.3104,-86 1230.3104,-122"/>
<text text-anchor="middle" x="1172" y="-99.8" font-family="Times,serif" font-size="14.00" fill="#000000">PageStoreModule</text>
</g>
<!-- PageStoreModule&#45;&gt;NgxEditorjsDemoModule -->
<g id="edge4" class="edge">
<title>PageStoreModule&#45;&gt;NgxEditorjsDemoModule</title>
<path fill="none" stroke="#000000" d="M1123.1822,-122.2396C1123.1822,-137.5706 1123.1822,-157 1123.1822,-157 1123.1822,-157 975.3099,-157 975.3099,-157"/>
<polygon fill="#000000" stroke="#000000" points="975.3099,-153.5001 965.3099,-157 975.3099,-160.5001 975.3099,-153.5001"/>
</g>
<!-- PluginCodeModule -->
<g id="node6" class="node">
<title>PluginCodeModule</title>
<polygon fill="#8dd3c7" stroke="#000000" points="1095.6652,-122 1092.6652,-126 1071.6652,-126 1068.6652,-122 970.3348,-122 970.3348,-86 1095.6652,-86 1095.6652,-122"/>
<text text-anchor="middle" x="1033" y="-99.8" font-family="Times,serif" font-size="14.00" fill="#000000">PluginCodeModule</text>
</g>
<!-- PluginCodeModule&#45;&gt;NgxEditorjsDemoModule -->
<g id="edge5" class="edge">
<title>PluginCodeModule&#45;&gt;NgxEditorjsDemoModule</title>
<path fill="none" stroke="#000000" d="M970.293,-104C963.3256,-104 958.6806,-104 958.6806,-104 958.6806,-104 958.6806,-140.8939 958.6806,-140.8939"/>
<polygon fill="#000000" stroke="#000000" points="955.1807,-140.8938 958.6806,-150.8939 962.1807,-140.8939 955.1807,-140.8938"/>
</g>
<!-- PluginHeaderModule -->
<g id="node7" class="node">
<title>PluginHeaderModule</title>
<polygon fill="#8dd3c7" stroke="#000000" points="952.0254,-122 949.0254,-126 928.0254,-126 925.0254,-122 815.9746,-122 815.9746,-86 952.0254,-86 952.0254,-122"/>
<text text-anchor="middle" x="884" y="-99.8" font-family="Times,serif" font-size="14.00" fill="#000000">PluginHeaderModule</text>
</g>
<!-- PluginHeaderModule&#45;&gt;NgxEditorjsDemoModule -->
<g id="edge6" class="edge">
<title>PluginHeaderModule&#45;&gt;NgxEditorjsDemoModule</title>
<path fill="none" stroke="#000000" d="M884,-122.1061C884,-122.1061 884,-140.991 884,-140.991"/>
<polygon fill="#000000" stroke="#000000" points="880.5001,-140.9909 884,-150.991 887.5001,-140.991 880.5001,-140.9909"/>
</g>
<!-- PluginLinkModule -->
<g id="node8" class="node">
<title>PluginLinkModule</title>
<polygon fill="#8dd3c7" stroke="#000000" points="797.0576,-122 794.0576,-126 773.0576,-126 770.0576,-122 674.9424,-122 674.9424,-86 797.0576,-86 797.0576,-122"/>
<text text-anchor="middle" x="736" y="-99.8" font-family="Times,serif" font-size="14.00" fill="#000000">PluginLinkModule</text>
</g>
<!-- PluginLinkModule&#45;&gt;NgxEditorjsDemoModule -->
<g id="edge7" class="edge">
<title>PluginLinkModule&#45;&gt;NgxEditorjsDemoModule</title>
<path fill="none" stroke="#000000" d="M797.2122,-104C804.4461,-104 809.3194,-104 809.3194,-104 809.3194,-104 809.3194,-140.8939 809.3194,-140.8939"/>
<polygon fill="#000000" stroke="#000000" points="805.8195,-140.8938 809.3194,-150.8939 812.8195,-140.8939 805.8195,-140.8938"/>
</g>
<!-- PluginListModule -->
<g id="node9" class="node">
<title>PluginListModule</title>
<polygon fill="#8dd3c7" stroke="#000000" points="656.892,-122 653.892,-126 632.892,-126 629.892,-122 539.108,-122 539.108,-86 656.892,-86 656.892,-122"/>
<text text-anchor="middle" x="598" y="-99.8" font-family="Times,serif" font-size="14.00" fill="#000000">PluginListModule</text>
</g>
<!-- PluginListModule&#45;&gt;NgxEditorjsDemoModule -->
<g id="edge8" class="edge">
<title>PluginListModule&#45;&gt;NgxEditorjsDemoModule</title>
<path fill="none" stroke="#000000" d="M598,-122.2396C598,-137.5706 598,-157 598,-157 598,-157 792.8089,-157 792.8089,-157"/>
<polygon fill="#000000" stroke="#000000" points="792.8089,-160.5001 802.8089,-157 792.8089,-153.5001 792.8089,-160.5001"/>
</g>
<!-- PluginMarkerModule -->
<g id="node10" class="node">
<title>PluginMarkerModule</title>
<polygon fill="#8dd3c7" stroke="#000000" points="520.8089,-122 517.8089,-126 496.8089,-126 493.8089,-122 383.1911,-122 383.1911,-86 520.8089,-86 520.8089,-122"/>
<text text-anchor="middle" x="452" y="-99.8" font-family="Times,serif" font-size="14.00" fill="#000000">PluginMarkerModule</text>
</g>
<!-- PluginMarkerModule&#45;&gt;NgxEditorjsDemoModule -->
<g id="edge9" class="edge">
<title>PluginMarkerModule&#45;&gt;NgxEditorjsDemoModule</title>
<path fill="none" stroke="#000000" d="M452,-122.0225C452,-139.3734 452,-163 452,-163 452,-163 792.7441,-163 792.7441,-163"/>
<polygon fill="#000000" stroke="#000000" points="792.7441,-166.5001 802.7441,-163 792.7441,-159.5001 792.7441,-166.5001"/>
</g>
<!-- PluginParagraphModule -->
<g id="node11" class="node">
<title>PluginParagraphModule</title>
<polygon fill="#8dd3c7" stroke="#000000" points="365.3613,-122 362.3613,-126 341.3613,-126 338.3613,-122 212.6387,-122 212.6387,-86 365.3613,-86 365.3613,-122"/>
<text text-anchor="middle" x="289" y="-99.8" font-family="Times,serif" font-size="14.00" fill="#000000">PluginParagraphModule</text>
</g>
<!-- PluginParagraphModule&#45;&gt;NgxEditorjsDemoModule -->
<g id="edge10" class="edge">
<title>PluginParagraphModule&#45;&gt;NgxEditorjsDemoModule</title>
<path fill="none" stroke="#000000" d="M289,-122.1061C289,-141.3391 289,-169 289,-169 289,-169 792.8261,-169 792.8261,-169"/>
<polygon fill="#000000" stroke="#000000" points="792.8262,-172.5001 802.8261,-169 792.8261,-165.5001 792.8262,-172.5001"/>
</g>
<!-- PluginSimpleImageModule -->
<g id="node12" class="node">
<title>PluginSimpleImageModule</title>
<polygon fill="#8dd3c7" stroke="#000000" points="194.2632,-122 191.2632,-126 170.2632,-126 167.2632,-122 23.7368,-122 23.7368,-86 194.2632,-86 194.2632,-122"/>
<text text-anchor="middle" x="109" y="-99.8" font-family="Times,serif" font-size="14.00" fill="#000000">PluginSimpleImageModule</text>
</g>
<!-- PluginSimpleImageModule&#45;&gt;NgxEditorjsDemoModule -->
<g id="edge11" class="edge">
<title>PluginSimpleImageModule&#45;&gt;NgxEditorjsDemoModule</title>
<path fill="none" stroke="#000000" d="M109,-122.2843C109,-143.3211 109,-175 109,-175 109,-175 792.8908,-175 792.8908,-175"/>
<polygon fill="#000000" stroke="#000000" points="792.8908,-178.5001 802.8908,-175 792.8907,-171.5001 792.8908,-178.5001"/>
</g>
</g>
</svg>
