<?xml version="1.0" encoding="UTF-8" standalone="no"?>
<!DOCTYPE svg PUBLIC "-//W3C//DTD SVG 1.1//EN"
 "http://www.w3.org/Graphics/SVG/1.1/DTD/svg11.dtd">
<!-- Generated by graphviz version 2.40.1 (20161225.0304)
 -->
<!-- Title: dependencies Pages: 1 -->
<svg width="1020pt" height="284pt"
 viewBox="0.00 0.00 1020.00 284.00" xmlns="http://www.w3.org/2000/svg" xmlns:xlink="http://www.w3.org/1999/xlink">
<g id="graph0" class="graph" transform="scale(1 1) rotate(0) translate(4 280)">
<title>dependencies</title>
<polygon fill="#ffffff" stroke="transparent" points="-4,4 -4,-280 1016,-280 1016,4 -4,4"/>
<text text-anchor="start" x="485.0091" y="-42.4" font-family="sans-serif" font-weight="bold" font-size="14.00" fill="#000000">Legend</text>
<polygon fill="#ffffb3" stroke="transparent" points="272,-10 272,-30 292,-30 292,-10 272,-10"/>
<text text-anchor="start" x="295.629" y="-15.4" font-family="sans-serif" font-size="14.00" fill="#000000"> &#160;Declarations</text>
<polygon fill="#8dd3c7" stroke="transparent" points="385,-10 385,-30 405,-30 405,-10 385,-10"/>
<text text-anchor="start" x="408.7251" y="-15.4" font-family="sans-serif" font-size="14.00" fill="#000000"> &#160;Module</text>
<polygon fill="#80b1d3" stroke="transparent" points="471,-10 471,-30 491,-30 491,-10 471,-10"/>
<text text-anchor="start" x="494.7812" y="-15.4" font-family="sans-serif" font-size="14.00" fill="#000000"> &#160;Bootstrap</text>
<polygon fill="#fdb462" stroke="transparent" points="568,-10 568,-30 588,-30 588,-10 568,-10"/>
<text text-anchor="start" x="591.6732" y="-15.4" font-family="sans-serif" font-size="14.00" fill="#000000"> &#160;Providers</text>
<polygon fill="#fb8072" stroke="transparent" points="664,-10 664,-30 684,-30 684,-10 664,-10"/>
<text text-anchor="start" x="687.7258" y="-15.4" font-family="sans-serif" font-size="14.00" fill="#000000"> &#160;Exports</text>
<g id="clust1" class="cluster">
<title>cluster_NgxEditorjsDemoModule</title>
<polygon fill="none" stroke="#000000" stroke-dasharray="1,5" points="8,-70 8,-268 1004,-268 1004,-70 8,-70"/>
</g>
<g id="clust2" class="cluster">
<title>cluster_NgxEditorjsDemoModule_declarations</title>
<polygon fill="none" stroke="#000000" points="576,-78 576,-130 996,-130 996,-78 576,-78"/>
</g>
<g id="clust5" class="cluster">
<title>cluster_NgxEditorjsDemoModule_imports</title>
<polygon fill="none" stroke="#000000" points="16,-78 16,-130 568,-130 568,-78 16,-78"/>
</g>
<g id="clust6" class="cluster">
<title>cluster_NgxEditorjsDemoModule_exports</title>
<polygon fill="none" stroke="#000000" points="304,-208 304,-260 626,-260 626,-208 304,-208"/>
</g>
<!-- NgxEditorJSDemoHomeComponent -->
<g id="node1" class="node">
<title>NgxEditorJSDemoHomeComponent</title>
<polygon fill="#ffffb3" stroke="#000000" points="988.0842,-122 765.9158,-122 765.9158,-86 988.0842,-86 988.0842,-122"/>
<text text-anchor="middle" x="877" y="-99.8" font-family="Times,serif" font-size="14.00" fill="#000000">NgxEditorJSDemoHomeComponent</text>
</g>
<!-- NgxEditorjsDemoModule -->
<g id="node3" class="node">
<title>NgxEditorjsDemoModule</title>
<polygon fill="#8dd3c7" stroke="#000000" points="534.1979,-187 531.1979,-191 510.1979,-191 507.1979,-187 371.8021,-187 371.8021,-151 534.1979,-151 534.1979,-187"/>
<text text-anchor="middle" x="453" y="-164.8" font-family="Times,serif" font-size="14.00" fill="#000000">NgxEditorjsDemoModule</text>
</g>
<!-- NgxEditorJSDemoHomeComponent&#45;&gt;NgxEditorjsDemoModule -->
<g id="edge1" class="edge">
<title>NgxEditorJSDemoHomeComponent&#45;&gt;NgxEditorjsDemoModule</title>
<path fill="none" stroke="#000000" d="M877,-122.2843C877,-143.3211 877,-175 877,-175 877,-175 544.2498,-175 544.2498,-175"/>
<polygon fill="#000000" stroke="#000000" points="544.2498,-171.5001 534.2498,-175 544.2497,-178.5001 544.2498,-171.5001"/>
</g>
<!-- PageContainerComponent -->
<g id="node2" class="node">
<title>PageContainerComponent</title>
<polygon fill="#ffffb3" stroke="#000000" points="747.752,-122 584.248,-122 584.248,-86 747.752,-86 747.752,-122"/>
<text text-anchor="middle" x="666" y="-99.8" font-family="Times,serif" font-size="14.00" fill="#000000">PageContainerComponent</text>
</g>
<!-- PageContainerComponent&#45;&gt;NgxEditorjsDemoModule -->
<g id="edge2" class="edge">
<title>PageContainerComponent&#45;&gt;NgxEditorjsDemoModule</title>
<path fill="none" stroke="#000000" d="M600.875,-122.0225C600.875,-139.3734 600.875,-163 600.875,-163 600.875,-163 544.2915,-163 544.2915,-163"/>
<polygon fill="#000000" stroke="#000000" points="544.2916,-159.5001 534.2915,-163 544.2915,-166.5001 544.2916,-159.5001"/>
</g>
<!-- PageContainerComponent  -->
<g id="node7" class="node">
<title>PageContainerComponent </title>
<polygon fill="#fb8072" stroke="#000000" points="617.752,-252 450.248,-252 450.248,-216 617.752,-216 617.752,-252"/>
<text text-anchor="middle" x="534" y="-229.8" font-family="Times,serif" font-size="14.00" fill="#000000">PageContainerComponent </text>
</g>
<!-- NgxEditorjsDemoModule&#45;&gt;PageContainerComponent  -->
<g id="edge6" class="edge">
<title>NgxEditorjsDemoModule&#45;&gt;PageContainerComponent </title>
<path fill="none" stroke="#000000" stroke-dasharray="5,2" d="M492.2365,-187.1061C492.2365,-187.1061 492.2365,-205.991 492.2365,-205.991"/>
<polygon fill="#000000" stroke="#000000" points="488.7366,-205.9909 492.2365,-215.991 495.7366,-205.991 488.7366,-205.9909"/>
</g>
<!-- PageStoreModule  -->
<g id="node8" class="node">
<title>PageStoreModule </title>
<polygon fill="#fb8072" stroke="#000000" points="431.8102,-252 312.1898,-252 312.1898,-216 431.8102,-216 431.8102,-252"/>
<text text-anchor="middle" x="372" y="-229.8" font-family="Times,serif" font-size="14.00" fill="#000000">PageStoreModule </text>
</g>
<!-- NgxEditorjsDemoModule&#45;&gt;PageStoreModule  -->
<g id="edge7" class="edge">
<title>NgxEditorjsDemoModule&#45;&gt;PageStoreModule </title>
<path fill="none" stroke="#000000" stroke-dasharray="5,2" d="M401.9031,-187.1061C401.9031,-187.1061 401.9031,-205.991 401.9031,-205.991"/>
<polygon fill="#000000" stroke="#000000" points="398.4031,-205.9909 401.9031,-215.991 405.4031,-205.991 398.4031,-205.9909"/>
</g>
<!-- NgxEditorJSDemoMaterialModule -->
<g id="node4" class="node">
<title>NgxEditorJSDemoMaterialModule</title>
<polygon fill="#8dd3c7" stroke="#000000" points="559.5112,-122 556.5112,-126 535.5112,-126 532.5112,-122 346.4888,-122 346.4888,-86 559.5112,-86 559.5112,-122"/>
<text text-anchor="middle" x="453" y="-99.8" font-family="Times,serif" font-size="14.00" fill="#000000">NgxEditorJSDemoMaterialModule</text>
</g>
<!-- NgxEditorJSDemoMaterialModule&#45;&gt;NgxEditorjsDemoModule -->
<g id="edge3" class="edge">
<title>NgxEditorJSDemoMaterialModule&#45;&gt;NgxEditorjsDemoModule</title>
<path fill="none" stroke="#000000" d="M453,-122.1061C453,-122.1061 453,-140.991 453,-140.991"/>
<polygon fill="#000000" stroke="#000000" points="449.5001,-140.9909 453,-150.991 456.5001,-140.991 449.5001,-140.9909"/>
</g>
<!-- NgxEditorjsPluginsModule -->
<g id="node5" class="node">
<title>NgxEditorjsPluginsModule</title>
<polygon fill="#8dd3c7" stroke="#000000" points="327.9944,-122 324.9944,-126 303.9944,-126 300.9944,-122 158.0056,-122 158.0056,-86 327.9944,-86 327.9944,-122"/>
<text text-anchor="middle" x="243" y="-99.8" font-family="Times,serif" font-size="14.00" fill="#000000">NgxEditorjsPluginsModule</text>
</g>
<!-- NgxEditorjsPluginsModule&#45;&gt;NgxEditorjsDemoModule -->
<g id="edge4" class="edge">
<title>NgxEditorjsPluginsModule&#45;&gt;NgxEditorjsDemoModule</title>
<path fill="none" stroke="#000000" d="M320.0461,-122.0225C320.0461,-139.3734 320.0461,-163 320.0461,-163 320.0461,-163 361.8303,-163 361.8303,-163"/>
<polygon fill="#000000" stroke="#000000" points="361.8303,-166.5001 371.8303,-163 361.8302,-159.5001 361.8303,-166.5001"/>
</g>
<!-- PageStoreModule -->
<g id="node6" class="node">
<title>PageStoreModule</title>
<polygon fill="#8dd3c7" stroke="#000000" points="140.3104,-122 137.3104,-126 116.3104,-126 113.3104,-122 23.6896,-122 23.6896,-86 140.3104,-86 140.3104,-122"/>
<text text-anchor="middle" x="82" y="-99.8" font-family="Times,serif" font-size="14.00" fill="#000000">PageStoreModule</text>
</g>
<!-- PageStoreModule&#45;&gt;NgxEditorjsDemoModule -->
<g id="edge5" class="edge">
<title>PageStoreModule&#45;&gt;NgxEditorjsDemoModule</title>
<path fill="none" stroke="#000000" d="M82,-122.2843C82,-143.3211 82,-175 82,-175 82,-175 361.5825,-175 361.5825,-175"/>
<polygon fill="#000000" stroke="#000000" points="361.5825,-178.5001 371.5825,-175 361.5824,-171.5001 361.5825,-178.5001"/>
</g>
</g>
</svg>
