<?xml version="1.0" encoding="UTF-8" standalone="no"?>
<!DOCTYPE svg PUBLIC "-//W3C//DTD SVG 1.1//EN"
 "http://www.w3.org/Graphics/SVG/1.1/DTD/svg11.dtd">
<!-- Generated by graphviz version 2.40.1 (20161225.0304)
 -->
<!-- Title: dependencies Pages: 1 -->
<svg width="1154pt" height="284pt"
 viewBox="0.00 0.00 1154.00 284.00" xmlns="http://www.w3.org/2000/svg" xmlns:xlink="http://www.w3.org/1999/xlink">
<g id="graph0" class="graph" transform="scale(1 1) rotate(0) translate(4 280)">
<title>dependencies</title>
<polygon fill="#ffffff" stroke="transparent" points="-4,4 -4,-280 1150,-280 1150,4 -4,4"/>
<text text-anchor="start" x="552.0091" y="-42.4" font-family="sans-serif" font-weight="bold" font-size="14.00" fill="#000000">Legend</text>
<polygon fill="#ffffb3" stroke="transparent" points="339,-10 339,-30 359,-30 359,-10 339,-10"/>
<text text-anchor="start" x="362.629" y="-15.4" font-family="sans-serif" font-size="14.00" fill="#000000"> &#160;Declarations</text>
<polygon fill="#8dd3c7" stroke="transparent" points="452,-10 452,-30 472,-30 472,-10 452,-10"/>
<text text-anchor="start" x="475.7251" y="-15.4" font-family="sans-serif" font-size="14.00" fill="#000000"> &#160;Module</text>
<polygon fill="#80b1d3" stroke="transparent" points="538,-10 538,-30 558,-30 558,-10 538,-10"/>
<text text-anchor="start" x="561.7812" y="-15.4" font-family="sans-serif" font-size="14.00" fill="#000000"> &#160;Bootstrap</text>
<polygon fill="#fdb462" stroke="transparent" points="635,-10 635,-30 655,-30 655,-10 635,-10"/>
<text text-anchor="start" x="658.6732" y="-15.4" font-family="sans-serif" font-size="14.00" fill="#000000"> &#160;Providers</text>
<polygon fill="#fb8072" stroke="transparent" points="731,-10 731,-30 751,-30 751,-10 731,-10"/>
<text text-anchor="start" x="754.7258" y="-15.4" font-family="sans-serif" font-size="14.00" fill="#000000"> &#160;Exports</text>
<g id="clust1" class="cluster">
<title>cluster_NgxEditorjsDemoModule</title>
<polygon fill="none" stroke="#000000" stroke-dasharray="1,5" points="8,-70 8,-268 1138,-268 1138,-70 8,-70"/>
</g>
<g id="clust2" class="cluster">
<title>cluster_NgxEditorjsDemoModule_declarations</title>
<polygon fill="none" stroke="#000000" points="788,-78 788,-130 1130,-130 1130,-78 788,-78"/>
</g>
<g id="clust5" class="cluster">
<title>cluster_NgxEditorjsDemoModule_imports</title>
<polygon fill="none" stroke="#000000" points="16,-78 16,-130 780,-130 780,-78 16,-78"/>
</g>
<g id="clust6" class="cluster">
<title>cluster_NgxEditorjsDemoModule_exports</title>
<polygon fill="none" stroke="#000000" points="335,-208 335,-260 822,-260 822,-208 335,-208"/>
</g>
<!-- EditorPageComponent -->
<g id="node1" class="node">
<title>EditorPageComponent</title>
<polygon fill="#ffffb3" stroke="#000000" points="1121.5393,-122 978.4607,-122 978.4607,-86 1121.5393,-86 1121.5393,-122"/>
<text text-anchor="middle" x="1050" y="-99.8" font-family="Times,serif" font-size="14.00" fill="#000000">EditorPageComponent</text>
</g>
<!-- NgxEditorjsDemoModule -->
<g id="node3" class="node">
<title>NgxEditorjsDemoModule</title>
<polygon fill="#8dd3c7" stroke="#000000" points="646.1979,-187 643.1979,-191 622.1979,-191 619.1979,-187 483.8021,-187 483.8021,-151 646.1979,-151 646.1979,-187"/>
<text text-anchor="middle" x="565" y="-164.8" font-family="Times,serif" font-size="14.00" fill="#000000">NgxEditorjsDemoModule</text>
</g>
<!-- EditorPageComponent&#45;&gt;NgxEditorjsDemoModule -->
<g id="edge1" class="edge">
<title>EditorPageComponent&#45;&gt;NgxEditorjsDemoModule</title>
<path fill="none" stroke="#000000" d="M1050,-122.1289C1050,-142.5724 1050,-173 1050,-173 1050,-173 656.1781,-173 656.1781,-173"/>
<polygon fill="#000000" stroke="#000000" points="656.1781,-169.5001 646.1781,-173 656.1781,-176.5001 656.1781,-169.5001"/>
</g>
<!-- PageContainerComponent -->
<g id="node2" class="node">
<title>PageContainerComponent</title>
<polygon fill="#ffffb3" stroke="#000000" points="959.752,-122 796.248,-122 796.248,-86 959.752,-86 959.752,-122"/>
<text text-anchor="middle" x="878" y="-99.8" font-family="Times,serif" font-size="14.00" fill="#000000">PageContainerComponent</text>
</g>
<!-- PageContainerComponent&#45;&gt;NgxEditorjsDemoModule -->
<g id="edge2" class="edge">
<title>PageContainerComponent&#45;&gt;NgxEditorjsDemoModule</title>
<path fill="none" stroke="#000000" d="M804.8217,-122.2667C804.8217,-140.5552 804.8217,-166 804.8217,-166 804.8217,-166 656.1927,-166 656.1927,-166"/>
<polygon fill="#000000" stroke="#000000" points="656.1927,-162.5001 646.1927,-166 656.1927,-169.5001 656.1927,-162.5001"/>
</g>
<!-- EditorPageComponent  -->
<g id="node10" class="node">
<title>EditorPageComponent </title>
<polygon fill="#fb8072" stroke="#000000" points="813.5386,-252 666.4614,-252 666.4614,-216 813.5386,-216 813.5386,-252"/>
<text text-anchor="middle" x="740" y="-229.8" font-family="Times,serif" font-size="14.00" fill="#000000">EditorPageComponent </text>
</g>
<!-- NgxEditorjsDemoModule&#45;&gt;EditorPageComponent  -->
<g id="edge9" class="edge">
<title>NgxEditorjsDemoModule&#45;&gt;EditorPageComponent </title>
<path fill="none" stroke="#000000" stroke-dasharray="5,2" d="M646.2751,-180C662.3971,-180 674.4651,-180 674.4651,-180 674.4651,-180 674.4651,-205.7181 674.4651,-205.7181"/>
<polygon fill="#000000" stroke="#000000" points="670.9652,-205.718 674.4651,-215.7181 677.9652,-205.7181 670.9652,-205.718"/>
</g>
<!-- PageContainerComponent  -->
<g id="node11" class="node">
<title>PageContainerComponent </title>
<polygon fill="#fb8072" stroke="#000000" points="648.752,-252 481.248,-252 481.248,-216 648.752,-216 648.752,-252"/>
<text text-anchor="middle" x="565" y="-229.8" font-family="Times,serif" font-size="14.00" fill="#000000">PageContainerComponent </text>
</g>
<!-- NgxEditorjsDemoModule&#45;&gt;PageContainerComponent  -->
<g id="edge10" class="edge">
<title>NgxEditorjsDemoModule&#45;&gt;PageContainerComponent </title>
<path fill="none" stroke="#000000" stroke-dasharray="5,2" d="M565,-187.1061C565,-187.1061 565,-205.991 565,-205.991"/>
<polygon fill="#000000" stroke="#000000" points="561.5001,-205.9909 565,-215.991 568.5001,-205.991 561.5001,-205.9909"/>
</g>
<!-- PageStoreModule  -->
<g id="node12" class="node">
<title>PageStoreModule </title>
<polygon fill="#fb8072" stroke="#000000" points="462.8102,-252 343.1898,-252 343.1898,-216 462.8102,-216 462.8102,-252"/>
<text text-anchor="middle" x="403" y="-229.8" font-family="Times,serif" font-size="14.00" fill="#000000">PageStoreModule </text>
</g>
<!-- NgxEditorjsDemoModule&#45;&gt;PageStoreModule  -->
<g id="edge11" class="edge">
<title>NgxEditorjsDemoModule&#45;&gt;PageStoreModule </title>
<path fill="none" stroke="#000000" stroke-dasharray="5,2" d="M483.8195,-180C465.2155,-180 450.7833,-180 450.7833,-180 450.7833,-180 450.7833,-205.7181 450.7833,-205.7181"/>
<polygon fill="#000000" stroke="#000000" points="447.2834,-205.718 450.7833,-215.7181 454.2834,-205.7181 447.2834,-205.718"/>
</g>
<!-- CodeModule -->
<g id="node4" class="node">
<title>CodeModule</title>
<polygon fill="#8dd3c7" stroke="#000000" points="771.6011,-122 768.6011,-126 747.6011,-126 744.6011,-122 682.3989,-122 682.3989,-86 771.6011,-86 771.6011,-122"/>
<text text-anchor="middle" x="727" y="-99.8" font-family="Times,serif" font-size="14.00" fill="#000000">CodeModule</text>
</g>
<!-- CodeModule&#45;&gt;NgxEditorjsDemoModule -->
<g id="edge3" class="edge">
<title>CodeModule&#45;&gt;NgxEditorjsDemoModule</title>
<path fill="none" stroke="#000000" d="M727,-122.0091C727,-138.0494 727,-159 727,-159 727,-159 656.4746,-159 656.4746,-159"/>
<polygon fill="#000000" stroke="#000000" points="656.4746,-155.5001 646.4746,-159 656.4746,-162.5001 656.4746,-155.5001"/>
</g>
<!-- LinkModule -->
<g id="node5" class="node">
<title>LinkModule</title>
<polygon fill="#8dd3c7" stroke="#000000" points="663.993,-122 660.993,-126 639.993,-126 636.993,-122 578.007,-122 578.007,-86 663.993,-86 663.993,-122"/>
<text text-anchor="middle" x="621" y="-99.8" font-family="Times,serif" font-size="14.00" fill="#000000">LinkModule</text>
</g>
<!-- LinkModule&#45;&gt;NgxEditorjsDemoModule -->
<g id="edge4" class="edge">
<title>LinkModule&#45;&gt;NgxEditorjsDemoModule</title>
<path fill="none" stroke="#000000" d="M612.0512,-122.1061C612.0512,-122.1061 612.0512,-140.991 612.0512,-140.991"/>
<polygon fill="#000000" stroke="#000000" points="608.5513,-140.9909 612.0512,-150.991 615.5513,-140.991 608.5513,-140.9909"/>
</g>
<!-- MarkerModule -->
<g id="node6" class="node">
<title>MarkerModule</title>
<polygon fill="#8dd3c7" stroke="#000000" points="560.2451,-122 557.2451,-126 536.2451,-126 533.2451,-122 459.7549,-122 459.7549,-86 560.2451,-86 560.2451,-122"/>
<text text-anchor="middle" x="510" y="-99.8" font-family="Times,serif" font-size="14.00" fill="#000000">MarkerModule</text>
</g>
<!-- MarkerModule&#45;&gt;NgxEditorjsDemoModule -->
<g id="edge5" class="edge">
<title>MarkerModule&#45;&gt;NgxEditorjsDemoModule</title>
<path fill="none" stroke="#000000" d="M522.1368,-122.1061C522.1368,-122.1061 522.1368,-140.991 522.1368,-140.991"/>
<polygon fill="#000000" stroke="#000000" points="518.6368,-140.9909 522.1368,-150.991 525.6368,-140.991 518.6368,-140.9909"/>
</g>
<!-- NgxEditorJSModule -->
<g id="node7" class="node">
<title>NgxEditorJSModule</title>
<polygon fill="#8dd3c7" stroke="#000000" points="441.8781,-122 438.8781,-126 417.8781,-126 414.8781,-122 310.1219,-122 310.1219,-86 441.8781,-86 441.8781,-122"/>
<text text-anchor="middle" x="376" y="-99.8" font-family="Times,serif" font-size="14.00" fill="#000000">NgxEditorJSModule</text>
</g>
<!-- NgxEditorJSModule&#45;&gt;NgxEditorjsDemoModule -->
<g id="edge6" class="edge">
<title>NgxEditorJSModule&#45;&gt;NgxEditorjsDemoModule</title>
<path fill="none" stroke="#000000" d="M392.517,-122.0091C392.517,-138.0494 392.517,-159 392.517,-159 392.517,-159 473.8091,-159 473.8091,-159"/>
<polygon fill="#000000" stroke="#000000" points="473.8092,-162.5001 483.8091,-159 473.8091,-155.5001 473.8092,-162.5001"/>
</g>
<!-- PageStoreModule -->
<g id="node8" class="node">
<title>PageStoreModule</title>
<polygon fill="#8dd3c7" stroke="#000000" points="292.3104,-122 289.3104,-126 268.3104,-126 265.3104,-122 175.6896,-122 175.6896,-86 292.3104,-86 292.3104,-122"/>
<text text-anchor="middle" x="234" y="-99.8" font-family="Times,serif" font-size="14.00" fill="#000000">PageStoreModule</text>
</g>
<!-- PageStoreModule&#45;&gt;NgxEditorjsDemoModule -->
<g id="edge7" class="edge">
<title>PageStoreModule&#45;&gt;NgxEditorjsDemoModule</title>
<path fill="none" stroke="#000000" d="M234,-122.2667C234,-140.5552 234,-166 234,-166 234,-166 473.6044,-166 473.6044,-166"/>
<polygon fill="#000000" stroke="#000000" points="473.6044,-169.5001 483.6044,-166 473.6043,-162.5001 473.6044,-169.5001"/>
</g>
<!-- SimpleImageModule -->
<g id="node9" class="node">
<title>SimpleImageModule</title>
<polygon fill="#8dd3c7" stroke="#000000" points="158.1993,-122 155.1993,-126 134.1993,-126 131.1993,-122 23.8007,-122 23.8007,-86 158.1993,-86 158.1993,-122"/>
<text text-anchor="middle" x="91" y="-99.8" font-family="Times,serif" font-size="14.00" fill="#000000">SimpleImageModule</text>
</g>
<!-- SimpleImageModule&#45;&gt;NgxEditorjsDemoModule -->
<g id="edge8" class="edge">
<title>SimpleImageModule&#45;&gt;NgxEditorjsDemoModule</title>
<path fill="none" stroke="#000000" d="M91,-122.1289C91,-142.5724 91,-173 91,-173 91,-173 473.7859,-173 473.7859,-173"/>
<polygon fill="#000000" stroke="#000000" points="473.786,-176.5001 483.7859,-173 473.7859,-169.5001 473.786,-176.5001"/>
</g>
</g>
</svg>
