<?xml version="1.0" encoding="UTF-8" standalone="no"?>
<!DOCTYPE svg PUBLIC "-//W3C//DTD SVG 1.1//EN"
 "http://www.w3.org/Graphics/SVG/1.1/DTD/svg11.dtd">
<!-- Generated by graphviz version 2.40.1 (20161225.0304)
 -->
<!-- Title: dependencies Pages: 1 -->
<svg width="3274pt" height="504pt"
 viewBox="0.00 0.00 3274.00 504.00" xmlns="http://www.w3.org/2000/svg" xmlns:xlink="http://www.w3.org/1999/xlink">
<g id="graph0" class="graph" transform="scale(1 1) rotate(0) translate(4 500)">
<title>dependencies</title>
<polygon fill="#ffffff" stroke="transparent" points="-4,4 -4,-500 3270,-500 3270,4 -4,4"/>
<text text-anchor="start" x="1612.0091" y="-42.4" font-family="sans-serif" font-weight="bold" font-size="14.00" fill="#000000">Legend</text>
<polygon fill="#ffffb3" stroke="transparent" points="1399,-10 1399,-30 1419,-30 1419,-10 1399,-10"/>
<text text-anchor="start" x="1422.629" y="-15.4" font-family="sans-serif" font-size="14.00" fill="#000000"> &#160;Declarations</text>
<polygon fill="#8dd3c7" stroke="transparent" points="1512,-10 1512,-30 1532,-30 1532,-10 1512,-10"/>
<text text-anchor="start" x="1535.7251" y="-15.4" font-family="sans-serif" font-size="14.00" fill="#000000"> &#160;Module</text>
<polygon fill="#80b1d3" stroke="transparent" points="1598,-10 1598,-30 1618,-30 1618,-10 1598,-10"/>
<text text-anchor="start" x="1621.7812" y="-15.4" font-family="sans-serif" font-size="14.00" fill="#000000"> &#160;Bootstrap</text>
<polygon fill="#fdb462" stroke="transparent" points="1695,-10 1695,-30 1715,-30 1715,-10 1695,-10"/>
<text text-anchor="start" x="1718.6732" y="-15.4" font-family="sans-serif" font-size="14.00" fill="#000000"> &#160;Providers</text>
<polygon fill="#fb8072" stroke="transparent" points="1791,-10 1791,-30 1811,-30 1811,-10 1791,-10"/>
<text text-anchor="start" x="1814.7258" y="-15.4" font-family="sans-serif" font-size="14.00" fill="#000000"> &#160;Exports</text>
<g id="clust1" class="cluster">
<title>cluster_ApplicationDataModule</title>
<polygon fill="none" stroke="#000000" stroke-dasharray="1,5" points="208,-222 208,-350 763,-350 763,-222 208,-222"/>
</g>
<g id="clust6" class="cluster">
<title>cluster_ApplicationDataModule_providers</title>
<polygon fill="none" stroke="#000000" points="216,-230 216,-282 755,-282 755,-230 216,-230"/>
</g>
<g id="clust7" class="cluster">
<title>cluster_AppModule</title>
<polygon fill="none" stroke="#000000" stroke-dasharray="1,5" points="771,-222 771,-488 1473,-488 1473,-222 771,-222"/>
</g>
<g id="clust8" class="cluster">
<title>cluster_AppModule_declarations</title>
<polygon fill="none" stroke="#000000" points="1059,-298 1059,-350 1465,-350 1465,-298 1059,-298"/>
</g>
<g id="clust12" class="cluster">
<title>cluster_AppModule_imports</title>
<polygon fill="none" stroke="#000000" points="779,-230 779,-350 1051,-350 1051,-230 779,-230"/>
</g>
<g id="clust14" class="cluster">
<title>cluster_AppModule_bootstrap</title>
<polygon fill="none" stroke="#000000" points="900,-428 900,-480 1024,-480 1024,-428 900,-428"/>
</g>
<g id="clust16" class="cluster">
<title>cluster_CodeModule</title>
<polygon fill="none" stroke="#000000" stroke-dasharray="1,5" points="2634,-146 2634,-282 2780,-282 2780,-146 2634,-146"/>
</g>
<g id="clust21" class="cluster">
<title>cluster_CodeModule_providers</title>
<polygon fill="none" stroke="#000000" points="2642,-154 2642,-206 2772,-206 2772,-154 2642,-154"/>
</g>
<g id="clust22" class="cluster">
<title>cluster_ImageModule</title>
<polygon fill="none" stroke="#000000" stroke-dasharray="1,5" points="3106,-70 3106,-206 3258,-206 3258,-70 3106,-70"/>
</g>
<g id="clust27" class="cluster">
<title>cluster_ImageModule_providers</title>
<polygon fill="none" stroke="#000000" points="3114,-78 3114,-130 3250,-130 3250,-78 3114,-78"/>
</g>
<g id="clust28" class="cluster">
<title>cluster_LinkModule</title>
<polygon fill="none" stroke="#000000" stroke-dasharray="1,5" points="2788,-146 2788,-282 2928,-282 2928,-146 2788,-146"/>
</g>
<g id="clust33" class="cluster">
<title>cluster_LinkModule_providers</title>
<polygon fill="none" stroke="#000000" points="2796,-154 2796,-206 2920,-206 2920,-154 2796,-154"/>
</g>
<g id="clust34" class="cluster">
<title>cluster_MarkerModule</title>
<polygon fill="none" stroke="#000000" stroke-dasharray="1,5" points="2936,-146 2936,-282 3098,-282 3098,-146 2936,-146"/>
</g>
<g id="clust39" class="cluster">
<title>cluster_MarkerModule_providers</title>
<polygon fill="none" stroke="#000000" points="2944,-154 2944,-206 3090,-206 3090,-154 2944,-154"/>
</g>
<g id="clust46" class="cluster">
<title>cluster_NgxEditorjsDemoModule</title>
<polygon fill="none" stroke="#000000" stroke-dasharray="1,5" points="1481,-222 1481,-290 2626,-290 2626,-222 1481,-222"/>
</g>
<g id="clust47" class="cluster">
<title>cluster_NgxEditorjsDemoModule_declarations</title>
<polygon fill="none" stroke="#000000" points="2276,-230 2276,-282 2618,-282 2618,-230 2276,-230"/>
</g>
<g id="clust50" class="cluster">
<title>cluster_NgxEditorjsDemoModule_imports</title>
<polygon fill="none" stroke="#000000" points="1984,-230 1984,-282 2268,-282 2268,-230 1984,-230"/>
</g>
<g id="clust51" class="cluster">
<title>cluster_NgxEditorjsDemoModule_exports</title>
<polygon fill="none" stroke="#000000" points="1489,-230 1489,-282 1976,-282 1976,-230 1489,-230"/>
</g>
<g id="clust54" class="cluster">
<title>cluster_NgxEditorJSModule</title>
<polygon fill="none" stroke="#000000" stroke-dasharray="1,5" points="8,-146 8,-214 1846,-214 1846,-146 8,-146"/>
</g>
<g id="clust55" class="cluster">
<title>cluster_NgxEditorJSModule_declarations</title>
<polygon fill="none" stroke="#000000" points="1510,-154 1510,-206 1838,-206 1838,-154 1510,-154"/>
</g>
<g id="clust58" class="cluster">
<title>cluster_NgxEditorJSModule_imports</title>
<polygon fill="none" stroke="#000000" points="1044,-154 1044,-206 1502,-206 1502,-154 1044,-154"/>
</g>
<g id="clust59" class="cluster">
<title>cluster_NgxEditorJSModule_exports</title>
<polygon fill="none" stroke="#000000" points="368,-154 368,-206 1036,-206 1036,-154 368,-154"/>
</g>
<g id="clust61" class="cluster">
<title>cluster_NgxEditorJSModule_providers</title>
<polygon fill="none" stroke="#000000" points="16,-154 16,-206 360,-206 360,-154 16,-154"/>
</g>
<g id="clust68" class="cluster">
<title>cluster_PageStoreModule</title>
<polygon fill="none" stroke="#000000" stroke-dasharray="1,5" points="1854,-146 1854,-214 2271,-214 2271,-146 1854,-146"/>
</g>
<g id="clust73" class="cluster">
<title>cluster_PageStoreModule_providers</title>
<polygon fill="none" stroke="#000000" points="1862,-154 1862,-206 2263,-206 2263,-154 1862,-154"/>
</g>
<g id="clust74" class="cluster">
<title>cluster_PluginHeaderModule</title>
<polygon fill="none" stroke="#000000" stroke-dasharray="1,5" points="1030,-70 1030,-138 1190,-138 1190,-70 1030,-70"/>
</g>
<g id="clust79" class="cluster">
<title>cluster_PluginHeaderModule_providers</title>
<polygon fill="none" stroke="#000000" points="1038,-78 1038,-130 1182,-130 1182,-78 1038,-78"/>
</g>
<g id="clust80" class="cluster">
<title>cluster_PluginListModule</title>
<polygon fill="none" stroke="#000000" stroke-dasharray="1,5" points="1198,-70 1198,-138 1332,-138 1332,-70 1198,-70"/>
</g>
<g id="clust85" class="cluster">
<title>cluster_PluginListModule_providers</title>
<polygon fill="none" stroke="#000000" points="1206,-78 1206,-130 1324,-130 1324,-78 1206,-78"/>
</g>
<g id="clust86" class="cluster">
<title>cluster_PluginParagraphModule</title>
<polygon fill="none" stroke="#000000" stroke-dasharray="1,5" points="1340,-70 1340,-138 1522,-138 1522,-70 1340,-70"/>
</g>
<g id="clust91" class="cluster">
<title>cluster_PluginParagraphModule_providers</title>
<polygon fill="none" stroke="#000000" points="1348,-78 1348,-130 1514,-130 1514,-78 1348,-78"/>
</g>
<g id="clust92" class="cluster">
<title>cluster_SimpleImageModule</title>
<polygon fill="none" stroke="#000000" stroke-dasharray="1,5" points="2279,-146 2279,-214 2487,-214 2487,-146 2279,-146"/>
</g>
<g id="clust97" class="cluster">
<title>cluster_SimpleImageModule_providers</title>
<polygon fill="none" stroke="#000000" points="2287,-154 2287,-206 2479,-206 2479,-154 2287,-154"/>
</g>
<!-- ApplicationQuery -->
<g id="node1" class="node">
<title>ApplicationQuery</title>
<ellipse fill="#fdb462" stroke="#000000" cx="666" cy="-256" rx="80.52" ry="18"/>
<text text-anchor="middle" x="666" y="-251.8" font-family="Times,serif" font-size="14.00" fill="#000000">ApplicationQuery</text>
</g>
<!-- ApplicationDataModule -->
<g id="node4" class="node">
<title>ApplicationDataModule</title>
<polygon fill="#8dd3c7" stroke="#000000" points="650.0744,-342 647.0744,-346 626.0744,-346 623.0744,-342 497.9256,-342 497.9256,-306 650.0744,-306 650.0744,-342"/>
<text text-anchor="middle" x="574" y="-319.8" font-family="Times,serif" font-size="14.00" fill="#000000">ApplicationDataModule</text>
</g>
<!-- ApplicationQuery&#45;&gt;ApplicationDataModule -->
<g id="edge1" class="edge">
<title>ApplicationQuery&#45;&gt;ApplicationDataModule</title>
<path fill="none" stroke="#000000" d="M617.6388,-270.4211C617.6388,-270.4211 617.6388,-295.9613 617.6388,-295.9613"/>
<polygon fill="#000000" stroke="#000000" points="614.1389,-295.9613 617.6388,-305.9613 621.1389,-295.9614 614.1389,-295.9613"/>
</g>
<!-- ApplicationService -->
<g id="node2" class="node">
<title>ApplicationService</title>
<ellipse fill="#fdb462" stroke="#000000" cx="482" cy="-256" rx="85.6705" ry="18"/>
<text text-anchor="middle" x="482" y="-251.8" font-family="Times,serif" font-size="14.00" fill="#000000">ApplicationService</text>
</g>
<!-- ApplicationService&#45;&gt;ApplicationDataModule -->
<g id="edge2" class="edge">
<title>ApplicationService&#45;&gt;ApplicationDataModule</title>
<path fill="none" stroke="#000000" d="M532.774,-270.755C532.774,-270.755 532.774,-295.8833 532.774,-295.8833"/>
<polygon fill="#000000" stroke="#000000" points="529.2741,-295.8833 532.774,-305.8833 536.2741,-295.8833 529.2741,-295.8833"/>
</g>
<!-- ApplicationStore -->
<g id="node3" class="node">
<title>ApplicationStore</title>
<ellipse fill="#fdb462" stroke="#000000" cx="301" cy="-256" rx="77.0236" ry="18"/>
<text text-anchor="middle" x="301" y="-251.8" font-family="Times,serif" font-size="14.00" fill="#000000">ApplicationStore</text>
</g>
<!-- ApplicationStore&#45;&gt;ApplicationDataModule -->
<g id="edge3" class="edge">
<title>ApplicationStore&#45;&gt;ApplicationDataModule</title>
<path fill="none" stroke="#000000" d="M301,-274.2228C301,-294.3652 301,-324 301,-324 301,-324 487.9543,-324 487.9543,-324"/>
<polygon fill="#000000" stroke="#000000" points="487.9543,-327.5001 497.9543,-324 487.9542,-320.5001 487.9543,-327.5001"/>
</g>
<!-- AppModule -->
<g id="node8" class="node">
<title>AppModule</title>
<polygon fill="#8dd3c7" stroke="#000000" points="1003.6571,-407 1000.6571,-411 979.6571,-411 976.6571,-407 920.3429,-407 920.3429,-371 1003.6571,-371 1003.6571,-407"/>
<text text-anchor="middle" x="962" y="-384.8" font-family="Times,serif" font-size="14.00" fill="#000000">AppModule</text>
</g>
<!-- ApplicationDataModule&#45;&gt;AppModule -->
<g id="edge7" class="edge">
<title>ApplicationDataModule&#45;&gt;AppModule</title>
<path fill="none" stroke="#000000" d="M574,-342.2843C574,-363.3211 574,-395 574,-395 574,-395 910.1086,-395 910.1086,-395"/>
<polygon fill="#000000" stroke="#000000" points="910.1086,-398.5001 920.1086,-395 910.1085,-391.5001 910.1086,-398.5001"/>
</g>
<!-- AppComponent -->
<g id="node5" class="node">
<title>AppComponent</title>
<polygon fill="#ffffb3" stroke="#000000" points="1314.9399,-342 1209.0601,-342 1209.0601,-306 1314.9399,-306 1314.9399,-342"/>
<text text-anchor="middle" x="1262" y="-319.8" font-family="Times,serif" font-size="14.00" fill="#000000">AppComponent</text>
</g>
<!-- AppComponent&#45;&gt;AppModule -->
<g id="edge4" class="edge">
<title>AppComponent&#45;&gt;AppModule</title>
<path fill="none" stroke="#000000" d="M1262,-342.1289C1262,-362.5724 1262,-393 1262,-393 1262,-393 1013.7137,-393 1013.7137,-393"/>
<polygon fill="#000000" stroke="#000000" points="1013.7137,-389.5001 1003.7137,-393 1013.7137,-396.5001 1013.7137,-389.5001"/>
</g>
<!-- NavBarComponent -->
<g id="node6" class="node">
<title>NavBarComponent</title>
<polygon fill="#ffffb3" stroke="#000000" points="1191.3655,-342 1066.6345,-342 1066.6345,-306 1191.3655,-306 1191.3655,-342"/>
<text text-anchor="middle" x="1129" y="-319.8" font-family="Times,serif" font-size="14.00" fill="#000000">NavBarComponent</text>
</g>
<!-- NavBarComponent&#45;&gt;AppModule -->
<g id="edge5" class="edge">
<title>NavBarComponent&#45;&gt;AppModule</title>
<path fill="none" stroke="#000000" d="M1129,-342.2667C1129,-360.5552 1129,-386 1129,-386 1129,-386 1013.7104,-386 1013.7104,-386"/>
<polygon fill="#000000" stroke="#000000" points="1013.7104,-382.5001 1003.7104,-386 1013.7103,-389.5001 1013.7104,-382.5001"/>
</g>
<!-- SidebarComponent -->
<g id="node7" class="node">
<title>SidebarComponent</title>
<polygon fill="#ffffb3" stroke="#000000" points="1457.0954,-342 1332.9046,-342 1332.9046,-306 1457.0954,-306 1457.0954,-342"/>
<text text-anchor="middle" x="1395" y="-319.8" font-family="Times,serif" font-size="14.00" fill="#000000">SidebarComponent</text>
</g>
<!-- SidebarComponent&#45;&gt;AppModule -->
<g id="edge6" class="edge">
<title>SidebarComponent&#45;&gt;AppModule</title>
<path fill="none" stroke="#000000" d="M1395,-342.0109C1395,-364.4852 1395,-400 1395,-400 1395,-400 1013.9113,-400 1013.9113,-400"/>
<polygon fill="#000000" stroke="#000000" points="1013.9113,-396.5001 1003.9113,-400 1013.9113,-403.5001 1013.9113,-396.5001"/>
</g>
<!-- AppComponent  -->
<g id="node12" class="node">
<title>AppComponent </title>
<polygon fill="#80b1d3" stroke="#000000" points="1016.439,-472 907.561,-472 907.561,-436 1016.439,-436 1016.439,-472"/>
<text text-anchor="middle" x="962" y="-449.8" font-family="Times,serif" font-size="14.00" fill="#000000">AppComponent </text>
</g>
<!-- AppModule&#45;&gt;AppComponent  -->
<g id="edge11" class="edge">
<title>AppModule&#45;&gt;AppComponent </title>
<path fill="none" stroke="#000000" stroke-dasharray="1,5" d="M962,-407.1061C962,-407.1061 962,-425.991 962,-425.991"/>
<polygon fill="#000000" stroke="#000000" points="958.5001,-425.9909 962,-435.991 965.5001,-425.991 958.5001,-425.9909"/>
</g>
<!-- MaterialModule -->
<g id="node9" class="node">
<title>MaterialModule</title>
<polygon fill="#8dd3c7" stroke="#000000" points="893.4706,-274 890.4706,-278 869.4706,-278 866.4706,-274 786.5294,-274 786.5294,-238 893.4706,-238 893.4706,-274"/>
<text text-anchor="middle" x="840" y="-251.8" font-family="Times,serif" font-size="14.00" fill="#000000">MaterialModule</text>
</g>
<!-- MaterialModule&#45;&gt;AppModule -->
<g id="edge8" class="edge">
<title>MaterialModule&#45;&gt;AppModule</title>
<path fill="none" stroke="#000000" d="M833.7079,-274.196C833.7079,-309.3126 833.7079,-383 833.7079,-383 833.7079,-383 909.9924,-383 909.9924,-383"/>
<polygon fill="#000000" stroke="#000000" points="909.9924,-386.5001 919.9924,-383 909.9923,-379.5001 909.9924,-386.5001"/>
</g>
<!-- NgxEditorJSModule -->
<g id="node10" class="node">
<title>NgxEditorJSModule</title>
<polygon fill="#8dd3c7" stroke="#000000" points="1042.8781,-274 1039.8781,-278 1018.8781,-278 1015.8781,-274 911.1219,-274 911.1219,-238 1042.8781,-238 1042.8781,-274"/>
<text text-anchor="middle" x="977" y="-251.8" font-family="Times,serif" font-size="14.00" fill="#000000">NgxEditorJSModule</text>
</g>
<!-- NgxEditorJSModule&#45;&gt;AppModule -->
<g id="edge9" class="edge">
<title>NgxEditorJSModule&#45;&gt;AppModule</title>
<path fill="none" stroke="#000000" d="M1042.9461,-268C1054.4751,-268 1062.8599,-268 1062.8599,-268 1062.8599,-268 1062.8599,-379 1062.8599,-379 1062.8599,-379 1013.8975,-379 1013.8975,-379"/>
<polygon fill="#000000" stroke="#000000" points="1013.8975,-375.5001 1003.8975,-379 1013.8974,-382.5001 1013.8975,-375.5001"/>
</g>
<!-- NgxEditorjsDemoModule -->
<g id="node11" class="node">
<title>NgxEditorjsDemoModule</title>
<polygon fill="#8dd3c7" stroke="#000000" points="1043.1979,-342 1040.1979,-346 1019.1979,-346 1016.1979,-342 880.8021,-342 880.8021,-306 1043.1979,-306 1043.1979,-342"/>
<text text-anchor="middle" x="962" y="-319.8" font-family="Times,serif" font-size="14.00" fill="#000000">NgxEditorjsDemoModule</text>
</g>
<!-- NgxEditorJSModule&#45;&gt;NgxEditorjsDemoModule -->
<g id="edge21" class="edge">
<title>NgxEditorJSModule&#45;&gt;NgxEditorjsDemoModule</title>
<path fill="none" stroke="#000000" d="M923.0499,-274.2228C923.0499,-274.2228 923.0499,-295.7269 923.0499,-295.7269"/>
<polygon fill="#000000" stroke="#000000" points="919.55,-295.7269 923.0499,-305.7269 926.55,-295.727 919.55,-295.7269"/>
</g>
<!-- NgxEditorJSComponent  -->
<g id="node33" class="node">
<title>NgxEditorJSComponent </title>
<polygon fill="#fb8072" stroke="#000000" points="533.6607,-198 376.3393,-198 376.3393,-162 533.6607,-162 533.6607,-198"/>
<text text-anchor="middle" x="455" y="-175.8" font-family="Times,serif" font-size="14.00" fill="#000000">NgxEditorJSComponent </text>
</g>
<!-- NgxEditorJSModule&#45;&gt;NgxEditorJSComponent  -->
<g id="edge32" class="edge">
<title>NgxEditorJSModule&#45;&gt;NgxEditorJSComponent </title>
<path fill="none" stroke="#000000" stroke-dasharray="5,2" d="M954.8964,-237.8056C954.8964,-229.7218 954.8964,-222 954.8964,-222 954.8964,-222 464.9975,-222 464.9975,-222 464.9975,-222 464.9975,-208.0555 464.9975,-208.0555"/>
<polygon fill="#000000" stroke="#000000" points="468.4976,-208.0555 464.9975,-198.0555 461.4976,-208.0556 468.4976,-208.0555"/>
</g>
<!-- NgxEditorJSDirective  -->
<g id="node34" class="node">
<title>NgxEditorJSDirective </title>
<polygon fill="#fb8072" stroke="#000000" points="1027.911,-198 884.089,-198 884.089,-162 1027.911,-162 1027.911,-198"/>
<text text-anchor="middle" x="956" y="-175.8" font-family="Times,serif" font-size="14.00" fill="#000000">NgxEditorJSDirective </text>
</g>
<!-- NgxEditorJSModule&#45;&gt;NgxEditorJSDirective  -->
<g id="edge33" class="edge">
<title>NgxEditorJSModule&#45;&gt;NgxEditorJSDirective </title>
<path fill="none" stroke="#000000" stroke-dasharray="5,2" d="M1013.3437,-237.9891C1013.3437,-237.9891 1013.3437,-208.145 1013.3437,-208.145"/>
<polygon fill="#000000" stroke="#000000" points="1016.8438,-208.145 1013.3437,-198.145 1009.8438,-208.1451 1016.8438,-208.145"/>
</g>
<!-- PluginHeaderModule  -->
<g id="node35" class="node">
<title>PluginHeaderModule </title>
<polygon fill="#fb8072" stroke="#000000" points="866.0246,-198 725.9754,-198 725.9754,-162 866.0246,-162 866.0246,-198"/>
<text text-anchor="middle" x="796" y="-175.8" font-family="Times,serif" font-size="14.00" fill="#000000">PluginHeaderModule </text>
</g>
<!-- NgxEditorJSModule&#45;&gt;PluginHeaderModule  -->
<g id="edge34" class="edge">
<title>NgxEditorJSModule&#45;&gt;PluginHeaderModule </title>
<path fill="none" stroke="#000000" stroke-dasharray="5,2" d="M998.7319,-237.8196C998.7319,-224.9618 998.7319,-210 998.7319,-210 998.7319,-210 826.2635,-210 826.2635,-210 826.2635,-210 826.2635,-208.1432 826.2635,-208.1432"/>
<polygon fill="#000000" stroke="#000000" points="829.7636,-208.1432 826.2635,-198.1432 822.7636,-208.1432 829.7636,-208.1432"/>
</g>
<!-- PluginParagraphModule  -->
<g id="node36" class="node">
<title>PluginParagraphModule </title>
<polygon fill="#fb8072" stroke="#000000" points="708.3616,-198 551.6384,-198 551.6384,-162 708.3616,-162 708.3616,-198"/>
<text text-anchor="middle" x="630" y="-175.8" font-family="Times,serif" font-size="14.00" fill="#000000">PluginParagraphModule </text>
</g>
<!-- NgxEditorJSModule&#45;&gt;PluginParagraphModule  -->
<g id="edge35" class="edge">
<title>NgxEditorJSModule&#45;&gt;PluginParagraphModule </title>
<path fill="none" stroke="#000000" stroke-dasharray="5,2" d="M969.5083,-237.8903C969.5083,-228.103 969.5083,-218 969.5083,-218 969.5083,-218 626.2204,-218 626.2204,-218 626.2204,-218 626.2204,-208.1097 626.2204,-208.1097"/>
<polygon fill="#000000" stroke="#000000" points="629.7205,-208.1096 626.2204,-198.1097 622.7205,-208.1097 629.7205,-208.1096"/>
</g>
<!-- NgxEditorJSModule&#45;&gt;PluginParagraphModule  -->
<g id="edge36" class="edge">
<title>NgxEditorJSModule&#45;&gt;PluginParagraphModule </title>
<path fill="none" stroke="#000000" stroke-dasharray="5,2" d="M984.1201,-237.9445C984.1201,-226.561 984.1201,-214 984.1201,-214 984.1201,-214 667.2005,-214 667.2005,-214 667.2005,-214 667.2005,-208.1944 667.2005,-208.1944"/>
<polygon fill="#000000" stroke="#000000" points="670.7006,-208.1944 667.2005,-198.1944 663.7006,-208.1945 670.7006,-208.1944"/>
</g>
<!-- NgxEditorjsDemoModule&#45;&gt;AppModule -->
<g id="edge10" class="edge">
<title>NgxEditorjsDemoModule&#45;&gt;AppModule</title>
<path fill="none" stroke="#000000" d="M962,-342.1061C962,-342.1061 962,-360.991 962,-360.991"/>
<polygon fill="#000000" stroke="#000000" points="958.5001,-360.9909 962,-370.991 965.5001,-360.991 958.5001,-360.9909"/>
</g>
<!-- EditorPageComponent  -->
<g id="node25" class="node">
<title>EditorPageComponent </title>
<polygon fill="#fb8072" stroke="#000000" points="1967.5386,-274 1820.4614,-274 1820.4614,-238 1967.5386,-238 1967.5386,-274"/>
<text text-anchor="middle" x="1894" y="-251.8" font-family="Times,serif" font-size="14.00" fill="#000000">EditorPageComponent </text>
</g>
<!-- NgxEditorjsDemoModule&#45;&gt;EditorPageComponent  -->
<g id="edge24" class="edge">
<title>NgxEditorjsDemoModule&#45;&gt;EditorPageComponent </title>
<path fill="none" stroke="#000000" stroke-dasharray="5,2" d="M1030.9501,-305.5146C1030.9501,-293.8601 1030.9501,-281 1030.9501,-281 1030.9501,-281 1894,-281 1894,-281 1894,-281 1894,-280.3169 1894,-280.3169"/>
<polygon fill="#000000" stroke="#000000" points="1897.5002,-284.1686 1894,-274.1686 1890.5002,-284.1687 1897.5002,-284.1686"/>
</g>
<!-- PageContainerComponent  -->
<g id="node26" class="node">
<title>PageContainerComponent </title>
<polygon fill="#fb8072" stroke="#000000" points="1802.752,-274 1635.248,-274 1635.248,-238 1802.752,-238 1802.752,-274"/>
<text text-anchor="middle" x="1719" y="-251.8" font-family="Times,serif" font-size="14.00" fill="#000000">PageContainerComponent </text>
</g>
<!-- NgxEditorjsDemoModule&#45;&gt;PageContainerComponent  -->
<g id="edge25" class="edge">
<title>NgxEditorjsDemoModule&#45;&gt;PageContainerComponent </title>
<path fill="none" stroke="#000000" stroke-dasharray="5,2" d="M1018.9612,-305.8196C1018.9612,-292.9618 1018.9612,-278 1018.9612,-278 1018.9612,-278 1719,-278 1719,-278 1719,-278 1719,-277.6168 1719,-277.6168"/>
<polygon fill="#000000" stroke="#000000" points="1722.5003,-284.1678 1719,-274.1679 1715.5003,-284.168 1722.5003,-284.1678"/>
</g>
<!-- PageStoreModule  -->
<g id="node27" class="node">
<title>PageStoreModule </title>
<polygon fill="#fb8072" stroke="#000000" points="1616.8102,-274 1497.1898,-274 1497.1898,-238 1616.8102,-238 1616.8102,-274"/>
<text text-anchor="middle" x="1557" y="-251.8" font-family="Times,serif" font-size="14.00" fill="#000000">PageStoreModule </text>
</g>
<!-- NgxEditorjsDemoModule&#45;&gt;PageStoreModule  -->
<g id="edge26" class="edge">
<title>NgxEditorjsDemoModule&#45;&gt;PageStoreModule </title>
<path fill="none" stroke="#000000" stroke-dasharray="5,2" d="M1043.1097,-324C1052.695,-324 1059.1525,-324 1059.1525,-324 1059.1525,-324 1059.1525,-262 1059.1525,-262 1059.1525,-262 1486.948,-262 1486.948,-262"/>
<polygon fill="#000000" stroke="#000000" points="1486.948,-265.5001 1496.948,-262 1486.9479,-258.5001 1486.948,-265.5001"/>
</g>
<!-- PluginCode -->
<g id="node13" class="node">
<title>PluginCode</title>
<ellipse fill="#fdb462" stroke="#000000" cx="2707" cy="-180" rx="56.7832" ry="18"/>
<text text-anchor="middle" x="2707" y="-175.8" font-family="Times,serif" font-size="14.00" fill="#000000">PluginCode</text>
</g>
<!-- CodeModule -->
<g id="node14" class="node">
<title>CodeModule</title>
<polygon fill="#8dd3c7" stroke="#000000" points="2741.6011,-274 2738.6011,-278 2717.6011,-278 2714.6011,-274 2652.3989,-274 2652.3989,-238 2741.6011,-238 2741.6011,-274"/>
<text text-anchor="middle" x="2697" y="-251.8" font-family="Times,serif" font-size="14.00" fill="#000000">CodeModule</text>
</g>
<!-- PluginCode&#45;&gt;CodeModule -->
<g id="edge12" class="edge">
<title>PluginCode&#45;&gt;CodeModule</title>
<path fill="none" stroke="#000000" d="M2697,-198.0109C2697,-198.0109 2697,-227.855 2697,-227.855"/>
<polygon fill="#000000" stroke="#000000" points="2693.5001,-227.8549 2697,-237.855 2700.5001,-227.855 2693.5001,-227.8549"/>
</g>
<!-- CodeModule&#45;&gt;NgxEditorjsDemoModule -->
<g id="edge18" class="edge">
<title>CodeModule&#45;&gt;NgxEditorjsDemoModule</title>
<path fill="none" stroke="#000000" d="M2697,-274.1025C2697,-285.0859 2697,-297 2697,-297 2697,-297 982.9945,-297 982.9945,-297 982.9945,-297 982.9945,-297.8841 982.9945,-297.8841"/>
<polygon fill="#000000" stroke="#000000" points="979.4946,-295.8408 982.9945,-305.8408 986.4946,-295.8409 979.4946,-295.8408"/>
</g>
<!-- PluginImage -->
<g id="node15" class="node">
<title>PluginImage</title>
<ellipse fill="#fdb462" stroke="#000000" cx="3182" cy="-104" rx="60.273" ry="18"/>
<text text-anchor="middle" x="3182" y="-99.8" font-family="Times,serif" font-size="14.00" fill="#000000">PluginImage</text>
</g>
<!-- ImageModule -->
<g id="node16" class="node">
<title>ImageModule</title>
<polygon fill="#8dd3c7" stroke="#000000" points="3229.0314,-198 3226.0314,-202 3205.0314,-202 3202.0314,-198 3134.9686,-198 3134.9686,-162 3229.0314,-162 3229.0314,-198"/>
<text text-anchor="middle" x="3182" y="-175.8" font-family="Times,serif" font-size="14.00" fill="#000000">ImageModule</text>
</g>
<!-- PluginImage&#45;&gt;ImageModule -->
<g id="edge13" class="edge">
<title>PluginImage&#45;&gt;ImageModule</title>
<path fill="none" stroke="#000000" d="M3182,-122.0109C3182,-122.0109 3182,-151.855 3182,-151.855"/>
<polygon fill="#000000" stroke="#000000" points="3178.5001,-151.8549 3182,-161.855 3185.5001,-151.855 3178.5001,-151.8549"/>
</g>
<!-- PluginLink -->
<g id="node17" class="node">
<title>PluginLink</title>
<ellipse fill="#fdb462" stroke="#000000" cx="2858" cy="-180" rx="54.4952" ry="18"/>
<text text-anchor="middle" x="2858" y="-175.8" font-family="Times,serif" font-size="14.00" fill="#000000">PluginLink</text>
</g>
<!-- LinkModule -->
<g id="node18" class="node">
<title>LinkModule</title>
<polygon fill="#8dd3c7" stroke="#000000" points="2890.993,-274 2887.993,-278 2866.993,-278 2863.993,-274 2805.007,-274 2805.007,-238 2890.993,-238 2890.993,-274"/>
<text text-anchor="middle" x="2848" y="-251.8" font-family="Times,serif" font-size="14.00" fill="#000000">LinkModule</text>
</g>
<!-- PluginLink&#45;&gt;LinkModule -->
<g id="edge14" class="edge">
<title>PluginLink&#45;&gt;LinkModule</title>
<path fill="none" stroke="#000000" d="M2848,-198.0109C2848,-198.0109 2848,-227.855 2848,-227.855"/>
<polygon fill="#000000" stroke="#000000" points="2844.5001,-227.8549 2848,-237.855 2851.5001,-227.855 2844.5001,-227.8549"/>
</g>
<!-- LinkModule&#45;&gt;NgxEditorjsDemoModule -->
<g id="edge19" class="edge">
<title>LinkModule&#45;&gt;NgxEditorjsDemoModule</title>
<path fill="none" stroke="#000000" d="M2848,-274.1505C2848,-286.2708 2848,-300 2848,-300 2848,-300 994.9834,-300 994.9834,-300 994.9834,-300 994.9834,-300.581 994.9834,-300.581"/>
<polygon fill="#000000" stroke="#000000" points="991.4836,-295.8097 994.9834,-305.8097 998.4836,-295.8098 991.4836,-295.8097"/>
</g>
<!-- PluginMarker -->
<g id="node19" class="node">
<title>PluginMarker</title>
<ellipse fill="#fdb462" stroke="#000000" cx="3017" cy="-180" rx="64.8467" ry="18"/>
<text text-anchor="middle" x="3017" y="-175.8" font-family="Times,serif" font-size="14.00" fill="#000000">PluginMarker</text>
</g>
<!-- MarkerModule -->
<g id="node20" class="node">
<title>MarkerModule</title>
<polygon fill="#8dd3c7" stroke="#000000" points="3055.2451,-274 3052.2451,-278 3031.2451,-278 3028.2451,-274 2954.7549,-274 2954.7549,-238 3055.2451,-238 3055.2451,-274"/>
<text text-anchor="middle" x="3005" y="-251.8" font-family="Times,serif" font-size="14.00" fill="#000000">MarkerModule</text>
</g>
<!-- PluginMarker&#45;&gt;MarkerModule -->
<g id="edge15" class="edge">
<title>PluginMarker&#45;&gt;MarkerModule</title>
<path fill="none" stroke="#000000" d="M3005,-198.0109C3005,-198.0109 3005,-227.855 3005,-227.855"/>
<polygon fill="#000000" stroke="#000000" points="3001.5001,-227.8549 3005,-237.855 3008.5001,-227.855 3001.5001,-227.8549"/>
</g>
<!-- MarkerModule&#45;&gt;NgxEditorjsDemoModule -->
<g id="edge20" class="edge">
<title>MarkerModule&#45;&gt;NgxEditorjsDemoModule</title>
<path fill="none" stroke="#000000" d="M3005,-274.037C3005,-287.2913 3005,-303 3005,-303 3005,-303 1006.9723,-303 1006.9723,-303 1006.9723,-303 1006.9723,-303.292 1006.9723,-303.292"/>
<polygon fill="#000000" stroke="#000000" points="1003.4727,-295.9198 1006.9723,-305.92 1010.4727,-295.9201 1003.4727,-295.9198"/>
</g>
<!-- EditorPageComponent -->
<g id="node21" class="node">
<title>EditorPageComponent</title>
<polygon fill="#ffffb3" stroke="#000000" points="2427.5393,-274 2284.4607,-274 2284.4607,-238 2427.5393,-238 2427.5393,-274"/>
<text text-anchor="middle" x="2356" y="-251.8" font-family="Times,serif" font-size="14.00" fill="#000000">EditorPageComponent</text>
</g>
<!-- EditorPageComponent&#45;&gt;NgxEditorjsDemoModule -->
<g id="edge16" class="edge">
<title>EditorPageComponent&#45;&gt;NgxEditorjsDemoModule</title>
<path fill="none" stroke="#000000" d="M2356,-274.1944C2356,-282.2782 2356,-290 2356,-290 2356,-290 959.0166,-290 959.0166,-290 959.0166,-290 959.0166,-295.8056 959.0166,-295.8056"/>
<polygon fill="#000000" stroke="#000000" points="955.5167,-295.8055 959.0166,-305.8056 962.5167,-295.8056 955.5167,-295.8055"/>
</g>
<!-- PageContainerComponent -->
<g id="node22" class="node">
<title>PageContainerComponent</title>
<polygon fill="#ffffb3" stroke="#000000" points="2609.752,-274 2446.248,-274 2446.248,-238 2609.752,-238 2609.752,-274"/>
<text text-anchor="middle" x="2528" y="-251.8" font-family="Times,serif" font-size="14.00" fill="#000000">PageContainerComponent</text>
</g>
<!-- PageContainerComponent&#45;&gt;NgxEditorjsDemoModule -->
<g id="edge17" class="edge">
<title>PageContainerComponent&#45;&gt;NgxEditorjsDemoModule</title>
<path fill="none" stroke="#000000" d="M2528,-274.1097C2528,-283.897 2528,-294 2528,-294 2528,-294 971.0055,-294 971.0055,-294 971.0055,-294 971.0055,-295.8568 971.0055,-295.8568"/>
<polygon fill="#000000" stroke="#000000" points="967.5056,-295.8568 971.0055,-305.8568 974.5056,-295.8568 967.5056,-295.8568"/>
</g>
<!-- PageStoreModule -->
<g id="node23" class="node">
<title>PageStoreModule</title>
<polygon fill="#8dd3c7" stroke="#000000" points="2108.3104,-274 2105.3104,-278 2084.3104,-278 2081.3104,-274 1991.6896,-274 1991.6896,-238 2108.3104,-238 2108.3104,-274"/>
<text text-anchor="middle" x="2050" y="-251.8" font-family="Times,serif" font-size="14.00" fill="#000000">PageStoreModule</text>
</g>
<!-- PageStoreModule&#45;&gt;NgxEditorjsDemoModule -->
<g id="edge22" class="edge">
<title>PageStoreModule&#45;&gt;NgxEditorjsDemoModule</title>
<path fill="none" stroke="#000000" d="M2050,-274.207C2050,-279.5549 2050,-284 2050,-284 2050,-284 935.0388,-284 935.0388,-284 935.0388,-284 935.0388,-295.8726 935.0388,-295.8726"/>
<polygon fill="#000000" stroke="#000000" points="931.5389,-295.8725 935.0388,-305.8726 938.5389,-295.8726 931.5389,-295.8725"/>
</g>
<!-- SimpleImageModule -->
<g id="node24" class="node">
<title>SimpleImageModule</title>
<polygon fill="#8dd3c7" stroke="#000000" points="2260.1993,-274 2257.1993,-278 2236.1993,-278 2233.1993,-274 2125.8007,-274 2125.8007,-238 2260.1993,-238 2260.1993,-274"/>
<text text-anchor="middle" x="2193" y="-251.8" font-family="Times,serif" font-size="14.00" fill="#000000">SimpleImageModule</text>
</g>
<!-- SimpleImageModule&#45;&gt;NgxEditorjsDemoModule -->
<g id="edge23" class="edge">
<title>SimpleImageModule&#45;&gt;NgxEditorjsDemoModule</title>
<path fill="none" stroke="#000000" d="M2193,-274.0328C2193,-280.8526 2193,-287 2193,-287 2193,-287 947.0277,-287 947.0277,-287 947.0277,-287 947.0277,-295.9336 947.0277,-295.9336"/>
<polygon fill="#000000" stroke="#000000" points="943.5278,-295.9335 947.0277,-305.9336 950.5278,-295.9336 943.5278,-295.9335"/>
</g>
<!-- NgxEditorJSComponent -->
<g id="node28" class="node">
<title>NgxEditorJSComponent</title>
<polygon fill="#ffffb3" stroke="#000000" points="1671.661,-198 1518.339,-198 1518.339,-162 1671.661,-162 1671.661,-198"/>
<text text-anchor="middle" x="1595" y="-175.8" font-family="Times,serif" font-size="14.00" fill="#000000">NgxEditorJSComponent</text>
</g>
<!-- NgxEditorJSComponent&#45;&gt;NgxEditorJSModule -->
<g id="edge27" class="edge">
<title>NgxEditorJSComponent&#45;&gt;NgxEditorJSModule</title>
<path fill="none" stroke="#000000" d="M1567.5374,-198.1679C1567.5374,-200.4478 1567.5374,-202 1567.5374,-202 1567.5374,-202 1032.95,-202 1032.95,-202 1032.95,-202 1032.95,-227.7181 1032.95,-227.7181"/>
<polygon fill="#000000" stroke="#000000" points="1029.4501,-227.718 1032.95,-237.7181 1036.4501,-227.7181 1029.4501,-227.718"/>
</g>
<!-- NgxEditorJSDirective -->
<g id="node29" class="node">
<title>NgxEditorJSDirective</title>
<polygon fill="#ffffb3" stroke="#000000" points="1830.4116,-198 1689.5884,-198 1689.5884,-162 1830.4116,-162 1830.4116,-198"/>
<text text-anchor="middle" x="1760" y="-175.8" font-family="Times,serif" font-size="14.00" fill="#000000">NgxEditorJSDirective</text>
</g>
<!-- NgxEditorJSDirective&#45;&gt;NgxEditorJSModule -->
<g id="edge28" class="edge">
<title>NgxEditorJSDirective&#45;&gt;NgxEditorJSModule</title>
<path fill="none" stroke="#000000" d="M1746.2102,-198.0579C1746.2102,-202.4945 1746.2102,-206 1746.2102,-206 1746.2102,-206 1037.9445,-206 1037.9445,-206 1037.9445,-206 1037.9445,-227.9489 1037.9445,-227.9489"/>
<polygon fill="#000000" stroke="#000000" points="1034.4446,-227.9488 1037.9445,-237.9489 1041.4446,-227.9489 1034.4446,-227.9488"/>
</g>
<!-- PluginHeaderModule -->
<g id="node30" class="node">
<title>PluginHeaderModule</title>
<polygon fill="#8dd3c7" stroke="#000000" points="1188.0254,-198 1185.0254,-202 1164.0254,-202 1161.0254,-198 1051.9746,-198 1051.9746,-162 1188.0254,-162 1188.0254,-198"/>
<text text-anchor="middle" x="1120" y="-175.8" font-family="Times,serif" font-size="14.00" fill="#000000">PluginHeaderModule</text>
</g>
<!-- PluginHeaderModule&#45;&gt;NgxEditorJSModule -->
<g id="edge29" class="edge">
<title>PluginHeaderModule&#45;&gt;NgxEditorJSModule</title>
<path fill="none" stroke="#000000" d="M1055.4451,-198.1686C1055.4451,-217.0898 1055.4451,-244 1055.4451,-244 1055.4451,-244 1053.1881,-244 1053.1881,-244"/>
<polygon fill="#000000" stroke="#000000" points="1053.1881,-240.5001 1043.1881,-244 1053.188,-247.5001 1053.1881,-240.5001"/>
</g>
<!-- PluginListModule -->
<g id="node31" class="node">
<title>PluginListModule</title>
<polygon fill="#8dd3c7" stroke="#000000" points="1323.892,-198 1320.892,-202 1299.892,-202 1296.892,-198 1206.108,-198 1206.108,-162 1323.892,-162 1323.892,-198"/>
<text text-anchor="middle" x="1265" y="-175.8" font-family="Times,serif" font-size="14.00" fill="#000000">PluginListModule</text>
</g>
<!-- PluginListModule&#45;&gt;NgxEditorJSModule -->
<g id="edge30" class="edge">
<title>PluginListModule&#45;&gt;NgxEditorJSModule</title>
<path fill="none" stroke="#000000" d="M1262,-198.0267C1262,-218.7672 1262,-250 1262,-250 1262,-250 1053.1011,-250 1053.1011,-250"/>
<polygon fill="#000000" stroke="#000000" points="1053.1011,-246.5001 1043.1011,-250 1053.101,-253.5001 1053.1011,-246.5001"/>
</g>
<!-- PluginParagraphModule -->
<g id="node32" class="node">
<title>PluginParagraphModule</title>
<polygon fill="#8dd3c7" stroke="#000000" points="1494.3613,-198 1491.3613,-202 1470.3613,-202 1467.3613,-198 1341.6387,-198 1341.6387,-162 1494.3613,-162 1494.3613,-198"/>
<text text-anchor="middle" x="1418" y="-175.8" font-family="Times,serif" font-size="14.00" fill="#000000">PluginParagraphModule</text>
</g>
<!-- PluginParagraphModule&#45;&gt;NgxEditorJSModule -->
<g id="edge31" class="edge">
<title>PluginParagraphModule&#45;&gt;NgxEditorJSModule</title>
<path fill="none" stroke="#000000" d="M1399.3086,-198.0109C1399.3086,-220.4852 1399.3086,-256 1399.3086,-256 1399.3086,-256 1052.9857,-256 1052.9857,-256"/>
<polygon fill="#000000" stroke="#000000" points="1052.9857,-252.5001 1042.9857,-256 1052.9857,-259.5001 1052.9857,-252.5001"/>
</g>
<!-- NgxEditorJSService -->
<g id="node37" class="node">
<title>NgxEditorJSService</title>
<ellipse fill="#fdb462" stroke="#000000" cx="114" cy="-180" rx="89.7653" ry="18"/>
<text text-anchor="middle" x="114" y="-175.8" font-family="Times,serif" font-size="14.00" fill="#000000">NgxEditorJSService</text>
</g>
<!-- NgxEditorJSService&#45;&gt;NgxEditorJSModule -->
<g id="edge37" class="edge">
<title>NgxEditorJSService&#45;&gt;NgxEditorJSModule</title>
<path fill="none" stroke="#000000" d="M114,-198.0511C114,-212.373 114,-230 114,-230 114,-230 925.6728,-230 925.6728,-230 925.6728,-230 925.6728,-230.7942 925.6728,-230.7942"/>
<polygon fill="#000000" stroke="#000000" points="922.173,-227.9421 925.6728,-237.9421 929.173,-227.9422 922.173,-227.9421"/>
</g>
<!-- PluginService -->
<g id="node38" class="node">
<title>PluginService</title>
<ellipse fill="#fdb462" stroke="#000000" cx="287" cy="-180" rx="65.4266" ry="18"/>
<text text-anchor="middle" x="287" y="-175.8" font-family="Times,serif" font-size="14.00" fill="#000000">PluginService</text>
</g>
<!-- PluginService&#45;&gt;NgxEditorJSModule -->
<g id="edge38" class="edge">
<title>PluginService&#45;&gt;NgxEditorJSModule</title>
<path fill="none" stroke="#000000" d="M288.1006,-198.1804C288.1006,-211.0382 288.1006,-226 288.1006,-226 288.1006,-226 940.2846,-226 940.2846,-226 940.2846,-226 940.2846,-227.8568 940.2846,-227.8568"/>
<polygon fill="#000000" stroke="#000000" points="936.7847,-227.8568 940.2846,-237.8568 943.7847,-227.8568 936.7847,-227.8568"/>
</g>
<!-- PagesQuery -->
<g id="node39" class="node">
<title>PagesQuery</title>
<ellipse fill="#fdb462" stroke="#000000" cx="2071" cy="-180" rx="57.8849" ry="18"/>
<text text-anchor="middle" x="2071" y="-175.8" font-family="Times,serif" font-size="14.00" fill="#000000">PagesQuery</text>
</g>
<!-- PagesQuery&#45;&gt;PageStoreModule -->
<g id="edge39" class="edge">
<title>PagesQuery&#45;&gt;PageStoreModule</title>
<path fill="none" stroke="#000000" d="M2044.9236,-196.1176C2044.9236,-196.1176 2044.9236,-227.7719 2044.9236,-227.7719"/>
<polygon fill="#000000" stroke="#000000" points="2041.4237,-227.7719 2044.9236,-237.7719 2048.4237,-227.772 2041.4237,-227.7719"/>
</g>
<!-- PagesService -->
<g id="node40" class="node">
<title>PagesService</title>
<ellipse fill="#fdb462" stroke="#000000" cx="1933" cy="-180" rx="62.5354" ry="18"/>
<text text-anchor="middle" x="1933" y="-175.8" font-family="Times,serif" font-size="14.00" fill="#000000">PagesService</text>
</g>
<!-- PagesService&#45;&gt;PageStoreModule -->
<g id="edge40" class="edge">
<title>PagesService&#45;&gt;PageStoreModule</title>
<path fill="none" stroke="#000000" d="M1995.6562,-180C2000.9956,-180 2004.4128,-180 2004.4128,-180 2004.4128,-180 2004.4128,-227.9891 2004.4128,-227.9891"/>
<polygon fill="#000000" stroke="#000000" points="2000.9129,-227.989 2004.4128,-237.9891 2007.9129,-227.9891 2000.9129,-227.989"/>
</g>
<!-- PagesStore -->
<g id="node41" class="node">
<title>PagesStore</title>
<ellipse fill="#fdb462" stroke="#000000" cx="2201" cy="-180" rx="53.8885" ry="18"/>
<text text-anchor="middle" x="2201" y="-175.8" font-family="Times,serif" font-size="14.00" fill="#000000">PagesStore</text>
</g>
<!-- PagesStore&#45;&gt;PageStoreModule -->
<g id="edge41" class="edge">
<title>PagesStore&#45;&gt;PageStoreModule</title>
<path fill="none" stroke="#000000" d="M2201,-198.2819C2201,-213.9478 2201,-234 2201,-234 2201,-234 2076.5393,-234 2076.5393,-234 2076.5393,-234 2076.5393,-234.3832 2076.5393,-234.3832"/>
<polygon fill="#000000" stroke="#000000" points="2073.0396,-227.832 2076.5393,-237.8321 2080.0396,-227.8322 2073.0396,-227.832"/>
</g>
<!-- PluginHeader -->
<g id="node42" class="node">
<title>PluginHeader</title>
<ellipse fill="#fdb462" stroke="#000000" cx="1110" cy="-104" rx="64.2649" ry="18"/>
<text text-anchor="middle" x="1110" y="-99.8" font-family="Times,serif" font-size="14.00" fill="#000000">PluginHeader</text>
</g>
<!-- PluginHeader&#45;&gt;PluginHeaderModule -->
<g id="edge42" class="edge">
<title>PluginHeader&#45;&gt;PluginHeaderModule</title>
<path fill="none" stroke="#000000" d="M1133.3341,-120.8669C1133.3341,-120.8669 1133.3341,-151.8535 1133.3341,-151.8535"/>
<polygon fill="#000000" stroke="#000000" points="1129.8342,-151.8534 1133.3341,-161.8535 1136.8342,-151.8535 1129.8342,-151.8534"/>
</g>
<!-- PluginHeader&#45;&gt;PluginHeaderModule -->
<g id="edge43" class="edge">
<title>PluginHeader&#45;&gt;PluginHeaderModule</title>
<path fill="none" stroke="#000000" d="M1092.5359,-121.627C1092.5359,-121.627 1092.5359,-151.9409 1092.5359,-151.9409"/>
<polygon fill="#000000" stroke="#000000" points="1089.036,-151.9408 1092.5359,-161.9409 1096.036,-151.9409 1089.036,-151.9408"/>
</g>
<!-- PluginList -->
<g id="node43" class="node">
<title>PluginList</title>
<ellipse fill="#fdb462" stroke="#000000" cx="1265" cy="-104" rx="51.0607" ry="18"/>
<text text-anchor="middle" x="1265" y="-99.8" font-family="Times,serif" font-size="14.00" fill="#000000">PluginList</text>
</g>
<!-- PluginList&#45;&gt;PluginListModule -->
<g id="edge44" class="edge">
<title>PluginList&#45;&gt;PluginListModule</title>
<path fill="none" stroke="#000000" d="M1247.9067,-121.2456C1247.9067,-121.2456 1247.9067,-151.7629 1247.9067,-151.7629"/>
<polygon fill="#000000" stroke="#000000" points="1244.4068,-151.7628 1247.9067,-161.7629 1251.4068,-151.7629 1244.4068,-151.7628"/>
</g>
<!-- PluginList&#45;&gt;PluginListModule -->
<g id="edge45" class="edge">
<title>PluginList&#45;&gt;PluginListModule</title>
<path fill="none" stroke="#000000" d="M1282.0933,-121.2456C1282.0933,-121.2456 1282.0933,-151.7629 1282.0933,-151.7629"/>
<polygon fill="#000000" stroke="#000000" points="1278.5934,-151.7628 1282.0933,-161.7629 1285.5934,-151.7629 1278.5934,-151.7628"/>
</g>
<!-- PluginParagraph -->
<g id="node44" class="node">
<title>PluginParagraph</title>
<ellipse fill="#fdb462" stroke="#000000" cx="1431" cy="-104" rx="75.3021" ry="18"/>
<text text-anchor="middle" x="1431" y="-99.8" font-family="Times,serif" font-size="14.00" fill="#000000">PluginParagraph</text>
</g>
<!-- PluginParagraph&#45;&gt;PluginParagraphModule -->
<g id="edge46" class="edge">
<title>PluginParagraph&#45;&gt;PluginParagraphModule</title>
<path fill="none" stroke="#000000" d="M1448.1534,-121.627C1448.1534,-121.627 1448.1534,-151.9409 1448.1534,-151.9409"/>
<polygon fill="#000000" stroke="#000000" points="1444.6535,-151.9408 1448.1534,-161.9409 1451.6535,-151.9409 1444.6535,-151.9408"/>
</g>
<!-- PluginParagraph&#45;&gt;PluginParagraphModule -->
<g id="edge47" class="edge">
<title>PluginParagraph&#45;&gt;PluginParagraphModule</title>
<path fill="none" stroke="#000000" d="M1401.8762,-120.8669C1401.8762,-120.8669 1401.8762,-151.8535 1401.8762,-151.8535"/>
<polygon fill="#000000" stroke="#000000" points="1398.3763,-151.8534 1401.8762,-161.8535 1405.3763,-151.8535 1398.3763,-151.8534"/>
</g>
<!-- PluginSimpleImage -->
<g id="node45" class="node">
<title>PluginSimpleImage</title>
<ellipse fill="#fdb462" stroke="#000000" cx="2383" cy="-180" rx="87.9994" ry="18"/>
<text text-anchor="middle" x="2383" y="-175.8" font-family="Times,serif" font-size="14.00" fill="#000000">PluginSimpleImage</text>
</g>
<!-- PluginSimpleImage&#45;&gt;SimpleImageModule -->
<g id="edge48" class="edge">
<title>PluginSimpleImage&#45;&gt;SimpleImageModule</title>
<path fill="none" stroke="#000000" d="M2295.1302,-180C2281.6782,-180 2272.1651,-180 2272.1651,-180 2272.1651,-180 2272.1651,-256 2272.1651,-256 2272.1651,-256 2270.1417,-256 2270.1417,-256"/>
<polygon fill="#000000" stroke="#000000" points="2270.1417,-252.5001 2260.1417,-256 2270.1416,-259.5001 2270.1417,-252.5001"/>
</g>
</g>
</svg>
