<?xml version="1.0" encoding="UTF-8" standalone="no"?>
<!DOCTYPE svg PUBLIC "-//W3C//DTD SVG 1.1//EN"
 "http://www.w3.org/Graphics/SVG/1.1/DTD/svg11.dtd">
<!-- Generated by graphviz version 2.40.1 (20161225.0304)
 -->
<!-- Title: dependencies Pages: 1 -->
<svg width="5066pt" height="426pt"
 viewBox="0.00 0.00 5066.00 426.00" xmlns="http://www.w3.org/2000/svg" xmlns:xlink="http://www.w3.org/1999/xlink">
<g id="graph0" class="graph" transform="scale(1 1) rotate(0) translate(4 422)">
<title>dependencies</title>
<polygon fill="#ffffff" stroke="transparent" points="-4,4 -4,-422 5062,-422 5062,4 -4,4"/>
<text text-anchor="start" x="2508.0091" y="-42.4" font-family="sans-serif" font-weight="bold" font-size="14.00" fill="#000000">Legend</text>
<polygon fill="#ffffb3" stroke="transparent" points="2295,-10 2295,-30 2315,-30 2315,-10 2295,-10"/>
<text text-anchor="start" x="2318.629" y="-15.4" font-family="sans-serif" font-size="14.00" fill="#000000"> &#160;Declarations</text>
<polygon fill="#8dd3c7" stroke="transparent" points="2408,-10 2408,-30 2428,-30 2428,-10 2408,-10"/>
<text text-anchor="start" x="2431.7251" y="-15.4" font-family="sans-serif" font-size="14.00" fill="#000000"> &#160;Module</text>
<polygon fill="#80b1d3" stroke="transparent" points="2494,-10 2494,-30 2514,-30 2514,-10 2494,-10"/>
<text text-anchor="start" x="2517.7812" y="-15.4" font-family="sans-serif" font-size="14.00" fill="#000000"> &#160;Bootstrap</text>
<polygon fill="#fdb462" stroke="transparent" points="2591,-10 2591,-30 2611,-30 2611,-10 2591,-10"/>
<text text-anchor="start" x="2614.6732" y="-15.4" font-family="sans-serif" font-size="14.00" fill="#000000"> &#160;Providers</text>
<polygon fill="#fb8072" stroke="transparent" points="2687,-10 2687,-30 2707,-30 2707,-10 2687,-10"/>
<text text-anchor="start" x="2710.7258" y="-15.4" font-family="sans-serif" font-size="14.00" fill="#000000"> &#160;Exports</text>
<g id="clust1" class="cluster">
<title>cluster_NgxEditorJSComponentModule</title>
<polygon fill="none" stroke="#000000" stroke-dasharray="1,5" points="8,-70 8,-342 556,-342 556,-70 8,-70"/>
</g>
<g id="clust2" class="cluster">
<title>cluster_NgxEditorJSComponentModule_declarations</title>
<polygon fill="none" stroke="#000000" points="220,-146 220,-198 548,-198 548,-146 220,-146"/>
</g>
<g id="clust3" class="cluster">
<title>cluster_NgxEditorJSComponentModule_NgxEditorJSComponent_providers</title>
<polygon fill="none" stroke="#000000" points="172,-78 172,-130 548,-130 548,-78 172,-78"/>
</g>
<g id="clust6" class="cluster">
<title>cluster_NgxEditorJSComponentModule_exports</title>
<polygon fill="none" stroke="#000000" points="130,-282 130,-334 466,-334 466,-282 130,-282"/>
</g>
<g id="clust8" class="cluster">
<title>cluster_NgxEditorJSComponentModule_providers</title>
<polygon fill="none" stroke="#000000" points="16,-146 16,-198 212,-198 212,-146 16,-146"/>
</g>
<g id="clust9" class="cluster">
<title>cluster_NgxEditorJSMatFieldModule</title>
<polygon fill="none" stroke="#000000" stroke-dasharray="1,5" points="564,-70 564,-342 982,-342 982,-70 564,-70"/>
</g>
<g id="clust10" class="cluster">
<title>cluster_NgxEditorJSMatFieldModule_declarations</title>
<polygon fill="none" stroke="#000000" points="707,-146 707,-198 927,-198 927,-146 707,-146"/>
</g>
<g id="clust11" class="cluster">
<title>cluster_NgxEditorJSMatFieldModule_NgxEditorJSMatFieldComponent_providers</title>
<polygon fill="none" stroke="#000000" points="572,-78 572,-130 974,-130 974,-78 572,-78"/>
</g>
<g id="clust13" class="cluster">
<title>cluster_NgxEditorJSMatFieldModule_exports</title>
<polygon fill="none" stroke="#000000" points="727,-282 727,-334 951,-334 951,-282 727,-282"/>
</g>
<g id="clust16" class="cluster">
<title>cluster_NgxEditorJSModule</title>
<polygon fill="none" stroke="#000000" stroke-dasharray="1,5" points="990,-282 990,-410 1208,-410 1208,-282 990,-282"/>
</g>
<g id="clust19" class="cluster">
<title>cluster_NgxEditorJSModule_exports</title>
<polygon fill="none" stroke="#000000" points="998,-350 998,-402 1200,-402 1200,-350 998,-350"/>
</g>
<g id="clust22" class="cluster">
<title>cluster_NgxEditorJSPluginServiceModule</title>
<polygon fill="none" stroke="#000000" stroke-dasharray="1,5" points="990,-70 990,-198 1252,-198 1252,-70 990,-70"/>
</g>
<g id="clust27" class="cluster">
<title>cluster_NgxEditorJSPluginServiceModule_providers</title>
<polygon fill="none" stroke="#000000" points="998,-78 998,-130 1244,-130 1244,-78 998,-78"/>
</g>
<g id="clust28" class="cluster">
<title>cluster_NgxEditorjsPluginsModule</title>
<polygon fill="none" stroke="#000000" stroke-dasharray="1,5" points="1260,-138 1260,-342 3428,-342 3428,-138 1260,-138"/>
</g>
<g id="clust30" class="cluster">
<title>cluster_NgxEditorjsPluginsModule_imports</title>
<polygon fill="none" stroke="#000000" points="1393,-146 1393,-198 3272,-198 3272,-146 1393,-146"/>
</g>
<g id="clust31" class="cluster">
<title>cluster_NgxEditorjsPluginsModule_exports</title>
<polygon fill="none" stroke="#000000" points="1268,-282 1268,-334 3420,-334 3420,-282 1268,-282"/>
</g>
<g id="clust34" class="cluster">
<title>cluster_NgxTinynodesComponentsModule</title>
<polygon fill="none" stroke="#000000" stroke-dasharray="1,5" points="3436,-70 3436,-274 3938,-274 3938,-70 3436,-70"/>
</g>
<g id="clust36" class="cluster">
<title>cluster_NgxTinynodesComponentsModule_imports</title>
<polygon fill="none" stroke="#000000" points="3450,-78 3450,-130 3930,-130 3930,-78 3450,-78"/>
</g>
<g id="clust37" class="cluster">
<title>cluster_NgxTinynodesComponentsModule_exports</title>
<polygon fill="none" stroke="#000000" points="3444,-214 3444,-266 3930,-266 3930,-214 3444,-214"/>
</g>
<g id="clust40" class="cluster">
<title>cluster_NgxTinynodesMatJsonOutputModule</title>
<polygon fill="none" stroke="#000000" stroke-dasharray="1,5" points="3946,-138 3946,-206 4506,-206 4506,-138 3946,-138"/>
</g>
<g id="clust41" class="cluster">
<title>cluster_NgxTinynodesMatJsonOutputModule_declarations</title>
<polygon fill="none" stroke="#000000" points="4232,-146 4232,-198 4498,-198 4498,-146 4232,-146"/>
</g>
<g id="clust44" class="cluster">
<title>cluster_NgxTinynodesMatJsonOutputModule_exports</title>
<polygon fill="none" stroke="#000000" points="3954,-146 3954,-198 4224,-198 4224,-146 3954,-146"/>
</g>
<g id="clust47" class="cluster">
<title>cluster_NgxTinynodesMatTagInputModule</title>
<polygon fill="none" stroke="#000000" stroke-dasharray="1,5" points="4514,-138 4514,-206 5050,-206 5050,-138 4514,-138"/>
</g>
<g id="clust48" class="cluster">
<title>cluster_NgxTinynodesMatTagInputModule_declarations</title>
<polygon fill="none" stroke="#000000" points="4788,-146 4788,-198 5042,-198 5042,-146 4788,-146"/>
</g>
<g id="clust51" class="cluster">
<title>cluster_NgxTinynodesMatTagInputModule_exports</title>
<polygon fill="none" stroke="#000000" points="4522,-146 4522,-198 4780,-198 4780,-146 4522,-146"/>
</g>
<!-- NgxEditorJSComponent -->
<g id="node1" class="node">
<title>NgxEditorJSComponent</title>
<polygon fill="#ffffb3" stroke="#000000" points="539.661,-190 386.339,-190 386.339,-154 539.661,-154 539.661,-190"/>
<text text-anchor="middle" x="463" y="-167.8" font-family="Times,serif" font-size="14.00" fill="#000000">NgxEditorJSComponent</text>
</g>
<!-- NgxEditorJSComponentModule -->
<g id="node3" class="node">
<title>NgxEditorJSComponentModule</title>
<polygon fill="#8dd3c7" stroke="#000000" points="396.7105,-258 393.7105,-262 372.7105,-262 369.7105,-258 199.2895,-258 199.2895,-222 396.7105,-222 396.7105,-258"/>
<text text-anchor="middle" x="298" y="-235.8" font-family="Times,serif" font-size="14.00" fill="#000000">NgxEditorJSComponentModule</text>
</g>
<!-- NgxEditorJSComponent&#45;&gt;NgxEditorJSComponentModule -->
<g id="edge1" class="edge">
<title>NgxEditorJSComponent&#45;&gt;NgxEditorJSComponentModule</title>
<path fill="none" stroke="#000000" d="M391.3875,-190.2228C391.3875,-190.2228 391.3875,-211.7269 391.3875,-211.7269"/>
<polygon fill="#000000" stroke="#000000" points="387.8875,-211.7269 391.3875,-221.7269 394.8875,-211.727 387.8875,-211.7269"/>
</g>
<!-- NgxEditorJSDirective -->
<g id="node2" class="node">
<title>NgxEditorJSDirective</title>
<polygon fill="#ffffb3" stroke="#000000" points="368.4116,-190 227.5884,-190 227.5884,-154 368.4116,-154 368.4116,-190"/>
<text text-anchor="middle" x="298" y="-167.8" font-family="Times,serif" font-size="14.00" fill="#000000">NgxEditorJSDirective</text>
</g>
<!-- NgxEditorJSDirective&#45;&gt;NgxEditorJSComponentModule -->
<g id="edge3" class="edge">
<title>NgxEditorJSDirective&#45;&gt;NgxEditorJSComponentModule</title>
<path fill="none" stroke="#000000" d="M298,-190.2228C298,-190.2228 298,-211.7269 298,-211.7269"/>
<polygon fill="#000000" stroke="#000000" points="294.5001,-211.7269 298,-221.7269 301.5001,-211.727 294.5001,-211.7269"/>
</g>
<!-- NgxEditorJSComponent  -->
<g id="node5" class="node">
<title>NgxEditorJSComponent </title>
<polygon fill="#fb8072" stroke="#000000" points="457.6607,-326 300.3393,-326 300.3393,-290 457.6607,-290 457.6607,-326"/>
<text text-anchor="middle" x="379" y="-303.8" font-family="Times,serif" font-size="14.00" fill="#000000">NgxEditorJSComponent </text>
</g>
<!-- NgxEditorJSComponentModule&#45;&gt;NgxEditorJSComponent  -->
<g id="edge4" class="edge">
<title>NgxEditorJSComponentModule&#45;&gt;NgxEditorJSComponent </title>
<path fill="none" stroke="#000000" stroke-dasharray="5,2" d="M348.5125,-258.2228C348.5125,-258.2228 348.5125,-279.7269 348.5125,-279.7269"/>
<polygon fill="#000000" stroke="#000000" points="345.0125,-279.7269 348.5125,-289.7269 352.0125,-279.727 345.0125,-279.7269"/>
</g>
<!-- NgxEditorJSDirective  -->
<g id="node6" class="node">
<title>NgxEditorJSDirective </title>
<polygon fill="#fb8072" stroke="#000000" points="281.911,-326 138.089,-326 138.089,-290 281.911,-290 281.911,-326"/>
<text text-anchor="middle" x="210" y="-303.8" font-family="Times,serif" font-size="14.00" fill="#000000">NgxEditorJSDirective </text>
</g>
<!-- NgxEditorJSComponentModule&#45;&gt;NgxEditorJSDirective  -->
<g id="edge5" class="edge">
<title>NgxEditorJSComponentModule&#45;&gt;NgxEditorJSDirective </title>
<path fill="none" stroke="#000000" stroke-dasharray="5,2" d="M240.6752,-258.2228C240.6752,-258.2228 240.6752,-279.7269 240.6752,-279.7269"/>
<polygon fill="#000000" stroke="#000000" points="237.1752,-279.7269 240.6752,-289.7269 244.1752,-279.727 237.1752,-279.7269"/>
</g>
<!-- EDITORJS_FORM_VALUE_ACCESSOR -->
<g id="node4" class="node">
<title>EDITORJS_FORM_VALUE_ACCESSOR</title>
<ellipse fill="#fdb462" stroke="#000000" cx="360" cy="-104" rx="180.0371" ry="18"/>
<text text-anchor="middle" x="360" y="-99.8" font-family="Times,serif" font-size="14.00" fill="#000000">EDITORJS_FORM_VALUE_ACCESSOR</text>
</g>
<!-- EDITORJS_FORM_VALUE_ACCESSOR&#45;&gt;NgxEditorJSComponent -->
<g id="edge2" class="edge">
<title>EDITORJS_FORM_VALUE_ACCESSOR&#45;&gt;NgxEditorJSComponent</title>
<path fill="none" stroke="#000000" d="M463,-119.0914C463,-119.0914 463,-143.559 463,-143.559"/>
<polygon fill="#000000" stroke="#000000" points="459.5001,-143.559 463,-153.559 466.5001,-143.559 459.5001,-143.559"/>
</g>
<!-- NgxEditorJSService -->
<g id="node7" class="node">
<title>NgxEditorJSService</title>
<ellipse fill="#fdb462" stroke="#000000" cx="114" cy="-172" rx="89.7653" ry="18"/>
<text text-anchor="middle" x="114" y="-167.8" font-family="Times,serif" font-size="14.00" fill="#000000">NgxEditorJSService</text>
</g>
<!-- NgxEditorJSService&#45;&gt;NgxEditorJSComponentModule -->
<g id="edge6" class="edge">
<title>NgxEditorJSService&#45;&gt;NgxEditorJSComponentModule</title>
<path fill="none" stroke="#000000" d="M204.1564,-172C211.3073,-172 215.8385,-172 215.8385,-172 215.8385,-172 215.8385,-211.7772 215.8385,-211.7772"/>
<polygon fill="#000000" stroke="#000000" points="212.3386,-211.7772 215.8385,-221.7772 219.3386,-211.7773 212.3386,-211.7772"/>
</g>
<!-- NgxEditorJSMatFieldComponent -->
<g id="node8" class="node">
<title>NgxEditorJSMatFieldComponent</title>
<polygon fill="#ffffb3" stroke="#000000" points="919.4888,-190 714.5112,-190 714.5112,-154 919.4888,-154 919.4888,-190"/>
<text text-anchor="middle" x="817" y="-167.8" font-family="Times,serif" font-size="14.00" fill="#000000">NgxEditorJSMatFieldComponent</text>
</g>
<!-- NgxEditorJSMatFieldModule -->
<g id="node9" class="node">
<title>NgxEditorJSMatFieldModule</title>
<polygon fill="#8dd3c7" stroke="#000000" points="930.7063,-258 927.7063,-262 906.7063,-262 903.7063,-258 747.2937,-258 747.2937,-222 930.7063,-222 930.7063,-258"/>
<text text-anchor="middle" x="839" y="-235.8" font-family="Times,serif" font-size="14.00" fill="#000000">NgxEditorJSMatFieldModule</text>
</g>
<!-- NgxEditorJSMatFieldComponent&#45;&gt;NgxEditorJSMatFieldModule -->
<g id="edge7" class="edge">
<title>NgxEditorJSMatFieldComponent&#45;&gt;NgxEditorJSMatFieldModule</title>
<path fill="none" stroke="#000000" d="M833.4457,-190.2228C833.4457,-190.2228 833.4457,-211.7269 833.4457,-211.7269"/>
<polygon fill="#000000" stroke="#000000" points="829.9457,-211.7269 833.4457,-221.7269 836.9457,-211.727 829.9457,-211.7269"/>
</g>
<!-- NgxEditorJSMatFieldComponent  -->
<g id="node11" class="node">
<title>NgxEditorJSMatFieldComponent </title>
<polygon fill="#fb8072" stroke="#000000" points="943.4894,-326 734.5106,-326 734.5106,-290 943.4894,-290 943.4894,-326"/>
<text text-anchor="middle" x="839" y="-303.8" font-family="Times,serif" font-size="14.00" fill="#000000">NgxEditorJSMatFieldComponent </text>
</g>
<!-- NgxEditorJSMatFieldModule&#45;&gt;NgxEditorJSMatFieldComponent  -->
<g id="edge9" class="edge">
<title>NgxEditorJSMatFieldModule&#45;&gt;NgxEditorJSMatFieldComponent </title>
<path fill="none" stroke="#000000" stroke-dasharray="5,2" d="M839,-258.2228C839,-258.2228 839,-279.7269 839,-279.7269"/>
<polygon fill="#000000" stroke="#000000" points="835.5001,-279.7269 839,-289.7269 842.5001,-279.727 835.5001,-279.7269"/>
</g>
<!-- NgxEditorJSModule -->
<g id="node12" class="node">
<title>NgxEditorJSModule</title>
<polygon fill="#8dd3c7" stroke="#000000" points="1146.8781,-326 1143.8781,-330 1122.8781,-330 1119.8781,-326 1015.1219,-326 1015.1219,-290 1146.8781,-290 1146.8781,-326"/>
<text text-anchor="middle" x="1081" y="-303.8" font-family="Times,serif" font-size="14.00" fill="#000000">NgxEditorJSModule</text>
</g>
<!-- NgxEditorJSMatFieldModule&#45;&gt;NgxEditorJSModule -->
<g id="edge10" class="edge">
<title>NgxEditorJSMatFieldModule&#45;&gt;NgxEditorJSModule</title>
<path fill="none" stroke="#000000" d="M930.7879,-225C975.5733,-225 1019.9257,-225 1019.9257,-225 1019.9257,-225 1019.9257,-279.9902 1019.9257,-279.9902"/>
<polygon fill="#000000" stroke="#000000" points="1016.4257,-279.9902 1019.9257,-289.9902 1023.4257,-279.9903 1016.4257,-279.9902"/>
</g>
<!-- EDITORJS_MATERIAL_FIELD_CONTROL -->
<g id="node10" class="node">
<title>EDITORJS_MATERIAL_FIELD_CONTROL</title>
<ellipse fill="#fdb462" stroke="#000000" cx="773" cy="-104" rx="192.7382" ry="18"/>
<text text-anchor="middle" x="773" y="-99.8" font-family="Times,serif" font-size="14.00" fill="#000000">EDITORJS_MATERIAL_FIELD_CONTROL</text>
</g>
<!-- EDITORJS_MATERIAL_FIELD_CONTROL&#45;&gt;NgxEditorJSMatFieldComponent -->
<g id="edge8" class="edge">
<title>EDITORJS_MATERIAL_FIELD_CONTROL&#45;&gt;NgxEditorJSMatFieldComponent</title>
<path fill="none" stroke="#000000" d="M817,-121.8662C817,-121.8662 817,-143.5422 817,-143.5422"/>
<polygon fill="#000000" stroke="#000000" points="813.5001,-143.5421 817,-153.5422 820.5001,-143.5422 813.5001,-143.5421"/>
</g>
<!-- NgxEditorJSMatFieldModule  -->
<g id="node13" class="node">
<title>NgxEditorJSMatFieldModule </title>
<polygon fill="#fb8072" stroke="#000000" points="1192.2064,-394 1005.7936,-394 1005.7936,-358 1192.2064,-358 1192.2064,-394"/>
<text text-anchor="middle" x="1099" y="-371.8" font-family="Times,serif" font-size="14.00" fill="#000000">NgxEditorJSMatFieldModule </text>
</g>
<!-- NgxEditorJSModule&#45;&gt;NgxEditorJSMatFieldModule  -->
<g id="edge11" class="edge">
<title>NgxEditorJSModule&#45;&gt;NgxEditorJSMatFieldModule </title>
<path fill="none" stroke="#000000" stroke-dasharray="5,2" d="M1081,-326.2228C1081,-326.2228 1081,-347.7269 1081,-347.7269"/>
<polygon fill="#000000" stroke="#000000" points="1077.5001,-347.7269 1081,-357.7269 1084.5001,-347.727 1077.5001,-347.7269"/>
</g>
<!-- NgxEditorJSPluginService -->
<g id="node14" class="node">
<title>NgxEditorJSPluginService</title>
<ellipse fill="#fdb462" stroke="#000000" cx="1121" cy="-104" rx="115.2073" ry="18"/>
<text text-anchor="middle" x="1121" y="-99.8" font-family="Times,serif" font-size="14.00" fill="#000000">NgxEditorJSPluginService</text>
</g>
<!-- NgxEditorJSPluginServiceModule -->
<g id="node15" class="node">
<title>NgxEditorJSPluginServiceModule</title>
<polygon fill="#8dd3c7" stroke="#000000" points="1235.4198,-190 1232.4198,-194 1211.4198,-194 1208.4198,-190 1024.5802,-190 1024.5802,-154 1235.4198,-154 1235.4198,-190"/>
<text text-anchor="middle" x="1130" y="-167.8" font-family="Times,serif" font-size="14.00" fill="#000000">NgxEditorJSPluginServiceModule</text>
</g>
<!-- NgxEditorJSPluginService&#45;&gt;NgxEditorJSPluginServiceModule -->
<g id="edge12" class="edge">
<title>NgxEditorJSPluginService&#45;&gt;NgxEditorJSPluginServiceModule</title>
<path fill="none" stroke="#000000" d="M1130,-122.2228C1130,-122.2228 1130,-143.7269 1130,-143.7269"/>
<polygon fill="#000000" stroke="#000000" points="1126.5001,-143.7269 1130,-153.7269 1133.5001,-143.727 1126.5001,-143.7269"/>
</g>
<!-- NgxEditorjsPluginsModule -->
<g id="node28" class="node">
<title>NgxEditorjsPluginsModule</title>
<polygon fill="#8dd3c7" stroke="#000000" points="2370.9944,-258 2367.9944,-262 2346.9944,-262 2343.9944,-258 2201.0056,-258 2201.0056,-222 2370.9944,-222 2370.9944,-258"/>
<text text-anchor="middle" x="2286" y="-235.8" font-family="Times,serif" font-size="14.00" fill="#000000">NgxEditorjsPluginsModule</text>
</g>
<!-- NgxEditorJSPluginServiceModule&#45;&gt;NgxEditorjsPluginsModule -->
<g id="edge13" class="edge">
<title>NgxEditorJSPluginServiceModule&#45;&gt;NgxEditorjsPluginsModule</title>
<path fill="none" stroke="#000000" d="M1213.7814,-190.0267C1213.7814,-210.7672 1213.7814,-242 1213.7814,-242 1213.7814,-242 2190.9686,-242 2190.9686,-242"/>
<polygon fill="#000000" stroke="#000000" points="2190.9686,-245.5001 2200.9686,-242 2190.9685,-238.5001 2190.9686,-245.5001"/>
</g>
<!-- PluginCodeModule -->
<g id="node16" class="node">
<title>PluginCodeModule</title>
<polygon fill="#8dd3c7" stroke="#000000" points="1984.6652,-190 1981.6652,-194 1960.6652,-194 1957.6652,-190 1859.3348,-190 1859.3348,-154 1984.6652,-154 1984.6652,-190"/>
<text text-anchor="middle" x="1922" y="-167.8" font-family="Times,serif" font-size="14.00" fill="#000000">PluginCodeModule</text>
</g>
<!-- PluginCodeModule&#45;&gt;NgxEditorjsPluginsModule -->
<g id="edge14" class="edge">
<title>PluginCodeModule&#45;&gt;NgxEditorjsPluginsModule</title>
<path fill="none" stroke="#000000" d="M1937.9364,-190.0225C1937.9364,-207.3734 1937.9364,-231 1937.9364,-231 1937.9364,-231 2190.8541,-231 2190.8541,-231"/>
<polygon fill="#000000" stroke="#000000" points="2190.8541,-234.5001 2200.8541,-231 2190.854,-227.5001 2190.8541,-234.5001"/>
</g>
<!-- PluginEmbedModule -->
<g id="node17" class="node">
<title>PluginEmbedModule</title>
<polygon fill="#8dd3c7" stroke="#000000" points="1840.7716,-190 1837.7716,-194 1816.7716,-194 1813.7716,-190 1705.2284,-190 1705.2284,-154 1840.7716,-154 1840.7716,-190"/>
<text text-anchor="middle" x="1773" y="-167.8" font-family="Times,serif" font-size="14.00" fill="#000000">PluginEmbedModule</text>
</g>
<!-- PluginEmbedModule&#45;&gt;NgxEditorjsPluginsModule -->
<g id="edge15" class="edge">
<title>PluginEmbedModule&#45;&gt;NgxEditorjsPluginsModule</title>
<path fill="none" stroke="#000000" d="M1792.1517,-190.2667C1792.1517,-208.5552 1792.1517,-234 1792.1517,-234 1792.1517,-234 2190.8234,-234 2190.8234,-234"/>
<polygon fill="#000000" stroke="#000000" points="2190.8234,-237.5001 2200.8234,-234 2190.8233,-230.5001 2190.8234,-237.5001"/>
</g>
<!-- PluginHeaderModule -->
<g id="node18" class="node">
<title>PluginHeaderModule</title>
<polygon fill="#8dd3c7" stroke="#000000" points="1687.0254,-190 1684.0254,-194 1663.0254,-194 1660.0254,-190 1550.9746,-190 1550.9746,-154 1687.0254,-154 1687.0254,-190"/>
<text text-anchor="middle" x="1619" y="-167.8" font-family="Times,serif" font-size="14.00" fill="#000000">PluginHeaderModule</text>
</g>
<!-- PluginHeaderModule&#45;&gt;NgxEditorjsPluginsModule -->
<g id="edge16" class="edge">
<title>PluginHeaderModule&#45;&gt;NgxEditorjsPluginsModule</title>
<path fill="none" stroke="#000000" d="M1636.8133,-190.1686C1636.8133,-209.0898 1636.8133,-236 1636.8133,-236 1636.8133,-236 2190.7966,-236 2190.7966,-236"/>
<polygon fill="#000000" stroke="#000000" points="2190.7967,-239.5001 2200.7966,-236 2190.7966,-232.5001 2190.7967,-239.5001"/>
</g>
<!-- PluginImageModule -->
<g id="node19" class="node">
<title>PluginImageModule</title>
<polygon fill="#8dd3c7" stroke="#000000" points="1532.594,-190 1529.594,-194 1508.594,-194 1505.594,-190 1401.406,-190 1401.406,-154 1532.594,-154 1532.594,-190"/>
<text text-anchor="middle" x="1467" y="-167.8" font-family="Times,serif" font-size="14.00" fill="#000000">PluginImageModule</text>
</g>
<!-- PluginImageModule&#45;&gt;NgxEditorjsPluginsModule -->
<g id="edge17" class="edge">
<title>PluginImageModule&#45;&gt;NgxEditorjsPluginsModule</title>
<path fill="none" stroke="#000000" d="M1480.2674,-190.308C1480.2674,-210.1455 1480.2674,-239 1480.2674,-239 1480.2674,-239 2190.9157,-239 2190.9157,-239"/>
<polygon fill="#000000" stroke="#000000" points="2190.9157,-242.5001 2200.9157,-239 2190.9156,-235.5001 2190.9157,-242.5001"/>
</g>
<!-- PluginInlineCodeModule -->
<g id="node20" class="node">
<title>PluginInlineCodeModule</title>
<polygon fill="#8dd3c7" stroke="#000000" points="3264.3215,-190 3261.3215,-194 3240.3215,-194 3237.3215,-190 3105.6785,-190 3105.6785,-154 3264.3215,-154 3264.3215,-190"/>
<text text-anchor="middle" x="3185" y="-167.8" font-family="Times,serif" font-size="14.00" fill="#000000">PluginInlineCodeModule</text>
</g>
<!-- PluginInlineCodeModule&#45;&gt;NgxEditorjsPluginsModule -->
<g id="edge18" class="edge">
<title>PluginInlineCodeModule&#45;&gt;NgxEditorjsPluginsModule</title>
<path fill="none" stroke="#000000" d="M3147.9905,-190.1061C3147.9905,-209.3391 3147.9905,-237 3147.9905,-237 3147.9905,-237 2381.01,-237 2381.01,-237"/>
<polygon fill="#000000" stroke="#000000" points="2381.0101,-233.5001 2371.01,-237 2381.01,-240.5001 2381.0101,-233.5001"/>
</g>
<!-- PluginLinkModule -->
<g id="node21" class="node">
<title>PluginLinkModule</title>
<polygon fill="#8dd3c7" stroke="#000000" points="3088.0576,-190 3085.0576,-194 3064.0576,-194 3061.0576,-190 2965.9424,-190 2965.9424,-154 3088.0576,-154 3088.0576,-190"/>
<text text-anchor="middle" x="3027" y="-167.8" font-family="Times,serif" font-size="14.00" fill="#000000">PluginLinkModule</text>
</g>
<!-- PluginLinkModule&#45;&gt;NgxEditorjsPluginsModule -->
<g id="edge19" class="edge">
<title>PluginLinkModule&#45;&gt;NgxEditorjsPluginsModule</title>
<path fill="none" stroke="#000000" d="M3047.232,-190.2667C3047.232,-208.5552 3047.232,-234 3047.232,-234 3047.232,-234 2381.1072,-234 2381.1072,-234"/>
<polygon fill="#000000" stroke="#000000" points="2381.1072,-230.5001 2371.1072,-234 2381.1071,-237.5001 2381.1072,-230.5001"/>
</g>
<!-- PluginListModule -->
<g id="node22" class="node">
<title>PluginListModule</title>
<polygon fill="#8dd3c7" stroke="#000000" points="2947.892,-190 2944.892,-194 2923.892,-194 2920.892,-190 2830.108,-190 2830.108,-154 2947.892,-154 2947.892,-190"/>
<text text-anchor="middle" x="2889" y="-167.8" font-family="Times,serif" font-size="14.00" fill="#000000">PluginListModule</text>
</g>
<!-- PluginListModule&#45;&gt;NgxEditorjsPluginsModule -->
<g id="edge20" class="edge">
<title>PluginListModule&#45;&gt;NgxEditorjsPluginsModule</title>
<path fill="none" stroke="#000000" d="M2889,-190.0225C2889,-207.3734 2889,-231 2889,-231 2889,-231 2381.1162,-231 2381.1162,-231"/>
<polygon fill="#000000" stroke="#000000" points="2381.1163,-227.5001 2371.1162,-231 2381.1162,-234.5001 2381.1163,-227.5001"/>
</g>
<!-- PluginMarkerModule -->
<g id="node23" class="node">
<title>PluginMarkerModule</title>
<polygon fill="#8dd3c7" stroke="#000000" points="2811.8089,-190 2808.8089,-194 2787.8089,-194 2784.8089,-190 2674.1911,-190 2674.1911,-154 2811.8089,-154 2811.8089,-190"/>
<text text-anchor="middle" x="2743" y="-167.8" font-family="Times,serif" font-size="14.00" fill="#000000">PluginMarkerModule</text>
</g>
<!-- PluginMarkerModule&#45;&gt;NgxEditorjsPluginsModule -->
<g id="edge21" class="edge">
<title>PluginMarkerModule&#45;&gt;NgxEditorjsPluginsModule</title>
<path fill="none" stroke="#000000" d="M2731.7631,-190.027C2731.7631,-206.3976 2731.7631,-228 2731.7631,-228 2731.7631,-228 2381.1569,-228 2381.1569,-228"/>
<polygon fill="#000000" stroke="#000000" points="2381.1569,-224.5001 2371.1569,-228 2381.1569,-231.5001 2381.1569,-224.5001"/>
</g>
<!-- PluginParagraphModule -->
<g id="node24" class="node">
<title>PluginParagraphModule</title>
<polygon fill="#8dd3c7" stroke="#000000" points="2656.3613,-190 2653.3613,-194 2632.3613,-194 2629.3613,-190 2503.6387,-190 2503.6387,-154 2656.3613,-154 2656.3613,-190"/>
<text text-anchor="middle" x="2580" y="-167.8" font-family="Times,serif" font-size="14.00" fill="#000000">PluginParagraphModule</text>
</g>
<!-- PluginParagraphModule&#45;&gt;NgxEditorjsPluginsModule -->
<g id="edge22" class="edge">
<title>PluginParagraphModule&#45;&gt;NgxEditorjsPluginsModule</title>
<path fill="none" stroke="#000000" d="M2559.241,-190.2396C2559.241,-205.5706 2559.241,-225 2559.241,-225 2559.241,-225 2381.3312,-225 2381.3312,-225"/>
<polygon fill="#000000" stroke="#000000" points="2381.3313,-221.5001 2371.3312,-225 2381.3312,-228.5001 2381.3313,-221.5001"/>
</g>
<!-- PluginQuoteModule -->
<g id="node25" class="node">
<title>PluginQuoteModule</title>
<polygon fill="#8dd3c7" stroke="#000000" points="2485.3258,-190 2482.3258,-194 2461.3258,-194 2458.3258,-190 2354.6742,-190 2354.6742,-154 2485.3258,-154 2485.3258,-190"/>
<text text-anchor="middle" x="2420" y="-167.8" font-family="Times,serif" font-size="14.00" fill="#000000">PluginQuoteModule</text>
</g>
<!-- PluginQuoteModule&#45;&gt;NgxEditorjsPluginsModule -->
<g id="edge23" class="edge">
<title>PluginQuoteModule&#45;&gt;NgxEditorjsPluginsModule</title>
<path fill="none" stroke="#000000" d="M2362.9173,-190.2228C2362.9173,-190.2228 2362.9173,-211.7269 2362.9173,-211.7269"/>
<polygon fill="#000000" stroke="#000000" points="2359.4173,-211.7269 2362.9173,-221.7269 2366.4173,-211.727 2359.4173,-211.7269"/>
</g>
<!-- PluginSimpleImageModule -->
<g id="node26" class="node">
<title>PluginSimpleImageModule</title>
<polygon fill="#8dd3c7" stroke="#000000" points="2336.2632,-190 2333.2632,-194 2312.2632,-194 2309.2632,-190 2165.7368,-190 2165.7368,-154 2336.2632,-154 2336.2632,-190"/>
<text text-anchor="middle" x="2251" y="-167.8" font-family="Times,serif" font-size="14.00" fill="#000000">PluginSimpleImageModule</text>
</g>
<!-- PluginSimpleImageModule&#45;&gt;NgxEditorjsPluginsModule -->
<g id="edge24" class="edge">
<title>PluginSimpleImageModule&#45;&gt;NgxEditorjsPluginsModule</title>
<path fill="none" stroke="#000000" d="M2268.6922,-190.2228C2268.6922,-190.2228 2268.6922,-211.7269 2268.6922,-211.7269"/>
<polygon fill="#000000" stroke="#000000" points="2265.1922,-211.7269 2268.6922,-221.7269 2272.1922,-211.727 2265.1922,-211.7269"/>
</g>
<!-- PluginWarningModule -->
<g id="node27" class="node">
<title>PluginWarningModule</title>
<polygon fill="#8dd3c7" stroke="#000000" points="2147.594,-190 2144.594,-194 2123.594,-194 2120.594,-190 2002.406,-190 2002.406,-154 2147.594,-154 2147.594,-190"/>
<text text-anchor="middle" x="2075" y="-167.8" font-family="Times,serif" font-size="14.00" fill="#000000">PluginWarningModule</text>
</g>
<!-- PluginWarningModule&#45;&gt;NgxEditorjsPluginsModule -->
<g id="edge25" class="edge">
<title>PluginWarningModule&#45;&gt;NgxEditorjsPluginsModule</title>
<path fill="none" stroke="#000000" d="M2135.125,-190.027C2135.125,-206.3976 2135.125,-228 2135.125,-228 2135.125,-228 2190.8621,-228 2190.8621,-228"/>
<polygon fill="#000000" stroke="#000000" points="2190.8621,-231.5001 2200.8621,-228 2190.862,-224.5001 2190.8621,-231.5001"/>
</g>
<!-- NgxEditorJSPluginServiceModule  -->
<g id="node29" class="node">
<title>NgxEditorJSPluginServiceModule </title>
<polygon fill="#fb8072" stroke="#000000" points="2104.9194,-326 1891.0806,-326 1891.0806,-290 2104.9194,-290 2104.9194,-326"/>
<text text-anchor="middle" x="1998" y="-303.8" font-family="Times,serif" font-size="14.00" fill="#000000">NgxEditorJSPluginServiceModule </text>
</g>
<!-- NgxEditorjsPluginsModule&#45;&gt;NgxEditorJSPluginServiceModule  -->
<g id="edge26" class="edge">
<title>NgxEditorjsPluginsModule&#45;&gt;NgxEditorJSPluginServiceModule </title>
<path fill="none" stroke="#000000" stroke-dasharray="5,2" d="M2200.8215,-256C2134.5249,-256 2053.7064,-256 2053.7064,-256 2053.7064,-256 2053.7064,-279.8129 2053.7064,-279.8129"/>
<polygon fill="#000000" stroke="#000000" points="2050.2064,-279.8129 2053.7064,-289.8129 2057.2064,-279.813 2050.2064,-279.8129"/>
</g>
<!-- PluginCodeModule  -->
<g id="node30" class="node">
<title>PluginCodeModule </title>
<polygon fill="#fb8072" stroke="#000000" points="1872.6649,-326 1743.3351,-326 1743.3351,-290 1872.6649,-290 1872.6649,-326"/>
<text text-anchor="middle" x="1808" y="-303.8" font-family="Times,serif" font-size="14.00" fill="#000000">PluginCodeModule </text>
</g>
<!-- NgxEditorjsPluginsModule&#45;&gt;PluginCodeModule  -->
<g id="edge27" class="edge">
<title>NgxEditorjsPluginsModule&#45;&gt;PluginCodeModule </title>
<path fill="none" stroke="#000000" stroke-dasharray="5,2" d="M2200.9814,-253C2078.2197,-253 1865.875,-253 1865.875,-253 1865.875,-253 1865.875,-279.9909 1865.875,-279.9909"/>
<polygon fill="#000000" stroke="#000000" points="1862.3751,-279.9909 1865.875,-289.9909 1869.3751,-279.991 1862.3751,-279.9909"/>
</g>
<!-- PluginEmbedModule  -->
<g id="node31" class="node">
<title>PluginEmbedModule </title>
<polygon fill="#fb8072" stroke="#000000" points="1725.7717,-326 1586.2283,-326 1586.2283,-290 1725.7717,-290 1725.7717,-326"/>
<text text-anchor="middle" x="1656" y="-303.8" font-family="Times,serif" font-size="14.00" fill="#000000">PluginEmbedModule </text>
</g>
<!-- NgxEditorjsPluginsModule&#45;&gt;PluginEmbedModule  -->
<g id="edge28" class="edge">
<title>NgxEditorjsPluginsModule&#45;&gt;PluginEmbedModule </title>
<path fill="none" stroke="#000000" stroke-dasharray="5,2" d="M2200.88,-250C2041.8078,-250 1715.375,-250 1715.375,-250 1715.375,-250 1715.375,-279.9664 1715.375,-279.9664"/>
<polygon fill="#000000" stroke="#000000" points="1711.8751,-279.9663 1715.375,-289.9664 1718.8751,-279.9664 1711.8751,-279.9663"/>
</g>
<!-- PluginHeaderModule  -->
<g id="node32" class="node">
<title>PluginHeaderModule </title>
<polygon fill="#fb8072" stroke="#000000" points="1568.0246,-326 1427.9754,-326 1427.9754,-290 1568.0246,-290 1568.0246,-326"/>
<text text-anchor="middle" x="1498" y="-303.8" font-family="Times,serif" font-size="14.00" fill="#000000">PluginHeaderModule </text>
</g>
<!-- NgxEditorjsPluginsModule&#45;&gt;PluginHeaderModule  -->
<g id="edge29" class="edge">
<title>NgxEditorjsPluginsModule&#45;&gt;PluginHeaderModule </title>
<path fill="none" stroke="#000000" stroke-dasharray="5,2" d="M2200.8678,-247C2008.9907,-247 1559.375,-247 1559.375,-247 1559.375,-247 1559.375,-279.698 1559.375,-279.698"/>
<polygon fill="#000000" stroke="#000000" points="1555.8751,-279.698 1559.375,-289.698 1562.8751,-279.698 1555.8751,-279.698"/>
</g>
<!-- PluginImageModule  -->
<g id="node33" class="node">
<title>PluginImageModule </title>
<polygon fill="#fb8072" stroke="#000000" points="1410.0946,-326 1275.9054,-326 1275.9054,-290 1410.0946,-290 1410.0946,-326"/>
<text text-anchor="middle" x="1343" y="-303.8" font-family="Times,serif" font-size="14.00" fill="#000000">PluginImageModule </text>
</g>
<!-- NgxEditorjsPluginsModule&#45;&gt;PluginImageModule  -->
<g id="edge30" class="edge">
<title>NgxEditorjsPluginsModule&#45;&gt;PluginImageModule </title>
<path fill="none" stroke="#000000" stroke-dasharray="5,2" d="M2200.8102,-245C1979.9326,-245 1405.875,-245 1405.875,-245 1405.875,-245 1405.875,-279.7778 1405.875,-279.7778"/>
<polygon fill="#000000" stroke="#000000" points="1402.3751,-279.7778 1405.875,-289.7778 1409.3751,-279.7778 1402.3751,-279.7778"/>
</g>
<!-- PluginInlineCodeModule  -->
<g id="node34" class="node">
<title>PluginInlineCodeModule </title>
<polygon fill="#fb8072" stroke="#000000" points="3411.8213,-326 3250.1787,-326 3250.1787,-290 3411.8213,-290 3411.8213,-326"/>
<text text-anchor="middle" x="3331" y="-303.8" font-family="Times,serif" font-size="14.00" fill="#000000">PluginInlineCodeModule </text>
</g>
<!-- NgxEditorjsPluginsModule&#45;&gt;PluginInlineCodeModule  -->
<g id="edge31" class="edge">
<title>NgxEditorjsPluginsModule&#45;&gt;PluginInlineCodeModule </title>
<path fill="none" stroke="#000000" stroke-dasharray="5,2" d="M2371.3297,-240C2608.3021,-240 3257.125,-240 3257.125,-240 3257.125,-240 3257.125,-279.7772 3257.125,-279.7772"/>
<polygon fill="#000000" stroke="#000000" points="3253.6251,-279.7772 3257.125,-289.7772 3260.6251,-279.7773 3253.6251,-279.7772"/>
</g>
<!-- PluginLinkModule  -->
<g id="node35" class="node">
<title>PluginLinkModule </title>
<polygon fill="#fb8072" stroke="#000000" points="3232.0568,-326 3105.9432,-326 3105.9432,-290 3232.0568,-290 3232.0568,-326"/>
<text text-anchor="middle" x="3169" y="-303.8" font-family="Times,serif" font-size="14.00" fill="#000000">PluginLinkModule </text>
</g>
<!-- NgxEditorjsPluginsModule&#45;&gt;PluginLinkModule  -->
<g id="edge32" class="edge">
<title>NgxEditorjsPluginsModule&#45;&gt;PluginLinkModule </title>
<path fill="none" stroke="#000000" stroke-dasharray="5,2" d="M2371.047,-243C2596.0877,-243 3190.0095,-243 3190.0095,-243 3190.0095,-243 3190.0095,-279.8939 3190.0095,-279.8939"/>
<polygon fill="#000000" stroke="#000000" points="3186.5096,-279.8938 3190.0095,-289.8939 3193.5096,-279.8939 3186.5096,-279.8938"/>
</g>
<!-- PluginListModule  -->
<g id="node36" class="node">
<title>PluginListModule </title>
<polygon fill="#fb8072" stroke="#000000" points="3087.8926,-326 2966.1074,-326 2966.1074,-290 3087.8926,-290 3087.8926,-326"/>
<text text-anchor="middle" x="3027" y="-303.8" font-family="Times,serif" font-size="14.00" fill="#000000">PluginListModule </text>
</g>
<!-- NgxEditorjsPluginsModule&#45;&gt;PluginListModule  -->
<g id="edge33" class="edge">
<title>NgxEditorjsPluginsModule&#45;&gt;PluginListModule </title>
<path fill="none" stroke="#000000" stroke-dasharray="5,2" d="M2371.1561,-246C2561.8831,-246 3006.768,-246 3006.768,-246 3006.768,-246 3006.768,-279.7333 3006.768,-279.7333"/>
<polygon fill="#000000" stroke="#000000" points="3003.2681,-279.7333 3006.768,-289.7333 3010.2681,-279.7333 3003.2681,-279.7333"/>
</g>
<!-- PluginMarkerModule  -->
<g id="node37" class="node">
<title>PluginMarkerModule </title>
<polygon fill="#fb8072" stroke="#000000" points="2948.3087,-326 2807.6913,-326 2807.6913,-290 2948.3087,-290 2948.3087,-326"/>
<text text-anchor="middle" x="2878" y="-303.8" font-family="Times,serif" font-size="14.00" fill="#000000">PluginMarkerModule </text>
</g>
<!-- NgxEditorjsPluginsModule&#45;&gt;PluginMarkerModule  -->
<g id="edge34" class="edge">
<title>NgxEditorjsPluginsModule&#45;&gt;PluginMarkerModule </title>
<path fill="none" stroke="#000000" stroke-dasharray="5,2" d="M2371.0447,-249C2521.9542,-249 2820.8542,-249 2820.8542,-249 2820.8542,-249 2820.8542,-279.9775 2820.8542,-279.9775"/>
<polygon fill="#000000" stroke="#000000" points="2817.3542,-279.9774 2820.8542,-289.9775 2824.3542,-279.9775 2817.3542,-279.9774"/>
</g>
<!-- PluginParagraphModule  -->
<g id="node38" class="node">
<title>PluginParagraphModule </title>
<polygon fill="#fb8072" stroke="#000000" points="2789.3616,-326 2632.6384,-326 2632.6384,-290 2789.3616,-290 2789.3616,-326"/>
<text text-anchor="middle" x="2711" y="-303.8" font-family="Times,serif" font-size="14.00" fill="#000000">PluginParagraphModule </text>
</g>
<!-- NgxEditorjsPluginsModule&#45;&gt;PluginParagraphModule  -->
<g id="edge35" class="edge">
<title>NgxEditorjsPluginsModule&#45;&gt;PluginParagraphModule </title>
<path fill="none" stroke="#000000" stroke-dasharray="5,2" d="M2371.444,-252C2477.5179,-252 2644.625,-252 2644.625,-252 2644.625,-252 2644.625,-279.973 2644.625,-279.973"/>
<polygon fill="#000000" stroke="#000000" points="2641.1251,-279.973 2644.625,-289.973 2648.1251,-279.973 2641.1251,-279.973"/>
</g>
<!-- PluginQuoteModule  -->
<g id="node39" class="node">
<title>PluginQuoteModule </title>
<polygon fill="#fb8072" stroke="#000000" points="2614.8255,-326 2481.1745,-326 2481.1745,-290 2614.8255,-290 2614.8255,-326"/>
<text text-anchor="middle" x="2548" y="-303.8" font-family="Times,serif" font-size="14.00" fill="#000000">PluginQuoteModule </text>
</g>
<!-- NgxEditorjsPluginsModule&#45;&gt;PluginQuoteModule  -->
<g id="edge36" class="edge">
<title>NgxEditorjsPluginsModule&#45;&gt;PluginQuoteModule </title>
<path fill="none" stroke="#000000" stroke-dasharray="5,2" d="M2371.051,-255C2428.6664,-255 2494.366,-255 2494.366,-255 2494.366,-255 2494.366,-279.7604 2494.366,-279.7604"/>
<polygon fill="#000000" stroke="#000000" points="2490.8661,-279.7604 2494.366,-289.7604 2497.8661,-279.7604 2490.8661,-279.7604"/>
</g>
<!-- PluginSimpleImageModule  -->
<g id="node40" class="node">
<title>PluginSimpleImageModule </title>
<polygon fill="#fb8072" stroke="#000000" points="2463.2632,-326 2288.7368,-326 2288.7368,-290 2463.2632,-290 2463.2632,-326"/>
<text text-anchor="middle" x="2376" y="-303.8" font-family="Times,serif" font-size="14.00" fill="#000000">PluginSimpleImageModule </text>
</g>
<!-- NgxEditorjsPluginsModule&#45;&gt;PluginSimpleImageModule  -->
<g id="edge37" class="edge">
<title>NgxEditorjsPluginsModule&#45;&gt;PluginSimpleImageModule </title>
<path fill="none" stroke="#000000" stroke-dasharray="5,2" d="M2329.9329,-258.2228C2329.9329,-258.2228 2329.9329,-279.7269 2329.9329,-279.7269"/>
<polygon fill="#000000" stroke="#000000" points="2326.4329,-279.7269 2329.9329,-289.7269 2333.4329,-279.727 2326.4329,-279.7269"/>
</g>
<!-- PluginWarningModule  -->
<g id="node41" class="node">
<title>PluginWarningModule </title>
<polygon fill="#fb8072" stroke="#000000" points="2271.0946,-326 2122.9054,-326 2122.9054,-290 2271.0946,-290 2271.0946,-326"/>
<text text-anchor="middle" x="2197" y="-303.8" font-family="Times,serif" font-size="14.00" fill="#000000">PluginWarningModule </text>
</g>
<!-- NgxEditorjsPluginsModule&#45;&gt;PluginWarningModule  -->
<g id="edge38" class="edge">
<title>NgxEditorjsPluginsModule&#45;&gt;PluginWarningModule </title>
<path fill="none" stroke="#000000" stroke-dasharray="5,2" d="M2236.1499,-258.2228C2236.1499,-258.2228 2236.1499,-279.7269 2236.1499,-279.7269"/>
<polygon fill="#000000" stroke="#000000" points="2232.65,-279.7269 2236.1499,-289.7269 2239.65,-279.727 2232.65,-279.7269"/>
</g>
<!-- NgxTinynodesMatJsonOutputModule -->
<g id="node42" class="node">
<title>NgxTinynodesMatJsonOutputModule</title>
<polygon fill="#8dd3c7" stroke="#000000" points="3687.5856,-122 3684.5856,-126 3663.5856,-126 3660.5856,-122 3458.4144,-122 3458.4144,-86 3687.5856,-86 3687.5856,-122"/>
<text text-anchor="middle" x="3573" y="-99.8" font-family="Times,serif" font-size="14.00" fill="#000000">NgxTinynodesMatJsonOutputModule</text>
</g>
<!-- NgxTinynodesComponentsModule -->
<g id="node44" class="node">
<title>NgxTinynodesComponentsModule</title>
<polygon fill="#8dd3c7" stroke="#000000" points="3795.5363,-190 3792.5363,-194 3771.5363,-194 3768.5363,-190 3582.4637,-190 3582.4637,-154 3795.5363,-154 3795.5363,-190"/>
<text text-anchor="middle" x="3689" y="-167.8" font-family="Times,serif" font-size="14.00" fill="#000000">NgxTinynodesComponentsModule</text>
</g>
<!-- NgxTinynodesMatJsonOutputModule&#45;&gt;NgxTinynodesComponentsModule -->
<g id="edge39" class="edge">
<title>NgxTinynodesMatJsonOutputModule&#45;&gt;NgxTinynodesComponentsModule</title>
<path fill="none" stroke="#000000" d="M3608.5598,-122.2228C3608.5598,-122.2228 3608.5598,-143.7269 3608.5598,-143.7269"/>
<polygon fill="#000000" stroke="#000000" points="3605.0599,-143.7269 3608.5598,-153.7269 3612.0599,-143.727 3605.0599,-143.7269"/>
</g>
<!-- NgxTinynodesMatJsonOutputComponent  -->
<g id="node48" class="node">
<title>NgxTinynodesMatJsonOutputComponent </title>
<polygon fill="#fb8072" stroke="#000000" points="4216.3685,-190 3961.6315,-190 3961.6315,-154 4216.3685,-154 4216.3685,-190"/>
<text text-anchor="middle" x="4089" y="-167.8" font-family="Times,serif" font-size="14.00" fill="#000000">NgxTinynodesMatJsonOutputComponent </text>
</g>
<!-- NgxTinynodesMatJsonOutputModule&#45;&gt;NgxTinynodesMatJsonOutputComponent  -->
<g id="edge44" class="edge">
<title>NgxTinynodesMatJsonOutputModule&#45;&gt;NgxTinynodesMatJsonOutputComponent </title>
<path fill="none" stroke="#000000" stroke-dasharray="5,2" d="M3661.2151,-122.1274C3661.2151,-132.7109 3661.2151,-144 3661.2151,-144 3661.2151,-144 4089,-144 4089,-144 4089,-144 4089,-144.9793 4089,-144.9793"/>
<polygon fill="#000000" stroke="#000000" points="4085.5001,-143.793 4089,-153.793 4092.5001,-143.7931 4085.5001,-143.793"/>
</g>
<!-- NgxTinynodesMatTagInputModule -->
<g id="node43" class="node">
<title>NgxTinynodesMatTagInputModule</title>
<polygon fill="#8dd3c7" stroke="#000000" points="3922.1273,-122 3919.1273,-126 3898.1273,-126 3895.1273,-122 3705.8727,-122 3705.8727,-86 3922.1273,-86 3922.1273,-122"/>
<text text-anchor="middle" x="3814" y="-99.8" font-family="Times,serif" font-size="14.00" fill="#000000">NgxTinynodesMatTagInputModule</text>
</g>
<!-- NgxTinynodesMatTagInputModule&#45;&gt;NgxTinynodesComponentsModule -->
<g id="edge40" class="edge">
<title>NgxTinynodesMatTagInputModule&#45;&gt;NgxTinynodesComponentsModule</title>
<path fill="none" stroke="#000000" d="M3750.7272,-122.2228C3750.7272,-122.2228 3750.7272,-143.7269 3750.7272,-143.7269"/>
<polygon fill="#000000" stroke="#000000" points="3747.2273,-143.7269 3750.7272,-153.7269 3754.2273,-143.727 3747.2273,-143.7269"/>
</g>
<!-- NgxTinynodesMatTagInputComponent  -->
<g id="node50" class="node">
<title>NgxTinynodesMatTagInputComponent </title>
<polygon fill="#fb8072" stroke="#000000" points="4771.9096,-190 4530.0904,-190 4530.0904,-154 4771.9096,-154 4771.9096,-190"/>
<text text-anchor="middle" x="4651" y="-167.8" font-family="Times,serif" font-size="14.00" fill="#000000">NgxTinynodesMatTagInputComponent </text>
</g>
<!-- NgxTinynodesMatTagInputModule&#45;&gt;NgxTinynodesMatTagInputComponent  -->
<g id="edge46" class="edge">
<title>NgxTinynodesMatTagInputModule&#45;&gt;NgxTinynodesMatTagInputComponent </title>
<path fill="none" stroke="#000000" stroke-dasharray="5,2" d="M3922.137,-110C4148.4036,-110 4651,-110 4651,-110 4651,-110 4651,-143.7333 4651,-143.7333"/>
<polygon fill="#000000" stroke="#000000" points="4647.5001,-143.7333 4651,-153.7333 4654.5001,-143.7333 4647.5001,-143.7333"/>
</g>
<!-- NgxTinynodesMatJsonOutputModule  -->
<g id="node45" class="node">
<title>NgxTinynodesMatJsonOutputModule </title>
<polygon fill="#fb8072" stroke="#000000" points="3922.086,-258 3689.914,-258 3689.914,-222 3922.086,-222 3922.086,-258"/>
<text text-anchor="middle" x="3806" y="-235.8" font-family="Times,serif" font-size="14.00" fill="#000000">NgxTinynodesMatJsonOutputModule </text>
</g>
<!-- NgxTinynodesComponentsModule&#45;&gt;NgxTinynodesMatJsonOutputModule  -->
<g id="edge41" class="edge">
<title>NgxTinynodesComponentsModule&#45;&gt;NgxTinynodesMatJsonOutputModule </title>
<path fill="none" stroke="#000000" stroke-dasharray="5,2" d="M3742.7376,-190.2228C3742.7376,-190.2228 3742.7376,-211.7269 3742.7376,-211.7269"/>
<polygon fill="#000000" stroke="#000000" points="3739.2376,-211.7269 3742.7376,-221.7269 3746.2376,-211.727 3739.2376,-211.7269"/>
</g>
<!-- NgxTinynodesMatTagInputModule  -->
<g id="node46" class="node">
<title>NgxTinynodesMatTagInputModule </title>
<polygon fill="#fb8072" stroke="#000000" points="3672.127,-258 3451.873,-258 3451.873,-222 3672.127,-222 3672.127,-258"/>
<text text-anchor="middle" x="3562" y="-235.8" font-family="Times,serif" font-size="14.00" fill="#000000">NgxTinynodesMatTagInputModule </text>
</g>
<!-- NgxTinynodesComponentsModule&#45;&gt;NgxTinynodesMatTagInputModule  -->
<g id="edge42" class="edge">
<title>NgxTinynodesComponentsModule&#45;&gt;NgxTinynodesMatTagInputModule </title>
<path fill="none" stroke="#000000" stroke-dasharray="5,2" d="M3627.1478,-190.2228C3627.1478,-190.2228 3627.1478,-211.7269 3627.1478,-211.7269"/>
<polygon fill="#000000" stroke="#000000" points="3623.6479,-211.7269 3627.1478,-221.7269 3630.6479,-211.727 3623.6479,-211.7269"/>
</g>
<!-- NgxTinynodesMatJsonOutputComponent -->
<g id="node47" class="node">
<title>NgxTinynodesMatJsonOutputComponent</title>
<polygon fill="#ffffb3" stroke="#000000" points="4490.3682,-190 4239.6318,-190 4239.6318,-154 4490.3682,-154 4490.3682,-190"/>
<text text-anchor="middle" x="4365" y="-167.8" font-family="Times,serif" font-size="14.00" fill="#000000">NgxTinynodesMatJsonOutputComponent</text>
</g>
<!-- NgxTinynodesMatJsonOutputComponent&#45;&gt;NgxTinynodesMatJsonOutputModule -->
<g id="edge43" class="edge">
<title>NgxTinynodesMatJsonOutputComponent&#45;&gt;NgxTinynodesMatJsonOutputModule</title>
<path fill="none" stroke="#000000" d="M4365,-153.8701C4365,-143.6855 4365,-133 4365,-133 4365,-133 3634.8875,-133 3634.8875,-133 3634.8875,-133 3634.8875,-131.9201 3634.8875,-131.9201"/>
<polygon fill="#000000" stroke="#000000" points="3638.3876,-132.2014 3634.8875,-122.2015 3631.3876,-132.2015 3638.3876,-132.2014"/>
</g>
<!-- NgxTinynodesMatTagInputComponent -->
<g id="node49" class="node">
<title>NgxTinynodesMatTagInputComponent</title>
<polygon fill="#ffffb3" stroke="#000000" points="5034.41,-190 4795.59,-190 4795.59,-154 5034.41,-154 5034.41,-190"/>
<text text-anchor="middle" x="4915" y="-167.8" font-family="Times,serif" font-size="14.00" fill="#000000">NgxTinynodesMatTagInputComponent</text>
</g>
<!-- NgxTinynodesMatTagInputComponent&#45;&gt;NgxTinynodesMatTagInputModule -->
<g id="edge45" class="edge">
<title>NgxTinynodesMatTagInputComponent&#45;&gt;NgxTinynodesMatTagInputModule</title>
<path fill="none" stroke="#000000" d="M4915,-153.7079C4915,-131.7943 4915,-98 4915,-98 4915,-98 3932.3289,-98 3932.3289,-98"/>
<polygon fill="#000000" stroke="#000000" points="3932.3289,-94.5001 3922.3289,-98 3932.3289,-101.5001 3932.3289,-94.5001"/>
</g>
</g>
</svg>
