<?xml version="1.0" encoding="UTF-8" standalone="no"?>
<!DOCTYPE svg PUBLIC "-//W3C//DTD SVG 1.1//EN"
 "http://www.w3.org/Graphics/SVG/1.1/DTD/svg11.dtd">
<!-- Generated by graphviz version 2.40.1 (20161225.0304)
 -->
<!-- Title: dependencies Pages: 1 -->
<svg width="5068pt" height="431pt"
 viewBox="0.00 0.00 5068.00 431.00" xmlns="http://www.w3.org/2000/svg" xmlns:xlink="http://www.w3.org/1999/xlink">
<g id="graph0" class="graph" transform="scale(1 1) rotate(0) translate(4 427)">
<title>dependencies</title>
<polygon fill="#ffffff" stroke="transparent" points="-4,4 -4,-427 5064,-427 5064,4 -4,4"/>
<text text-anchor="start" x="2509.0091" y="-42.4" font-family="sans-serif" font-weight="bold" font-size="14.00" fill="#000000">Legend</text>
<polygon fill="#ffffb3" stroke="transparent" points="2296,-10 2296,-30 2316,-30 2316,-10 2296,-10"/>
<text text-anchor="start" x="2319.629" y="-15.4" font-family="sans-serif" font-size="14.00" fill="#000000"> &#160;Declarations</text>
<polygon fill="#8dd3c7" stroke="transparent" points="2409,-10 2409,-30 2429,-30 2429,-10 2409,-10"/>
<text text-anchor="start" x="2432.7251" y="-15.4" font-family="sans-serif" font-size="14.00" fill="#000000"> &#160;Module</text>
<polygon fill="#80b1d3" stroke="transparent" points="2495,-10 2495,-30 2515,-30 2515,-10 2495,-10"/>
<text text-anchor="start" x="2518.7812" y="-15.4" font-family="sans-serif" font-size="14.00" fill="#000000"> &#160;Bootstrap</text>
<polygon fill="#fdb462" stroke="transparent" points="2592,-10 2592,-30 2612,-30 2612,-10 2592,-10"/>
<text text-anchor="start" x="2615.6732" y="-15.4" font-family="sans-serif" font-size="14.00" fill="#000000"> &#160;Providers</text>
<polygon fill="#fb8072" stroke="transparent" points="2688,-10 2688,-30 2708,-30 2708,-10 2688,-10"/>
<text text-anchor="start" x="2711.7258" y="-15.4" font-family="sans-serif" font-size="14.00" fill="#000000"> &#160;Exports</text>
<g id="clust1" class="cluster">
<title>cluster_NgxEditorJSComponentModule</title>
<polygon fill="none" stroke="#000000" stroke-dasharray="1,5" points="8,-70 8,-347 556,-347 556,-70 8,-70"/>
</g>
<g id="clust2" class="cluster">
<title>cluster_NgxEditorJSComponentModule_declarations</title>
<polygon fill="none" stroke="#000000" points="220,-146 220,-198 548,-198 548,-146 220,-146"/>
</g>
<g id="clust3" class="cluster">
<title>cluster_NgxEditorJSComponentModule_NgxEditorJSComponent_providers</title>
<polygon fill="none" stroke="#000000" points="172,-78 172,-130 548,-130 548,-78 172,-78"/>
</g>
<g id="clust6" class="cluster">
<title>cluster_NgxEditorJSComponentModule_exports</title>
<polygon fill="none" stroke="#000000" points="130,-287 130,-339 466,-339 466,-287 130,-287"/>
</g>
<g id="clust8" class="cluster">
<title>cluster_NgxEditorJSComponentModule_providers</title>
<polygon fill="none" stroke="#000000" points="16,-146 16,-198 212,-198 212,-146 16,-146"/>
</g>
<g id="clust9" class="cluster">
<title>cluster_NgxEditorJSMatFieldModule</title>
<polygon fill="none" stroke="#000000" stroke-dasharray="1,5" points="564,-70 564,-347 982,-347 982,-70 564,-70"/>
</g>
<g id="clust10" class="cluster">
<title>cluster_NgxEditorJSMatFieldModule_declarations</title>
<polygon fill="none" stroke="#000000" points="707,-146 707,-198 927,-198 927,-146 707,-146"/>
</g>
<g id="clust11" class="cluster">
<title>cluster_NgxEditorJSMatFieldModule_NgxEditorJSMatFieldComponent_providers</title>
<polygon fill="none" stroke="#000000" points="572,-78 572,-130 974,-130 974,-78 572,-78"/>
</g>
<g id="clust13" class="cluster">
<title>cluster_NgxEditorJSMatFieldModule_exports</title>
<polygon fill="none" stroke="#000000" points="727,-287 727,-339 951,-339 951,-287 727,-287"/>
</g>
<g id="clust16" class="cluster">
<title>cluster_NgxEditorJSModule</title>
<polygon fill="none" stroke="#000000" stroke-dasharray="1,5" points="990,-287 990,-415 1208,-415 1208,-287 990,-287"/>
</g>
<g id="clust19" class="cluster">
<title>cluster_NgxEditorJSModule_exports</title>
<polygon fill="none" stroke="#000000" points="998,-355 998,-407 1200,-407 1200,-355 998,-355"/>
</g>
<g id="clust22" class="cluster">
<title>cluster_NgxEditorJSPluginServiceModule</title>
<polygon fill="none" stroke="#000000" stroke-dasharray="1,5" points="990,-70 990,-198 1252,-198 1252,-70 990,-70"/>
</g>
<g id="clust27" class="cluster">
<title>cluster_NgxEditorJSPluginServiceModule_providers</title>
<polygon fill="none" stroke="#000000" points="998,-78 998,-130 1244,-130 1244,-78 998,-78"/>
</g>
<g id="clust28" class="cluster">
<title>cluster_NgxEditorjsPluginsModule</title>
<polygon fill="none" stroke="#000000" stroke-dasharray="1,5" points="1260,-138 1260,-347 3428,-347 3428,-138 1260,-138"/>
</g>
<g id="clust30" class="cluster">
<title>cluster_NgxEditorjsPluginsModule_imports</title>
<polygon fill="none" stroke="#000000" points="1348,-146 1348,-198 3228,-198 3228,-146 1348,-146"/>
</g>
<g id="clust31" class="cluster">
<title>cluster_NgxEditorjsPluginsModule_exports</title>
<polygon fill="none" stroke="#000000" points="1268,-287 1268,-339 3420,-339 3420,-287 1268,-287"/>
</g>
<g id="clust34" class="cluster">
<title>cluster_NgxTinynodesComponentsModule</title>
<polygon fill="none" stroke="#000000" stroke-dasharray="1,5" points="3772,-214 3772,-415 4274,-415 4274,-214 3772,-214"/>
</g>
<g id="clust36" class="cluster">
<title>cluster_NgxTinynodesComponentsModule_imports</title>
<polygon fill="none" stroke="#000000" points="3783,-222 3783,-274 4263,-274 4263,-222 3783,-222"/>
</g>
<g id="clust37" class="cluster">
<title>cluster_NgxTinynodesComponentsModule_exports</title>
<polygon fill="none" stroke="#000000" points="3780,-355 3780,-407 4266,-407 4266,-355 3780,-355"/>
</g>
<g id="clust40" class="cluster">
<title>cluster_NgxTinynodesMatJsonOutputModule</title>
<polygon fill="none" stroke="#000000" stroke-dasharray="1,5" points="3436,-138 3436,-206 3996,-206 3996,-138 3436,-138"/>
</g>
<g id="clust41" class="cluster">
<title>cluster_NgxTinynodesMatJsonOutputModule_declarations</title>
<polygon fill="none" stroke="#000000" points="3722,-146 3722,-198 3988,-198 3988,-146 3722,-146"/>
</g>
<g id="clust44" class="cluster">
<title>cluster_NgxTinynodesMatJsonOutputModule_exports</title>
<polygon fill="none" stroke="#000000" points="3444,-146 3444,-198 3714,-198 3714,-146 3444,-146"/>
</g>
<g id="clust47" class="cluster">
<title>cluster_NgxTinynodesMatTagInputModule</title>
<polygon fill="none" stroke="#000000" stroke-dasharray="1,5" points="4004,-70 4004,-206 5052,-206 5052,-70 4004,-70"/>
</g>
<g id="clust48" class="cluster">
<title>cluster_NgxTinynodesMatTagInputModule_declarations</title>
<polygon fill="none" stroke="#000000" points="4071,-146 4071,-198 4325,-198 4325,-146 4071,-146"/>
</g>
<g id="clust49" class="cluster">
<title>cluster_NgxTinynodesMatTagInputModule_NgxTinynodesMatTagInputComponent_providers</title>
<polygon fill="none" stroke="#000000" points="4012,-78 4012,-130 4778,-130 4778,-78 4012,-78"/>
</g>
<g id="clust51" class="cluster">
<title>cluster_NgxTinynodesMatTagInputModule_exports</title>
<polygon fill="none" stroke="#000000" points="4786,-78 4786,-130 5044,-130 5044,-78 4786,-78"/>
</g>
<!-- NgxEditorJSComponent -->
<g id="node1" class="node">
<title>NgxEditorJSComponent</title>
<polygon fill="#ffffb3" stroke="#000000" points="539.661,-190 386.339,-190 386.339,-154 539.661,-154 539.661,-190"/>
<text text-anchor="middle" x="463" y="-167.8" font-family="Times,serif" font-size="14.00" fill="#000000">NgxEditorJSComponent</text>
</g>
<!-- NgxEditorJSComponentModule -->
<g id="node3" class="node">
<title>NgxEditorJSComponentModule</title>
<polygon fill="#8dd3c7" stroke="#000000" points="396.7105,-266 393.7105,-270 372.7105,-270 369.7105,-266 199.2895,-266 199.2895,-230 396.7105,-230 396.7105,-266"/>
<text text-anchor="middle" x="298" y="-243.8" font-family="Times,serif" font-size="14.00" fill="#000000">NgxEditorJSComponentModule</text>
</g>
<!-- NgxEditorJSComponent&#45;&gt;NgxEditorJSComponentModule -->
<g id="edge1" class="edge">
<title>NgxEditorJSComponent&#45;&gt;NgxEditorJSComponentModule</title>
<path fill="none" stroke="#000000" d="M391.3875,-190.0109C391.3875,-190.0109 391.3875,-219.855 391.3875,-219.855"/>
<polygon fill="#000000" stroke="#000000" points="387.8875,-219.8549 391.3875,-229.855 394.8875,-219.855 387.8875,-219.8549"/>
</g>
<!-- NgxEditorJSDirective -->
<g id="node2" class="node">
<title>NgxEditorJSDirective</title>
<polygon fill="#ffffb3" stroke="#000000" points="368.4116,-190 227.5884,-190 227.5884,-154 368.4116,-154 368.4116,-190"/>
<text text-anchor="middle" x="298" y="-167.8" font-family="Times,serif" font-size="14.00" fill="#000000">NgxEditorJSDirective</text>
</g>
<!-- NgxEditorJSDirective&#45;&gt;NgxEditorJSComponentModule -->
<g id="edge3" class="edge">
<title>NgxEditorJSDirective&#45;&gt;NgxEditorJSComponentModule</title>
<path fill="none" stroke="#000000" d="M298,-190.0109C298,-190.0109 298,-219.855 298,-219.855"/>
<polygon fill="#000000" stroke="#000000" points="294.5001,-219.8549 298,-229.855 301.5001,-219.855 294.5001,-219.8549"/>
</g>
<!-- NgxEditorJSComponent  -->
<g id="node5" class="node">
<title>NgxEditorJSComponent </title>
<polygon fill="#fb8072" stroke="#000000" points="457.6607,-331 300.3393,-331 300.3393,-295 457.6607,-295 457.6607,-331"/>
<text text-anchor="middle" x="379" y="-308.8" font-family="Times,serif" font-size="14.00" fill="#000000">NgxEditorJSComponent </text>
</g>
<!-- NgxEditorJSComponentModule&#45;&gt;NgxEditorJSComponent  -->
<g id="edge4" class="edge">
<title>NgxEditorJSComponentModule&#45;&gt;NgxEditorJSComponent </title>
<path fill="none" stroke="#000000" stroke-dasharray="5,2" d="M348.5125,-266.1061C348.5125,-266.1061 348.5125,-284.991 348.5125,-284.991"/>
<polygon fill="#000000" stroke="#000000" points="345.0125,-284.9909 348.5125,-294.991 352.0125,-284.991 345.0125,-284.9909"/>
</g>
<!-- NgxEditorJSDirective  -->
<g id="node6" class="node">
<title>NgxEditorJSDirective </title>
<polygon fill="#fb8072" stroke="#000000" points="281.911,-331 138.089,-331 138.089,-295 281.911,-295 281.911,-331"/>
<text text-anchor="middle" x="210" y="-308.8" font-family="Times,serif" font-size="14.00" fill="#000000">NgxEditorJSDirective </text>
</g>
<!-- NgxEditorJSComponentModule&#45;&gt;NgxEditorJSDirective  -->
<g id="edge5" class="edge">
<title>NgxEditorJSComponentModule&#45;&gt;NgxEditorJSDirective </title>
<path fill="none" stroke="#000000" stroke-dasharray="5,2" d="M240.6752,-266.1061C240.6752,-266.1061 240.6752,-284.991 240.6752,-284.991"/>
<polygon fill="#000000" stroke="#000000" points="237.1752,-284.9909 240.6752,-294.991 244.1752,-284.991 237.1752,-284.9909"/>
</g>
<!-- EDITORJS_FORM_VALUE_ACCESSOR -->
<g id="node4" class="node">
<title>EDITORJS_FORM_VALUE_ACCESSOR</title>
<ellipse fill="#fdb462" stroke="#000000" cx="360" cy="-104" rx="180.0371" ry="18"/>
<text text-anchor="middle" x="360" y="-99.8" font-family="Times,serif" font-size="14.00" fill="#000000">EDITORJS_FORM_VALUE_ACCESSOR</text>
</g>
<!-- EDITORJS_FORM_VALUE_ACCESSOR&#45;&gt;NgxEditorJSComponent -->
<g id="edge2" class="edge">
<title>EDITORJS_FORM_VALUE_ACCESSOR&#45;&gt;NgxEditorJSComponent</title>
<path fill="none" stroke="#000000" d="M463,-119.0914C463,-119.0914 463,-143.559 463,-143.559"/>
<polygon fill="#000000" stroke="#000000" points="459.5001,-143.559 463,-153.559 466.5001,-143.559 459.5001,-143.559"/>
</g>
<!-- NgxEditorJSService -->
<g id="node7" class="node">
<title>NgxEditorJSService</title>
<ellipse fill="#fdb462" stroke="#000000" cx="114" cy="-172" rx="89.7653" ry="18"/>
<text text-anchor="middle" x="114" y="-167.8" font-family="Times,serif" font-size="14.00" fill="#000000">NgxEditorJSService</text>
</g>
<!-- NgxEditorJSService&#45;&gt;NgxEditorJSComponentModule -->
<g id="edge6" class="edge">
<title>NgxEditorJSService&#45;&gt;NgxEditorJSComponentModule</title>
<path fill="none" stroke="#000000" d="M204.1564,-172C211.3073,-172 215.8385,-172 215.8385,-172 215.8385,-172 215.8385,-219.9891 215.8385,-219.9891"/>
<polygon fill="#000000" stroke="#000000" points="212.3386,-219.989 215.8385,-229.9891 219.3386,-219.9891 212.3386,-219.989"/>
</g>
<!-- NgxEditorJSMatFieldComponent -->
<g id="node8" class="node">
<title>NgxEditorJSMatFieldComponent</title>
<polygon fill="#ffffb3" stroke="#000000" points="919.4888,-190 714.5112,-190 714.5112,-154 919.4888,-154 919.4888,-190"/>
<text text-anchor="middle" x="817" y="-167.8" font-family="Times,serif" font-size="14.00" fill="#000000">NgxEditorJSMatFieldComponent</text>
</g>
<!-- NgxEditorJSMatFieldModule -->
<g id="node9" class="node">
<title>NgxEditorJSMatFieldModule</title>
<polygon fill="#8dd3c7" stroke="#000000" points="930.7063,-266 927.7063,-270 906.7063,-270 903.7063,-266 747.2937,-266 747.2937,-230 930.7063,-230 930.7063,-266"/>
<text text-anchor="middle" x="839" y="-243.8" font-family="Times,serif" font-size="14.00" fill="#000000">NgxEditorJSMatFieldModule</text>
</g>
<!-- NgxEditorJSMatFieldComponent&#45;&gt;NgxEditorJSMatFieldModule -->
<g id="edge7" class="edge">
<title>NgxEditorJSMatFieldComponent&#45;&gt;NgxEditorJSMatFieldModule</title>
<path fill="none" stroke="#000000" d="M833.4457,-190.0109C833.4457,-190.0109 833.4457,-219.855 833.4457,-219.855"/>
<polygon fill="#000000" stroke="#000000" points="829.9457,-219.8549 833.4457,-229.855 836.9457,-219.855 829.9457,-219.8549"/>
</g>
<!-- NgxEditorJSMatFieldComponent  -->
<g id="node11" class="node">
<title>NgxEditorJSMatFieldComponent </title>
<polygon fill="#fb8072" stroke="#000000" points="943.4894,-331 734.5106,-331 734.5106,-295 943.4894,-295 943.4894,-331"/>
<text text-anchor="middle" x="839" y="-308.8" font-family="Times,serif" font-size="14.00" fill="#000000">NgxEditorJSMatFieldComponent </text>
</g>
<!-- NgxEditorJSMatFieldModule&#45;&gt;NgxEditorJSMatFieldComponent  -->
<g id="edge9" class="edge">
<title>NgxEditorJSMatFieldModule&#45;&gt;NgxEditorJSMatFieldComponent </title>
<path fill="none" stroke="#000000" stroke-dasharray="5,2" d="M839,-266.1061C839,-266.1061 839,-284.991 839,-284.991"/>
<polygon fill="#000000" stroke="#000000" points="835.5001,-284.9909 839,-294.991 842.5001,-284.991 835.5001,-284.9909"/>
</g>
<!-- NgxEditorJSModule -->
<g id="node12" class="node">
<title>NgxEditorJSModule</title>
<polygon fill="#8dd3c7" stroke="#000000" points="1146.8781,-331 1143.8781,-335 1122.8781,-335 1119.8781,-331 1015.1219,-331 1015.1219,-295 1146.8781,-295 1146.8781,-331"/>
<text text-anchor="middle" x="1081" y="-308.8" font-family="Times,serif" font-size="14.00" fill="#000000">NgxEditorJSModule</text>
</g>
<!-- NgxEditorJSMatFieldModule&#45;&gt;NgxEditorJSModule -->
<g id="edge10" class="edge">
<title>NgxEditorJSMatFieldModule&#45;&gt;NgxEditorJSModule</title>
<path fill="none" stroke="#000000" d="M930.7879,-260C975.5733,-260 1019.9257,-260 1019.9257,-260 1019.9257,-260 1019.9257,-284.7604 1019.9257,-284.7604"/>
<polygon fill="#000000" stroke="#000000" points="1016.4257,-284.7604 1019.9257,-294.7604 1023.4257,-284.7604 1016.4257,-284.7604"/>
</g>
<!-- EDITORJS_MATERIAL_FIELD_CONTROL -->
<g id="node10" class="node">
<title>EDITORJS_MATERIAL_FIELD_CONTROL</title>
<ellipse fill="#fdb462" stroke="#000000" cx="773" cy="-104" rx="192.7382" ry="18"/>
<text text-anchor="middle" x="773" y="-99.8" font-family="Times,serif" font-size="14.00" fill="#000000">EDITORJS_MATERIAL_FIELD_CONTROL</text>
</g>
<!-- EDITORJS_MATERIAL_FIELD_CONTROL&#45;&gt;NgxEditorJSMatFieldComponent -->
<g id="edge8" class="edge">
<title>EDITORJS_MATERIAL_FIELD_CONTROL&#45;&gt;NgxEditorJSMatFieldComponent</title>
<path fill="none" stroke="#000000" d="M817,-121.8662C817,-121.8662 817,-143.5422 817,-143.5422"/>
<polygon fill="#000000" stroke="#000000" points="813.5001,-143.5421 817,-153.5422 820.5001,-143.5422 813.5001,-143.5421"/>
</g>
<!-- NgxEditorJSMatFieldModule  -->
<g id="node13" class="node">
<title>NgxEditorJSMatFieldModule </title>
<polygon fill="#fb8072" stroke="#000000" points="1192.2064,-399 1005.7936,-399 1005.7936,-363 1192.2064,-363 1192.2064,-399"/>
<text text-anchor="middle" x="1099" y="-376.8" font-family="Times,serif" font-size="14.00" fill="#000000">NgxEditorJSMatFieldModule </text>
</g>
<!-- NgxEditorJSModule&#45;&gt;NgxEditorJSMatFieldModule  -->
<g id="edge11" class="edge">
<title>NgxEditorJSModule&#45;&gt;NgxEditorJSMatFieldModule </title>
<path fill="none" stroke="#000000" stroke-dasharray="5,2" d="M1081,-331.2228C1081,-331.2228 1081,-352.7269 1081,-352.7269"/>
<polygon fill="#000000" stroke="#000000" points="1077.5001,-352.7269 1081,-362.7269 1084.5001,-352.727 1077.5001,-352.7269"/>
</g>
<!-- NgxEditorJSPluginService -->
<g id="node14" class="node">
<title>NgxEditorJSPluginService</title>
<ellipse fill="#fdb462" stroke="#000000" cx="1121" cy="-104" rx="115.2073" ry="18"/>
<text text-anchor="middle" x="1121" y="-99.8" font-family="Times,serif" font-size="14.00" fill="#000000">NgxEditorJSPluginService</text>
</g>
<!-- NgxEditorJSPluginServiceModule -->
<g id="node15" class="node">
<title>NgxEditorJSPluginServiceModule</title>
<polygon fill="#8dd3c7" stroke="#000000" points="1235.4198,-190 1232.4198,-194 1211.4198,-194 1208.4198,-190 1024.5802,-190 1024.5802,-154 1235.4198,-154 1235.4198,-190"/>
<text text-anchor="middle" x="1130" y="-167.8" font-family="Times,serif" font-size="14.00" fill="#000000">NgxEditorJSPluginServiceModule</text>
</g>
<!-- NgxEditorJSPluginService&#45;&gt;NgxEditorJSPluginServiceModule -->
<g id="edge12" class="edge">
<title>NgxEditorJSPluginService&#45;&gt;NgxEditorJSPluginServiceModule</title>
<path fill="none" stroke="#000000" d="M1130,-122.2228C1130,-122.2228 1130,-143.7269 1130,-143.7269"/>
<polygon fill="#000000" stroke="#000000" points="1126.5001,-143.7269 1130,-153.7269 1133.5001,-143.727 1126.5001,-143.7269"/>
</g>
<!-- NgxEditorjsPluginsModule -->
<g id="node28" class="node">
<title>NgxEditorjsPluginsModule</title>
<polygon fill="#8dd3c7" stroke="#000000" points="2335.9944,-266 2332.9944,-270 2311.9944,-270 2308.9944,-266 2166.0056,-266 2166.0056,-230 2335.9944,-230 2335.9944,-266"/>
<text text-anchor="middle" x="2251" y="-243.8" font-family="Times,serif" font-size="14.00" fill="#000000">NgxEditorjsPluginsModule</text>
</g>
<!-- NgxEditorJSPluginServiceModule&#45;&gt;NgxEditorjsPluginsModule -->
<g id="edge13" class="edge">
<title>NgxEditorJSPluginServiceModule&#45;&gt;NgxEditorjsPluginsModule</title>
<path fill="none" stroke="#000000" d="M1213.7814,-190.0449C1213.7814,-211.6623 1213.7814,-245 1213.7814,-245 1213.7814,-245 2155.6793,-245 2155.6793,-245"/>
<polygon fill="#000000" stroke="#000000" points="2155.6793,-248.5001 2165.6793,-245 2155.6793,-241.5001 2155.6793,-248.5001"/>
</g>
<!-- PluginCodeModule -->
<g id="node16" class="node">
<title>PluginCodeModule</title>
<polygon fill="#8dd3c7" stroke="#000000" points="3219.6652,-190 3216.6652,-194 3195.6652,-194 3192.6652,-190 3094.3348,-190 3094.3348,-154 3219.6652,-154 3219.6652,-190"/>
<text text-anchor="middle" x="3157" y="-167.8" font-family="Times,serif" font-size="14.00" fill="#000000">PluginCodeModule</text>
</g>
<!-- PluginCodeModule&#45;&gt;NgxEditorjsPluginsModule -->
<g id="edge14" class="edge">
<title>PluginCodeModule&#45;&gt;NgxEditorjsPluginsModule</title>
<path fill="none" stroke="#000000" d="M3136.875,-190.1554C3136.875,-212.3519 3136.875,-247 3136.875,-247 3136.875,-247 2346.3435,-247 2346.3435,-247"/>
<polygon fill="#000000" stroke="#000000" points="2346.3435,-243.5001 2336.3435,-247 2346.3435,-250.5001 2346.3435,-243.5001"/>
</g>
<!-- PluginEmbedModule -->
<g id="node17" class="node">
<title>PluginEmbedModule</title>
<polygon fill="#8dd3c7" stroke="#000000" points="3075.7716,-190 3072.7716,-194 3051.7716,-194 3048.7716,-190 2940.2284,-190 2940.2284,-154 3075.7716,-154 3075.7716,-190"/>
<text text-anchor="middle" x="3008" y="-167.8" font-family="Times,serif" font-size="14.00" fill="#000000">PluginEmbedModule</text>
</g>
<!-- PluginEmbedModule&#45;&gt;NgxEditorjsPluginsModule -->
<g id="edge15" class="edge">
<title>PluginEmbedModule&#45;&gt;NgxEditorjsPluginsModule</title>
<path fill="none" stroke="#000000" d="M2986.375,-190.1686C2986.375,-211.498 2986.375,-244 2986.375,-244 2986.375,-244 2346.0753,-244 2346.0753,-244"/>
<polygon fill="#000000" stroke="#000000" points="2346.0753,-240.5001 2336.0753,-244 2346.0752,-247.5001 2346.0753,-240.5001"/>
</g>
<!-- PluginHeaderModule -->
<g id="node18" class="node">
<title>PluginHeaderModule</title>
<polygon fill="#8dd3c7" stroke="#000000" points="2922.0254,-190 2919.0254,-194 2898.0254,-194 2895.0254,-190 2785.9746,-190 2785.9746,-154 2922.0254,-154 2922.0254,-190"/>
<text text-anchor="middle" x="2854" y="-167.8" font-family="Times,serif" font-size="14.00" fill="#000000">PluginHeaderModule</text>
</g>
<!-- PluginHeaderModule&#45;&gt;NgxEditorjsPluginsModule -->
<g id="edge16" class="edge">
<title>PluginHeaderModule&#45;&gt;NgxEditorjsPluginsModule</title>
<path fill="none" stroke="#000000" d="M2830.375,-190.0267C2830.375,-210.7672 2830.375,-242 2830.375,-242 2830.375,-242 2346.1775,-242 2346.1775,-242"/>
<polygon fill="#000000" stroke="#000000" points="2346.1775,-238.5001 2336.1775,-242 2346.1774,-245.5001 2346.1775,-238.5001"/>
</g>
<!-- PluginImageModule -->
<g id="node19" class="node">
<title>PluginImageModule</title>
<polygon fill="#8dd3c7" stroke="#000000" points="2767.594,-190 2764.594,-194 2743.594,-194 2740.594,-190 2636.406,-190 2636.406,-154 2767.594,-154 2767.594,-190"/>
<text text-anchor="middle" x="2702" y="-167.8" font-family="Times,serif" font-size="14.00" fill="#000000">PluginImageModule</text>
</g>
<!-- PluginImageModule&#45;&gt;NgxEditorjsPluginsModule -->
<g id="edge17" class="edge">
<title>PluginImageModule&#45;&gt;NgxEditorjsPluginsModule</title>
<path fill="none" stroke="#000000" d="M2676.875,-190.308C2676.875,-210.1455 2676.875,-239 2676.875,-239 2676.875,-239 2346.1586,-239 2346.1586,-239"/>
<polygon fill="#000000" stroke="#000000" points="2346.1586,-235.5001 2336.1586,-239 2346.1586,-242.5001 2346.1586,-235.5001"/>
</g>
<!-- PluginInlineCodeModule -->
<g id="node20" class="node">
<title>PluginInlineCodeModule</title>
<polygon fill="#8dd3c7" stroke="#000000" points="2618.3215,-190 2615.3215,-194 2594.3215,-194 2591.3215,-190 2459.6785,-190 2459.6785,-154 2618.3215,-154 2618.3215,-190"/>
<text text-anchor="middle" x="2539" y="-167.8" font-family="Times,serif" font-size="14.00" fill="#000000">PluginInlineCodeModule</text>
</g>
<!-- PluginInlineCodeModule&#45;&gt;NgxEditorjsPluginsModule -->
<g id="edge18" class="edge">
<title>PluginInlineCodeModule&#45;&gt;NgxEditorjsPluginsModule</title>
<path fill="none" stroke="#000000" d="M2512.375,-190.1686C2512.375,-209.0898 2512.375,-236 2512.375,-236 2512.375,-236 2346.2223,-236 2346.2223,-236"/>
<polygon fill="#000000" stroke="#000000" points="2346.2223,-232.5001 2336.2223,-236 2346.2222,-239.5001 2346.2223,-232.5001"/>
</g>
<!-- PluginLinkModule -->
<g id="node21" class="node">
<title>PluginLinkModule</title>
<polygon fill="#8dd3c7" stroke="#000000" points="2442.0576,-190 2439.0576,-194 2418.0576,-194 2415.0576,-190 2319.9424,-190 2319.9424,-154 2442.0576,-154 2442.0576,-190"/>
<text text-anchor="middle" x="2381" y="-167.8" font-family="Times,serif" font-size="14.00" fill="#000000">PluginLinkModule</text>
</g>
<!-- PluginLinkModule&#45;&gt;NgxEditorjsPluginsModule -->
<g id="edge19" class="edge">
<title>PluginLinkModule&#45;&gt;NgxEditorjsPluginsModule</title>
<path fill="none" stroke="#000000" d="M2327.8594,-190.0109C2327.8594,-190.0109 2327.8594,-219.855 2327.8594,-219.855"/>
<polygon fill="#000000" stroke="#000000" points="2324.3595,-219.8549 2327.8594,-229.855 2331.3595,-219.855 2324.3595,-219.8549"/>
</g>
<!-- PluginListModule -->
<g id="node22" class="node">
<title>PluginListModule</title>
<polygon fill="#8dd3c7" stroke="#000000" points="2301.892,-190 2298.892,-194 2277.892,-194 2274.892,-190 2184.108,-190 2184.108,-154 2301.892,-154 2301.892,-190"/>
<text text-anchor="middle" x="2243" y="-167.8" font-family="Times,serif" font-size="14.00" fill="#000000">PluginListModule</text>
</g>
<!-- PluginListModule&#45;&gt;NgxEditorjsPluginsModule -->
<g id="edge20" class="edge">
<title>PluginListModule&#45;&gt;NgxEditorjsPluginsModule</title>
<path fill="none" stroke="#000000" d="M2243,-190.0109C2243,-190.0109 2243,-219.855 2243,-219.855"/>
<polygon fill="#000000" stroke="#000000" points="2239.5001,-219.8549 2243,-229.855 2246.5001,-219.855 2239.5001,-219.8549"/>
</g>
<!-- PluginMarkerModule -->
<g id="node23" class="node">
<title>PluginMarkerModule</title>
<polygon fill="#8dd3c7" stroke="#000000" points="2165.8089,-190 2162.8089,-194 2141.8089,-194 2138.8089,-190 2028.1911,-190 2028.1911,-154 2165.8089,-154 2165.8089,-190"/>
<text text-anchor="middle" x="2097" y="-167.8" font-family="Times,serif" font-size="14.00" fill="#000000">PluginMarkerModule</text>
</g>
<!-- PluginMarkerModule&#45;&gt;NgxEditorjsPluginsModule -->
<g id="edge21" class="edge">
<title>PluginMarkerModule&#45;&gt;NgxEditorjsPluginsModule</title>
<path fill="none" stroke="#000000" d="M2165.7711,-172C2171.4268,-172 2175.0284,-172 2175.0284,-172 2175.0284,-172 2175.0284,-219.9891 2175.0284,-219.9891"/>
<polygon fill="#000000" stroke="#000000" points="2171.5285,-219.989 2175.0284,-229.9891 2178.5285,-219.9891 2171.5285,-219.989"/>
</g>
<!-- PluginParagraphModule -->
<g id="node24" class="node">
<title>PluginParagraphModule</title>
<polygon fill="#8dd3c7" stroke="#000000" points="2010.3613,-190 2007.3613,-194 1986.3613,-194 1983.3613,-190 1857.6387,-190 1857.6387,-154 2010.3613,-154 2010.3613,-190"/>
<text text-anchor="middle" x="1934" y="-167.8" font-family="Times,serif" font-size="14.00" fill="#000000">PluginParagraphModule</text>
</g>
<!-- PluginParagraphModule&#45;&gt;NgxEditorjsPluginsModule -->
<g id="edge22" class="edge">
<title>PluginParagraphModule&#45;&gt;NgxEditorjsPluginsModule</title>
<path fill="none" stroke="#000000" d="M1985.5132,-190.302C1985.5132,-208.2699 1985.5132,-233 1985.5132,-233 1985.5132,-233 2155.9028,-233 2155.9028,-233"/>
<polygon fill="#000000" stroke="#000000" points="2155.9029,-236.5001 2165.9028,-233 2155.9028,-229.5001 2155.9029,-236.5001"/>
</g>
<!-- PluginQuoteModule -->
<g id="node25" class="node">
<title>PluginQuoteModule</title>
<polygon fill="#8dd3c7" stroke="#000000" points="1839.3258,-190 1836.3258,-194 1815.3258,-194 1812.3258,-190 1708.6742,-190 1708.6742,-154 1839.3258,-154 1839.3258,-190"/>
<text text-anchor="middle" x="1774" y="-167.8" font-family="Times,serif" font-size="14.00" fill="#000000">PluginQuoteModule</text>
</g>
<!-- PluginQuoteModule&#45;&gt;NgxEditorjsPluginsModule -->
<g id="edge23" class="edge">
<title>PluginQuoteModule&#45;&gt;NgxEditorjsPluginsModule</title>
<path fill="none" stroke="#000000" d="M1812.4911,-190.1686C1812.4911,-209.0898 1812.4911,-236 1812.4911,-236 1812.4911,-236 2155.9311,-236 2155.9311,-236"/>
<polygon fill="#000000" stroke="#000000" points="2155.9312,-239.5001 2165.9311,-236 2155.9311,-232.5001 2155.9312,-239.5001"/>
</g>
<!-- PluginSimpleImageModule -->
<g id="node26" class="node">
<title>PluginSimpleImageModule</title>
<polygon fill="#8dd3c7" stroke="#000000" points="1690.2632,-190 1687.2632,-194 1666.2632,-194 1663.2632,-190 1519.7368,-190 1519.7368,-154 1690.2632,-154 1690.2632,-190"/>
<text text-anchor="middle" x="1605" y="-167.8" font-family="Times,serif" font-size="14.00" fill="#000000">PluginSimpleImageModule</text>
</g>
<!-- PluginSimpleImageModule&#45;&gt;NgxEditorjsPluginsModule -->
<g id="edge24" class="edge">
<title>PluginSimpleImageModule&#45;&gt;NgxEditorjsPluginsModule</title>
<path fill="none" stroke="#000000" d="M1662.2344,-190.308C1662.2344,-210.1455 1662.2344,-239 1662.2344,-239 1662.2344,-239 2155.703,-239 2155.703,-239"/>
<polygon fill="#000000" stroke="#000000" points="2155.7031,-242.5001 2165.703,-239 2155.703,-235.5001 2155.7031,-242.5001"/>
</g>
<!-- PluginWarningModule -->
<g id="node27" class="node">
<title>PluginWarningModule</title>
<polygon fill="#8dd3c7" stroke="#000000" points="1501.594,-190 1498.594,-194 1477.594,-194 1474.594,-190 1356.406,-190 1356.406,-154 1501.594,-154 1501.594,-190"/>
<text text-anchor="middle" x="1429" y="-167.8" font-family="Times,serif" font-size="14.00" fill="#000000">PluginWarningModule</text>
</g>
<!-- PluginWarningModule&#45;&gt;NgxEditorjsPluginsModule -->
<g id="edge25" class="edge">
<title>PluginWarningModule&#45;&gt;NgxEditorjsPluginsModule</title>
<path fill="none" stroke="#000000" d="M1471.7078,-190.0267C1471.7078,-210.7672 1471.7078,-242 1471.7078,-242 1471.7078,-242 2155.7461,-242 2155.7461,-242"/>
<polygon fill="#000000" stroke="#000000" points="2155.7461,-245.5001 2165.7461,-242 2155.746,-238.5001 2155.7461,-245.5001"/>
</g>
<!-- NgxEditorJSPluginServiceModule  -->
<g id="node29" class="node">
<title>NgxEditorJSPluginServiceModule </title>
<polygon fill="#fb8072" stroke="#000000" points="3411.9194,-331 3198.0806,-331 3198.0806,-295 3411.9194,-295 3411.9194,-331"/>
<text text-anchor="middle" x="3305" y="-308.8" font-family="Times,serif" font-size="14.00" fill="#000000">NgxEditorJSPluginServiceModule </text>
</g>
<!-- NgxEditorjsPluginsModule&#45;&gt;NgxEditorJSPluginServiceModule  -->
<g id="edge26" class="edge">
<title>NgxEditorjsPluginsModule&#45;&gt;NgxEditorJSPluginServiceModule </title>
<path fill="none" stroke="#000000" stroke-dasharray="5,2" d="M2336.0105,-250C2570.4534,-250 3208.9364,-250 3208.9364,-250 3208.9364,-250 3208.9364,-284.7778 3208.9364,-284.7778"/>
<polygon fill="#000000" stroke="#000000" points="3205.4364,-284.7778 3208.9364,-294.7778 3212.4364,-284.7778 3205.4364,-284.7778"/>
</g>
<!-- PluginCodeModule  -->
<g id="node30" class="node">
<title>PluginCodeModule </title>
<polygon fill="#fb8072" stroke="#000000" points="3179.6649,-331 3050.3351,-331 3050.3351,-295 3179.6649,-295 3179.6649,-331"/>
<text text-anchor="middle" x="3115" y="-308.8" font-family="Times,serif" font-size="14.00" fill="#000000">PluginCodeModule </text>
</g>
<!-- NgxEditorjsPluginsModule&#45;&gt;PluginCodeModule  -->
<g id="edge27" class="edge">
<title>NgxEditorjsPluginsModule&#45;&gt;PluginCodeModule </title>
<path fill="none" stroke="#000000" stroke-dasharray="5,2" d="M2335.9974,-253C2544.2625,-253 3063.1516,-253 3063.1516,-253 3063.1516,-253 3063.1516,-284.998 3063.1516,-284.998"/>
<polygon fill="#000000" stroke="#000000" points="3059.6517,-284.998 3063.1516,-294.998 3066.6517,-284.9981 3059.6517,-284.998"/>
</g>
<!-- PluginEmbedModule  -->
<g id="node31" class="node">
<title>PluginEmbedModule </title>
<polygon fill="#fb8072" stroke="#000000" points="3032.7717,-331 2893.2283,-331 2893.2283,-295 3032.7717,-295 3032.7717,-331"/>
<text text-anchor="middle" x="2963" y="-308.8" font-family="Times,serif" font-size="14.00" fill="#000000">PluginEmbedModule </text>
</g>
<!-- NgxEditorjsPluginsModule&#45;&gt;PluginEmbedModule  -->
<g id="edge28" class="edge">
<title>NgxEditorjsPluginsModule&#45;&gt;PluginEmbedModule </title>
<path fill="none" stroke="#000000" stroke-dasharray="5,2" d="M2336.1935,-255C2513.9111,-255 2907.8133,-255 2907.8133,-255 2907.8133,-255 2907.8133,-284.9664 2907.8133,-284.9664"/>
<polygon fill="#000000" stroke="#000000" points="2904.3134,-284.9663 2907.8133,-294.9664 2911.3134,-284.9664 2904.3134,-284.9663"/>
</g>
<!-- PluginHeaderModule  -->
<g id="node32" class="node">
<title>PluginHeaderModule </title>
<polygon fill="#fb8072" stroke="#000000" points="2875.0246,-331 2734.9754,-331 2734.9754,-295 2875.0246,-295 2875.0246,-331"/>
<text text-anchor="middle" x="2805" y="-308.8" font-family="Times,serif" font-size="14.00" fill="#000000">PluginHeaderModule </text>
</g>
<!-- NgxEditorjsPluginsModule&#45;&gt;PluginHeaderModule  -->
<g id="edge29" class="edge">
<title>NgxEditorjsPluginsModule&#45;&gt;PluginHeaderModule </title>
<path fill="none" stroke="#000000" stroke-dasharray="5,2" d="M2336.1469,-258C2478.9526,-258 2751.2674,-258 2751.2674,-258 2751.2674,-258 2751.2674,-284.9909 2751.2674,-284.9909"/>
<polygon fill="#000000" stroke="#000000" points="2747.7674,-284.9909 2751.2674,-294.9909 2754.7674,-284.991 2747.7674,-284.9909"/>
</g>
<!-- PluginImageModule  -->
<g id="node33" class="node">
<title>PluginImageModule </title>
<polygon fill="#fb8072" stroke="#000000" points="2717.0946,-331 2582.9054,-331 2582.9054,-295 2717.0946,-295 2717.0946,-331"/>
<text text-anchor="middle" x="2650" y="-308.8" font-family="Times,serif" font-size="14.00" fill="#000000">PluginImageModule </text>
</g>
<!-- NgxEditorjsPluginsModule&#45;&gt;PluginImageModule  -->
<g id="edge30" class="edge">
<title>NgxEditorjsPluginsModule&#45;&gt;PluginImageModule </title>
<path fill="none" stroke="#000000" stroke-dasharray="5,2" d="M2336.0338,-261C2439.4666,-261 2600.4318,-261 2600.4318,-261 2600.4318,-261 2600.4318,-284.8129 2600.4318,-284.8129"/>
<polygon fill="#000000" stroke="#000000" points="2596.9319,-284.8129 2600.4318,-294.8129 2603.9319,-284.813 2596.9319,-284.8129"/>
</g>
<!-- PluginInlineCodeModule  -->
<g id="node34" class="node">
<title>PluginInlineCodeModule </title>
<polygon fill="#fb8072" stroke="#000000" points="2564.8213,-331 2403.1787,-331 2403.1787,-295 2564.8213,-295 2564.8213,-331"/>
<text text-anchor="middle" x="2484" y="-308.8" font-family="Times,serif" font-size="14.00" fill="#000000">PluginInlineCodeModule </text>
</g>
<!-- NgxEditorjsPluginsModule&#45;&gt;PluginInlineCodeModule  -->
<g id="edge31" class="edge">
<title>NgxEditorjsPluginsModule&#45;&gt;PluginInlineCodeModule </title>
<path fill="none" stroke="#000000" stroke-dasharray="5,2" d="M2336.0875,-264C2379.2585,-264 2422.6839,-264 2422.6839,-264 2422.6839,-264 2422.6839,-284.7542 2422.6839,-284.7542"/>
<polygon fill="#000000" stroke="#000000" points="2419.184,-284.7542 2422.6839,-294.7542 2426.184,-284.7542 2419.184,-284.7542"/>
</g>
<!-- PluginLinkModule  -->
<g id="node35" class="node">
<title>PluginLinkModule </title>
<polygon fill="#fb8072" stroke="#000000" points="2385.0568,-331 2258.9432,-331 2258.9432,-295 2385.0568,-295 2385.0568,-331"/>
<text text-anchor="middle" x="2322" y="-308.8" font-family="Times,serif" font-size="14.00" fill="#000000">PluginLinkModule </text>
</g>
<!-- NgxEditorjsPluginsModule&#45;&gt;PluginLinkModule  -->
<g id="edge32" class="edge">
<title>NgxEditorjsPluginsModule&#45;&gt;PluginLinkModule </title>
<path fill="none" stroke="#000000" stroke-dasharray="5,2" d="M2297.4844,-266.1061C2297.4844,-266.1061 2297.4844,-284.991 2297.4844,-284.991"/>
<polygon fill="#000000" stroke="#000000" points="2293.9845,-284.9909 2297.4844,-294.991 2300.9845,-284.991 2293.9845,-284.9909"/>
</g>
<!-- PluginListModule  -->
<g id="node36" class="node">
<title>PluginListModule </title>
<polygon fill="#fb8072" stroke="#000000" points="2240.8926,-331 2119.1074,-331 2119.1074,-295 2240.8926,-295 2240.8926,-331"/>
<text text-anchor="middle" x="2180" y="-308.8" font-family="Times,serif" font-size="14.00" fill="#000000">PluginListModule </text>
</g>
<!-- NgxEditorjsPluginsModule&#45;&gt;PluginListModule  -->
<g id="edge33" class="edge">
<title>NgxEditorjsPluginsModule&#45;&gt;PluginListModule </title>
<path fill="none" stroke="#000000" stroke-dasharray="5,2" d="M2203.3494,-266.1061C2203.3494,-266.1061 2203.3494,-284.991 2203.3494,-284.991"/>
<polygon fill="#000000" stroke="#000000" points="2199.8495,-284.9909 2203.3494,-294.991 2206.8495,-284.991 2199.8495,-284.9909"/>
</g>
<!-- PluginMarkerModule  -->
<g id="node37" class="node">
<title>PluginMarkerModule </title>
<polygon fill="#fb8072" stroke="#000000" points="2101.3087,-331 1960.6913,-331 1960.6913,-295 2101.3087,-295 2101.3087,-331"/>
<text text-anchor="middle" x="2031" y="-308.8" font-family="Times,serif" font-size="14.00" fill="#000000">PluginMarkerModule </text>
</g>
<!-- NgxEditorjsPluginsModule&#45;&gt;PluginMarkerModule  -->
<g id="edge34" class="edge">
<title>NgxEditorjsPluginsModule&#45;&gt;PluginMarkerModule </title>
<path fill="none" stroke="#000000" stroke-dasharray="5,2" d="M2165.8357,-263C2116.8266,-263 2064.875,-263 2064.875,-263 2064.875,-263 2064.875,-284.9489 2064.875,-284.9489"/>
<polygon fill="#000000" stroke="#000000" points="2061.3751,-284.9488 2064.875,-294.9489 2068.3751,-284.9489 2061.3751,-284.9488"/>
</g>
<!-- PluginParagraphModule  -->
<g id="node38" class="node">
<title>PluginParagraphModule </title>
<polygon fill="#fb8072" stroke="#000000" points="1942.3616,-331 1785.6384,-331 1785.6384,-295 1942.3616,-295 1942.3616,-331"/>
<text text-anchor="middle" x="1864" y="-308.8" font-family="Times,serif" font-size="14.00" fill="#000000">PluginParagraphModule </text>
</g>
<!-- NgxEditorjsPluginsModule&#45;&gt;PluginParagraphModule  -->
<g id="edge35" class="edge">
<title>NgxEditorjsPluginsModule&#45;&gt;PluginParagraphModule </title>
<path fill="none" stroke="#000000" stroke-dasharray="5,2" d="M2166.0024,-257C2062.086,-257 1899.875,-257 1899.875,-257 1899.875,-257 1899.875,-284.973 1899.875,-284.973"/>
<polygon fill="#000000" stroke="#000000" points="1896.3751,-284.973 1899.875,-294.973 1903.3751,-284.973 1896.3751,-284.973"/>
</g>
<!-- PluginQuoteModule  -->
<g id="node39" class="node">
<title>PluginQuoteModule </title>
<polygon fill="#fb8072" stroke="#000000" points="1767.8255,-331 1634.1745,-331 1634.1745,-295 1767.8255,-295 1767.8255,-331"/>
<text text-anchor="middle" x="1701" y="-308.8" font-family="Times,serif" font-size="14.00" fill="#000000">PluginQuoteModule </text>
</g>
<!-- NgxEditorjsPluginsModule&#45;&gt;PluginQuoteModule  -->
<g id="edge36" class="edge">
<title>NgxEditorjsPluginsModule&#45;&gt;PluginQuoteModule </title>
<path fill="none" stroke="#000000" stroke-dasharray="5,2" d="M2165.775,-254C2020.0079,-254 1738.375,-254 1738.375,-254 1738.375,-254 1738.375,-284.9775 1738.375,-284.9775"/>
<polygon fill="#000000" stroke="#000000" points="1734.8751,-284.9774 1738.375,-294.9775 1741.8751,-284.9775 1734.8751,-284.9774"/>
</g>
<!-- PluginSimpleImageModule  -->
<g id="node40" class="node">
<title>PluginSimpleImageModule </title>
<polygon fill="#fb8072" stroke="#000000" points="1616.2632,-331 1441.7368,-331 1441.7368,-295 1616.2632,-295 1616.2632,-331"/>
<text text-anchor="middle" x="1529" y="-308.8" font-family="Times,serif" font-size="14.00" fill="#000000">PluginSimpleImageModule </text>
</g>
<!-- NgxEditorjsPluginsModule&#45;&gt;PluginSimpleImageModule  -->
<g id="edge37" class="edge">
<title>NgxEditorjsPluginsModule&#45;&gt;PluginSimpleImageModule </title>
<path fill="none" stroke="#000000" stroke-dasharray="5,2" d="M2165.863,-251C1982.7393,-251 1567.875,-251 1567.875,-251 1567.875,-251 1567.875,-284.7333 1567.875,-284.7333"/>
<polygon fill="#000000" stroke="#000000" points="1564.3751,-284.7333 1567.875,-294.7333 1571.3751,-284.7333 1564.3751,-284.7333"/>
</g>
<!-- PluginWarningModule  -->
<g id="node41" class="node">
<title>PluginWarningModule </title>
<polygon fill="#fb8072" stroke="#000000" points="1424.0946,-331 1275.9054,-331 1275.9054,-295 1424.0946,-295 1424.0946,-331"/>
<text text-anchor="middle" x="1350" y="-308.8" font-family="Times,serif" font-size="14.00" fill="#000000">PluginWarningModule </text>
</g>
<!-- NgxEditorjsPluginsModule&#45;&gt;PluginWarningModule  -->
<g id="edge38" class="edge">
<title>NgxEditorjsPluginsModule&#45;&gt;PluginWarningModule </title>
<path fill="none" stroke="#000000" stroke-dasharray="5,2" d="M2165.7295,-248C1948.3251,-248 1390.375,-248 1390.375,-248 1390.375,-248 1390.375,-284.8939 1390.375,-284.8939"/>
<polygon fill="#000000" stroke="#000000" points="1386.8751,-284.8938 1390.375,-294.8939 1393.8751,-284.8939 1386.8751,-284.8938"/>
</g>
<!-- NgxTinynodesMatJsonOutputModule -->
<g id="node42" class="node">
<title>NgxTinynodesMatJsonOutputModule</title>
<polygon fill="#8dd3c7" stroke="#000000" points="4020.5856,-266 4017.5856,-270 3996.5856,-270 3993.5856,-266 3791.4144,-266 3791.4144,-230 4020.5856,-230 4020.5856,-266"/>
<text text-anchor="middle" x="3906" y="-243.8" font-family="Times,serif" font-size="14.00" fill="#000000">NgxTinynodesMatJsonOutputModule</text>
</g>
<!-- NgxTinynodesComponentsModule -->
<g id="node44" class="node">
<title>NgxTinynodesComponentsModule</title>
<polygon fill="#8dd3c7" stroke="#000000" points="4130.5363,-331 4127.5363,-335 4106.5363,-335 4103.5363,-331 3917.4637,-331 3917.4637,-295 4130.5363,-295 4130.5363,-331"/>
<text text-anchor="middle" x="4024" y="-308.8" font-family="Times,serif" font-size="14.00" fill="#000000">NgxTinynodesComponentsModule</text>
</g>
<!-- NgxTinynodesMatJsonOutputModule&#45;&gt;NgxTinynodesComponentsModule -->
<g id="edge39" class="edge">
<title>NgxTinynodesMatJsonOutputModule&#45;&gt;NgxTinynodesComponentsModule</title>
<path fill="none" stroke="#000000" d="M3968.8875,-266.1061C3968.8875,-266.1061 3968.8875,-284.991 3968.8875,-284.991"/>
<polygon fill="#000000" stroke="#000000" points="3965.3875,-284.9909 3968.8875,-294.991 3972.3875,-284.991 3965.3875,-284.9909"/>
</g>
<!-- NgxTinynodesMatJsonOutputComponent  -->
<g id="node48" class="node">
<title>NgxTinynodesMatJsonOutputComponent </title>
<polygon fill="#fb8072" stroke="#000000" points="3706.3685,-190 3451.6315,-190 3451.6315,-154 3706.3685,-154 3706.3685,-190"/>
<text text-anchor="middle" x="3579" y="-167.8" font-family="Times,serif" font-size="14.00" fill="#000000">NgxTinynodesMatJsonOutputComponent </text>
</g>
<!-- NgxTinynodesMatJsonOutputModule&#45;&gt;NgxTinynodesMatJsonOutputComponent  -->
<g id="edge44" class="edge">
<title>NgxTinynodesMatJsonOutputModule&#45;&gt;NgxTinynodesMatJsonOutputComponent </title>
<path fill="none" stroke="#000000" stroke-dasharray="5,2" d="M3791.1718,-233C3696.95,-233 3579,-233 3579,-233 3579,-233 3579,-200.302 3579,-200.302"/>
<polygon fill="#000000" stroke="#000000" points="3582.5001,-200.302 3579,-190.302 3575.5001,-200.302 3582.5001,-200.302"/>
</g>
<!-- NgxTinynodesMatTagInputModule -->
<g id="node43" class="node">
<title>NgxTinynodesMatTagInputModule</title>
<polygon fill="#8dd3c7" stroke="#000000" points="4255.1273,-266 4252.1273,-270 4231.1273,-270 4228.1273,-266 4038.8727,-266 4038.8727,-230 4255.1273,-230 4255.1273,-266"/>
<text text-anchor="middle" x="4147" y="-243.8" font-family="Times,serif" font-size="14.00" fill="#000000">NgxTinynodesMatTagInputModule</text>
</g>
<!-- NgxTinynodesMatTagInputModule&#45;&gt;NgxTinynodesComponentsModule -->
<g id="edge40" class="edge">
<title>NgxTinynodesMatTagInputModule&#45;&gt;NgxTinynodesComponentsModule</title>
<path fill="none" stroke="#000000" d="M4084.7272,-266.1061C4084.7272,-266.1061 4084.7272,-284.991 4084.7272,-284.991"/>
<polygon fill="#000000" stroke="#000000" points="4081.2273,-284.9909 4084.7272,-294.991 4088.2273,-284.991 4081.2273,-284.9909"/>
</g>
<!-- NgxTinynodesMatTagInputComponent  -->
<g id="node52" class="node">
<title>NgxTinynodesMatTagInputComponent </title>
<polygon fill="#fb8072" stroke="#000000" points="5035.9096,-122 4794.0904,-122 4794.0904,-86 5035.9096,-86 5035.9096,-122"/>
<text text-anchor="middle" x="4915" y="-99.8" font-family="Times,serif" font-size="14.00" fill="#000000">NgxTinynodesMatTagInputComponent </text>
</g>
<!-- NgxTinynodesMatTagInputModule&#45;&gt;NgxTinynodesMatTagInputComponent  -->
<g id="edge48" class="edge">
<title>NgxTinynodesMatTagInputModule&#45;&gt;NgxTinynodesMatTagInputComponent </title>
<path fill="none" stroke="#000000" stroke-dasharray="5,2" d="M4255.4068,-248C4467.1064,-248 4915,-248 4915,-248 4915,-248 4915,-132.2377 4915,-132.2377"/>
<polygon fill="#000000" stroke="#000000" points="4918.5001,-132.2377 4915,-122.2377 4911.5001,-132.2377 4918.5001,-132.2377"/>
</g>
<!-- NgxTinynodesMatJsonOutputModule  -->
<g id="node45" class="node">
<title>NgxTinynodesMatJsonOutputModule </title>
<polygon fill="#fb8072" stroke="#000000" points="4258.086,-399 4025.914,-399 4025.914,-363 4258.086,-363 4258.086,-399"/>
<text text-anchor="middle" x="4142" y="-376.8" font-family="Times,serif" font-size="14.00" fill="#000000">NgxTinynodesMatJsonOutputModule </text>
</g>
<!-- NgxTinynodesComponentsModule&#45;&gt;NgxTinynodesMatJsonOutputModule  -->
<g id="edge41" class="edge">
<title>NgxTinynodesComponentsModule&#45;&gt;NgxTinynodesMatJsonOutputModule </title>
<path fill="none" stroke="#000000" stroke-dasharray="5,2" d="M4078.2376,-331.2228C4078.2376,-331.2228 4078.2376,-352.7269 4078.2376,-352.7269"/>
<polygon fill="#000000" stroke="#000000" points="4074.7376,-352.7269 4078.2376,-362.7269 4081.7376,-352.727 4074.7376,-352.7269"/>
</g>
<!-- NgxTinynodesMatTagInputModule  -->
<g id="node46" class="node">
<title>NgxTinynodesMatTagInputModule </title>
<polygon fill="#fb8072" stroke="#000000" points="4008.127,-399 3787.873,-399 3787.873,-363 4008.127,-363 4008.127,-399"/>
<text text-anchor="middle" x="3898" y="-376.8" font-family="Times,serif" font-size="14.00" fill="#000000">NgxTinynodesMatTagInputModule </text>
</g>
<!-- NgxTinynodesComponentsModule&#45;&gt;NgxTinynodesMatTagInputModule  -->
<g id="edge42" class="edge">
<title>NgxTinynodesComponentsModule&#45;&gt;NgxTinynodesMatTagInputModule </title>
<path fill="none" stroke="#000000" stroke-dasharray="5,2" d="M3962.6478,-331.2228C3962.6478,-331.2228 3962.6478,-352.7269 3962.6478,-352.7269"/>
<polygon fill="#000000" stroke="#000000" points="3959.1479,-352.7269 3962.6478,-362.7269 3966.1479,-352.727 3959.1479,-352.7269"/>
</g>
<!-- NgxTinynodesMatJsonOutputComponent -->
<g id="node47" class="node">
<title>NgxTinynodesMatJsonOutputComponent</title>
<polygon fill="#ffffb3" stroke="#000000" points="3980.3682,-190 3729.6318,-190 3729.6318,-154 3980.3682,-154 3980.3682,-190"/>
<text text-anchor="middle" x="3855" y="-167.8" font-family="Times,serif" font-size="14.00" fill="#000000">NgxTinynodesMatJsonOutputComponent</text>
</g>
<!-- NgxTinynodesMatJsonOutputComponent&#45;&gt;NgxTinynodesMatJsonOutputModule -->
<g id="edge43" class="edge">
<title>NgxTinynodesMatJsonOutputComponent&#45;&gt;NgxTinynodesMatJsonOutputModule</title>
<path fill="none" stroke="#000000" d="M3885.9457,-190.0109C3885.9457,-190.0109 3885.9457,-219.855 3885.9457,-219.855"/>
<polygon fill="#000000" stroke="#000000" points="3882.4457,-219.8549 3885.9457,-229.855 3889.4457,-219.855 3882.4457,-219.8549"/>
</g>
<!-- NgxTinynodesMatTagInputComponent -->
<g id="node49" class="node">
<title>NgxTinynodesMatTagInputComponent</title>
<polygon fill="#ffffb3" stroke="#000000" points="4317.41,-190 4078.59,-190 4078.59,-154 4317.41,-154 4317.41,-190"/>
<text text-anchor="middle" x="4198" y="-167.8" font-family="Times,serif" font-size="14.00" fill="#000000">NgxTinynodesMatTagInputComponent</text>
</g>
<!-- NgxTinynodesMatTagInputComponent&#45;&gt;NgxTinynodesMatTagInputModule -->
<g id="edge45" class="edge">
<title>NgxTinynodesMatTagInputComponent&#45;&gt;NgxTinynodesMatTagInputModule</title>
<path fill="none" stroke="#000000" d="M4167.0544,-190.0109C4167.0544,-190.0109 4167.0544,-219.855 4167.0544,-219.855"/>
<polygon fill="#000000" stroke="#000000" points="4163.5544,-219.8549 4167.0544,-229.855 4170.5544,-219.855 4163.5544,-219.8549"/>
</g>
<!-- TAG_COMPONENT_VALUE_ACCESSOR -->
<g id="node50" class="node">
<title>TAG_COMPONENT_VALUE_ACCESSOR</title>
<ellipse fill="#fdb462" stroke="#000000" cx="4582" cy="-104" rx="188.1063" ry="18"/>
<text text-anchor="middle" x="4582" y="-99.8" font-family="Times,serif" font-size="14.00" fill="#000000">TAG_COMPONENT_VALUE_ACCESSOR</text>
</g>
<!-- TAG_COMPONENT_VALUE_ACCESSOR&#45;&gt;NgxTinynodesMatTagInputComponent -->
<g id="edge46" class="edge">
<title>TAG_COMPONENT_VALUE_ACCESSOR&#45;&gt;NgxTinynodesMatTagInputComponent</title>
<path fill="none" stroke="#000000" d="M4582,-122.2228C4582,-142.3652 4582,-172 4582,-172 4582,-172 4327.3951,-172 4327.3951,-172"/>
<polygon fill="#000000" stroke="#000000" points="4327.3951,-168.5001 4317.3951,-172 4327.395,-175.5001 4327.3951,-168.5001"/>
</g>
<!-- TAG_COMPONENT_FIELD_CONTROL -->
<g id="node51" class="node">
<title>TAG_COMPONENT_FIELD_CONTROL</title>
<ellipse fill="#fdb462" stroke="#000000" cx="4198" cy="-104" rx="178.2751" ry="18"/>
<text text-anchor="middle" x="4198" y="-99.8" font-family="Times,serif" font-size="14.00" fill="#000000">TAG_COMPONENT_FIELD_CONTROL</text>
</g>
<!-- TAG_COMPONENT_FIELD_CONTROL&#45;&gt;NgxTinynodesMatTagInputComponent -->
<g id="edge47" class="edge">
<title>TAG_COMPONENT_FIELD_CONTROL&#45;&gt;NgxTinynodesMatTagInputComponent</title>
<path fill="none" stroke="#000000" d="M4198,-122.2228C4198,-122.2228 4198,-143.7269 4198,-143.7269"/>
<polygon fill="#000000" stroke="#000000" points="4194.5001,-143.7269 4198,-153.7269 4201.5001,-143.727 4194.5001,-143.7269"/>
</g>
</g>
</svg>
