<?xml version="1.0" encoding="UTF-8" standalone="no"?>
<!DOCTYPE svg PUBLIC "-//W3C//DTD SVG 1.1//EN"
 "http://www.w3.org/Graphics/SVG/1.1/DTD/svg11.dtd">
<!-- Generated by graphviz version 2.40.1 (20161225.0304)
 -->
<!-- Title: dependencies Pages: 1 -->
<svg width="3279pt" height="504pt"
 viewBox="0.00 0.00 3279.00 504.00" xmlns="http://www.w3.org/2000/svg" xmlns:xlink="http://www.w3.org/1999/xlink">
<g id="graph0" class="graph" transform="scale(1 1) rotate(0) translate(4 500)">
<title>dependencies</title>
<polygon fill="#ffffff" stroke="transparent" points="-4,4 -4,-500 3275,-500 3275,4 -4,4"/>
<text text-anchor="start" x="1614.5091" y="-42.4" font-family="sans-serif" font-weight="bold" font-size="14.00" fill="#000000">Legend</text>
<polygon fill="#ffffb3" stroke="transparent" points="1401.5,-10 1401.5,-30 1421.5,-30 1421.5,-10 1401.5,-10"/>
<text text-anchor="start" x="1425.129" y="-15.4" font-family="sans-serif" font-size="14.00" fill="#000000"> &#160;Declarations</text>
<polygon fill="#8dd3c7" stroke="transparent" points="1514.5,-10 1514.5,-30 1534.5,-30 1534.5,-10 1514.5,-10"/>
<text text-anchor="start" x="1538.2251" y="-15.4" font-family="sans-serif" font-size="14.00" fill="#000000"> &#160;Module</text>
<polygon fill="#80b1d3" stroke="transparent" points="1600.5,-10 1600.5,-30 1620.5,-30 1620.5,-10 1600.5,-10"/>
<text text-anchor="start" x="1624.2812" y="-15.4" font-family="sans-serif" font-size="14.00" fill="#000000"> &#160;Bootstrap</text>
<polygon fill="#fdb462" stroke="transparent" points="1697.5,-10 1697.5,-30 1717.5,-30 1717.5,-10 1697.5,-10"/>
<text text-anchor="start" x="1721.1732" y="-15.4" font-family="sans-serif" font-size="14.00" fill="#000000"> &#160;Providers</text>
<polygon fill="#fb8072" stroke="transparent" points="1793.5,-10 1793.5,-30 1813.5,-30 1813.5,-10 1793.5,-10"/>
<text text-anchor="start" x="1817.2258" y="-15.4" font-family="sans-serif" font-size="14.00" fill="#000000"> &#160;Exports</text>
<g id="clust1" class="cluster">
<title>cluster_AppModule</title>
<polygon fill="none" stroke="#000000" stroke-dasharray="1,5" points="858,-222 858,-488 1478,-488 1478,-222 858,-222"/>
</g>
<g id="clust2" class="cluster">
<title>cluster_AppModule_declarations</title>
<polygon fill="none" stroke="#000000" points="1064,-298 1064,-350 1470,-350 1470,-298 1064,-298"/>
</g>
<g id="clust6" class="cluster">
<title>cluster_AppModule_imports</title>
<polygon fill="none" stroke="#000000" points="878,-230 878,-350 1056,-350 1056,-230 878,-230"/>
</g>
<g id="clust8" class="cluster">
<title>cluster_AppModule_bootstrap</title>
<polygon fill="none" stroke="#000000" points="1072,-428 1072,-480 1196,-480 1196,-428 1072,-428"/>
</g>
<g id="clust10" class="cluster">
<title>cluster_CodeModule</title>
<polygon fill="none" stroke="#000000" stroke-dasharray="1,5" points="2639,-146 2639,-282 2785,-282 2785,-146 2639,-146"/>
</g>
<g id="clust15" class="cluster">
<title>cluster_CodeModule_providers</title>
<polygon fill="none" stroke="#000000" points="2647,-154 2647,-206 2777,-206 2777,-154 2647,-154"/>
</g>
<g id="clust16" class="cluster">
<title>cluster_ImageModule</title>
<polygon fill="none" stroke="#000000" stroke-dasharray="1,5" points="3111,-70 3111,-206 3263,-206 3263,-70 3111,-70"/>
</g>
<g id="clust21" class="cluster">
<title>cluster_ImageModule_providers</title>
<polygon fill="none" stroke="#000000" points="3119,-78 3119,-130 3255,-130 3255,-78 3119,-78"/>
</g>
<g id="clust22" class="cluster">
<title>cluster_LinkModule</title>
<polygon fill="none" stroke="#000000" stroke-dasharray="1,5" points="2793,-146 2793,-282 2933,-282 2933,-146 2793,-146"/>
</g>
<g id="clust27" class="cluster">
<title>cluster_LinkModule_providers</title>
<polygon fill="none" stroke="#000000" points="2801,-154 2801,-206 2925,-206 2925,-154 2801,-154"/>
</g>
<g id="clust28" class="cluster">
<title>cluster_MarkerModule</title>
<polygon fill="none" stroke="#000000" stroke-dasharray="1,5" points="2941,-146 2941,-282 3103,-282 3103,-146 2941,-146"/>
</g>
<g id="clust33" class="cluster">
<title>cluster_MarkerModule_providers</title>
<polygon fill="none" stroke="#000000" points="2949,-154 2949,-206 3095,-206 3095,-154 2949,-154"/>
</g>
<g id="clust34" class="cluster">
<title>cluster_NgxEditorjsDemoModule</title>
<polygon fill="none" stroke="#000000" stroke-dasharray="1,5" points="1486,-222 1486,-290 2631,-290 2631,-222 1486,-222"/>
</g>
<g id="clust35" class="cluster">
<title>cluster_NgxEditorjsDemoModule_declarations</title>
<polygon fill="none" stroke="#000000" points="2281,-230 2281,-282 2623,-282 2623,-230 2281,-230"/>
</g>
<g id="clust38" class="cluster">
<title>cluster_NgxEditorjsDemoModule_imports</title>
<polygon fill="none" stroke="#000000" points="1989,-230 1989,-282 2273,-282 2273,-230 1989,-230"/>
</g>
<g id="clust39" class="cluster">
<title>cluster_NgxEditorjsDemoModule_exports</title>
<polygon fill="none" stroke="#000000" points="1494,-230 1494,-282 1981,-282 1981,-230 1494,-230"/>
</g>
<g id="clust42" class="cluster">
<title>cluster_NgxEditorJSModule</title>
<polygon fill="none" stroke="#000000" stroke-dasharray="1,5" points="8,-146 8,-214 1846,-214 1846,-146 8,-146"/>
</g>
<g id="clust43" class="cluster">
<title>cluster_NgxEditorJSModule_declarations</title>
<polygon fill="none" stroke="#000000" points="1510,-154 1510,-206 1838,-206 1838,-154 1510,-154"/>
</g>
<g id="clust46" class="cluster">
<title>cluster_NgxEditorJSModule_imports</title>
<polygon fill="none" stroke="#000000" points="1044,-154 1044,-206 1502,-206 1502,-154 1044,-154"/>
</g>
<g id="clust47" class="cluster">
<title>cluster_NgxEditorJSModule_exports</title>
<polygon fill="none" stroke="#000000" points="368,-154 368,-206 1036,-206 1036,-154 368,-154"/>
</g>
<g id="clust49" class="cluster">
<title>cluster_NgxEditorJSModule_providers</title>
<polygon fill="none" stroke="#000000" points="16,-154 16,-206 360,-206 360,-154 16,-154"/>
</g>
<g id="clust50" class="cluster">
<title>cluster_PageStoreModule</title>
<polygon fill="none" stroke="#000000" stroke-dasharray="1,5" points="1854,-146 1854,-214 2270,-214 2270,-146 1854,-146"/>
</g>
<g id="clust55" class="cluster">
<title>cluster_PageStoreModule_providers</title>
<polygon fill="none" stroke="#000000" points="1862,-154 1862,-206 2262,-206 2262,-154 1862,-154"/>
</g>
<g id="clust56" class="cluster">
<title>cluster_PluginHeaderModule</title>
<polygon fill="none" stroke="#000000" stroke-dasharray="1,5" points="1030,-70 1030,-138 1190,-138 1190,-70 1030,-70"/>
</g>
<g id="clust61" class="cluster">
<title>cluster_PluginHeaderModule_providers</title>
<polygon fill="none" stroke="#000000" points="1038,-78 1038,-130 1182,-130 1182,-78 1038,-78"/>
</g>
<g id="clust62" class="cluster">
<title>cluster_PluginListModule</title>
<polygon fill="none" stroke="#000000" stroke-dasharray="1,5" points="1198,-70 1198,-138 1332,-138 1332,-70 1198,-70"/>
</g>
<g id="clust67" class="cluster">
<title>cluster_PluginListModule_providers</title>
<polygon fill="none" stroke="#000000" points="1206,-78 1206,-130 1324,-130 1324,-78 1206,-78"/>
</g>
<g id="clust68" class="cluster">
<title>cluster_PluginParagraphModule</title>
<polygon fill="none" stroke="#000000" stroke-dasharray="1,5" points="1340,-70 1340,-138 1522,-138 1522,-70 1340,-70"/>
</g>
<g id="clust73" class="cluster">
<title>cluster_PluginParagraphModule_providers</title>
<polygon fill="none" stroke="#000000" points="1348,-78 1348,-130 1514,-130 1514,-78 1348,-78"/>
</g>
<g id="clust74" class="cluster">
<title>cluster_SimpleImageModule</title>
<polygon fill="none" stroke="#000000" stroke-dasharray="1,5" points="2278,-146 2278,-214 2486,-214 2486,-146 2278,-146"/>
</g>
<g id="clust79" class="cluster">
<title>cluster_SimpleImageModule_providers</title>
<polygon fill="none" stroke="#000000" points="2286,-154 2286,-206 2478,-206 2478,-154 2286,-154"/>
</g>
<!-- AppComponent -->
<g id="node1" class="node">
<title>AppComponent</title>
<polygon fill="#ffffb3" stroke="#000000" points="1461.9399,-342 1356.0601,-342 1356.0601,-306 1461.9399,-306 1461.9399,-342"/>
<text text-anchor="middle" x="1409" y="-319.8" font-family="Times,serif" font-size="14.00" fill="#000000">AppComponent</text>
</g>
<!-- AppModule -->
<g id="node4" class="node">
<title>AppModule</title>
<polygon fill="#8dd3c7" stroke="#000000" points="1175.6571,-407 1172.6571,-411 1151.6571,-411 1148.6571,-407 1092.3429,-407 1092.3429,-371 1175.6571,-371 1175.6571,-407"/>
<text text-anchor="middle" x="1134" y="-384.8" font-family="Times,serif" font-size="14.00" fill="#000000">AppModule</text>
</g>
<!-- AppComponent&#45;&gt;AppModule -->
<g id="edge1" class="edge">
<title>AppComponent&#45;&gt;AppModule</title>
<path fill="none" stroke="#000000" d="M1409,-342.2843C1409,-363.3211 1409,-395 1409,-395 1409,-395 1185.7666,-395 1185.7666,-395"/>
<polygon fill="#000000" stroke="#000000" points="1185.7666,-391.5001 1175.7666,-395 1185.7665,-398.5001 1185.7666,-391.5001"/>
</g>
<!-- NavBarComponent -->
<g id="node2" class="node">
<title>NavBarComponent</title>
<polygon fill="#ffffb3" stroke="#000000" points="1338.3655,-342 1213.6345,-342 1213.6345,-306 1338.3655,-306 1338.3655,-342"/>
<text text-anchor="middle" x="1276" y="-319.8" font-family="Times,serif" font-size="14.00" fill="#000000">NavBarComponent</text>
</g>
<!-- NavBarComponent&#45;&gt;AppModule -->
<g id="edge2" class="edge">
<title>NavBarComponent&#45;&gt;AppModule</title>
<path fill="none" stroke="#000000" d="M1276,-342.0225C1276,-359.3734 1276,-383 1276,-383 1276,-383 1185.8367,-383 1185.8367,-383"/>
<polygon fill="#000000" stroke="#000000" points="1185.8367,-379.5001 1175.8367,-383 1185.8366,-386.5001 1185.8367,-379.5001"/>
</g>
<!-- SidebarComponent -->
<g id="node3" class="node">
<title>SidebarComponent</title>
<polygon fill="#ffffb3" stroke="#000000" points="1196.0954,-342 1071.9046,-342 1071.9046,-306 1196.0954,-306 1196.0954,-342"/>
<text text-anchor="middle" x="1134" y="-319.8" font-family="Times,serif" font-size="14.00" fill="#000000">SidebarComponent</text>
</g>
<!-- SidebarComponent&#45;&gt;AppModule -->
<g id="edge3" class="edge">
<title>SidebarComponent&#45;&gt;AppModule</title>
<path fill="none" stroke="#000000" d="M1134,-342.1061C1134,-342.1061 1134,-360.991 1134,-360.991"/>
<polygon fill="#000000" stroke="#000000" points="1130.5001,-360.9909 1134,-370.991 1137.5001,-360.991 1130.5001,-360.9909"/>
</g>
<!-- AppComponent  -->
<g id="node7" class="node">
<title>AppComponent </title>
<polygon fill="#80b1d3" stroke="#000000" points="1188.439,-472 1079.561,-472 1079.561,-436 1188.439,-436 1188.439,-472"/>
<text text-anchor="middle" x="1134" y="-449.8" font-family="Times,serif" font-size="14.00" fill="#000000">AppComponent </text>
</g>
<!-- AppModule&#45;&gt;AppComponent  -->
<g id="edge6" class="edge">
<title>AppModule&#45;&gt;AppComponent </title>
<path fill="none" stroke="#000000" stroke-dasharray="1,5" d="M1134,-407.1061C1134,-407.1061 1134,-425.991 1134,-425.991"/>
<polygon fill="#000000" stroke="#000000" points="1130.5001,-425.9909 1134,-435.991 1137.5001,-425.991 1130.5001,-425.9909"/>
</g>
<!-- NgxEditorJSModule -->
<g id="node5" class="node">
<title>NgxEditorJSModule</title>
<polygon fill="#8dd3c7" stroke="#000000" points="1017.8781,-274 1014.8781,-278 993.8781,-278 990.8781,-274 886.1219,-274 886.1219,-238 1017.8781,-238 1017.8781,-274"/>
<text text-anchor="middle" x="952" y="-251.8" font-family="Times,serif" font-size="14.00" fill="#000000">NgxEditorJSModule</text>
</g>
<!-- NgxEditorJSModule&#45;&gt;AppModule -->
<g id="edge4" class="edge">
<title>NgxEditorJSModule&#45;&gt;AppModule</title>
<path fill="none" stroke="#000000" d="M1017.9182,-269C1039.7005,-269 1058.4759,-269 1058.4759,-269 1058.4759,-269 1058.4759,-383 1058.4759,-383 1058.4759,-383 1082.2618,-383 1082.2618,-383"/>
<polygon fill="#000000" stroke="#000000" points="1082.2618,-386.5001 1092.2618,-383 1082.2618,-379.5001 1082.2618,-386.5001"/>
</g>
<!-- NgxEditorjsDemoModule -->
<g id="node6" class="node">
<title>NgxEditorjsDemoModule</title>
<polygon fill="#8dd3c7" stroke="#000000" points="1048.1979,-342 1045.1979,-346 1024.1979,-346 1021.1979,-342 885.8021,-342 885.8021,-306 1048.1979,-306 1048.1979,-342"/>
<text text-anchor="middle" x="967" y="-319.8" font-family="Times,serif" font-size="14.00" fill="#000000">NgxEditorjsDemoModule</text>
</g>
<!-- NgxEditorJSModule&#45;&gt;NgxEditorjsDemoModule -->
<g id="edge16" class="edge">
<title>NgxEditorJSModule&#45;&gt;NgxEditorjsDemoModule</title>
<path fill="none" stroke="#000000" d="M952,-274.2228C952,-274.2228 952,-295.7269 952,-295.7269"/>
<polygon fill="#000000" stroke="#000000" points="948.5001,-295.7269 952,-305.7269 955.5001,-295.727 948.5001,-295.7269"/>
</g>
<!-- NgxEditorJSComponent  -->
<g id="node28" class="node">
<title>NgxEditorJSComponent </title>
<polygon fill="#fb8072" stroke="#000000" points="1027.6607,-198 870.3393,-198 870.3393,-162 1027.6607,-162 1027.6607,-198"/>
<text text-anchor="middle" x="949" y="-175.8" font-family="Times,serif" font-size="14.00" fill="#000000">NgxEditorJSComponent </text>
</g>
<!-- NgxEditorJSModule&#45;&gt;NgxEditorJSComponent  -->
<g id="edge27" class="edge">
<title>NgxEditorJSModule&#45;&gt;NgxEditorJSComponent </title>
<path fill="none" stroke="#000000" stroke-dasharray="5,2" d="M930.0203,-237.9891C930.0203,-237.9891 930.0203,-208.145 930.0203,-208.145"/>
<polygon fill="#000000" stroke="#000000" points="933.5204,-208.145 930.0203,-198.145 926.5204,-208.1451 933.5204,-208.145"/>
</g>
<!-- NgxEditorJSDirective  -->
<g id="node29" class="node">
<title>NgxEditorJSDirective </title>
<polygon fill="#fb8072" stroke="#000000" points="851.911,-198 708.089,-198 708.089,-162 851.911,-162 851.911,-198"/>
<text text-anchor="middle" x="780" y="-175.8" font-family="Times,serif" font-size="14.00" fill="#000000">NgxEditorJSDirective </text>
</g>
<!-- NgxEditorJSModule&#45;&gt;NgxEditorJSDirective  -->
<g id="edge28" class="edge">
<title>NgxEditorJSModule&#45;&gt;NgxEditorJSDirective </title>
<path fill="none" stroke="#000000" stroke-dasharray="5,2" d="M885.9922,-244C837.4873,-244 780,-244 780,-244 780,-244 780,-208.1686 780,-208.1686"/>
<polygon fill="#000000" stroke="#000000" points="783.5001,-208.1686 780,-198.1686 776.5001,-208.1687 783.5001,-208.1686"/>
</g>
<!-- PluginHeaderModule  -->
<g id="node30" class="node">
<title>PluginHeaderModule </title>
<polygon fill="#fb8072" stroke="#000000" points="690.0246,-198 549.9754,-198 549.9754,-162 690.0246,-162 690.0246,-198"/>
<text text-anchor="middle" x="620" y="-175.8" font-family="Times,serif" font-size="14.00" fill="#000000">PluginHeaderModule </text>
</g>
<!-- NgxEditorJSModule&#45;&gt;PluginHeaderModule  -->
<g id="edge29" class="edge">
<title>NgxEditorJSModule&#45;&gt;PluginHeaderModule </title>
<path fill="none" stroke="#000000" stroke-dasharray="5,2" d="M886.0105,-249C789.1893,-249 620,-249 620,-249 620,-249 620,-208.1289 620,-208.1289"/>
<polygon fill="#000000" stroke="#000000" points="623.5001,-208.1289 620,-198.1289 616.5001,-208.129 623.5001,-208.1289"/>
</g>
<!-- PluginParagraphModule  -->
<g id="node31" class="node">
<title>PluginParagraphModule </title>
<polygon fill="#fb8072" stroke="#000000" points="532.3616,-198 375.6384,-198 375.6384,-162 532.3616,-162 532.3616,-198"/>
<text text-anchor="middle" x="454" y="-175.8" font-family="Times,serif" font-size="14.00" fill="#000000">PluginParagraphModule </text>
</g>
<!-- NgxEditorJSModule&#45;&gt;PluginParagraphModule  -->
<g id="edge30" class="edge">
<title>NgxEditorJSModule&#45;&gt;PluginParagraphModule </title>
<path fill="none" stroke="#000000" stroke-dasharray="5,2" d="M885.8929,-259C745.0081,-259 427.9398,-259 427.9398,-259 427.9398,-259 427.9398,-208.3228 427.9398,-208.3228"/>
<polygon fill="#000000" stroke="#000000" points="431.4399,-208.3227 427.9398,-198.3228 424.4399,-208.3228 431.4399,-208.3227"/>
</g>
<!-- NgxEditorJSModule&#45;&gt;PluginParagraphModule  -->
<g id="edge31" class="edge">
<title>NgxEditorJSModule&#45;&gt;PluginParagraphModule </title>
<path fill="none" stroke="#000000" stroke-dasharray="5,2" d="M885.8819,-254C755.9974,-254 480.0602,-254 480.0602,-254 480.0602,-254 480.0602,-208.2921 480.0602,-208.2921"/>
<polygon fill="#000000" stroke="#000000" points="483.5603,-208.2921 480.0602,-198.2921 476.5603,-208.2922 483.5603,-208.2921"/>
</g>
<!-- NgxEditorjsDemoModule&#45;&gt;AppModule -->
<g id="edge5" class="edge">
<title>NgxEditorjsDemoModule&#45;&gt;AppModule</title>
<path fill="none" stroke="#000000" d="M967,-342.2843C967,-363.3211 967,-395 967,-395 967,-395 1082.2896,-395 1082.2896,-395"/>
<polygon fill="#000000" stroke="#000000" points="1082.2897,-398.5001 1092.2896,-395 1082.2896,-391.5001 1082.2897,-398.5001"/>
</g>
<!-- EditorPageComponent  -->
<g id="node20" class="node">
<title>EditorPageComponent </title>
<polygon fill="#fb8072" stroke="#000000" points="1972.5386,-274 1825.4614,-274 1825.4614,-238 1972.5386,-238 1972.5386,-274"/>
<text text-anchor="middle" x="1899" y="-251.8" font-family="Times,serif" font-size="14.00" fill="#000000">EditorPageComponent </text>
</g>
<!-- NgxEditorjsDemoModule&#45;&gt;EditorPageComponent  -->
<g id="edge19" class="edge">
<title>NgxEditorjsDemoModule&#45;&gt;EditorPageComponent </title>
<path fill="none" stroke="#000000" stroke-dasharray="5,2" d="M1031.6442,-305.9336C1031.6442,-296.5413 1031.6442,-287 1031.6442,-287 1031.6442,-287 1899,-287 1899,-287 1899,-287 1899,-284.0328 1899,-284.0328"/>
<polygon fill="#000000" stroke="#000000" points="1902.5001,-284.0328 1899,-274.0328 1895.5001,-284.0329 1902.5001,-284.0328"/>
</g>
<!-- PageContainerComponent  -->
<g id="node21" class="node">
<title>PageContainerComponent </title>
<polygon fill="#fb8072" stroke="#000000" points="1807.752,-274 1640.248,-274 1640.248,-238 1807.752,-238 1807.752,-274"/>
<text text-anchor="middle" x="1724" y="-251.8" font-family="Times,serif" font-size="14.00" fill="#000000">PageContainerComponent </text>
</g>
<!-- NgxEditorjsDemoModule&#45;&gt;PageContainerComponent  -->
<g id="edge20" class="edge">
<title>NgxEditorjsDemoModule&#45;&gt;PageContainerComponent </title>
<path fill="none" stroke="#000000" stroke-dasharray="5,2" d="M1029.6122,-305.8726C1029.6122,-295.2891 1029.6122,-284 1029.6122,-284 1029.6122,-284 1724,-284 1724,-284 1724,-284 1724,-283.0207 1724,-283.0207"/>
<polygon fill="#000000" stroke="#000000" points="1727.5001,-284.2069 1724,-274.207 1720.5001,-284.207 1727.5001,-284.2069"/>
</g>
<!-- PageStoreModule  -->
<g id="node22" class="node">
<title>PageStoreModule </title>
<polygon fill="#fb8072" stroke="#000000" points="1621.8102,-274 1502.1898,-274 1502.1898,-238 1621.8102,-238 1621.8102,-274"/>
<text text-anchor="middle" x="1562" y="-251.8" font-family="Times,serif" font-size="14.00" fill="#000000">PageStoreModule </text>
</g>
<!-- NgxEditorjsDemoModule&#45;&gt;PageStoreModule  -->
<g id="edge21" class="edge">
<title>NgxEditorjsDemoModule&#45;&gt;PageStoreModule </title>
<path fill="none" stroke="#000000" stroke-dasharray="5,2" d="M1033.6761,-305.998C1033.6761,-288.3246 1033.6761,-264 1033.6761,-264 1033.6761,-264 1492.1654,-264 1492.1654,-264"/>
<polygon fill="#000000" stroke="#000000" points="1492.1655,-267.5001 1502.1654,-264 1492.1654,-260.5001 1492.1655,-267.5001"/>
</g>
<!-- PluginCode -->
<g id="node8" class="node">
<title>PluginCode</title>
<ellipse fill="#fdb462" stroke="#000000" cx="2712" cy="-180" rx="56.7832" ry="18"/>
<text text-anchor="middle" x="2712" y="-175.8" font-family="Times,serif" font-size="14.00" fill="#000000">PluginCode</text>
</g>
<!-- CodeModule -->
<g id="node9" class="node">
<title>CodeModule</title>
<polygon fill="#8dd3c7" stroke="#000000" points="2746.6011,-274 2743.6011,-278 2722.6011,-278 2719.6011,-274 2657.3989,-274 2657.3989,-238 2746.6011,-238 2746.6011,-274"/>
<text text-anchor="middle" x="2702" y="-251.8" font-family="Times,serif" font-size="14.00" fill="#000000">CodeModule</text>
</g>
<!-- PluginCode&#45;&gt;CodeModule -->
<g id="edge7" class="edge">
<title>PluginCode&#45;&gt;CodeModule</title>
<path fill="none" stroke="#000000" d="M2702,-198.0109C2702,-198.0109 2702,-227.855 2702,-227.855"/>
<polygon fill="#000000" stroke="#000000" points="2698.5001,-227.8549 2702,-237.855 2705.5001,-227.855 2698.5001,-227.8549"/>
</g>
<!-- CodeModule&#45;&gt;NgxEditorjsDemoModule -->
<g id="edge13" class="edge">
<title>CodeModule&#45;&gt;NgxEditorjsDemoModule</title>
<path fill="none" stroke="#000000" d="M2702,-274.037C2702,-287.2913 2702,-303 2702,-303 2702,-303 1043.8357,-303 1043.8357,-303 1043.8357,-303 1043.8357,-303.292 1043.8357,-303.292"/>
<polygon fill="#000000" stroke="#000000" points="1040.3361,-295.9198 1043.8357,-305.92 1047.3361,-295.9201 1040.3361,-295.9198"/>
</g>
<!-- PluginImage -->
<g id="node10" class="node">
<title>PluginImage</title>
<ellipse fill="#fdb462" stroke="#000000" cx="3187" cy="-104" rx="60.273" ry="18"/>
<text text-anchor="middle" x="3187" y="-99.8" font-family="Times,serif" font-size="14.00" fill="#000000">PluginImage</text>
</g>
<!-- ImageModule -->
<g id="node11" class="node">
<title>ImageModule</title>
<polygon fill="#8dd3c7" stroke="#000000" points="3234.0314,-198 3231.0314,-202 3210.0314,-202 3207.0314,-198 3139.9686,-198 3139.9686,-162 3234.0314,-162 3234.0314,-198"/>
<text text-anchor="middle" x="3187" y="-175.8" font-family="Times,serif" font-size="14.00" fill="#000000">ImageModule</text>
</g>
<!-- PluginImage&#45;&gt;ImageModule -->
<g id="edge8" class="edge">
<title>PluginImage&#45;&gt;ImageModule</title>
<path fill="none" stroke="#000000" d="M3187,-122.0109C3187,-122.0109 3187,-151.855 3187,-151.855"/>
<polygon fill="#000000" stroke="#000000" points="3183.5001,-151.8549 3187,-161.855 3190.5001,-151.855 3183.5001,-151.8549"/>
</g>
<!-- PluginLink -->
<g id="node12" class="node">
<title>PluginLink</title>
<ellipse fill="#fdb462" stroke="#000000" cx="2863" cy="-180" rx="54.4952" ry="18"/>
<text text-anchor="middle" x="2863" y="-175.8" font-family="Times,serif" font-size="14.00" fill="#000000">PluginLink</text>
</g>
<!-- LinkModule -->
<g id="node13" class="node">
<title>LinkModule</title>
<polygon fill="#8dd3c7" stroke="#000000" points="2895.993,-274 2892.993,-278 2871.993,-278 2868.993,-274 2810.007,-274 2810.007,-238 2895.993,-238 2895.993,-274"/>
<text text-anchor="middle" x="2853" y="-251.8" font-family="Times,serif" font-size="14.00" fill="#000000">LinkModule</text>
</g>
<!-- PluginLink&#45;&gt;LinkModule -->
<g id="edge9" class="edge">
<title>PluginLink&#45;&gt;LinkModule</title>
<path fill="none" stroke="#000000" d="M2853,-198.0109C2853,-198.0109 2853,-227.855 2853,-227.855"/>
<polygon fill="#000000" stroke="#000000" points="2849.5001,-227.8549 2853,-237.855 2856.5001,-227.855 2849.5001,-227.8549"/>
</g>
<!-- LinkModule&#45;&gt;NgxEditorjsDemoModule -->
<g id="edge14" class="edge">
<title>LinkModule&#45;&gt;NgxEditorjsDemoModule</title>
<path fill="none" stroke="#000000" d="M2853,-274.1679C2853,-276.4478 2853,-278 2853,-278 2853,-278 1021.1528,-278 1021.1528,-278 1021.1528,-278 1021.1528,-295.8196 1021.1528,-295.8196"/>
<polygon fill="#000000" stroke="#000000" points="1017.6529,-295.8195 1021.1528,-305.8196 1024.6529,-295.8196 1017.6529,-295.8195"/>
</g>
<!-- PluginMarker -->
<g id="node14" class="node">
<title>PluginMarker</title>
<ellipse fill="#fdb462" stroke="#000000" cx="3022" cy="-180" rx="64.8467" ry="18"/>
<text text-anchor="middle" x="3022" y="-175.8" font-family="Times,serif" font-size="14.00" fill="#000000">PluginMarker</text>
</g>
<!-- MarkerModule -->
<g id="node15" class="node">
<title>MarkerModule</title>
<polygon fill="#8dd3c7" stroke="#000000" points="3060.2451,-274 3057.2451,-278 3036.2451,-278 3033.2451,-274 2959.7549,-274 2959.7549,-238 3060.2451,-238 3060.2451,-274"/>
<text text-anchor="middle" x="3010" y="-251.8" font-family="Times,serif" font-size="14.00" fill="#000000">MarkerModule</text>
</g>
<!-- PluginMarker&#45;&gt;MarkerModule -->
<g id="edge10" class="edge">
<title>PluginMarker&#45;&gt;MarkerModule</title>
<path fill="none" stroke="#000000" d="M3010,-198.0109C3010,-198.0109 3010,-227.855 3010,-227.855"/>
<polygon fill="#000000" stroke="#000000" points="3006.5001,-227.8549 3010,-237.855 3013.5001,-227.855 3006.5001,-227.8549"/>
</g>
<!-- MarkerModule&#45;&gt;NgxEditorjsDemoModule -->
<g id="edge15" class="edge">
<title>MarkerModule&#45;&gt;NgxEditorjsDemoModule</title>
<path fill="none" stroke="#000000" d="M3010,-274.1686C3010,-278.0459 3010,-281 3010,-281 3010,-281 1024.3665,-281 1024.3665,-281 1024.3665,-281 1024.3665,-295.5146 1024.3665,-295.5146"/>
<polygon fill="#000000" stroke="#000000" points="1020.8666,-295.5145 1024.3665,-305.5146 1027.8666,-295.5146 1020.8666,-295.5145"/>
</g>
<!-- EditorPageComponent -->
<g id="node16" class="node">
<title>EditorPageComponent</title>
<polygon fill="#ffffb3" stroke="#000000" points="2614.5393,-274 2471.4607,-274 2471.4607,-238 2614.5393,-238 2614.5393,-274"/>
<text text-anchor="middle" x="2543" y="-251.8" font-family="Times,serif" font-size="14.00" fill="#000000">EditorPageComponent</text>
</g>
<!-- EditorPageComponent&#45;&gt;NgxEditorjsDemoModule -->
<g id="edge11" class="edge">
<title>EditorPageComponent&#45;&gt;NgxEditorjsDemoModule</title>
<path fill="none" stroke="#000000" d="M2543,-274.1505C2543,-286.2708 2543,-300 2543,-300 2543,-300 1041.8038,-300 1041.8038,-300 1041.8038,-300 1041.8038,-300.581 1041.8038,-300.581"/>
<polygon fill="#000000" stroke="#000000" points="1038.304,-295.8097 1041.8038,-305.8097 1045.304,-295.8098 1038.304,-295.8097"/>
</g>
<!-- PageContainerComponent -->
<g id="node17" class="node">
<title>PageContainerComponent</title>
<polygon fill="#ffffb3" stroke="#000000" points="2452.752,-274 2289.248,-274 2289.248,-238 2452.752,-238 2452.752,-274"/>
<text text-anchor="middle" x="2371" y="-251.8" font-family="Times,serif" font-size="14.00" fill="#000000">PageContainerComponent</text>
</g>
<!-- PageContainerComponent&#45;&gt;NgxEditorjsDemoModule -->
<g id="edge12" class="edge">
<title>PageContainerComponent&#45;&gt;NgxEditorjsDemoModule</title>
<path fill="none" stroke="#000000" d="M2371,-274.1025C2371,-285.0859 2371,-297 2371,-297 2371,-297 1039.7719,-297 1039.7719,-297 1039.7719,-297 1039.7719,-297.8841 1039.7719,-297.8841"/>
<polygon fill="#000000" stroke="#000000" points="1036.272,-295.8408 1039.7719,-305.8408 1043.272,-295.8409 1036.272,-295.8408"/>
</g>
<!-- PageStoreModule -->
<g id="node18" class="node">
<title>PageStoreModule</title>
<polygon fill="#8dd3c7" stroke="#000000" points="2113.3104,-274 2110.3104,-278 2089.3104,-278 2086.3104,-274 1996.6896,-274 1996.6896,-238 2113.3104,-238 2113.3104,-274"/>
<text text-anchor="middle" x="2055" y="-251.8" font-family="Times,serif" font-size="14.00" fill="#000000">PageStoreModule</text>
</g>
<!-- PageStoreModule&#45;&gt;NgxEditorjsDemoModule -->
<g id="edge17" class="edge">
<title>PageStoreModule&#45;&gt;NgxEditorjsDemoModule</title>
<path fill="none" stroke="#000000" d="M2055,-274.1944C2055,-282.2782 2055,-290 2055,-290 2055,-290 1035.708,-290 1035.708,-290 1035.708,-290 1035.708,-295.8056 1035.708,-295.8056"/>
<polygon fill="#000000" stroke="#000000" points="1032.2081,-295.8055 1035.708,-305.8056 1039.2081,-295.8056 1032.2081,-295.8055"/>
</g>
<!-- SimpleImageModule -->
<g id="node19" class="node">
<title>SimpleImageModule</title>
<polygon fill="#8dd3c7" stroke="#000000" points="2265.1993,-274 2262.1993,-278 2241.1993,-278 2238.1993,-274 2130.8007,-274 2130.8007,-238 2265.1993,-238 2265.1993,-274"/>
<text text-anchor="middle" x="2198" y="-251.8" font-family="Times,serif" font-size="14.00" fill="#000000">SimpleImageModule</text>
</g>
<!-- SimpleImageModule&#45;&gt;NgxEditorjsDemoModule -->
<g id="edge18" class="edge">
<title>SimpleImageModule&#45;&gt;NgxEditorjsDemoModule</title>
<path fill="none" stroke="#000000" d="M2198,-274.1097C2198,-283.897 2198,-294 2198,-294 2198,-294 1037.74,-294 1037.74,-294 1037.74,-294 1037.74,-295.8568 1037.74,-295.8568"/>
<polygon fill="#000000" stroke="#000000" points="1034.2401,-295.8568 1037.74,-305.8568 1041.2401,-295.8568 1034.2401,-295.8568"/>
</g>
<!-- NgxEditorJSComponent -->
<g id="node23" class="node">
<title>NgxEditorJSComponent</title>
<polygon fill="#ffffb3" stroke="#000000" points="1829.661,-198 1676.339,-198 1676.339,-162 1829.661,-162 1829.661,-198"/>
<text text-anchor="middle" x="1753" y="-175.8" font-family="Times,serif" font-size="14.00" fill="#000000">NgxEditorJSComponent</text>
</g>
<!-- NgxEditorJSComponent&#45;&gt;NgxEditorJSModule -->
<g id="edge22" class="edge">
<title>NgxEditorJSComponent&#45;&gt;NgxEditorJSModule</title>
<path fill="none" stroke="#000000" d="M1741.8978,-198.1097C1741.8978,-207.897 1741.8978,-218 1741.8978,-218 1741.8978,-218 973.9797,-218 973.9797,-218 973.9797,-218 973.9797,-227.8903 973.9797,-227.8903"/>
<polygon fill="#000000" stroke="#000000" points="970.4798,-227.8903 973.9797,-237.8903 977.4798,-227.8904 970.4798,-227.8903"/>
</g>
<!-- NgxEditorJSDirective -->
<g id="node24" class="node">
<title>NgxEditorJSDirective</title>
<polygon fill="#ffffb3" stroke="#000000" points="1658.4116,-198 1517.5884,-198 1517.5884,-162 1658.4116,-162 1658.4116,-198"/>
<text text-anchor="middle" x="1588" y="-175.8" font-family="Times,serif" font-size="14.00" fill="#000000">NgxEditorJSDirective</text>
</g>
<!-- NgxEditorJSDirective&#45;&gt;NgxEditorJSModule -->
<g id="edge23" class="edge">
<title>NgxEditorJSDirective&#45;&gt;NgxEditorJSModule</title>
<path fill="none" stroke="#000000" d="M1517.7344,-180C1506.3813,-180 1498.2628,-180 1498.2628,-180 1498.2628,-180 1498.2628,-259 1498.2628,-259 1498.2628,-259 1027.8921,-259 1027.8921,-259"/>
<polygon fill="#000000" stroke="#000000" points="1027.8921,-255.5001 1017.8921,-259 1027.892,-262.5001 1027.8921,-255.5001"/>
</g>
<!-- PluginHeaderModule -->
<g id="node25" class="node">
<title>PluginHeaderModule</title>
<polygon fill="#8dd3c7" stroke="#000000" points="1188.0254,-198 1185.0254,-202 1164.0254,-202 1161.0254,-198 1051.9746,-198 1051.9746,-162 1188.0254,-162 1188.0254,-198"/>
<text text-anchor="middle" x="1120" y="-175.8" font-family="Times,serif" font-size="14.00" fill="#000000">PluginHeaderModule</text>
</g>
<!-- PluginHeaderModule&#45;&gt;NgxEditorJSModule -->
<g id="edge24" class="edge">
<title>PluginHeaderModule&#45;&gt;NgxEditorJSModule</title>
<path fill="none" stroke="#000000" d="M1065.2141,-198.1686C1065.2141,-217.0898 1065.2141,-244 1065.2141,-244 1065.2141,-244 1028.1847,-244 1028.1847,-244"/>
<polygon fill="#000000" stroke="#000000" points="1028.1847,-240.5001 1018.1847,-244 1028.1846,-247.5001 1028.1847,-240.5001"/>
</g>
<!-- PluginListModule -->
<g id="node26" class="node">
<title>PluginListModule</title>
<polygon fill="#8dd3c7" stroke="#000000" points="1323.892,-198 1320.892,-202 1299.892,-202 1296.892,-198 1206.108,-198 1206.108,-162 1323.892,-162 1323.892,-198"/>
<text text-anchor="middle" x="1265" y="-175.8" font-family="Times,serif" font-size="14.00" fill="#000000">PluginListModule</text>
</g>
<!-- PluginListModule&#45;&gt;NgxEditorJSModule -->
<g id="edge25" class="edge">
<title>PluginListModule&#45;&gt;NgxEditorJSModule</title>
<path fill="none" stroke="#000000" d="M1209.8106,-198.1289C1209.8106,-218.5724 1209.8106,-249 1209.8106,-249 1209.8106,-249 1028.0579,-249 1028.0579,-249"/>
<polygon fill="#000000" stroke="#000000" points="1028.0579,-245.5001 1018.0579,-249 1028.0578,-252.5001 1028.0579,-245.5001"/>
</g>
<!-- PluginParagraphModule -->
<g id="node27" class="node">
<title>PluginParagraphModule</title>
<polygon fill="#8dd3c7" stroke="#000000" points="1494.3613,-198 1491.3613,-202 1470.3613,-202 1467.3613,-198 1341.6387,-198 1341.6387,-162 1494.3613,-162 1494.3613,-198"/>
<text text-anchor="middle" x="1418" y="-175.8" font-family="Times,serif" font-size="14.00" fill="#000000">PluginParagraphModule</text>
</g>
<!-- PluginParagraphModule&#45;&gt;NgxEditorJSModule -->
<g id="edge26" class="edge">
<title>PluginParagraphModule&#45;&gt;NgxEditorJSModule</title>
<path fill="none" stroke="#000000" d="M1348.925,-198.2921C1348.925,-220.2057 1348.925,-254 1348.925,-254 1348.925,-254 1027.9896,-254 1027.9896,-254"/>
<polygon fill="#000000" stroke="#000000" points="1027.9897,-250.5001 1017.9896,-254 1027.9896,-257.5001 1027.9897,-250.5001"/>
</g>
<!-- NgxEditorJSService -->
<g id="node32" class="node">
<title>NgxEditorJSService</title>
<ellipse fill="#fdb462" stroke="#000000" cx="262" cy="-180" rx="89.7653" ry="18"/>
<text text-anchor="middle" x="262" y="-175.8" font-family="Times,serif" font-size="14.00" fill="#000000">NgxEditorJSService</text>
</g>
<!-- NgxEditorJSService&#45;&gt;NgxEditorJSModule -->
<g id="edge32" class="edge">
<title>NgxEditorJSService&#45;&gt;NgxEditorJSModule</title>
<path fill="none" stroke="#000000" d="M262,-198.2267C262,-222.9318 262,-264 262,-264 262,-264 875.8399,-264 875.8399,-264"/>
<polygon fill="#000000" stroke="#000000" points="875.8399,-267.5001 885.8399,-264 875.8399,-260.5001 875.8399,-267.5001"/>
</g>
<!-- PluginService -->
<g id="node33" class="node">
<title>PluginService</title>
<ellipse fill="#fdb462" stroke="#000000" cx="89" cy="-180" rx="65.4266" ry="18"/>
<text text-anchor="middle" x="89" y="-175.8" font-family="Times,serif" font-size="14.00" fill="#000000">PluginService</text>
</g>
<!-- PluginService&#45;&gt;NgxEditorJSModule -->
<g id="edge33" class="edge">
<title>PluginService&#45;&gt;NgxEditorJSModule</title>
<path fill="none" stroke="#000000" d="M89,-198.0105C89,-224.0165 89,-269 89,-269 89,-269 876.071,-269 876.071,-269"/>
<polygon fill="#000000" stroke="#000000" points="876.071,-272.5001 886.071,-269 876.071,-265.5001 876.071,-272.5001"/>
</g>
<!-- PagesQuery -->
<g id="node34" class="node">
<title>PagesQuery</title>
<ellipse fill="#fdb462" stroke="#000000" cx="2196" cy="-180" rx="57.8849" ry="18"/>
<text text-anchor="middle" x="2196" y="-175.8" font-family="Times,serif" font-size="14.00" fill="#000000">PagesQuery</text>
</g>
<!-- PagesQuery&#45;&gt;PageStoreModule -->
<g id="edge34" class="edge">
<title>PagesQuery&#45;&gt;PageStoreModule</title>
<path fill="none" stroke="#000000" d="M2138.2757,-180C2130.8155,-180 2125.709,-180 2125.709,-180 2125.709,-180 2125.709,-256 2125.709,-256 2125.709,-256 2123.3925,-256 2123.3925,-256"/>
<polygon fill="#000000" stroke="#000000" points="2123.3925,-252.5001 2113.3925,-256 2123.3924,-259.5001 2123.3925,-252.5001"/>
</g>
<!-- PagesService -->
<g id="node35" class="node">
<title>PagesService</title>
<ellipse fill="#fdb462" stroke="#000000" cx="2058" cy="-180" rx="62.5354" ry="18"/>
<text text-anchor="middle" x="2058" y="-175.8" font-family="Times,serif" font-size="14.00" fill="#000000">PagesService</text>
</g>
<!-- PagesService&#45;&gt;PageStoreModule -->
<g id="edge35" class="edge">
<title>PagesService&#45;&gt;PageStoreModule</title>
<path fill="none" stroke="#000000" d="M2055,-198.0109C2055,-198.0109 2055,-227.855 2055,-227.855"/>
<polygon fill="#000000" stroke="#000000" points="2051.5001,-227.8549 2055,-237.855 2058.5001,-227.855 2051.5001,-227.8549"/>
</g>
<!-- PagesStore -->
<g id="node36" class="node">
<title>PagesStore</title>
<ellipse fill="#fdb462" stroke="#000000" cx="1924" cy="-180" rx="53.8885" ry="18"/>
<text text-anchor="middle" x="1924" y="-175.8" font-family="Times,serif" font-size="14.00" fill="#000000">PagesStore</text>
</g>
<!-- PagesStore&#45;&gt;PageStoreModule -->
<g id="edge36" class="edge">
<title>PagesStore&#45;&gt;PageStoreModule</title>
<path fill="none" stroke="#000000" d="M1977.9933,-180C1983.2683,-180 1986.7133,-180 1986.7133,-180 1986.7133,-180 1986.7133,-256 1986.7133,-256 1986.7133,-256 1987.7209,-256 1987.7209,-256"/>
<polygon fill="#000000" stroke="#000000" points="1986.7893,-259.5001 1996.7892,-256 1986.7892,-252.5001 1986.7893,-259.5001"/>
</g>
<!-- PluginHeader -->
<g id="node37" class="node">
<title>PluginHeader</title>
<ellipse fill="#fdb462" stroke="#000000" cx="1110" cy="-104" rx="64.2649" ry="18"/>
<text text-anchor="middle" x="1110" y="-99.8" font-family="Times,serif" font-size="14.00" fill="#000000">PluginHeader</text>
</g>
<!-- PluginHeader&#45;&gt;PluginHeaderModule -->
<g id="edge37" class="edge">
<title>PluginHeader&#45;&gt;PluginHeaderModule</title>
<path fill="none" stroke="#000000" d="M1112.935,-122.0109C1112.935,-122.0109 1112.935,-151.855 1112.935,-151.855"/>
<polygon fill="#000000" stroke="#000000" points="1109.4351,-151.8549 1112.935,-161.855 1116.4351,-151.855 1109.4351,-151.8549"/>
</g>
<!-- PluginList -->
<g id="node38" class="node">
<title>PluginList</title>
<ellipse fill="#fdb462" stroke="#000000" cx="1265" cy="-104" rx="51.0607" ry="18"/>
<text text-anchor="middle" x="1265" y="-99.8" font-family="Times,serif" font-size="14.00" fill="#000000">PluginList</text>
</g>
<!-- PluginList&#45;&gt;PluginListModule -->
<g id="edge38" class="edge">
<title>PluginList&#45;&gt;PluginListModule</title>
<path fill="none" stroke="#000000" d="M1265,-122.0109C1265,-122.0109 1265,-151.855 1265,-151.855"/>
<polygon fill="#000000" stroke="#000000" points="1261.5001,-151.8549 1265,-161.855 1268.5001,-151.855 1261.5001,-151.8549"/>
</g>
<!-- PluginParagraph -->
<g id="node39" class="node">
<title>PluginParagraph</title>
<ellipse fill="#fdb462" stroke="#000000" cx="1431" cy="-104" rx="75.3021" ry="18"/>
<text text-anchor="middle" x="1431" y="-99.8" font-family="Times,serif" font-size="14.00" fill="#000000">PluginParagraph</text>
</g>
<!-- PluginParagraph&#45;&gt;PluginParagraphModule -->
<g id="edge39" class="edge">
<title>PluginParagraph&#45;&gt;PluginParagraphModule</title>
<path fill="none" stroke="#000000" d="M1425.0148,-122.0109C1425.0148,-122.0109 1425.0148,-151.855 1425.0148,-151.855"/>
<polygon fill="#000000" stroke="#000000" points="1421.5149,-151.8549 1425.0148,-161.855 1428.5149,-151.855 1421.5149,-151.8549"/>
</g>
<!-- PluginSimpleImage -->
<g id="node40" class="node">
<title>PluginSimpleImage</title>
<ellipse fill="#fdb462" stroke="#000000" cx="2382" cy="-180" rx="87.9994" ry="18"/>
<text text-anchor="middle" x="2382" y="-175.8" font-family="Times,serif" font-size="14.00" fill="#000000">PluginSimpleImage</text>
</g>
<!-- PluginSimpleImage&#45;&gt;SimpleImageModule -->
<g id="edge40" class="edge">
<title>PluginSimpleImage&#45;&gt;SimpleImageModule</title>
<path fill="none" stroke="#000000" d="M2294.2013,-180C2274.5493,-180 2259.3959,-180 2259.3959,-180 2259.3959,-180 2259.3959,-227.9891 2259.3959,-227.9891"/>
<polygon fill="#000000" stroke="#000000" points="2255.896,-227.989 2259.3959,-237.9891 2262.896,-227.9891 2255.896,-227.989"/>
</g>
</g>
</svg>
