<?xml version="1.0" encoding="UTF-8" standalone="no"?>
<!DOCTYPE svg PUBLIC "-//W3C//DTD SVG 1.1//EN"
 "http://www.w3.org/Graphics/SVG/1.1/DTD/svg11.dtd">
<!-- Generated by graphviz version 2.40.1 (20161225.0304)
 -->
<!-- Title: dependencies Pages: 1 -->
<svg width="2804pt" height="360pt"
 viewBox="0.00 0.00 2804.00 360.00" xmlns="http://www.w3.org/2000/svg" xmlns:xlink="http://www.w3.org/1999/xlink">
<g id="graph0" class="graph" transform="scale(1 1) rotate(0) translate(4 356)">
<title>dependencies</title>
<polygon fill="#ffffff" stroke="transparent" points="-4,4 -4,-356 2800,-356 2800,4 -4,4"/>
<text text-anchor="start" x="1377.0091" y="-42.4" font-family="sans-serif" font-weight="bold" font-size="14.00" fill="#000000">Legend</text>
<polygon fill="#ffffb3" stroke="transparent" points="1164,-10 1164,-30 1184,-30 1184,-10 1164,-10"/>
<text text-anchor="start" x="1187.629" y="-15.4" font-family="sans-serif" font-size="14.00" fill="#000000"> &#160;Declarations</text>
<polygon fill="#8dd3c7" stroke="transparent" points="1277,-10 1277,-30 1297,-30 1297,-10 1277,-10"/>
<text text-anchor="start" x="1300.7251" y="-15.4" font-family="sans-serif" font-size="14.00" fill="#000000"> &#160;Module</text>
<polygon fill="#80b1d3" stroke="transparent" points="1363,-10 1363,-30 1383,-30 1383,-10 1363,-10"/>
<text text-anchor="start" x="1386.7812" y="-15.4" font-family="sans-serif" font-size="14.00" fill="#000000"> &#160;Bootstrap</text>
<polygon fill="#fdb462" stroke="transparent" points="1460,-10 1460,-30 1480,-30 1480,-10 1460,-10"/>
<text text-anchor="start" x="1483.6732" y="-15.4" font-family="sans-serif" font-size="14.00" fill="#000000"> &#160;Providers</text>
<polygon fill="#fb8072" stroke="transparent" points="1556,-10 1556,-30 1576,-30 1576,-10 1556,-10"/>
<text text-anchor="start" x="1579.7258" y="-15.4" font-family="sans-serif" font-size="14.00" fill="#000000"> &#160;Exports</text>
<g id="clust1" class="cluster">
<title>cluster_NgxEditorJSModule</title>
<polygon fill="none" stroke="#000000" stroke-dasharray="1,5" points="1157,-146 1157,-344 2122,-344 2122,-146 1157,-146"/>
</g>
<g id="clust2" class="cluster">
<title>cluster_NgxEditorJSModule_declarations</title>
<polygon fill="none" stroke="#000000" points="1563,-154 1563,-206 2114,-206 2114,-154 1563,-154"/>
</g>
<g id="clust6" class="cluster">
<title>cluster_NgxEditorJSModule_imports</title>
<polygon fill="none" stroke="#000000" points="1369,-154 1369,-206 1555,-206 1555,-154 1369,-154"/>
</g>
<g id="clust7" class="cluster">
<title>cluster_NgxEditorJSModule_exports</title>
<polygon fill="none" stroke="#000000" points="1367,-284 1367,-336 1929,-336 1929,-284 1367,-284"/>
</g>
<g id="clust9" class="cluster">
<title>cluster_NgxEditorJSModule_providers</title>
<polygon fill="none" stroke="#000000" points="1165,-154 1165,-206 1361,-206 1361,-154 1165,-154"/>
</g>
<g id="clust10" class="cluster">
<title>cluster_NgxEditorjsPluginsModule</title>
<polygon fill="none" stroke="#000000" stroke-dasharray="1,5" points="8,-70 8,-138 2788,-138 2788,-70 8,-70"/>
</g>
<g id="clust12" class="cluster">
<title>cluster_NgxEditorjsPluginsModule_imports</title>
<polygon fill="none" stroke="#000000" points="1543,-78 1543,-130 2780,-130 2780,-78 1543,-78"/>
</g>
<g id="clust13" class="cluster">
<title>cluster_NgxEditorjsPluginsModule_exports</title>
<polygon fill="none" stroke="#000000" points="270,-78 270,-130 1535,-130 1535,-78 270,-78"/>
</g>
<g id="clust15" class="cluster">
<title>cluster_NgxEditorjsPluginsModule_providers</title>
<polygon fill="none" stroke="#000000" points="16,-78 16,-130 262,-130 262,-78 16,-78"/>
</g>
<!-- NgxEditorJSComponent -->
<g id="node1" class="node">
<title>NgxEditorJSComponent</title>
<polygon fill="#ffffb3" stroke="#000000" points="2105.661,-198 1952.339,-198 1952.339,-162 2105.661,-162 2105.661,-198"/>
<text text-anchor="middle" x="2029" y="-175.8" font-family="Times,serif" font-size="14.00" fill="#000000">NgxEditorJSComponent</text>
</g>
<!-- NgxEditorJSModule -->
<g id="node4" class="node">
<title>NgxEditorJSModule</title>
<polygon fill="#8dd3c7" stroke="#000000" points="1738.8781,-263 1735.8781,-267 1714.8781,-267 1711.8781,-263 1607.1219,-263 1607.1219,-227 1738.8781,-227 1738.8781,-263"/>
<text text-anchor="middle" x="1673" y="-240.8" font-family="Times,serif" font-size="14.00" fill="#000000">NgxEditorJSModule</text>
</g>
<!-- NgxEditorJSComponent&#45;&gt;NgxEditorJSModule -->
<g id="edge1" class="edge">
<title>NgxEditorJSComponent&#45;&gt;NgxEditorJSModule</title>
<path fill="none" stroke="#000000" d="M2029,-198.1061C2029,-217.3391 2029,-245 2029,-245 2029,-245 1749.1266,-245 1749.1266,-245"/>
<polygon fill="#000000" stroke="#000000" points="1749.1266,-241.5001 1739.1266,-245 1749.1265,-248.5001 1749.1266,-241.5001"/>
</g>
<!-- NgxEditorJSDirective -->
<g id="node2" class="node">
<title>NgxEditorJSDirective</title>
<polygon fill="#ffffb3" stroke="#000000" points="1934.4116,-198 1793.5884,-198 1793.5884,-162 1934.4116,-162 1934.4116,-198"/>
<text text-anchor="middle" x="1864" y="-175.8" font-family="Times,serif" font-size="14.00" fill="#000000">NgxEditorJSDirective</text>
</g>
<!-- NgxEditorJSDirective&#45;&gt;NgxEditorJSModule -->
<g id="edge2" class="edge">
<title>NgxEditorJSDirective&#45;&gt;NgxEditorJSModule</title>
<path fill="none" stroke="#000000" d="M1857.1874,-198.027C1857.1874,-214.3976 1857.1874,-236 1857.1874,-236 1857.1874,-236 1748.9756,-236 1748.9756,-236"/>
<polygon fill="#000000" stroke="#000000" points="1748.9757,-232.5001 1738.9756,-236 1748.9756,-239.5001 1748.9757,-232.5001"/>
</g>
<!-- NgxEditorJSMatFieldComponent -->
<g id="node3" class="node">
<title>NgxEditorJSMatFieldComponent</title>
<polygon fill="#ffffb3" stroke="#000000" points="1775.4888,-198 1570.5112,-198 1570.5112,-162 1775.4888,-162 1775.4888,-198"/>
<text text-anchor="middle" x="1673" y="-175.8" font-family="Times,serif" font-size="14.00" fill="#000000">NgxEditorJSMatFieldComponent</text>
</g>
<!-- NgxEditorJSMatFieldComponent&#45;&gt;NgxEditorJSModule -->
<g id="edge3" class="edge">
<title>NgxEditorJSMatFieldComponent&#45;&gt;NgxEditorJSModule</title>
<path fill="none" stroke="#000000" d="M1673,-198.1061C1673,-198.1061 1673,-216.991 1673,-216.991"/>
<polygon fill="#000000" stroke="#000000" points="1669.5001,-216.9909 1673,-226.991 1676.5001,-216.991 1669.5001,-216.9909"/>
</g>
<!-- NgxEditorJSComponent  -->
<g id="node6" class="node">
<title>NgxEditorJSComponent </title>
<polygon fill="#fb8072" stroke="#000000" points="1920.6607,-328 1763.3393,-328 1763.3393,-292 1920.6607,-292 1920.6607,-328"/>
<text text-anchor="middle" x="1842" y="-305.8" font-family="Times,serif" font-size="14.00" fill="#000000">NgxEditorJSComponent </text>
</g>
<!-- NgxEditorJSModule&#45;&gt;NgxEditorJSComponent  -->
<g id="edge5" class="edge">
<title>NgxEditorJSModule&#45;&gt;NgxEditorJSComponent </title>
<path fill="none" stroke="#000000" stroke-dasharray="5,2" d="M1738.9374,-254C1755.8928,-254 1769.4571,-254 1769.4571,-254 1769.4571,-254 1769.4571,-281.973 1769.4571,-281.973"/>
<polygon fill="#000000" stroke="#000000" points="1765.9571,-281.973 1769.4571,-291.973 1772.9571,-281.973 1765.9571,-281.973"/>
</g>
<!-- NgxEditorJSDirective  -->
<g id="node7" class="node">
<title>NgxEditorJSDirective </title>
<polygon fill="#fb8072" stroke="#000000" points="1744.911,-328 1601.089,-328 1601.089,-292 1744.911,-292 1744.911,-328"/>
<text text-anchor="middle" x="1673" y="-305.8" font-family="Times,serif" font-size="14.00" fill="#000000">NgxEditorJSDirective </text>
</g>
<!-- NgxEditorJSModule&#45;&gt;NgxEditorJSDirective  -->
<g id="edge6" class="edge">
<title>NgxEditorJSModule&#45;&gt;NgxEditorJSDirective </title>
<path fill="none" stroke="#000000" stroke-dasharray="5,2" d="M1673,-263.1061C1673,-263.1061 1673,-281.991 1673,-281.991"/>
<polygon fill="#000000" stroke="#000000" points="1669.5001,-281.9909 1673,-291.991 1676.5001,-281.991 1669.5001,-281.9909"/>
</g>
<!-- NgxEditorJSMatFieldComponent  -->
<g id="node8" class="node">
<title>NgxEditorJSMatFieldComponent </title>
<polygon fill="#fb8072" stroke="#000000" points="1583.4894,-328 1374.5106,-328 1374.5106,-292 1583.4894,-292 1583.4894,-328"/>
<text text-anchor="middle" x="1479" y="-305.8" font-family="Times,serif" font-size="14.00" fill="#000000">NgxEditorJSMatFieldComponent </text>
</g>
<!-- NgxEditorJSModule&#45;&gt;NgxEditorJSMatFieldComponent  -->
<g id="edge7" class="edge">
<title>NgxEditorJSModule&#45;&gt;NgxEditorJSMatFieldComponent </title>
<path fill="none" stroke="#000000" stroke-dasharray="5,2" d="M1607.0258,-254C1590.2521,-254 1576.875,-254 1576.875,-254 1576.875,-254 1576.875,-281.973 1576.875,-281.973"/>
<polygon fill="#000000" stroke="#000000" points="1573.3751,-281.973 1576.875,-291.973 1580.3751,-281.973 1573.3751,-281.973"/>
</g>
<!-- NgxEditorjsPluginsModule -->
<g id="node5" class="node">
<title>NgxEditorjsPluginsModule</title>
<polygon fill="#8dd3c7" stroke="#000000" points="1546.9944,-198 1543.9944,-202 1522.9944,-202 1519.9944,-198 1377.0056,-198 1377.0056,-162 1546.9944,-162 1546.9944,-198"/>
<text text-anchor="middle" x="1462" y="-175.8" font-family="Times,serif" font-size="14.00" fill="#000000">NgxEditorjsPluginsModule</text>
</g>
<!-- NgxEditorjsPluginsModule&#45;&gt;NgxEditorJSModule -->
<g id="edge4" class="edge">
<title>NgxEditorjsPluginsModule&#45;&gt;NgxEditorJSModule</title>
<path fill="none" stroke="#000000" d="M1462,-198.027C1462,-214.3976 1462,-236 1462,-236 1462,-236 1597.1062,-236 1597.1062,-236"/>
<polygon fill="#000000" stroke="#000000" points="1597.1062,-239.5001 1607.1062,-236 1597.1062,-232.5001 1597.1062,-239.5001"/>
</g>
<!-- PluginCodeModule  -->
<g id="node18" class="node">
<title>PluginCodeModule </title>
<polygon fill="#fb8072" stroke="#000000" points="1526.6649,-122 1397.3351,-122 1397.3351,-86 1526.6649,-86 1526.6649,-122"/>
<text text-anchor="middle" x="1462" y="-99.8" font-family="Times,serif" font-size="14.00" fill="#000000">PluginCodeModule </text>
</g>
<!-- NgxEditorjsPluginsModule&#45;&gt;PluginCodeModule  -->
<g id="edge17" class="edge">
<title>NgxEditorjsPluginsModule&#45;&gt;PluginCodeModule </title>
<path fill="none" stroke="#000000" stroke-dasharray="5,2" d="M1462,-161.9891C1462,-161.9891 1462,-132.145 1462,-132.145"/>
<polygon fill="#000000" stroke="#000000" points="1465.5001,-132.145 1462,-122.145 1458.5001,-132.1451 1465.5001,-132.145"/>
</g>
<!-- PluginHeaderModule  -->
<g id="node19" class="node">
<title>PluginHeaderModule </title>
<polygon fill="#fb8072" stroke="#000000" points="1379.0246,-122 1238.9754,-122 1238.9754,-86 1379.0246,-86 1379.0246,-122"/>
<text text-anchor="middle" x="1309" y="-99.8" font-family="Times,serif" font-size="14.00" fill="#000000">PluginHeaderModule </text>
</g>
<!-- NgxEditorjsPluginsModule&#45;&gt;PluginHeaderModule  -->
<g id="edge18" class="edge">
<title>NgxEditorjsPluginsModule&#45;&gt;PluginHeaderModule </title>
<path fill="none" stroke="#000000" stroke-dasharray="5,2" d="M1383.1024,-161.9891C1383.1024,-139.5148 1383.1024,-104 1383.1024,-104 1383.1024,-104 1382.704,-104 1382.704,-104"/>
<polygon fill="#000000" stroke="#000000" points="1389.1184,-100.5003 1379.1183,-104 1389.1182,-107.5003 1389.1184,-100.5003"/>
</g>
<!-- PluginImageModule  -->
<g id="node20" class="node">
<title>PluginImageModule </title>
<polygon fill="#fb8072" stroke="#000000" points="1221.0946,-122 1086.9054,-122 1086.9054,-86 1221.0946,-86 1221.0946,-122"/>
<text text-anchor="middle" x="1154" y="-99.8" font-family="Times,serif" font-size="14.00" fill="#000000">PluginImageModule </text>
</g>
<!-- NgxEditorjsPluginsModule&#45;&gt;PluginImageModule  -->
<g id="edge19" class="edge">
<title>NgxEditorjsPluginsModule&#45;&gt;PluginImageModule </title>
<path fill="none" stroke="#000000" stroke-dasharray="5,2" d="M1395.3726,-161.5782C1395.3726,-152.7209 1395.3726,-144 1395.3726,-144 1395.3726,-144 1197.2072,-144 1197.2072,-144 1197.2072,-144 1197.2072,-132.1274 1197.2072,-132.1274"/>
<polygon fill="#000000" stroke="#000000" points="1200.7073,-132.1274 1197.2072,-122.1274 1193.7073,-132.1275 1200.7073,-132.1274"/>
</g>
<!-- PluginLinkModule  -->
<g id="node21" class="node">
<title>PluginLinkModule </title>
<polygon fill="#fb8072" stroke="#000000" points="1069.0568,-122 942.9432,-122 942.9432,-86 1069.0568,-86 1069.0568,-122"/>
<text text-anchor="middle" x="1006" y="-99.8" font-family="Times,serif" font-size="14.00" fill="#000000">PluginLinkModule </text>
</g>
<!-- NgxEditorjsPluginsModule&#45;&gt;PluginLinkModule  -->
<g id="edge20" class="edge">
<title>NgxEditorjsPluginsModule&#45;&gt;PluginLinkModule </title>
<path fill="none" stroke="#000000" stroke-dasharray="5,2" d="M1393.3275,-161.8056C1393.3275,-153.7218 1393.3275,-146 1393.3275,-146 1393.3275,-146 1006,-146 1006,-146 1006,-146 1006,-132.0555 1006,-132.0555"/>
<polygon fill="#000000" stroke="#000000" points="1009.5001,-132.0555 1006,-122.0555 1002.5001,-132.0556 1009.5001,-132.0555"/>
</g>
<!-- PluginListModule  -->
<g id="node22" class="node">
<title>PluginListModule </title>
<polygon fill="#fb8072" stroke="#000000" points="924.8926,-122 803.1074,-122 803.1074,-86 924.8926,-86 924.8926,-122"/>
<text text-anchor="middle" x="864" y="-99.8" font-family="Times,serif" font-size="14.00" fill="#000000">PluginListModule </text>
</g>
<!-- NgxEditorjsPluginsModule&#45;&gt;PluginListModule  -->
<g id="edge21" class="edge">
<title>NgxEditorjsPluginsModule&#45;&gt;PluginListModule </title>
<path fill="none" stroke="#000000" stroke-dasharray="5,2" d="M1391.2825,-161.9672C1391.2825,-155.1474 1391.2825,-149 1391.2825,-149 1391.2825,-149 864,-149 864,-149 864,-149 864,-132.0439 864,-132.0439"/>
<polygon fill="#000000" stroke="#000000" points="867.5001,-132.0439 864,-122.0439 860.5001,-132.044 867.5001,-132.0439"/>
</g>
<!-- PluginMarkerModule  -->
<g id="node23" class="node">
<title>PluginMarkerModule </title>
<polygon fill="#fb8072" stroke="#000000" points="785.3087,-122 644.6913,-122 644.6913,-86 785.3087,-86 785.3087,-122"/>
<text text-anchor="middle" x="715" y="-99.8" font-family="Times,serif" font-size="14.00" fill="#000000">PluginMarkerModule </text>
</g>
<!-- NgxEditorjsPluginsModule&#45;&gt;PluginMarkerModule  -->
<g id="edge22" class="edge">
<title>NgxEditorjsPluginsModule&#45;&gt;PluginMarkerModule </title>
<path fill="none" stroke="#000000" stroke-dasharray="5,2" d="M1389.2375,-161.793C1389.2375,-156.4451 1389.2375,-152 1389.2375,-152 1389.2375,-152 715,-152 715,-152 715,-152 715,-132.1467 715,-132.1467"/>
<polygon fill="#000000" stroke="#000000" points="718.5001,-132.1467 715,-122.1467 711.5001,-132.1468 718.5001,-132.1467"/>
</g>
<!-- PluginParagraphModule  -->
<g id="node24" class="node">
<title>PluginParagraphModule </title>
<polygon fill="#fb8072" stroke="#000000" points="626.3616,-122 469.6384,-122 469.6384,-86 626.3616,-86 626.3616,-122"/>
<text text-anchor="middle" x="548" y="-99.8" font-family="Times,serif" font-size="14.00" fill="#000000">PluginParagraphModule </text>
</g>
<!-- NgxEditorjsPluginsModule&#45;&gt;PluginParagraphModule  -->
<g id="edge23" class="edge">
<title>NgxEditorjsPluginsModule&#45;&gt;PluginParagraphModule </title>
<path fill="none" stroke="#000000" stroke-dasharray="5,2" d="M1387.1924,-161.9421C1387.1924,-157.5055 1387.1924,-154 1387.1924,-154 1387.1924,-154 548,-154 548,-154 548,-154 548,-132.0511 548,-132.0511"/>
<polygon fill="#000000" stroke="#000000" points="551.5001,-132.0511 548,-122.0511 544.5001,-132.0512 551.5001,-132.0511"/>
</g>
<!-- PluginSimpleImageModule  -->
<g id="node25" class="node">
<title>PluginSimpleImageModule </title>
<polygon fill="#fb8072" stroke="#000000" points="452.2632,-122 277.7368,-122 277.7368,-86 452.2632,-86 452.2632,-122"/>
<text text-anchor="middle" x="365" y="-99.8" font-family="Times,serif" font-size="14.00" fill="#000000">PluginSimpleImageModule </text>
</g>
<!-- NgxEditorjsPluginsModule&#45;&gt;PluginSimpleImageModule  -->
<g id="edge24" class="edge">
<title>NgxEditorjsPluginsModule&#45;&gt;PluginSimpleImageModule </title>
<path fill="none" stroke="#000000" stroke-dasharray="5,2" d="M1385.1474,-161.8777C1385.1474,-159.0271 1385.1474,-157 1385.1474,-157 1385.1474,-157 365,-157 365,-157 365,-157 365,-132.2396 365,-132.2396"/>
<polygon fill="#000000" stroke="#000000" points="368.5001,-132.2396 365,-122.2396 361.5001,-132.2396 368.5001,-132.2396"/>
</g>
<!-- NgxEditorJSService -->
<g id="node9" class="node">
<title>NgxEditorJSService</title>
<ellipse fill="#fdb462" stroke="#000000" cx="1263" cy="-180" rx="89.7653" ry="18"/>
<text text-anchor="middle" x="1263" y="-175.8" font-family="Times,serif" font-size="14.00" fill="#000000">NgxEditorJSService</text>
</g>
<!-- NgxEditorJSService&#45;&gt;NgxEditorJSModule -->
<g id="edge8" class="edge">
<title>NgxEditorJSService&#45;&gt;NgxEditorJSModule</title>
<path fill="none" stroke="#000000" d="M1263,-198.1061C1263,-217.3391 1263,-245 1263,-245 1263,-245 1596.6707,-245 1596.6707,-245"/>
<polygon fill="#000000" stroke="#000000" points="1596.6708,-248.5001 1606.6707,-245 1596.6707,-241.5001 1596.6708,-248.5001"/>
</g>
<!-- PluginCodeModule -->
<g id="node10" class="node">
<title>PluginCodeModule</title>
<polygon fill="#8dd3c7" stroke="#000000" points="2771.6652,-122 2768.6652,-126 2747.6652,-126 2744.6652,-122 2646.3348,-122 2646.3348,-86 2771.6652,-86 2771.6652,-122"/>
<text text-anchor="middle" x="2709" y="-99.8" font-family="Times,serif" font-size="14.00" fill="#000000">PluginCodeModule</text>
</g>
<!-- PluginCodeModule&#45;&gt;NgxEditorjsPluginsModule -->
<g id="edge9" class="edge">
<title>PluginCodeModule&#45;&gt;NgxEditorjsPluginsModule</title>
<path fill="none" stroke="#000000" d="M2709,-122.0664C2709,-131.4587 2709,-141 2709,-141 2709,-141 1544.4454,-141 1544.4454,-141 1544.4454,-141 1544.4454,-151.8701 1544.4454,-151.8701"/>
<polygon fill="#000000" stroke="#000000" points="1540.9454,-151.8701 1544.4454,-161.8701 1547.9454,-151.8701 1540.9454,-151.8701"/>
</g>
<!-- PluginHeaderModule -->
<g id="node11" class="node">
<title>PluginHeaderModule</title>
<polygon fill="#8dd3c7" stroke="#000000" points="2628.0254,-122 2625.0254,-126 2604.0254,-126 2601.0254,-122 2491.9746,-122 2491.9746,-86 2628.0254,-86 2628.0254,-122"/>
<text text-anchor="middle" x="2560" y="-99.8" font-family="Times,serif" font-size="14.00" fill="#000000">PluginHeaderModule</text>
</g>
<!-- PluginHeaderModule&#45;&gt;NgxEditorjsPluginsModule -->
<g id="edge10" class="edge">
<title>PluginHeaderModule&#45;&gt;NgxEditorjsPluginsModule</title>
<path fill="none" stroke="#000000" d="M2560,-122.1944C2560,-130.2782 2560,-138 2560,-138 2560,-138 1541.8935,-138 1541.8935,-138 1541.8935,-138 1541.8935,-151.9445 1541.8935,-151.9445"/>
<polygon fill="#000000" stroke="#000000" points="1538.3936,-151.9444 1541.8935,-161.9445 1545.3936,-151.9445 1538.3936,-151.9444"/>
</g>
<!-- PluginImageModule -->
<g id="node12" class="node">
<title>PluginImageModule</title>
<polygon fill="#8dd3c7" stroke="#000000" points="2473.594,-122 2470.594,-126 2449.594,-126 2446.594,-122 2342.406,-122 2342.406,-86 2473.594,-86 2473.594,-122"/>
<text text-anchor="middle" x="2408" y="-99.8" font-family="Times,serif" font-size="14.00" fill="#000000">PluginImageModule</text>
</g>
<!-- PluginImageModule&#45;&gt;NgxEditorjsPluginsModule -->
<g id="edge11" class="edge">
<title>PluginImageModule&#45;&gt;NgxEditorjsPluginsModule</title>
<path fill="none" stroke="#000000" d="M2408,-122.2434C2408,-129.4297 2408,-136 2408,-136 2408,-136 1539.3417,-136 1539.3417,-136 1539.3417,-136 1539.3417,-151.8495 1539.3417,-151.8495"/>
<polygon fill="#000000" stroke="#000000" points="1535.8417,-151.8494 1539.3417,-161.8495 1542.8417,-151.8495 1535.8417,-151.8494"/>
</g>
<!-- PluginLinkModule -->
<g id="node13" class="node">
<title>PluginLinkModule</title>
<polygon fill="#8dd3c7" stroke="#000000" points="2324.0576,-122 2321.0576,-126 2300.0576,-126 2297.0576,-122 2201.9424,-122 2201.9424,-86 2324.0576,-86 2324.0576,-122"/>
<text text-anchor="middle" x="2263" y="-99.8" font-family="Times,serif" font-size="14.00" fill="#000000">PluginLinkModule</text>
</g>
<!-- PluginLinkModule&#45;&gt;NgxEditorjsPluginsModule -->
<g id="edge12" class="edge">
<title>PluginLinkModule&#45;&gt;NgxEditorjsPluginsModule</title>
<path fill="none" stroke="#000000" d="M2263,-122.2015C2263,-128.028 2263,-133 2263,-133 2263,-133 1536.7898,-133 1536.7898,-133 1536.7898,-133 1536.7898,-151.963 1536.7898,-151.963"/>
<polygon fill="#000000" stroke="#000000" points="1533.2899,-151.963 1536.7898,-161.963 1540.2899,-151.963 1533.2899,-151.963"/>
</g>
<!-- PluginListModule -->
<g id="node14" class="node">
<title>PluginListModule</title>
<polygon fill="#8dd3c7" stroke="#000000" points="2183.892,-122 2180.892,-126 2159.892,-126 2156.892,-122 2066.108,-122 2066.108,-86 2183.892,-86 2183.892,-122"/>
<text text-anchor="middle" x="2125" y="-99.8" font-family="Times,serif" font-size="14.00" fill="#000000">PluginListModule</text>
</g>
<!-- PluginListModule&#45;&gt;NgxEditorjsPluginsModule -->
<g id="edge13" class="edge">
<title>PluginListModule&#45;&gt;NgxEditorjsPluginsModule</title>
<path fill="none" stroke="#000000" d="M2085.9422,-122.0579C2085.9422,-126.4945 2085.9422,-130 2085.9422,-130 2085.9422,-130 1534.238,-130 1534.238,-130 1534.238,-130 1534.238,-151.9489 1534.238,-151.9489"/>
<polygon fill="#000000" stroke="#000000" points="1530.738,-151.9488 1534.238,-161.9489 1537.738,-151.9489 1530.738,-151.9488"/>
</g>
<!-- PluginMarkerModule -->
<g id="node15" class="node">
<title>PluginMarkerModule</title>
<polygon fill="#8dd3c7" stroke="#000000" points="2047.8089,-122 2044.8089,-126 2023.8089,-126 2020.8089,-122 1910.1911,-122 1910.1911,-86 2047.8089,-86 2047.8089,-122"/>
<text text-anchor="middle" x="1979" y="-99.8" font-family="Times,serif" font-size="14.00" fill="#000000">PluginMarkerModule</text>
</g>
<!-- PluginMarkerModule&#45;&gt;NgxEditorjsPluginsModule -->
<g id="edge14" class="edge">
<title>PluginMarkerModule&#45;&gt;NgxEditorjsPluginsModule</title>
<path fill="none" stroke="#000000" d="M1922.2756,-122.1903C1922.2756,-125.5376 1922.2756,-128 1922.2756,-128 1922.2756,-128 1531.6861,-128 1531.6861,-128 1531.6861,-128 1531.6861,-151.8129 1531.6861,-151.8129"/>
<polygon fill="#000000" stroke="#000000" points="1528.1862,-151.8129 1531.6861,-161.8129 1535.1862,-151.813 1528.1862,-151.8129"/>
</g>
<!-- PluginParagraphModule -->
<g id="node16" class="node">
<title>PluginParagraphModule</title>
<polygon fill="#8dd3c7" stroke="#000000" points="1892.3613,-122 1889.3613,-126 1868.3613,-126 1865.3613,-122 1739.6387,-122 1739.6387,-86 1892.3613,-86 1892.3613,-122"/>
<text text-anchor="middle" x="1816" y="-99.8" font-family="Times,serif" font-size="14.00" fill="#000000">PluginParagraphModule</text>
</g>
<!-- PluginParagraphModule&#45;&gt;NgxEditorjsPluginsModule -->
<g id="edge15" class="edge">
<title>PluginParagraphModule&#45;&gt;NgxEditorjsPluginsModule</title>
<path fill="none" stroke="#000000" d="M1757.5319,-122.08C1757.5319,-123.8464 1757.5319,-125 1757.5319,-125 1757.5319,-125 1529.1343,-125 1529.1343,-125 1529.1343,-125 1529.1343,-151.9909 1529.1343,-151.9909"/>
<polygon fill="#000000" stroke="#000000" points="1525.6343,-151.9909 1529.1343,-161.9909 1532.6343,-151.991 1525.6343,-151.9909"/>
</g>
<!-- PluginSimpleImageModule -->
<g id="node17" class="node">
<title>PluginSimpleImageModule</title>
<polygon fill="#8dd3c7" stroke="#000000" points="1721.2632,-122 1718.2632,-126 1697.2632,-126 1694.2632,-122 1550.7368,-122 1550.7368,-86 1721.2632,-86 1721.2632,-122"/>
<text text-anchor="middle" x="1636" y="-99.8" font-family="Times,serif" font-size="14.00" fill="#000000">PluginSimpleImageModule</text>
</g>
<!-- PluginSimpleImageModule&#45;&gt;NgxEditorjsPluginsModule -->
<g id="edge16" class="edge">
<title>PluginSimpleImageModule&#45;&gt;NgxEditorjsPluginsModule</title>
<path fill="none" stroke="#000000" d="M1560.5621,-122.0109C1560.5621,-144.4852 1560.5621,-180 1560.5621,-180 1560.5621,-180 1557.2695,-180 1557.2695,-180"/>
<polygon fill="#000000" stroke="#000000" points="1557.2696,-176.5001 1547.2695,-180 1557.2695,-183.5001 1557.2696,-176.5001"/>
</g>
<!-- NgxEditorJSPluginService -->
<g id="node26" class="node">
<title>NgxEditorJSPluginService</title>
<ellipse fill="#fdb462" stroke="#000000" cx="139" cy="-104" rx="115.2073" ry="18"/>
<text text-anchor="middle" x="139" y="-99.8" font-family="Times,serif" font-size="14.00" fill="#000000">NgxEditorJSPluginService</text>
</g>
<!-- NgxEditorJSPluginService&#45;&gt;NgxEditorjsPluginsModule -->
<g id="edge25" class="edge">
<title>NgxEditorJSPluginService&#45;&gt;NgxEditorjsPluginsModule</title>
<path fill="none" stroke="#000000" d="M139,-122.027C139,-138.3976 139,-160 139,-160 139,-160 1381.0573,-160 1381.0573,-160 1381.0573,-160 1381.0573,-160.1846 1381.0573,-160.1846"/>
<polygon fill="#000000" stroke="#000000" points="1377.5579,-151.8455 1381.0573,-161.8457 1384.5579,-151.8459 1377.5579,-151.8455"/>
</g>
</g>
</svg>
