<?xml version="1.0" encoding="UTF-8" standalone="no"?>
<!DOCTYPE svg PUBLIC "-//W3C//DTD SVG 1.1//EN"
 "http://www.w3.org/Graphics/SVG/1.1/DTD/svg11.dtd">
<!-- Generated by graphviz version 2.40.1 (20161225.0304)
 -->
<!-- Title: dependencies Pages: 1 -->
<svg width="1223pt" height="284pt"
 viewBox="0.00 0.00 1223.00 284.00" xmlns="http://www.w3.org/2000/svg" xmlns:xlink="http://www.w3.org/1999/xlink">
<g id="graph0" class="graph" transform="scale(1 1) rotate(0) translate(4 280)">
<title>dependencies</title>
<polygon fill="#ffffff" stroke="transparent" points="-4,4 -4,-280 1219,-280 1219,4 -4,4"/>
<text text-anchor="start" x="586.5091" y="-42.4" font-family="sans-serif" font-weight="bold" font-size="14.00" fill="#000000">Legend</text>
<polygon fill="#ffffb3" stroke="transparent" points="373.5,-10 373.5,-30 393.5,-30 393.5,-10 373.5,-10"/>
<text text-anchor="start" x="397.129" y="-15.4" font-family="sans-serif" font-size="14.00" fill="#000000"> &#160;Declarations</text>
<polygon fill="#8dd3c7" stroke="transparent" points="486.5,-10 486.5,-30 506.5,-30 506.5,-10 486.5,-10"/>
<text text-anchor="start" x="510.2251" y="-15.4" font-family="sans-serif" font-size="14.00" fill="#000000"> &#160;Module</text>
<polygon fill="#80b1d3" stroke="transparent" points="572.5,-10 572.5,-30 592.5,-30 592.5,-10 572.5,-10"/>
<text text-anchor="start" x="596.2812" y="-15.4" font-family="sans-serif" font-size="14.00" fill="#000000"> &#160;Bootstrap</text>
<polygon fill="#fdb462" stroke="transparent" points="669.5,-10 669.5,-30 689.5,-30 689.5,-10 669.5,-10"/>
<text text-anchor="start" x="693.1732" y="-15.4" font-family="sans-serif" font-size="14.00" fill="#000000"> &#160;Providers</text>
<polygon fill="#fb8072" stroke="transparent" points="765.5,-10 765.5,-30 785.5,-30 785.5,-10 765.5,-10"/>
<text text-anchor="start" x="789.2258" y="-15.4" font-family="sans-serif" font-size="14.00" fill="#000000"> &#160;Exports</text>
<g id="clust1" class="cluster">
<title>cluster_AppModule</title>
<polygon fill="none" stroke="#000000" stroke-dasharray="1,5" points="8,-70 8,-268 1207,-268 1207,-70 8,-70"/>
</g>
<g id="clust2" class="cluster">
<title>cluster_AppModule_declarations</title>
<polygon fill="none" stroke="#000000" points="793,-78 793,-130 1199,-130 1199,-78 793,-78"/>
</g>
<g id="clust6" class="cluster">
<title>cluster_AppModule_imports</title>
<polygon fill="none" stroke="#000000" points="16,-78 16,-130 785,-130 785,-78 16,-78"/>
</g>
<g id="clust8" class="cluster">
<title>cluster_AppModule_bootstrap</title>
<polygon fill="none" stroke="#000000" points="572,-208 572,-260 696,-260 696,-208 572,-208"/>
</g>
<!-- AppComponent -->
<g id="node1" class="node">
<title>AppComponent</title>
<polygon fill="#ffffb3" stroke="#000000" points="1190.9399,-122 1085.0601,-122 1085.0601,-86 1190.9399,-86 1190.9399,-122"/>
<text text-anchor="middle" x="1138" y="-99.8" font-family="Times,serif" font-size="14.00" fill="#000000">AppComponent</text>
</g>
<!-- AppModule -->
<g id="node4" class="node">
<title>AppModule</title>
<polygon fill="#8dd3c7" stroke="#000000" points="675.6571,-187 672.6571,-191 651.6571,-191 648.6571,-187 592.3429,-187 592.3429,-151 675.6571,-151 675.6571,-187"/>
<text text-anchor="middle" x="634" y="-164.8" font-family="Times,serif" font-size="14.00" fill="#000000">AppModule</text>
</g>
<!-- AppComponent&#45;&gt;AppModule -->
<g id="edge1" class="edge">
<title>AppComponent&#45;&gt;AppModule</title>
<path fill="none" stroke="#000000" d="M1138,-122.2921C1138,-144.2057 1138,-178 1138,-178 1138,-178 685.6732,-178 685.6732,-178"/>
<polygon fill="#000000" stroke="#000000" points="685.6733,-174.5001 675.6732,-178 685.6732,-181.5001 685.6733,-174.5001"/>
</g>
<!-- NavBarComponent -->
<g id="node2" class="node">
<title>NavBarComponent</title>
<polygon fill="#ffffb3" stroke="#000000" points="1067.3655,-122 942.6345,-122 942.6345,-86 1067.3655,-86 1067.3655,-122"/>
<text text-anchor="middle" x="1005" y="-99.8" font-family="Times,serif" font-size="14.00" fill="#000000">NavBarComponent</text>
</g>
<!-- NavBarComponent&#45;&gt;AppModule -->
<g id="edge2" class="edge">
<title>NavBarComponent&#45;&gt;AppModule</title>
<path fill="none" stroke="#000000" d="M1005,-122.1061C1005,-141.3391 1005,-169 1005,-169 1005,-169 685.8372,-169 685.8372,-169"/>
<polygon fill="#000000" stroke="#000000" points="685.8373,-165.5001 675.8372,-169 685.8372,-172.5001 685.8373,-165.5001"/>
</g>
<!-- SidebarComponent -->
<g id="node3" class="node">
<title>SidebarComponent</title>
<polygon fill="#ffffb3" stroke="#000000" points="925.0954,-122 800.9046,-122 800.9046,-86 925.0954,-86 925.0954,-122"/>
<text text-anchor="middle" x="863" y="-99.8" font-family="Times,serif" font-size="14.00" fill="#000000">SidebarComponent</text>
</g>
<!-- SidebarComponent&#45;&gt;AppModule -->
<g id="edge3" class="edge">
<title>SidebarComponent&#45;&gt;AppModule</title>
<path fill="none" stroke="#000000" d="M863,-122.027C863,-138.3976 863,-160 863,-160 863,-160 685.7359,-160 685.7359,-160"/>
<polygon fill="#000000" stroke="#000000" points="685.7359,-156.5001 675.7359,-160 685.7358,-163.5001 685.7359,-156.5001"/>
</g>
<!-- AppComponent  -->
<g id="node10" class="node">
<title>AppComponent </title>
<polygon fill="#80b1d3" stroke="#000000" points="688.439,-252 579.561,-252 579.561,-216 688.439,-216 688.439,-252"/>
<text text-anchor="middle" x="634" y="-229.8" font-family="Times,serif" font-size="14.00" fill="#000000">AppComponent </text>
</g>
<!-- AppModule&#45;&gt;AppComponent  -->
<g id="edge9" class="edge">
<title>AppModule&#45;&gt;AppComponent </title>
<path fill="none" stroke="#000000" stroke-dasharray="1,5" d="M634,-187.1061C634,-187.1061 634,-205.991 634,-205.991"/>
<polygon fill="#000000" stroke="#000000" points="630.5001,-205.9909 634,-215.991 637.5001,-205.991 630.5001,-205.9909"/>
</g>
<!-- AppRoutingModule -->
<g id="node5" class="node">
<title>AppRoutingModule</title>
<polygon fill="#8dd3c7" stroke="#000000" points="777.2744,-122 774.2744,-126 753.2744,-126 750.2744,-122 648.7256,-122 648.7256,-86 777.2744,-86 777.2744,-122"/>
<text text-anchor="middle" x="713" y="-99.8" font-family="Times,serif" font-size="14.00" fill="#000000">AppRoutingModule</text>
</g>
<!-- AppRoutingModule&#45;&gt;AppModule -->
<g id="edge4" class="edge">
<title>AppRoutingModule&#45;&gt;AppModule</title>
<path fill="none" stroke="#000000" d="M662.2206,-122.1061C662.2206,-122.1061 662.2206,-140.991 662.2206,-140.991"/>
<polygon fill="#000000" stroke="#000000" points="658.7206,-140.9909 662.2206,-150.991 665.7206,-140.991 658.7206,-140.9909"/>
</g>
<!-- ApplicationDataModule -->
<g id="node6" class="node">
<title>ApplicationDataModule</title>
<polygon fill="#8dd3c7" stroke="#000000" points="631.0744,-122 628.0744,-126 607.0744,-126 604.0744,-122 478.9256,-122 478.9256,-86 631.0744,-86 631.0744,-122"/>
<text text-anchor="middle" x="555" y="-99.8" font-family="Times,serif" font-size="14.00" fill="#000000">ApplicationDataModule</text>
</g>
<!-- ApplicationDataModule&#45;&gt;AppModule -->
<g id="edge5" class="edge">
<title>ApplicationDataModule&#45;&gt;AppModule</title>
<path fill="none" stroke="#000000" d="M611.6045,-122.1061C611.6045,-122.1061 611.6045,-140.991 611.6045,-140.991"/>
<polygon fill="#000000" stroke="#000000" points="608.1046,-140.9909 611.6045,-150.991 615.1046,-140.991 608.1046,-140.9909"/>
</g>
<!-- MaterialModule -->
<g id="node7" class="node">
<title>MaterialModule</title>
<polygon fill="#8dd3c7" stroke="#000000" points="460.4706,-122 457.4706,-126 436.4706,-126 433.4706,-122 353.5294,-122 353.5294,-86 460.4706,-86 460.4706,-122"/>
<text text-anchor="middle" x="407" y="-99.8" font-family="Times,serif" font-size="14.00" fill="#000000">MaterialModule</text>
</g>
<!-- MaterialModule&#45;&gt;AppModule -->
<g id="edge6" class="edge">
<title>MaterialModule&#45;&gt;AppModule</title>
<path fill="none" stroke="#000000" d="M407,-122.027C407,-138.3976 407,-160 407,-160 407,-160 582.1002,-160 582.1002,-160"/>
<polygon fill="#000000" stroke="#000000" points="582.1002,-163.5001 592.1002,-160 582.1001,-156.5001 582.1002,-163.5001"/>
</g>
<!-- NgxEditorJSModule -->
<g id="node8" class="node">
<title>NgxEditorJSModule</title>
<polygon fill="#8dd3c7" stroke="#000000" points="335.8781,-122 332.8781,-126 311.8781,-126 308.8781,-122 204.1219,-122 204.1219,-86 335.8781,-86 335.8781,-122"/>
<text text-anchor="middle" x="270" y="-99.8" font-family="Times,serif" font-size="14.00" fill="#000000">NgxEditorJSModule</text>
</g>
<!-- NgxEditorJSModule&#45;&gt;AppModule -->
<g id="edge7" class="edge">
<title>NgxEditorJSModule&#45;&gt;AppModule</title>
<path fill="none" stroke="#000000" d="M270,-122.1061C270,-141.3391 270,-169 270,-169 270,-169 582.2446,-169 582.2446,-169"/>
<polygon fill="#000000" stroke="#000000" points="582.2446,-172.5001 592.2446,-169 582.2445,-165.5001 582.2446,-172.5001"/>
</g>
<!-- NgxEditorjsDemoModule -->
<g id="node9" class="node">
<title>NgxEditorjsDemoModule</title>
<polygon fill="#8dd3c7" stroke="#000000" points="186.1979,-122 183.1979,-126 162.1979,-126 159.1979,-122 23.8021,-122 23.8021,-86 186.1979,-86 186.1979,-122"/>
<text text-anchor="middle" x="105" y="-99.8" font-family="Times,serif" font-size="14.00" fill="#000000">NgxEditorjsDemoModule</text>
</g>
<!-- NgxEditorjsDemoModule&#45;&gt;AppModule -->
<g id="edge8" class="edge">
<title>NgxEditorjsDemoModule&#45;&gt;AppModule</title>
<path fill="none" stroke="#000000" d="M105,-122.2921C105,-144.2057 105,-178 105,-178 105,-178 582.0481,-178 582.0481,-178"/>
<polygon fill="#000000" stroke="#000000" points="582.0481,-181.5001 592.0481,-178 582.0481,-174.5001 582.0481,-181.5001"/>
</g>
</g>
</svg>
