<?xml version="1.0" encoding="UTF-8" standalone="no"?>
<!DOCTYPE svg PUBLIC "-//W3C//DTD SVG 1.1//EN"
 "http://www.w3.org/Graphics/SVG/1.1/DTD/svg11.dtd">
<!-- Generated by graphviz version 2.40.1 (20161225.0304)
 -->
<!-- Title: dependencies Pages: 1 -->
<svg width="1439pt" height="284pt"
 viewBox="0.00 0.00 1439.00 284.00" xmlns="http://www.w3.org/2000/svg" xmlns:xlink="http://www.w3.org/1999/xlink">
<g id="graph0" class="graph" transform="scale(1 1) rotate(0) translate(4 280)">
<title>dependencies</title>
<polygon fill="#ffffff" stroke="transparent" points="-4,4 -4,-280 1435,-280 1435,4 -4,4"/>
<text text-anchor="start" x="694.5091" y="-42.4" font-family="sans-serif" font-weight="bold" font-size="14.00" fill="#000000">Legend</text>
<polygon fill="#ffffb3" stroke="transparent" points="481.5,-10 481.5,-30 501.5,-30 501.5,-10 481.5,-10"/>
<text text-anchor="start" x="505.129" y="-15.4" font-family="sans-serif" font-size="14.00" fill="#000000"> &#160;Declarations</text>
<polygon fill="#8dd3c7" stroke="transparent" points="594.5,-10 594.5,-30 614.5,-30 614.5,-10 594.5,-10"/>
<text text-anchor="start" x="618.2251" y="-15.4" font-family="sans-serif" font-size="14.00" fill="#000000"> &#160;Module</text>
<polygon fill="#80b1d3" stroke="transparent" points="680.5,-10 680.5,-30 700.5,-30 700.5,-10 680.5,-10"/>
<text text-anchor="start" x="704.2812" y="-15.4" font-family="sans-serif" font-size="14.00" fill="#000000"> &#160;Bootstrap</text>
<polygon fill="#fdb462" stroke="transparent" points="777.5,-10 777.5,-30 797.5,-30 797.5,-10 777.5,-10"/>
<text text-anchor="start" x="801.1732" y="-15.4" font-family="sans-serif" font-size="14.00" fill="#000000"> &#160;Providers</text>
<polygon fill="#fb8072" stroke="transparent" points="873.5,-10 873.5,-30 893.5,-30 893.5,-10 873.5,-10"/>
<text text-anchor="start" x="897.2258" y="-15.4" font-family="sans-serif" font-size="14.00" fill="#000000"> &#160;Exports</text>
<g id="clust1" class="cluster">
<title>cluster_AppModule</title>
<polygon fill="none" stroke="#000000" stroke-dasharray="1,5" points="8,-70 8,-268 1423,-268 1423,-70 8,-70"/>
</g>
<g id="clust2" class="cluster">
<title>cluster_AppModule_declarations</title>
<polygon fill="none" stroke="#000000" points="793,-78 793,-130 1415,-130 1415,-78 793,-78"/>
</g>
<g id="clust7" class="cluster">
<title>cluster_AppModule_imports</title>
<polygon fill="none" stroke="#000000" points="16,-78 16,-130 785,-130 785,-78 16,-78"/>
</g>
<g id="clust9" class="cluster">
<title>cluster_AppModule_bootstrap</title>
<polygon fill="none" stroke="#000000" points="623,-208 623,-260 803,-260 803,-208 623,-208"/>
</g>
<!-- AppContainerComponent -->
<g id="node1" class="node">
<title>AppContainerComponent</title>
<polygon fill="#ffffb3" stroke="#000000" points="1407.147,-122 1246.853,-122 1246.853,-86 1407.147,-86 1407.147,-122"/>
<text text-anchor="middle" x="1327" y="-99.8" font-family="Times,serif" font-size="14.00" fill="#000000">AppContainerComponent</text>
</g>
<!-- AppModule -->
<g id="node5" class="node">
<title>AppModule</title>
<polygon fill="#8dd3c7" stroke="#000000" points="754.6571,-187 751.6571,-191 730.6571,-191 727.6571,-187 671.3429,-187 671.3429,-151 754.6571,-151 754.6571,-187"/>
<text text-anchor="middle" x="713" y="-164.8" font-family="Times,serif" font-size="14.00" fill="#000000">AppModule</text>
</g>
<!-- AppContainerComponent&#45;&gt;AppModule -->
<g id="edge1" class="edge">
<title>AppContainerComponent&#45;&gt;AppModule</title>
<path fill="none" stroke="#000000" d="M1327,-122.0109C1327,-144.4852 1327,-180 1327,-180 1327,-180 764.72,-180 764.72,-180"/>
<polygon fill="#000000" stroke="#000000" points="764.72,-176.5001 754.72,-180 764.72,-183.5001 764.72,-176.5001"/>
</g>
<!-- HomePageComponent -->
<g id="node2" class="node">
<title>HomePageComponent</title>
<polygon fill="#ffffb3" stroke="#000000" points="1228.2562,-122 1085.7438,-122 1085.7438,-86 1228.2562,-86 1228.2562,-122"/>
<text text-anchor="middle" x="1157" y="-99.8" font-family="Times,serif" font-size="14.00" fill="#000000">HomePageComponent</text>
</g>
<!-- HomePageComponent&#45;&gt;AppModule -->
<g id="edge2" class="edge">
<title>HomePageComponent&#45;&gt;AppModule</title>
<path fill="none" stroke="#000000" d="M1157,-122.1289C1157,-142.5724 1157,-173 1157,-173 1157,-173 764.7704,-173 764.7704,-173"/>
<polygon fill="#000000" stroke="#000000" points="764.7705,-169.5001 754.7704,-173 764.7704,-176.5001 764.7705,-169.5001"/>
</g>
<!-- NavBarComponent -->
<g id="node3" class="node">
<title>NavBarComponent</title>
<polygon fill="#ffffb3" stroke="#000000" points="1067.3655,-122 942.6345,-122 942.6345,-86 1067.3655,-86 1067.3655,-122"/>
<text text-anchor="middle" x="1005" y="-99.8" font-family="Times,serif" font-size="14.00" fill="#000000">NavBarComponent</text>
</g>
<!-- NavBarComponent&#45;&gt;AppModule -->
<g id="edge3" class="edge">
<title>NavBarComponent&#45;&gt;AppModule</title>
<path fill="none" stroke="#000000" d="M1005,-122.2667C1005,-140.5552 1005,-166 1005,-166 1005,-166 764.8365,-166 764.8365,-166"/>
<polygon fill="#000000" stroke="#000000" points="764.8365,-162.5001 754.8365,-166 764.8364,-169.5001 764.8365,-162.5001"/>
</g>
<!-- SidebarComponent -->
<g id="node4" class="node">
<title>SidebarComponent</title>
<polygon fill="#ffffb3" stroke="#000000" points="925.0954,-122 800.9046,-122 800.9046,-86 925.0954,-86 925.0954,-122"/>
<text text-anchor="middle" x="863" y="-99.8" font-family="Times,serif" font-size="14.00" fill="#000000">SidebarComponent</text>
</g>
<!-- SidebarComponent&#45;&gt;AppModule -->
<g id="edge4" class="edge">
<title>SidebarComponent&#45;&gt;AppModule</title>
<path fill="none" stroke="#000000" d="M863,-122.0091C863,-138.0494 863,-159 863,-159 863,-159 764.7834,-159 764.7834,-159"/>
<polygon fill="#000000" stroke="#000000" points="764.7834,-155.5001 754.7834,-159 764.7833,-162.5001 764.7834,-155.5001"/>
</g>
<!-- AppContainerComponent  -->
<g id="node11" class="node">
<title>AppContainerComponent </title>
<polygon fill="#80b1d3" stroke="#000000" points="795.1467,-252 630.8533,-252 630.8533,-216 795.1467,-216 795.1467,-252"/>
<text text-anchor="middle" x="713" y="-229.8" font-family="Times,serif" font-size="14.00" fill="#000000">AppContainerComponent </text>
</g>
<!-- AppModule&#45;&gt;AppContainerComponent  -->
<g id="edge10" class="edge">
<title>AppModule&#45;&gt;AppContainerComponent </title>
<path fill="none" stroke="#000000" stroke-dasharray="1,5" d="M713,-187.1061C713,-187.1061 713,-205.991 713,-205.991"/>
<polygon fill="#000000" stroke="#000000" points="709.5001,-205.9909 713,-215.991 716.5001,-205.991 709.5001,-205.9909"/>
</g>
<!-- AppRoutingModule -->
<g id="node6" class="node">
<title>AppRoutingModule</title>
<polygon fill="#8dd3c7" stroke="#000000" points="777.2744,-122 774.2744,-126 753.2744,-126 750.2744,-122 648.7256,-122 648.7256,-86 777.2744,-86 777.2744,-122"/>
<text text-anchor="middle" x="713" y="-99.8" font-family="Times,serif" font-size="14.00" fill="#000000">AppRoutingModule</text>
</g>
<!-- AppRoutingModule&#45;&gt;AppModule -->
<g id="edge5" class="edge">
<title>AppRoutingModule&#45;&gt;AppModule</title>
<path fill="none" stroke="#000000" d="M713,-122.1061C713,-122.1061 713,-140.991 713,-140.991"/>
<polygon fill="#000000" stroke="#000000" points="709.5001,-140.9909 713,-150.991 716.5001,-140.991 709.5001,-140.9909"/>
</g>
<!-- ApplicationDataModule -->
<g id="node7" class="node">
<title>ApplicationDataModule</title>
<polygon fill="#8dd3c7" stroke="#000000" points="631.0744,-122 628.0744,-126 607.0744,-126 604.0744,-122 478.9256,-122 478.9256,-86 631.0744,-86 631.0744,-122"/>
<text text-anchor="middle" x="555" y="-99.8" font-family="Times,serif" font-size="14.00" fill="#000000">ApplicationDataModule</text>
</g>
<!-- ApplicationDataModule&#45;&gt;AppModule -->
<g id="edge6" class="edge">
<title>ApplicationDataModule&#45;&gt;AppModule</title>
<path fill="none" stroke="#000000" d="M554.9448,-122.0091C554.9448,-138.0494 554.9448,-159 554.9448,-159 554.9448,-159 661.0591,-159 661.0591,-159"/>
<polygon fill="#000000" stroke="#000000" points="661.0591,-162.5001 671.0591,-159 661.059,-155.5001 661.0591,-162.5001"/>
</g>
<!-- MaterialModule -->
<g id="node8" class="node">
<title>MaterialModule</title>
<polygon fill="#8dd3c7" stroke="#000000" points="460.4706,-122 457.4706,-126 436.4706,-126 433.4706,-122 353.5294,-122 353.5294,-86 460.4706,-86 460.4706,-122"/>
<text text-anchor="middle" x="407" y="-99.8" font-family="Times,serif" font-size="14.00" fill="#000000">MaterialModule</text>
</g>
<!-- MaterialModule&#45;&gt;AppModule -->
<g id="edge7" class="edge">
<title>MaterialModule&#45;&gt;AppModule</title>
<path fill="none" stroke="#000000" d="M407,-122.2667C407,-140.5552 407,-166 407,-166 407,-166 661.0936,-166 661.0936,-166"/>
<polygon fill="#000000" stroke="#000000" points="661.0937,-169.5001 671.0936,-166 661.0936,-162.5001 661.0937,-169.5001"/>
</g>
<!-- NgxEditorJSModule -->
<g id="node9" class="node">
<title>NgxEditorJSModule</title>
<polygon fill="#8dd3c7" stroke="#000000" points="335.8781,-122 332.8781,-126 311.8781,-126 308.8781,-122 204.1219,-122 204.1219,-86 335.8781,-86 335.8781,-122"/>
<text text-anchor="middle" x="270" y="-99.8" font-family="Times,serif" font-size="14.00" fill="#000000">NgxEditorJSModule</text>
</g>
<!-- NgxEditorJSModule&#45;&gt;AppModule -->
<g id="edge8" class="edge">
<title>NgxEditorJSModule&#45;&gt;AppModule</title>
<path fill="none" stroke="#000000" d="M270,-122.1289C270,-142.5724 270,-173 270,-173 270,-173 661.3236,-173 661.3236,-173"/>
<polygon fill="#000000" stroke="#000000" points="661.3237,-176.5001 671.3236,-173 661.3236,-169.5001 661.3237,-176.5001"/>
</g>
<!-- NgxEditorjsDemoModule -->
<g id="node10" class="node">
<title>NgxEditorjsDemoModule</title>
<polygon fill="#8dd3c7" stroke="#000000" points="186.1979,-122 183.1979,-126 162.1979,-126 159.1979,-122 23.8021,-122 23.8021,-86 186.1979,-86 186.1979,-122"/>
<text text-anchor="middle" x="105" y="-99.8" font-family="Times,serif" font-size="14.00" fill="#000000">NgxEditorjsDemoModule</text>
</g>
<!-- NgxEditorjsDemoModule&#45;&gt;AppModule -->
<g id="edge9" class="edge">
<title>NgxEditorjsDemoModule&#45;&gt;AppModule</title>
<path fill="none" stroke="#000000" d="M105,-122.0109C105,-144.4852 105,-180 105,-180 105,-180 661.2097,-180 661.2097,-180"/>
<polygon fill="#000000" stroke="#000000" points="661.2097,-183.5001 671.2097,-180 661.2097,-176.5001 661.2097,-183.5001"/>
</g>
</g>
</svg>
