<?xml version="1.0" encoding="UTF-8" standalone="no"?>
<!DOCTYPE svg PUBLIC "-//W3C//DTD SVG 1.1//EN"
 "http://www.w3.org/Graphics/SVG/1.1/DTD/svg11.dtd">
<!-- Generated by graphviz version 2.40.1 (20161225.0304)
 -->
<!-- Title: dependencies Pages: 1 -->
<svg width="1627pt" height="284pt"
 viewBox="0.00 0.00 1627.00 284.00" xmlns="http://www.w3.org/2000/svg" xmlns:xlink="http://www.w3.org/1999/xlink">
<g id="graph0" class="graph" transform="scale(1 1) rotate(0) translate(4 280)">
<title>dependencies</title>
<polygon fill="#ffffff" stroke="transparent" points="-4,4 -4,-280 1623,-280 1623,4 -4,4"/>
<text text-anchor="start" x="788.5091" y="-42.4" font-family="sans-serif" font-weight="bold" font-size="14.00" fill="#000000">Legend</text>
<polygon fill="#ffffb3" stroke="transparent" points="575.5,-10 575.5,-30 595.5,-30 595.5,-10 575.5,-10"/>
<text text-anchor="start" x="599.129" y="-15.4" font-family="sans-serif" font-size="14.00" fill="#000000"> &#160;Declarations</text>
<polygon fill="#8dd3c7" stroke="transparent" points="688.5,-10 688.5,-30 708.5,-30 708.5,-10 688.5,-10"/>
<text text-anchor="start" x="712.2251" y="-15.4" font-family="sans-serif" font-size="14.00" fill="#000000"> &#160;Module</text>
<polygon fill="#80b1d3" stroke="transparent" points="774.5,-10 774.5,-30 794.5,-30 794.5,-10 774.5,-10"/>
<text text-anchor="start" x="798.2812" y="-15.4" font-family="sans-serif" font-size="14.00" fill="#000000"> &#160;Bootstrap</text>
<polygon fill="#fdb462" stroke="transparent" points="871.5,-10 871.5,-30 891.5,-30 891.5,-10 871.5,-10"/>
<text text-anchor="start" x="895.1732" y="-15.4" font-family="sans-serif" font-size="14.00" fill="#000000"> &#160;Providers</text>
<polygon fill="#fb8072" stroke="transparent" points="967.5,-10 967.5,-30 987.5,-30 987.5,-10 967.5,-10"/>
<text text-anchor="start" x="991.2258" y="-15.4" font-family="sans-serif" font-size="14.00" fill="#000000"> &#160;Exports</text>
<g id="clust1" class="cluster">
<title>cluster_AppModule</title>
<polygon fill="none" stroke="#000000" stroke-dasharray="1,5" points="8,-70 8,-268 1611,-268 1611,-70 8,-70"/>
</g>
<g id="clust2" class="cluster">
<title>cluster_AppModule_declarations</title>
<polygon fill="none" stroke="#000000" points="981,-78 981,-130 1603,-130 1603,-78 981,-78"/>
</g>
<g id="clust7" class="cluster">
<title>cluster_AppModule_imports</title>
<polygon fill="none" stroke="#000000" points="16,-78 16,-130 973,-130 973,-78 16,-78"/>
</g>
<g id="clust9" class="cluster">
<title>cluster_AppModule_bootstrap</title>
<polygon fill="none" stroke="#000000" points="732,-208 732,-260 912,-260 912,-208 732,-208"/>
</g>
<!-- AppContainerComponent -->
<g id="node1" class="node">
<title>AppContainerComponent</title>
<polygon fill="#ffffb3" stroke="#000000" points="1595.147,-122 1434.853,-122 1434.853,-86 1595.147,-86 1595.147,-122"/>
<text text-anchor="middle" x="1515" y="-99.8" font-family="Times,serif" font-size="14.00" fill="#000000">AppContainerComponent</text>
</g>
<!-- AppModule -->
<g id="node5" class="node">
<title>AppModule</title>
<polygon fill="#8dd3c7" stroke="#000000" points="863.6571,-187 860.6571,-191 839.6571,-191 836.6571,-187 780.3429,-187 780.3429,-151 863.6571,-151 863.6571,-187"/>
<text text-anchor="middle" x="822" y="-164.8" font-family="Times,serif" font-size="14.00" fill="#000000">AppModule</text>
</g>
<!-- AppContainerComponent&#45;&gt;AppModule -->
<g id="edge1" class="edge">
<title>AppContainerComponent&#45;&gt;AppModule</title>
<path fill="none" stroke="#000000" d="M1515,-122.0109C1515,-144.4852 1515,-180 1515,-180 1515,-180 873.7896,-180 873.7896,-180"/>
<polygon fill="#000000" stroke="#000000" points="873.7897,-176.5001 863.7896,-180 873.7896,-183.5001 873.7897,-176.5001"/>
</g>
<!-- HomePageComponent -->
<g id="node2" class="node">
<title>HomePageComponent</title>
<polygon fill="#ffffb3" stroke="#000000" points="1416.2562,-122 1273.7438,-122 1273.7438,-86 1416.2562,-86 1416.2562,-122"/>
<text text-anchor="middle" x="1345" y="-99.8" font-family="Times,serif" font-size="14.00" fill="#000000">HomePageComponent</text>
</g>
<!-- HomePageComponent&#45;&gt;AppModule -->
<g id="edge2" class="edge">
<title>HomePageComponent&#45;&gt;AppModule</title>
<path fill="none" stroke="#000000" d="M1345,-122.1289C1345,-142.5724 1345,-173 1345,-173 1345,-173 873.9152,-173 873.9152,-173"/>
<polygon fill="#000000" stroke="#000000" points="873.9152,-169.5001 863.9152,-173 873.9152,-176.5001 873.9152,-169.5001"/>
</g>
<!-- NavBarComponent -->
<g id="node3" class="node">
<title>NavBarComponent</title>
<polygon fill="#ffffb3" stroke="#000000" points="1255.3655,-122 1130.6345,-122 1130.6345,-86 1255.3655,-86 1255.3655,-122"/>
<text text-anchor="middle" x="1193" y="-99.8" font-family="Times,serif" font-size="14.00" fill="#000000">NavBarComponent</text>
</g>
<!-- NavBarComponent&#45;&gt;AppModule -->
<g id="edge3" class="edge">
<title>NavBarComponent&#45;&gt;AppModule</title>
<path fill="none" stroke="#000000" d="M1193,-122.2667C1193,-140.5552 1193,-166 1193,-166 1193,-166 873.8372,-166 873.8372,-166"/>
<polygon fill="#000000" stroke="#000000" points="873.8373,-162.5001 863.8372,-166 873.8372,-169.5001 873.8373,-162.5001"/>
</g>
<!-- SidebarComponent -->
<g id="node4" class="node">
<title>SidebarComponent</title>
<polygon fill="#ffffb3" stroke="#000000" points="1113.0954,-122 988.9046,-122 988.9046,-86 1113.0954,-86 1113.0954,-122"/>
<text text-anchor="middle" x="1051" y="-99.8" font-family="Times,serif" font-size="14.00" fill="#000000">SidebarComponent</text>
</g>
<!-- SidebarComponent&#45;&gt;AppModule -->
<g id="edge4" class="edge">
<title>SidebarComponent&#45;&gt;AppModule</title>
<path fill="none" stroke="#000000" d="M1051,-122.0091C1051,-138.0494 1051,-159 1051,-159 1051,-159 873.7359,-159 873.7359,-159"/>
<polygon fill="#000000" stroke="#000000" points="873.7359,-155.5001 863.7359,-159 873.7358,-162.5001 873.7359,-155.5001"/>
</g>
<!-- AppContainerComponent  -->
<g id="node12" class="node">
<title>AppContainerComponent </title>
<polygon fill="#80b1d3" stroke="#000000" points="904.1467,-252 739.8533,-252 739.8533,-216 904.1467,-216 904.1467,-252"/>
<text text-anchor="middle" x="822" y="-229.8" font-family="Times,serif" font-size="14.00" fill="#000000">AppContainerComponent </text>
</g>
<!-- AppModule&#45;&gt;AppContainerComponent  -->
<g id="edge11" class="edge">
<title>AppModule&#45;&gt;AppContainerComponent </title>
<path fill="none" stroke="#000000" stroke-dasharray="1,5" d="M822,-187.1061C822,-187.1061 822,-205.991 822,-205.991"/>
<polygon fill="#000000" stroke="#000000" points="818.5001,-205.9909 822,-215.991 825.5001,-205.991 818.5001,-205.9909"/>
</g>
<!-- AppRoutingModule -->
<g id="node6" class="node">
<title>AppRoutingModule</title>
<polygon fill="#8dd3c7" stroke="#000000" points="965.2744,-122 962.2744,-126 941.2744,-126 938.2744,-122 836.7256,-122 836.7256,-86 965.2744,-86 965.2744,-122"/>
<text text-anchor="middle" x="901" y="-99.8" font-family="Times,serif" font-size="14.00" fill="#000000">AppRoutingModule</text>
</g>
<!-- AppRoutingModule&#45;&gt;AppModule -->
<g id="edge5" class="edge">
<title>AppRoutingModule&#45;&gt;AppModule</title>
<path fill="none" stroke="#000000" d="M850.2206,-122.1061C850.2206,-122.1061 850.2206,-140.991 850.2206,-140.991"/>
<polygon fill="#000000" stroke="#000000" points="846.7206,-140.9909 850.2206,-150.991 853.7206,-140.991 846.7206,-140.9909"/>
</g>
<!-- ApplicationDataModule -->
<g id="node7" class="node">
<title>ApplicationDataModule</title>
<polygon fill="#8dd3c7" stroke="#000000" points="819.0744,-122 816.0744,-126 795.0744,-126 792.0744,-122 666.9256,-122 666.9256,-86 819.0744,-86 819.0744,-122"/>
<text text-anchor="middle" x="743" y="-99.8" font-family="Times,serif" font-size="14.00" fill="#000000">ApplicationDataModule</text>
</g>
<!-- ApplicationDataModule&#45;&gt;AppModule -->
<g id="edge6" class="edge">
<title>ApplicationDataModule&#45;&gt;AppModule</title>
<path fill="none" stroke="#000000" d="M799.6045,-122.1061C799.6045,-122.1061 799.6045,-140.991 799.6045,-140.991"/>
<polygon fill="#000000" stroke="#000000" points="796.1046,-140.9909 799.6045,-150.991 803.1046,-140.991 796.1046,-140.9909"/>
</g>
<!-- MaterialModule -->
<g id="node8" class="node">
<title>MaterialModule</title>
<polygon fill="#8dd3c7" stroke="#000000" points="648.4706,-122 645.4706,-126 624.4706,-126 621.4706,-122 541.5294,-122 541.5294,-86 648.4706,-86 648.4706,-122"/>
<text text-anchor="middle" x="595" y="-99.8" font-family="Times,serif" font-size="14.00" fill="#000000">MaterialModule</text>
</g>
<!-- MaterialModule&#45;&gt;AppModule -->
<g id="edge7" class="edge">
<title>MaterialModule&#45;&gt;AppModule</title>
<path fill="none" stroke="#000000" d="M595,-122.0091C595,-138.0494 595,-159 595,-159 595,-159 770.1002,-159 770.1002,-159"/>
<polygon fill="#000000" stroke="#000000" points="770.1002,-162.5001 780.1002,-159 770.1001,-155.5001 770.1002,-162.5001"/>
</g>
<!-- NgxEditorJSModule -->
<g id="node9" class="node">
<title>NgxEditorJSModule</title>
<polygon fill="#8dd3c7" stroke="#000000" points="523.8781,-122 520.8781,-126 499.8781,-126 496.8781,-122 392.1219,-122 392.1219,-86 523.8781,-86 523.8781,-122"/>
<text text-anchor="middle" x="458" y="-99.8" font-family="Times,serif" font-size="14.00" fill="#000000">NgxEditorJSModule</text>
</g>
<!-- NgxEditorJSModule&#45;&gt;AppModule -->
<g id="edge8" class="edge">
<title>NgxEditorJSModule&#45;&gt;AppModule</title>
<path fill="none" stroke="#000000" d="M458,-122.2667C458,-140.5552 458,-166 458,-166 458,-166 770.2446,-166 770.2446,-166"/>
<polygon fill="#000000" stroke="#000000" points="770.2446,-169.5001 780.2446,-166 770.2445,-162.5001 770.2446,-169.5001"/>
</g>
<!-- NgxEditorjsDemoModule -->
<g id="node10" class="node">
<title>NgxEditorjsDemoModule</title>
<polygon fill="#8dd3c7" stroke="#000000" points="374.1979,-122 371.1979,-126 350.1979,-126 347.1979,-122 211.8021,-122 211.8021,-86 374.1979,-86 374.1979,-122"/>
<text text-anchor="middle" x="293" y="-99.8" font-family="Times,serif" font-size="14.00" fill="#000000">NgxEditorjsDemoModule</text>
</g>
<!-- NgxEditorjsDemoModule&#45;&gt;AppModule -->
<g id="edge9" class="edge">
<title>NgxEditorjsDemoModule&#45;&gt;AppModule</title>
<path fill="none" stroke="#000000" d="M293,-122.1289C293,-142.5724 293,-173 293,-173 293,-173 770.0481,-173 770.0481,-173"/>
<polygon fill="#000000" stroke="#000000" points="770.0481,-176.5001 780.0481,-173 770.0481,-169.5001 770.0481,-176.5001"/>
</g>
<!-- NgxTinynodesCoreModule -->
<g id="node11" class="node">
<title>NgxTinynodesCoreModule</title>
<polygon fill="#8dd3c7" stroke="#000000" points="193.9706,-122 190.9706,-126 169.9706,-126 166.9706,-122 24.0294,-122 24.0294,-86 193.9706,-86 193.9706,-122"/>
<text text-anchor="middle" x="109" y="-99.8" font-family="Times,serif" font-size="14.00" fill="#000000">NgxTinynodesCoreModule</text>
</g>
<!-- NgxTinynodesCoreModule&#45;&gt;AppModule -->
<g id="edge10" class="edge">
<title>NgxTinynodesCoreModule&#45;&gt;AppModule</title>
<path fill="none" stroke="#000000" d="M109,-122.0109C109,-144.4852 109,-180 109,-180 109,-180 770.3227,-180 770.3227,-180"/>
<polygon fill="#000000" stroke="#000000" points="770.3228,-183.5001 780.3227,-180 770.3227,-176.5001 770.3228,-183.5001"/>
</g>
</g>
</svg>
