<?xml version="1.0" encoding="UTF-8" standalone="no"?>
<!DOCTYPE svg PUBLIC "-//W3C//DTD SVG 1.1//EN"
 "http://www.w3.org/Graphics/SVG/1.1/DTD/svg11.dtd">
<!-- Generated by graphviz version 2.40.1 (20161225.0304)
 -->
<!-- Title: dependencies Pages: 1 -->
<svg width="782pt" height="284pt"
 viewBox="0.00 0.00 782.00 284.00" xmlns="http://www.w3.org/2000/svg" xmlns:xlink="http://www.w3.org/1999/xlink">
<g id="graph0" class="graph" transform="scale(1 1) rotate(0) translate(4 280)">
<title>dependencies</title>
<polygon fill="#ffffff" stroke="transparent" points="-4,4 -4,-280 778,-280 778,4 -4,4"/>
<text text-anchor="start" x="366.0091" y="-42.4" font-family="sans-serif" font-weight="bold" font-size="14.00" fill="#000000">Legend</text>
<polygon fill="#ffffb3" stroke="transparent" points="153,-10 153,-30 173,-30 173,-10 153,-10"/>
<text text-anchor="start" x="176.629" y="-15.4" font-family="sans-serif" font-size="14.00" fill="#000000"> &#160;Declarations</text>
<polygon fill="#8dd3c7" stroke="transparent" points="266,-10 266,-30 286,-30 286,-10 266,-10"/>
<text text-anchor="start" x="289.7251" y="-15.4" font-family="sans-serif" font-size="14.00" fill="#000000"> &#160;Module</text>
<polygon fill="#80b1d3" stroke="transparent" points="352,-10 352,-30 372,-30 372,-10 352,-10"/>
<text text-anchor="start" x="375.7812" y="-15.4" font-family="sans-serif" font-size="14.00" fill="#000000"> &#160;Bootstrap</text>
<polygon fill="#fdb462" stroke="transparent" points="449,-10 449,-30 469,-30 469,-10 449,-10"/>
<text text-anchor="start" x="472.6732" y="-15.4" font-family="sans-serif" font-size="14.00" fill="#000000"> &#160;Providers</text>
<polygon fill="#fb8072" stroke="transparent" points="545,-10 545,-30 565,-30 565,-10 545,-10"/>
<text text-anchor="start" x="568.7258" y="-15.4" font-family="sans-serif" font-size="14.00" fill="#000000"> &#160;Exports</text>
<g id="clust1" class="cluster">
<title>cluster_AppModule</title>
<polygon fill="none" stroke="#000000" stroke-dasharray="1,5" points="8,-70 8,-268 766,-268 766,-70 8,-70"/>
</g>
<g id="clust2" class="cluster">
<title>cluster_AppModule_declarations</title>
<polygon fill="none" stroke="#000000" points="352,-78 352,-130 758,-130 758,-78 352,-78"/>
</g>
<g id="clust6" class="cluster">
<title>cluster_AppModule_imports</title>
<polygon fill="none" stroke="#000000" points="16,-78 16,-130 344,-130 344,-78 16,-78"/>
</g>
<g id="clust8" class="cluster">
<title>cluster_AppModule_bootstrap</title>
<polygon fill="none" stroke="#000000" points="360,-208 360,-260 484,-260 484,-208 360,-208"/>
</g>
<!-- AppComponent -->
<g id="node1" class="node">
<title>AppComponent</title>
<polygon fill="#ffffb3" stroke="#000000" points="749.9399,-122 644.0601,-122 644.0601,-86 749.9399,-86 749.9399,-122"/>
<text text-anchor="middle" x="697" y="-99.8" font-family="Times,serif" font-size="14.00" fill="#000000">AppComponent</text>
</g>
<!-- AppModule -->
<g id="node4" class="node">
<title>AppModule</title>
<polygon fill="#8dd3c7" stroke="#000000" points="463.6571,-187 460.6571,-191 439.6571,-191 436.6571,-187 380.3429,-187 380.3429,-151 463.6571,-151 463.6571,-187"/>
<text text-anchor="middle" x="422" y="-164.8" font-family="Times,serif" font-size="14.00" fill="#000000">AppModule</text>
</g>
<!-- AppComponent&#45;&gt;AppModule -->
<g id="edge1" class="edge">
<title>AppComponent&#45;&gt;AppModule</title>
<path fill="none" stroke="#000000" d="M697,-122.2843C697,-143.3211 697,-175 697,-175 697,-175 473.7666,-175 473.7666,-175"/>
<polygon fill="#000000" stroke="#000000" points="473.7666,-171.5001 463.7666,-175 473.7665,-178.5001 473.7666,-171.5001"/>
</g>
<!-- NavBarComponent -->
<g id="node2" class="node">
<title>NavBarComponent</title>
<polygon fill="#ffffb3" stroke="#000000" points="626.3655,-122 501.6345,-122 501.6345,-86 626.3655,-86 626.3655,-122"/>
<text text-anchor="middle" x="564" y="-99.8" font-family="Times,serif" font-size="14.00" fill="#000000">NavBarComponent</text>
</g>
<!-- NavBarComponent&#45;&gt;AppModule -->
<g id="edge2" class="edge">
<title>NavBarComponent&#45;&gt;AppModule</title>
<path fill="none" stroke="#000000" d="M564,-122.0225C564,-139.3734 564,-163 564,-163 564,-163 473.8367,-163 473.8367,-163"/>
<polygon fill="#000000" stroke="#000000" points="473.8367,-159.5001 463.8367,-163 473.8366,-166.5001 473.8367,-159.5001"/>
</g>
<!-- SidebarComponent -->
<g id="node3" class="node">
<title>SidebarComponent</title>
<polygon fill="#ffffb3" stroke="#000000" points="484.0954,-122 359.9046,-122 359.9046,-86 484.0954,-86 484.0954,-122"/>
<text text-anchor="middle" x="422" y="-99.8" font-family="Times,serif" font-size="14.00" fill="#000000">SidebarComponent</text>
</g>
<!-- SidebarComponent&#45;&gt;AppModule -->
<g id="edge3" class="edge">
<title>SidebarComponent&#45;&gt;AppModule</title>
<path fill="none" stroke="#000000" d="M422,-122.1061C422,-122.1061 422,-140.991 422,-140.991"/>
<polygon fill="#000000" stroke="#000000" points="418.5001,-140.9909 422,-150.991 425.5001,-140.991 418.5001,-140.9909"/>
</g>
<!-- AppComponent  -->
<g id="node7" class="node">
<title>AppComponent </title>
<polygon fill="#80b1d3" stroke="#000000" points="476.439,-252 367.561,-252 367.561,-216 476.439,-216 476.439,-252"/>
<text text-anchor="middle" x="422" y="-229.8" font-family="Times,serif" font-size="14.00" fill="#000000">AppComponent </text>
</g>
<!-- AppModule&#45;&gt;AppComponent  -->
<g id="edge6" class="edge">
<title>AppModule&#45;&gt;AppComponent </title>
<path fill="none" stroke="#000000" stroke-dasharray="1,5" d="M422,-187.1061C422,-187.1061 422,-205.991 422,-205.991"/>
<polygon fill="#000000" stroke="#000000" points="418.5001,-205.9909 422,-215.991 425.5001,-205.991 418.5001,-205.9909"/>
</g>
<!-- NgxEditorJSModule -->
<g id="node5" class="node">
<title>NgxEditorJSModule</title>
<polygon fill="#8dd3c7" stroke="#000000" points="335.8781,-122 332.8781,-126 311.8781,-126 308.8781,-122 204.1219,-122 204.1219,-86 335.8781,-86 335.8781,-122"/>
<text text-anchor="middle" x="270" y="-99.8" font-family="Times,serif" font-size="14.00" fill="#000000">NgxEditorJSModule</text>
</g>
<!-- NgxEditorJSModule&#45;&gt;AppModule -->
<g id="edge4" class="edge">
<title>NgxEditorJSModule&#45;&gt;AppModule</title>
<path fill="none" stroke="#000000" d="M270,-122.0225C270,-139.3734 270,-163 270,-163 270,-163 370.063,-163 370.063,-163"/>
<polygon fill="#000000" stroke="#000000" points="370.063,-166.5001 380.063,-163 370.0629,-159.5001 370.063,-166.5001"/>
</g>
<!-- NgxEditorjsDemoModule -->
<g id="node6" class="node">
<title>NgxEditorjsDemoModule</title>
<polygon fill="#8dd3c7" stroke="#000000" points="186.1979,-122 183.1979,-126 162.1979,-126 159.1979,-122 23.8021,-122 23.8021,-86 186.1979,-86 186.1979,-122"/>
<text text-anchor="middle" x="105" y="-99.8" font-family="Times,serif" font-size="14.00" fill="#000000">NgxEditorjsDemoModule</text>
</g>
<!-- NgxEditorjsDemoModule&#45;&gt;AppModule -->
<g id="edge5" class="edge">
<title>NgxEditorjsDemoModule&#45;&gt;AppModule</title>
<path fill="none" stroke="#000000" d="M105,-122.2843C105,-143.3211 105,-175 105,-175 105,-175 370.2318,-175 370.2318,-175"/>
<polygon fill="#000000" stroke="#000000" points="370.2318,-178.5001 380.2318,-175 370.2318,-171.5001 370.2318,-178.5001"/>
</g>
</g>
</svg>
