<?xml version="1.0" encoding="UTF-8" standalone="no"?>
<!DOCTYPE svg PUBLIC "-//W3C//DTD SVG 1.1//EN"
 "http://www.w3.org/Graphics/SVG/1.1/DTD/svg11.dtd">
<!-- Generated by graphviz version 2.40.1 (20161225.0304)
 -->
<!-- Title: dependencies Pages: 1 -->
<svg width="1077pt" height="284pt"
 viewBox="0.00 0.00 1077.00 284.00" xmlns="http://www.w3.org/2000/svg" xmlns:xlink="http://www.w3.org/1999/xlink">
<g id="graph0" class="graph" transform="scale(1 1) rotate(0) translate(4 280)">
<title>dependencies</title>
<polygon fill="#ffffff" stroke="transparent" points="-4,4 -4,-280 1073,-280 1073,4 -4,4"/>
<text text-anchor="start" x="513.5091" y="-42.4" font-family="sans-serif" font-weight="bold" font-size="14.00" fill="#000000">Legend</text>
<polygon fill="#ffffb3" stroke="transparent" points="300.5,-10 300.5,-30 320.5,-30 320.5,-10 300.5,-10"/>
<text text-anchor="start" x="324.129" y="-15.4" font-family="sans-serif" font-size="14.00" fill="#000000"> &#160;Declarations</text>
<polygon fill="#8dd3c7" stroke="transparent" points="413.5,-10 413.5,-30 433.5,-30 433.5,-10 413.5,-10"/>
<text text-anchor="start" x="437.2251" y="-15.4" font-family="sans-serif" font-size="14.00" fill="#000000"> &#160;Module</text>
<polygon fill="#80b1d3" stroke="transparent" points="499.5,-10 499.5,-30 519.5,-30 519.5,-10 499.5,-10"/>
<text text-anchor="start" x="523.2812" y="-15.4" font-family="sans-serif" font-size="14.00" fill="#000000"> &#160;Bootstrap</text>
<polygon fill="#fdb462" stroke="transparent" points="596.5,-10 596.5,-30 616.5,-30 616.5,-10 596.5,-10"/>
<text text-anchor="start" x="620.1732" y="-15.4" font-family="sans-serif" font-size="14.00" fill="#000000"> &#160;Providers</text>
<polygon fill="#fb8072" stroke="transparent" points="692.5,-10 692.5,-30 712.5,-30 712.5,-10 692.5,-10"/>
<text text-anchor="start" x="716.2258" y="-15.4" font-family="sans-serif" font-size="14.00" fill="#000000"> &#160;Exports</text>
<g id="clust1" class="cluster">
<title>cluster_AppModule</title>
<polygon fill="none" stroke="#000000" stroke-dasharray="1,5" points="8,-70 8,-268 1061,-268 1061,-70 8,-70"/>
</g>
<g id="clust2" class="cluster">
<title>cluster_AppModule_declarations</title>
<polygon fill="none" stroke="#000000" points="647,-78 647,-130 1053,-130 1053,-78 647,-78"/>
</g>
<g id="clust6" class="cluster">
<title>cluster_AppModule_imports</title>
<polygon fill="none" stroke="#000000" points="16,-78 16,-130 639,-130 639,-78 16,-78"/>
</g>
<g id="clust8" class="cluster">
<title>cluster_AppModule_bootstrap</title>
<polygon fill="none" stroke="#000000" points="493,-208 493,-260 617,-260 617,-208 493,-208"/>
</g>
<!-- AppComponent -->
<g id="node1" class="node">
<title>AppComponent</title>
<polygon fill="#ffffb3" stroke="#000000" points="1044.9399,-122 939.0601,-122 939.0601,-86 1044.9399,-86 1044.9399,-122"/>
<text text-anchor="middle" x="992" y="-99.8" font-family="Times,serif" font-size="14.00" fill="#000000">AppComponent</text>
</g>
<!-- AppModule -->
<g id="node4" class="node">
<title>AppModule</title>
<polygon fill="#8dd3c7" stroke="#000000" points="596.6571,-187 593.6571,-191 572.6571,-191 569.6571,-187 513.3429,-187 513.3429,-151 596.6571,-151 596.6571,-187"/>
<text text-anchor="middle" x="555" y="-164.8" font-family="Times,serif" font-size="14.00" fill="#000000">AppModule</text>
</g>
<!-- AppComponent&#45;&gt;AppModule -->
<g id="edge1" class="edge">
<title>AppComponent&#45;&gt;AppModule</title>
<path fill="none" stroke="#000000" d="M992,-122.2921C992,-144.2057 992,-178 992,-178 992,-178 606.9014,-178 606.9014,-178"/>
<polygon fill="#000000" stroke="#000000" points="606.9014,-174.5001 596.9014,-178 606.9014,-181.5001 606.9014,-174.5001"/>
</g>
<!-- NavBarComponent -->
<g id="node2" class="node">
<title>NavBarComponent</title>
<polygon fill="#ffffb3" stroke="#000000" points="921.3655,-122 796.6345,-122 796.6345,-86 921.3655,-86 921.3655,-122"/>
<text text-anchor="middle" x="859" y="-99.8" font-family="Times,serif" font-size="14.00" fill="#000000">NavBarComponent</text>
</g>
<!-- NavBarComponent&#45;&gt;AppModule -->
<g id="edge2" class="edge">
<title>NavBarComponent&#45;&gt;AppModule</title>
<path fill="none" stroke="#000000" d="M859,-122.1061C859,-141.3391 859,-169 859,-169 859,-169 606.9507,-169 606.9507,-169"/>
<polygon fill="#000000" stroke="#000000" points="606.9508,-165.5001 596.9507,-169 606.9507,-172.5001 606.9508,-165.5001"/>
</g>
<!-- SidebarComponent -->
<g id="node3" class="node">
<title>SidebarComponent</title>
<polygon fill="#ffffb3" stroke="#000000" points="779.0954,-122 654.9046,-122 654.9046,-86 779.0954,-86 779.0954,-122"/>
<text text-anchor="middle" x="717" y="-99.8" font-family="Times,serif" font-size="14.00" fill="#000000">SidebarComponent</text>
</g>
<!-- SidebarComponent&#45;&gt;AppModule -->
<g id="edge3" class="edge">
<title>SidebarComponent&#45;&gt;AppModule</title>
<path fill="none" stroke="#000000" d="M717,-122.027C717,-138.3976 717,-160 717,-160 717,-160 606.719,-160 606.719,-160"/>
<polygon fill="#000000" stroke="#000000" points="606.7191,-156.5001 596.719,-160 606.719,-163.5001 606.7191,-156.5001"/>
</g>
<!-- AppComponent  -->
<g id="node9" class="node">
<title>AppComponent </title>
<polygon fill="#80b1d3" stroke="#000000" points="609.439,-252 500.561,-252 500.561,-216 609.439,-216 609.439,-252"/>
<text text-anchor="middle" x="555" y="-229.8" font-family="Times,serif" font-size="14.00" fill="#000000">AppComponent </text>
</g>
<!-- AppModule&#45;&gt;AppComponent  -->
<g id="edge8" class="edge">
<title>AppModule&#45;&gt;AppComponent </title>
<path fill="none" stroke="#000000" stroke-dasharray="1,5" d="M555,-187.1061C555,-187.1061 555,-205.991 555,-205.991"/>
<polygon fill="#000000" stroke="#000000" points="551.5001,-205.9909 555,-215.991 558.5001,-205.991 551.5001,-205.9909"/>
</g>
<!-- ApplicationDataModule -->
<g id="node5" class="node">
<title>ApplicationDataModule</title>
<polygon fill="#8dd3c7" stroke="#000000" points="631.0744,-122 628.0744,-126 607.0744,-126 604.0744,-122 478.9256,-122 478.9256,-86 631.0744,-86 631.0744,-122"/>
<text text-anchor="middle" x="555" y="-99.8" font-family="Times,serif" font-size="14.00" fill="#000000">ApplicationDataModule</text>
</g>
<!-- ApplicationDataModule&#45;&gt;AppModule -->
<g id="edge4" class="edge">
<title>ApplicationDataModule&#45;&gt;AppModule</title>
<path fill="none" stroke="#000000" d="M555,-122.1061C555,-122.1061 555,-140.991 555,-140.991"/>
<polygon fill="#000000" stroke="#000000" points="551.5001,-140.9909 555,-150.991 558.5001,-140.991 551.5001,-140.9909"/>
</g>
<!-- MaterialModule -->
<g id="node6" class="node">
<title>MaterialModule</title>
<polygon fill="#8dd3c7" stroke="#000000" points="460.4706,-122 457.4706,-126 436.4706,-126 433.4706,-122 353.5294,-122 353.5294,-86 460.4706,-86 460.4706,-122"/>
<text text-anchor="middle" x="407" y="-99.8" font-family="Times,serif" font-size="14.00" fill="#000000">MaterialModule</text>
</g>
<!-- MaterialModule&#45;&gt;AppModule -->
<g id="edge5" class="edge">
<title>MaterialModule&#45;&gt;AppModule</title>
<path fill="none" stroke="#000000" d="M407,-122.027C407,-138.3976 407,-160 407,-160 407,-160 502.985,-160 502.985,-160"/>
<polygon fill="#000000" stroke="#000000" points="502.9851,-163.5001 512.985,-160 502.985,-156.5001 502.9851,-163.5001"/>
</g>
<!-- NgxEditorJSModule -->
<g id="node7" class="node">
<title>NgxEditorJSModule</title>
<polygon fill="#8dd3c7" stroke="#000000" points="335.8781,-122 332.8781,-126 311.8781,-126 308.8781,-122 204.1219,-122 204.1219,-86 335.8781,-86 335.8781,-122"/>
<text text-anchor="middle" x="270" y="-99.8" font-family="Times,serif" font-size="14.00" fill="#000000">NgxEditorJSModule</text>
</g>
<!-- NgxEditorJSModule&#45;&gt;AppModule -->
<g id="edge6" class="edge">
<title>NgxEditorJSModule&#45;&gt;AppModule</title>
<path fill="none" stroke="#000000" d="M270,-122.1061C270,-141.3391 270,-169 270,-169 270,-169 503.2533,-169 503.2533,-169"/>
<polygon fill="#000000" stroke="#000000" points="503.2534,-172.5001 513.2533,-169 503.2533,-165.5001 503.2534,-172.5001"/>
</g>
<!-- NgxEditorjsDemoModule -->
<g id="node8" class="node">
<title>NgxEditorjsDemoModule</title>
<polygon fill="#8dd3c7" stroke="#000000" points="186.1979,-122 183.1979,-126 162.1979,-126 159.1979,-122 23.8021,-122 23.8021,-86 186.1979,-86 186.1979,-122"/>
<text text-anchor="middle" x="105" y="-99.8" font-family="Times,serif" font-size="14.00" fill="#000000">NgxEditorjsDemoModule</text>
</g>
<!-- NgxEditorjsDemoModule&#45;&gt;AppModule -->
<g id="edge7" class="edge">
<title>NgxEditorjsDemoModule&#45;&gt;AppModule</title>
<path fill="none" stroke="#000000" d="M105,-122.2921C105,-144.2057 105,-178 105,-178 105,-178 503.0692,-178 503.0692,-178"/>
<polygon fill="#000000" stroke="#000000" points="503.0692,-181.5001 513.0692,-178 503.0692,-174.5001 503.0692,-181.5001"/>
</g>
</g>
</svg>
