<?xml version="1.0" encoding="UTF-8" standalone="no"?>
<!DOCTYPE svg PUBLIC "-//W3C//DTD SVG 1.1//EN"
 "http://www.w3.org/Graphics/SVG/1.1/DTD/svg11.dtd">
<!-- Generated by graphviz version 2.40.1 (20161225.0304)
 -->
<!-- Title: dependencies Pages: 1 -->
<svg width="683pt" height="284pt"
 viewBox="0.00 0.00 683.00 284.00" xmlns="http://www.w3.org/2000/svg" xmlns:xlink="http://www.w3.org/1999/xlink">
<g id="graph0" class="graph" transform="scale(1 1) rotate(0) translate(4 280)">
<title>dependencies</title>
<polygon fill="#ffffff" stroke="transparent" points="-4,4 -4,-280 679,-280 679,4 -4,4"/>
<text text-anchor="start" x="316.5091" y="-42.4" font-family="sans-serif" font-weight="bold" font-size="14.00" fill="#000000">Legend</text>
<polygon fill="#ffffb3" stroke="transparent" points="103.5,-10 103.5,-30 123.5,-30 123.5,-10 103.5,-10"/>
<text text-anchor="start" x="127.129" y="-15.4" font-family="sans-serif" font-size="14.00" fill="#000000"> &#160;Declarations</text>
<polygon fill="#8dd3c7" stroke="transparent" points="216.5,-10 216.5,-30 236.5,-30 236.5,-10 216.5,-10"/>
<text text-anchor="start" x="240.2251" y="-15.4" font-family="sans-serif" font-size="14.00" fill="#000000"> &#160;Module</text>
<polygon fill="#80b1d3" stroke="transparent" points="302.5,-10 302.5,-30 322.5,-30 322.5,-10 302.5,-10"/>
<text text-anchor="start" x="326.2812" y="-15.4" font-family="sans-serif" font-size="14.00" fill="#000000"> &#160;Bootstrap</text>
<polygon fill="#fdb462" stroke="transparent" points="399.5,-10 399.5,-30 419.5,-30 419.5,-10 399.5,-10"/>
<text text-anchor="start" x="423.1732" y="-15.4" font-family="sans-serif" font-size="14.00" fill="#000000"> &#160;Providers</text>
<polygon fill="#fb8072" stroke="transparent" points="495.5,-10 495.5,-30 515.5,-30 515.5,-10 495.5,-10"/>
<text text-anchor="start" x="519.2258" y="-15.4" font-family="sans-serif" font-size="14.00" fill="#000000"> &#160;Exports</text>
<g id="clust1" class="cluster">
<title>cluster_NgxTinynodesCoreModule</title>
<polygon fill="none" stroke="#000000" stroke-dasharray="1,5" points="8,-70 8,-268 667,-268 667,-70 8,-70"/>
</g>
<g id="clust2" class="cluster">
<title>cluster_NgxTinynodesCoreModule_declarations</title>
<polygon fill="none" stroke="#000000" points="431,-78 431,-130 659,-130 659,-78 431,-78"/>
</g>
<g id="clust4" class="cluster">
<title>cluster_NgxTinynodesCoreModule_imports</title>
<polygon fill="none" stroke="#000000" points="19,-78 19,-130 423,-130 423,-78 19,-78"/>
</g>
<g id="clust5" class="cluster">
<title>cluster_NgxTinynodesCoreModule_exports</title>
<polygon fill="none" stroke="#000000" points="16,-208 16,-260 659,-260 659,-208 16,-208"/>
</g>
<!-- NgxEditorJSDemoInfoComponent -->
<g id="node1" class="node">
<title>NgxEditorJSDemoInfoComponent</title>
<polygon fill="#ffffb3" stroke="#000000" points="650.6937,-122 439.3063,-122 439.3063,-86 650.6937,-86 650.6937,-122"/>
<text text-anchor="middle" x="545" y="-99.8" font-family="Times,serif" font-size="14.00" fill="#000000">NgxEditorJSDemoInfoComponent</text>
</g>
<!-- NgxTinynodesCoreModule -->
<g id="node2" class="node">
<title>NgxTinynodesCoreModule</title>
<polygon fill="#8dd3c7" stroke="#000000" points="438.9706,-187 435.9706,-191 414.9706,-191 411.9706,-187 269.0294,-187 269.0294,-151 438.9706,-151 438.9706,-187"/>
<text text-anchor="middle" x="354" y="-164.8" font-family="Times,serif" font-size="14.00" fill="#000000">NgxTinynodesCoreModule</text>
</g>
<!-- NgxEditorJSDemoInfoComponent&#45;&gt;NgxTinynodesCoreModule -->
<g id="edge1" class="edge">
<title>NgxEditorJSDemoInfoComponent&#45;&gt;NgxTinynodesCoreModule</title>
<path fill="none" stroke="#000000" d="M439.1937,-104C431.694,-104 427.0113,-104 427.0113,-104 427.0113,-104 427.0113,-140.8939 427.0113,-140.8939"/>
<polygon fill="#000000" stroke="#000000" points="423.5113,-140.8938 427.0113,-150.8939 430.5113,-140.8939 423.5113,-140.8938"/>
</g>
<!-- ApplicationDataModule  -->
<g id="node5" class="node">
<title>ApplicationDataModule </title>
<polygon fill="#fb8072" stroke="#000000" points="650.575,-252 495.425,-252 495.425,-216 650.575,-216 650.575,-252"/>
<text text-anchor="middle" x="573" y="-229.8" font-family="Times,serif" font-size="14.00" fill="#000000">ApplicationDataModule </text>
</g>
<!-- NgxTinynodesCoreModule&#45;&gt;ApplicationDataModule  -->
<g id="edge4" class="edge">
<title>NgxTinynodesCoreModule&#45;&gt;ApplicationDataModule </title>
<path fill="none" stroke="#000000" stroke-dasharray="5,2" d="M439.2611,-169C500.7259,-169 572.9048,-169 572.9048,-169 572.9048,-169 572.9048,-205.8939 572.9048,-205.8939"/>
<polygon fill="#000000" stroke="#000000" points="569.4049,-205.8938 572.9048,-215.8939 576.4049,-205.8939 569.4049,-205.8938"/>
</g>
<!-- NgxEditorJSDemoInfoComponent  -->
<g id="node6" class="node">
<title>NgxEditorJSDemoInfoComponent </title>
<polygon fill="#fb8072" stroke="#000000" points="477.1938,-252 262.8062,-252 262.8062,-216 477.1938,-216 477.1938,-252"/>
<text text-anchor="middle" x="370" y="-229.8" font-family="Times,serif" font-size="14.00" fill="#000000">NgxEditorJSDemoInfoComponent </text>
</g>
<!-- NgxTinynodesCoreModule&#45;&gt;NgxEditorJSDemoInfoComponent  -->
<g id="edge5" class="edge">
<title>NgxTinynodesCoreModule&#45;&gt;NgxEditorJSDemoInfoComponent </title>
<path fill="none" stroke="#000000" stroke-dasharray="5,2" d="M354,-187.1061C354,-187.1061 354,-205.991 354,-205.991"/>
<polygon fill="#000000" stroke="#000000" points="350.5001,-205.9909 354,-215.991 357.5001,-205.991 350.5001,-205.9909"/>
</g>
<!-- NgxTinynodesCoreMaterialModule  -->
<g id="node7" class="node">
<title>NgxTinynodesCoreMaterialModule </title>
<polygon fill="#fb8072" stroke="#000000" points="244.3914,-252 23.6086,-252 23.6086,-216 244.3914,-216 244.3914,-252"/>
<text text-anchor="middle" x="134" y="-229.8" font-family="Times,serif" font-size="14.00" fill="#000000">NgxTinynodesCoreMaterialModule </text>
</g>
<!-- NgxTinynodesCoreModule&#45;&gt;NgxTinynodesCoreMaterialModule  -->
<g id="edge6" class="edge">
<title>NgxTinynodesCoreModule&#45;&gt;NgxTinynodesCoreMaterialModule </title>
<path fill="none" stroke="#000000" stroke-dasharray="5,2" d="M268.9631,-175C195.0319,-175 99.6848,-175 99.6848,-175 99.6848,-175 99.6848,-205.9775 99.6848,-205.9775"/>
<polygon fill="#000000" stroke="#000000" points="96.1849,-205.9774 99.6848,-215.9775 103.1849,-205.9775 96.1849,-205.9774"/>
</g>
<!-- ApplicationDataModule -->
<g id="node3" class="node">
<title>ApplicationDataModule</title>
<polygon fill="#8dd3c7" stroke="#000000" points="415.0744,-122 412.0744,-126 391.0744,-126 388.0744,-122 262.9256,-122 262.9256,-86 415.0744,-86 415.0744,-122"/>
<text text-anchor="middle" x="339" y="-99.8" font-family="Times,serif" font-size="14.00" fill="#000000">ApplicationDataModule</text>
</g>
<!-- ApplicationDataModule&#45;&gt;NgxTinynodesCoreModule -->
<g id="edge2" class="edge">
<title>ApplicationDataModule&#45;&gt;NgxTinynodesCoreModule</title>
<path fill="none" stroke="#000000" d="M342.0259,-122.1061C342.0259,-122.1061 342.0259,-140.991 342.0259,-140.991"/>
<polygon fill="#000000" stroke="#000000" points="338.526,-140.9909 342.0259,-150.991 345.526,-140.991 338.526,-140.9909"/>
</g>
<!-- NgxTinynodesCoreMaterialModule -->
<g id="node4" class="node">
<title>NgxTinynodesCoreMaterialModule</title>
<polygon fill="#8dd3c7" stroke="#000000" points="244.8918,-122 241.8918,-126 220.8918,-126 217.8918,-122 27.1082,-122 27.1082,-86 244.8918,-86 244.8918,-122"/>
<text text-anchor="middle" x="136" y="-99.8" font-family="Times,serif" font-size="14.00" fill="#000000">NgxTinynodesCoreMaterialModule</text>
</g>
<!-- NgxTinynodesCoreMaterialModule&#45;&gt;NgxTinynodesCoreModule -->
<g id="edge3" class="edge">
<title>NgxTinynodesCoreMaterialModule&#45;&gt;NgxTinynodesCoreModule</title>
<path fill="none" stroke="#000000" d="M172.0652,-122.0225C172.0652,-139.3734 172.0652,-163 172.0652,-163 172.0652,-163 258.8921,-163 258.8921,-163"/>
<polygon fill="#000000" stroke="#000000" points="258.8922,-166.5001 268.8921,-163 258.8921,-159.5001 258.8922,-166.5001"/>
</g>
</g>
</svg>
