<?xml version="1.0" encoding="UTF-8" standalone="no"?>
<!DOCTYPE svg PUBLIC "-//W3C//DTD SVG 1.1//EN"
 "http://www.w3.org/Graphics/SVG/1.1/DTD/svg11.dtd">
<!-- Generated by graphviz version 2.40.1 (20161225.0304)
 -->
<!-- Title: dependencies Pages: 1 -->
<svg width="1668pt" height="284pt"
 viewBox="0.00 0.00 1668.00 284.00" xmlns="http://www.w3.org/2000/svg" xmlns:xlink="http://www.w3.org/1999/xlink">
<g id="graph0" class="graph" transform="scale(1 1) rotate(0) translate(4 280)">
<title>dependencies</title>
<polygon fill="#ffffff" stroke="transparent" points="-4,4 -4,-280 1664,-280 1664,4 -4,4"/>
<text text-anchor="start" x="809.0091" y="-42.4" font-family="sans-serif" font-weight="bold" font-size="14.00" fill="#000000">Legend</text>
<polygon fill="#ffffb3" stroke="transparent" points="596,-10 596,-30 616,-30 616,-10 596,-10"/>
<text text-anchor="start" x="619.629" y="-15.4" font-family="sans-serif" font-size="14.00" fill="#000000"> &#160;Declarations</text>
<polygon fill="#8dd3c7" stroke="transparent" points="709,-10 709,-30 729,-30 729,-10 709,-10"/>
<text text-anchor="start" x="732.7251" y="-15.4" font-family="sans-serif" font-size="14.00" fill="#000000"> &#160;Module</text>
<polygon fill="#80b1d3" stroke="transparent" points="795,-10 795,-30 815,-30 815,-10 795,-10"/>
<text text-anchor="start" x="818.7812" y="-15.4" font-family="sans-serif" font-size="14.00" fill="#000000"> &#160;Bootstrap</text>
<polygon fill="#fdb462" stroke="transparent" points="892,-10 892,-30 912,-30 912,-10 892,-10"/>
<text text-anchor="start" x="915.6732" y="-15.4" font-family="sans-serif" font-size="14.00" fill="#000000"> &#160;Providers</text>
<polygon fill="#fb8072" stroke="transparent" points="988,-10 988,-30 1008,-30 1008,-10 988,-10"/>
<text text-anchor="start" x="1011.7258" y="-15.4" font-family="sans-serif" font-size="14.00" fill="#000000"> &#160;Exports</text>
<g id="clust1" class="cluster">
<title>cluster_NgxEditorjsPluginsModule</title>
<polygon fill="none" stroke="#000000" stroke-dasharray="1,5" points="8,-70 8,-268 1652,-268 1652,-70 8,-70"/>
</g>
<g id="clust3" class="cluster">
<title>cluster_NgxEditorjsPluginsModule_imports</title>
<polygon fill="none" stroke="#000000" points="37,-78 37,-130 1630,-130 1630,-78 37,-78"/>
</g>
<g id="clust4" class="cluster">
<title>cluster_NgxEditorjsPluginsModule_exports</title>
<polygon fill="none" stroke="#000000" points="16,-208 16,-260 1644,-260 1644,-208 16,-208"/>
</g>
<!-- NgxPluginServiceModule -->
<g id="node1" class="node">
<title>NgxPluginServiceModule</title>
<polygon fill="#8dd3c7" stroke="#000000" points="1622.1979,-122 1619.1979,-126 1598.1979,-126 1595.1979,-122 1459.8021,-122 1459.8021,-86 1622.1979,-86 1622.1979,-122"/>
<text text-anchor="middle" x="1541" y="-99.8" font-family="Times,serif" font-size="14.00" fill="#000000">NgxPluginServiceModule</text>
</g>
<!-- NgxEditorjsPluginsModule -->
<g id="node11" class="node">
<title>NgxEditorjsPluginsModule</title>
<polygon fill="#8dd3c7" stroke="#000000" points="849.9944,-187 846.9944,-191 825.9944,-191 822.9944,-187 680.0056,-187 680.0056,-151 849.9944,-151 849.9944,-187"/>
<text text-anchor="middle" x="765" y="-164.8" font-family="Times,serif" font-size="14.00" fill="#000000">NgxEditorjsPluginsModule</text>
</g>
<!-- NgxPluginServiceModule&#45;&gt;NgxEditorjsPluginsModule -->
<g id="edge1" class="edge">
<title>NgxPluginServiceModule&#45;&gt;NgxEditorjsPluginsModule</title>
<path fill="none" stroke="#000000" d="M1465.0261,-122.2222C1465.0261,-140.8285 1465.0261,-167 1465.0261,-167 1465.0261,-167 860.1371,-167 860.1371,-167"/>
<polygon fill="#000000" stroke="#000000" points="860.1371,-163.5001 850.1371,-167 860.1371,-170.5001 860.1371,-163.5001"/>
</g>
<!-- PluginCodeModule -->
<g id="node2" class="node">
<title>PluginCodeModule</title>
<polygon fill="#8dd3c7" stroke="#000000" points="1441.6652,-122 1438.6652,-126 1417.6652,-126 1414.6652,-122 1316.3348,-122 1316.3348,-86 1441.6652,-86 1441.6652,-122"/>
<text text-anchor="middle" x="1379" y="-99.8" font-family="Times,serif" font-size="14.00" fill="#000000">PluginCodeModule</text>
</g>
<!-- PluginCodeModule&#45;&gt;NgxEditorjsPluginsModule -->
<g id="edge2" class="edge">
<title>PluginCodeModule&#45;&gt;NgxEditorjsPluginsModule</title>
<path fill="none" stroke="#000000" d="M1319.7926,-122.0225C1319.7926,-139.3734 1319.7926,-163 1319.7926,-163 1319.7926,-163 860.1675,-163 860.1675,-163"/>
<polygon fill="#000000" stroke="#000000" points="860.1676,-159.5001 850.1675,-163 860.1675,-166.5001 860.1676,-159.5001"/>
</g>
<!-- PluginHeaderModule -->
<g id="node3" class="node">
<title>PluginHeaderModule</title>
<polygon fill="#8dd3c7" stroke="#000000" points="1298.0254,-122 1295.0254,-126 1274.0254,-126 1271.0254,-122 1161.9746,-122 1161.9746,-86 1298.0254,-86 1298.0254,-122"/>
<text text-anchor="middle" x="1230" y="-99.8" font-family="Times,serif" font-size="14.00" fill="#000000">PluginHeaderModule</text>
</g>
<!-- PluginHeaderModule&#45;&gt;NgxEditorjsPluginsModule -->
<g id="edge3" class="edge">
<title>PluginHeaderModule&#45;&gt;NgxEditorjsPluginsModule</title>
<path fill="none" stroke="#000000" d="M1253.8374,-122.0091C1253.8374,-138.0494 1253.8374,-159 1253.8374,-159 1253.8374,-159 860.149,-159 860.149,-159"/>
<polygon fill="#000000" stroke="#000000" points="860.149,-155.5001 850.149,-159 860.1489,-162.5001 860.149,-155.5001"/>
</g>
<!-- PluginImageModule -->
<g id="node4" class="node">
<title>PluginImageModule</title>
<polygon fill="#8dd3c7" stroke="#000000" points="1143.594,-122 1140.594,-126 1119.594,-126 1116.594,-122 1012.406,-122 1012.406,-86 1143.594,-86 1143.594,-122"/>
<text text-anchor="middle" x="1078" y="-99.8" font-family="Times,serif" font-size="14.00" fill="#000000">PluginImageModule</text>
</g>
<!-- PluginImageModule&#45;&gt;NgxEditorjsPluginsModule -->
<g id="edge4" class="edge">
<title>PluginImageModule&#45;&gt;NgxEditorjsPluginsModule</title>
<path fill="none" stroke="#000000" d="M1099.9323,-122.1243C1099.9323,-136.7832 1099.9323,-155 1099.9323,-155 1099.9323,-155 860.3842,-155 860.3842,-155"/>
<polygon fill="#000000" stroke="#000000" points="860.3842,-151.5001 850.3842,-155 860.3841,-158.5001 860.3842,-151.5001"/>
</g>
<!-- PluginInlineCodeModule -->
<g id="node5" class="node">
<title>PluginInlineCodeModule</title>
<polygon fill="#8dd3c7" stroke="#000000" points="994.3215,-122 991.3215,-126 970.3215,-126 967.3215,-122 835.6785,-122 835.6785,-86 994.3215,-86 994.3215,-122"/>
<text text-anchor="middle" x="915" y="-99.8" font-family="Times,serif" font-size="14.00" fill="#000000">PluginInlineCodeModule</text>
</g>
<!-- PluginInlineCodeModule&#45;&gt;NgxEditorjsPluginsModule -->
<g id="edge5" class="edge">
<title>PluginInlineCodeModule&#45;&gt;NgxEditorjsPluginsModule</title>
<path fill="none" stroke="#000000" d="M842.9183,-122.1061C842.9183,-122.1061 842.9183,-140.991 842.9183,-140.991"/>
<polygon fill="#000000" stroke="#000000" points="839.4184,-140.9909 842.9183,-150.991 846.4184,-140.991 839.4184,-140.9909"/>
</g>
<!-- PluginLinkModule -->
<g id="node6" class="node">
<title>PluginLinkModule</title>
<polygon fill="#8dd3c7" stroke="#000000" points="818.0576,-122 815.0576,-126 794.0576,-126 791.0576,-122 695.9424,-122 695.9424,-86 818.0576,-86 818.0576,-122"/>
<text text-anchor="middle" x="757" y="-99.8" font-family="Times,serif" font-size="14.00" fill="#000000">PluginLinkModule</text>
</g>
<!-- PluginLinkModule&#45;&gt;NgxEditorjsPluginsModule -->
<g id="edge6" class="edge">
<title>PluginLinkModule&#45;&gt;NgxEditorjsPluginsModule</title>
<path fill="none" stroke="#000000" d="M757,-122.1061C757,-122.1061 757,-140.991 757,-140.991"/>
<polygon fill="#000000" stroke="#000000" points="753.5001,-140.9909 757,-150.991 760.5001,-140.991 753.5001,-140.9909"/>
</g>
<!-- PluginListModule -->
<g id="node7" class="node">
<title>PluginListModule</title>
<polygon fill="#8dd3c7" stroke="#000000" points="677.892,-122 674.892,-126 653.892,-126 650.892,-122 560.108,-122 560.108,-86 677.892,-86 677.892,-122"/>
<text text-anchor="middle" x="619" y="-99.8" font-family="Times,serif" font-size="14.00" fill="#000000">PluginListModule</text>
</g>
<!-- PluginListModule&#45;&gt;NgxEditorjsPluginsModule -->
<g id="edge7" class="edge">
<title>PluginListModule&#45;&gt;NgxEditorjsPluginsModule</title>
<path fill="none" stroke="#000000" d="M674.321,-122.1871C674.321,-137.1824 674.321,-156 674.321,-156 674.321,-156 674.8882,-156 674.8882,-156"/>
<polygon fill="#000000" stroke="#000000" points="669.9934,-159.5002 679.9934,-156 669.9933,-152.5002 669.9934,-159.5002"/>
</g>
<!-- PluginMarkerModule -->
<g id="node8" class="node">
<title>PluginMarkerModule</title>
<polygon fill="#8dd3c7" stroke="#000000" points="541.8089,-122 538.8089,-126 517.8089,-126 514.8089,-122 404.1911,-122 404.1911,-86 541.8089,-86 541.8089,-122"/>
<text text-anchor="middle" x="473" y="-99.8" font-family="Times,serif" font-size="14.00" fill="#000000">PluginMarkerModule</text>
</g>
<!-- PluginMarkerModule&#45;&gt;NgxEditorjsPluginsModule -->
<g id="edge8" class="edge">
<title>PluginMarkerModule&#45;&gt;NgxEditorjsPluginsModule</title>
<path fill="none" stroke="#000000" d="M536.5293,-122.027C536.5293,-138.3976 536.5293,-160 536.5293,-160 536.5293,-160 669.9259,-160 669.9259,-160"/>
<polygon fill="#000000" stroke="#000000" points="669.926,-163.5001 679.9259,-160 669.9259,-156.5001 669.926,-163.5001"/>
</g>
<!-- PluginParagraphModule -->
<g id="node9" class="node">
<title>PluginParagraphModule</title>
<polygon fill="#8dd3c7" stroke="#000000" points="386.3613,-122 383.3613,-126 362.3613,-126 359.3613,-122 233.6387,-122 233.6387,-86 386.3613,-86 386.3613,-122"/>
<text text-anchor="middle" x="310" y="-99.8" font-family="Times,serif" font-size="14.00" fill="#000000">PluginParagraphModule</text>
</g>
<!-- PluginParagraphModule&#45;&gt;NgxEditorjsPluginsModule -->
<g id="edge9" class="edge">
<title>PluginParagraphModule&#45;&gt;NgxEditorjsPluginsModule</title>
<path fill="none" stroke="#000000" d="M379.3056,-122.302C379.3056,-140.2699 379.3056,-165 379.3056,-165 379.3056,-165 669.8803,-165 669.8803,-165"/>
<polygon fill="#000000" stroke="#000000" points="669.8803,-168.5001 679.8803,-165 669.8802,-161.5001 669.8803,-168.5001"/>
</g>
<!-- PluginSimpleImageModule -->
<g id="node10" class="node">
<title>PluginSimpleImageModule</title>
<polygon fill="#8dd3c7" stroke="#000000" points="215.2632,-122 212.2632,-126 191.2632,-126 188.2632,-122 44.7368,-122 44.7368,-86 215.2632,-86 215.2632,-122"/>
<text text-anchor="middle" x="130" y="-99.8" font-family="Times,serif" font-size="14.00" fill="#000000">PluginSimpleImageModule</text>
</g>
<!-- PluginSimpleImageModule&#45;&gt;NgxEditorjsPluginsModule -->
<g id="edge10" class="edge">
<title>PluginSimpleImageModule&#45;&gt;NgxEditorjsPluginsModule</title>
<path fill="none" stroke="#000000" d="M206.7565,-122.1061C206.7565,-141.3391 206.7565,-169 206.7565,-169 206.7565,-169 669.9112,-169 669.9112,-169"/>
<polygon fill="#000000" stroke="#000000" points="669.9112,-172.5001 679.9112,-169 669.9112,-165.5001 669.9112,-172.5001"/>
</g>
<!-- NgxPluginServiceModule  -->
<g id="node12" class="node">
<title>NgxPluginServiceModule </title>
<polygon fill="#fb8072" stroke="#000000" points="1635.6981,-252 1470.3019,-252 1470.3019,-216 1635.6981,-216 1635.6981,-252"/>
<text text-anchor="middle" x="1553" y="-229.8" font-family="Times,serif" font-size="14.00" fill="#000000">NgxPluginServiceModule </text>
</g>
<!-- NgxEditorjsPluginsModule&#45;&gt;NgxPluginServiceModule  -->
<g id="edge11" class="edge">
<title>NgxEditorjsPluginsModule&#45;&gt;NgxPluginServiceModule </title>
<path fill="none" stroke="#000000" stroke-dasharray="5,2" d="M850.081,-171C1052.5315,-171 1546.125,-171 1546.125,-171 1546.125,-171 1546.125,-205.7778 1546.125,-205.7778"/>
<polygon fill="#000000" stroke="#000000" points="1542.6251,-205.7778 1546.125,-215.7778 1549.6251,-205.7778 1542.6251,-205.7778"/>
</g>
<!-- PluginCodeModule  -->
<g id="node13" class="node">
<title>PluginCodeModule </title>
<polygon fill="#fb8072" stroke="#000000" points="1452.6649,-252 1323.3351,-252 1323.3351,-216 1452.6649,-216 1452.6649,-252"/>
<text text-anchor="middle" x="1388" y="-229.8" font-family="Times,serif" font-size="14.00" fill="#000000">PluginCodeModule </text>
</g>
<!-- NgxEditorjsPluginsModule&#45;&gt;PluginCodeModule  -->
<g id="edge12" class="edge">
<title>NgxEditorjsPluginsModule&#45;&gt;PluginCodeModule </title>
<path fill="none" stroke="#000000" stroke-dasharray="5,2" d="M850.2297,-175C1019.6604,-175 1382.625,-175 1382.625,-175 1382.625,-175 1382.625,-205.9775 1382.625,-205.9775"/>
<polygon fill="#000000" stroke="#000000" points="1379.1251,-205.9774 1382.625,-215.9775 1386.1251,-205.9775 1379.1251,-205.9774"/>
</g>
<!-- PluginHeaderModule  -->
<g id="node14" class="node">
<title>PluginHeaderModule </title>
<polygon fill="#fb8072" stroke="#000000" points="1305.0246,-252 1164.9754,-252 1164.9754,-216 1305.0246,-216 1305.0246,-252"/>
<text text-anchor="middle" x="1235" y="-229.8" font-family="Times,serif" font-size="14.00" fill="#000000">PluginHeaderModule </text>
</g>
<!-- NgxEditorjsPluginsModule&#45;&gt;PluginHeaderModule  -->
<g id="edge13" class="edge">
<title>NgxEditorjsPluginsModule&#45;&gt;PluginHeaderModule </title>
<path fill="none" stroke="#000000" stroke-dasharray="5,2" d="M850.1614,-179C979.204,-179 1209.4126,-179 1209.4126,-179 1209.4126,-179 1209.4126,-205.9909 1209.4126,-205.9909"/>
<polygon fill="#000000" stroke="#000000" points="1205.9127,-205.9909 1209.4126,-215.9909 1212.9127,-205.991 1205.9127,-205.9909"/>
</g>
<!-- PluginImageModule  -->
<g id="node15" class="node">
<title>PluginImageModule </title>
<polygon fill="#fb8072" stroke="#000000" points="1147.0946,-252 1012.9054,-252 1012.9054,-216 1147.0946,-216 1147.0946,-252"/>
<text text-anchor="middle" x="1080" y="-229.8" font-family="Times,serif" font-size="14.00" fill="#000000">PluginImageModule </text>
</g>
<!-- NgxEditorjsPluginsModule&#45;&gt;PluginImageModule  -->
<g id="edge14" class="edge">
<title>NgxEditorjsPluginsModule&#45;&gt;PluginImageModule </title>
<path fill="none" stroke="#000000" stroke-dasharray="5,2" d="M850.0443,-183C936.0307,-183 1056.3177,-183 1056.3177,-183 1056.3177,-183 1056.3177,-205.8757 1056.3177,-205.8757"/>
<polygon fill="#000000" stroke="#000000" points="1052.8178,-205.8757 1056.3177,-215.8757 1059.8178,-205.8757 1052.8178,-205.8757"/>
</g>
<!-- PluginInlineCodeModule  -->
<g id="node16" class="node">
<title>PluginInlineCodeModule </title>
<polygon fill="#fb8072" stroke="#000000" points="994.8213,-252 833.1787,-252 833.1787,-216 994.8213,-216 994.8213,-252"/>
<text text-anchor="middle" x="914" y="-229.8" font-family="Times,serif" font-size="14.00" fill="#000000">PluginInlineCodeModule </text>
</g>
<!-- NgxEditorjsPluginsModule&#45;&gt;PluginInlineCodeModule  -->
<g id="edge15" class="edge">
<title>NgxEditorjsPluginsModule&#45;&gt;PluginInlineCodeModule </title>
<path fill="none" stroke="#000000" stroke-dasharray="5,2" d="M841.5433,-187.1061C841.5433,-187.1061 841.5433,-205.991 841.5433,-205.991"/>
<polygon fill="#000000" stroke="#000000" points="838.0434,-205.9909 841.5433,-215.991 845.0434,-205.991 838.0434,-205.9909"/>
</g>
<!-- PluginLinkModule  -->
<g id="node17" class="node">
<title>PluginLinkModule </title>
<polygon fill="#fb8072" stroke="#000000" points="815.0568,-252 688.9432,-252 688.9432,-216 815.0568,-216 815.0568,-252"/>
<text text-anchor="middle" x="752" y="-229.8" font-family="Times,serif" font-size="14.00" fill="#000000">PluginLinkModule </text>
</g>
<!-- NgxEditorjsPluginsModule&#45;&gt;PluginLinkModule  -->
<g id="edge16" class="edge">
<title>NgxEditorjsPluginsModule&#45;&gt;PluginLinkModule </title>
<path fill="none" stroke="#000000" stroke-dasharray="5,2" d="M752,-187.1061C752,-187.1061 752,-205.991 752,-205.991"/>
<polygon fill="#000000" stroke="#000000" points="748.5001,-205.9909 752,-215.991 755.5001,-205.991 748.5001,-205.9909"/>
</g>
<!-- PluginListModule  -->
<g id="node18" class="node">
<title>PluginListModule </title>
<polygon fill="#fb8072" stroke="#000000" points="670.8926,-252 549.1074,-252 549.1074,-216 670.8926,-216 670.8926,-252"/>
<text text-anchor="middle" x="610" y="-229.8" font-family="Times,serif" font-size="14.00" fill="#000000">PluginListModule </text>
</g>
<!-- NgxEditorjsPluginsModule&#45;&gt;PluginListModule  -->
<g id="edge17" class="edge">
<title>NgxEditorjsPluginsModule&#45;&gt;PluginListModule </title>
<path fill="none" stroke="#000000" stroke-dasharray="5,2" d="M684.4872,-187.1061C684.4872,-206.3391 684.4872,-234 684.4872,-234 684.4872,-234 680.8251,-234 680.8251,-234"/>
<polygon fill="#000000" stroke="#000000" points="680.8251,-230.5001 670.8251,-234 680.8251,-237.5001 680.8251,-230.5001"/>
</g>
<!-- PluginMarkerModule  -->
<g id="node19" class="node">
<title>PluginMarkerModule </title>
<polygon fill="#fb8072" stroke="#000000" points="531.3087,-252 390.6913,-252 390.6913,-216 531.3087,-216 531.3087,-252"/>
<text text-anchor="middle" x="461" y="-229.8" font-family="Times,serif" font-size="14.00" fill="#000000">PluginMarkerModule </text>
</g>
<!-- NgxEditorjsPluginsModule&#45;&gt;PluginMarkerModule  -->
<g id="edge18" class="edge">
<title>NgxEditorjsPluginsModule&#45;&gt;PluginMarkerModule </title>
<path fill="none" stroke="#000000" stroke-dasharray="5,2" d="M679.8559,-183C592.056,-183 467.875,-183 467.875,-183 467.875,-183 467.875,-205.8757 467.875,-205.8757"/>
<polygon fill="#000000" stroke="#000000" points="464.3751,-205.8757 467.875,-215.8757 471.3751,-205.8757 464.3751,-205.8757"/>
</g>
<!-- PluginParagraphModule  -->
<g id="node20" class="node">
<title>PluginParagraphModule </title>
<polygon fill="#fb8072" stroke="#000000" points="372.3616,-252 215.6384,-252 215.6384,-216 372.3616,-216 372.3616,-252"/>
<text text-anchor="middle" x="294" y="-229.8" font-family="Times,serif" font-size="14.00" fill="#000000">PluginParagraphModule </text>
</g>
<!-- NgxEditorjsPluginsModule&#45;&gt;PluginParagraphModule  -->
<g id="edge19" class="edge">
<title>NgxEditorjsPluginsModule&#45;&gt;PluginParagraphModule </title>
<path fill="none" stroke="#000000" stroke-dasharray="5,2" d="M679.97,-178C546.4998,-178 302.875,-178 302.875,-178 302.875,-178 302.875,-205.973 302.875,-205.973"/>
<polygon fill="#000000" stroke="#000000" points="299.3751,-205.973 302.875,-215.973 306.3751,-205.973 299.3751,-205.973"/>
</g>
<!-- PluginSimpleImageModule  -->
<g id="node21" class="node">
<title>PluginSimpleImageModule </title>
<polygon fill="#fb8072" stroke="#000000" points="198.2632,-252 23.7368,-252 23.7368,-216 198.2632,-216 198.2632,-252"/>
<text text-anchor="middle" x="111" y="-229.8" font-family="Times,serif" font-size="14.00" fill="#000000">PluginSimpleImageModule </text>
</g>
<!-- NgxEditorjsPluginsModule&#45;&gt;PluginSimpleImageModule  -->
<g id="edge20" class="edge">
<title>NgxEditorjsPluginsModule&#45;&gt;PluginSimpleImageModule </title>
<path fill="none" stroke="#000000" stroke-dasharray="5,2" d="M679.8637,-174C504.938,-174 121.375,-174 121.375,-174 121.375,-174 121.375,-205.998 121.375,-205.998"/>
<polygon fill="#000000" stroke="#000000" points="117.8751,-205.998 121.375,-215.998 124.8751,-205.9981 117.8751,-205.998"/>
</g>
</g>
</svg>
