<?xml version="1.0" encoding="UTF-8" standalone="no"?>
<!DOCTYPE svg PUBLIC "-//W3C//DTD SVG 1.1//EN"
 "http://www.w3.org/Graphics/SVG/1.1/DTD/svg11.dtd">
<!-- Generated by graphviz version 2.40.1 (20161225.0304)
 -->
<!-- Title: dependencies Pages: 1 -->
<svg width="1531pt" height="284pt"
 viewBox="0.00 0.00 1531.00 284.00" xmlns="http://www.w3.org/2000/svg" xmlns:xlink="http://www.w3.org/1999/xlink">
<g id="graph0" class="graph" transform="scale(1 1) rotate(0) translate(4 280)">
<title>dependencies</title>
<polygon fill="#ffffff" stroke="transparent" points="-4,4 -4,-280 1527,-280 1527,4 -4,4"/>
<text text-anchor="start" x="740.5091" y="-42.4" font-family="sans-serif" font-weight="bold" font-size="14.00" fill="#000000">Legend</text>
<polygon fill="#ffffb3" stroke="transparent" points="527.5,-10 527.5,-30 547.5,-30 547.5,-10 527.5,-10"/>
<text text-anchor="start" x="551.129" y="-15.4" font-family="sans-serif" font-size="14.00" fill="#000000"> &#160;Declarations</text>
<polygon fill="#8dd3c7" stroke="transparent" points="640.5,-10 640.5,-30 660.5,-30 660.5,-10 640.5,-10"/>
<text text-anchor="start" x="664.2251" y="-15.4" font-family="sans-serif" font-size="14.00" fill="#000000"> &#160;Module</text>
<polygon fill="#80b1d3" stroke="transparent" points="726.5,-10 726.5,-30 746.5,-30 746.5,-10 726.5,-10"/>
<text text-anchor="start" x="750.2812" y="-15.4" font-family="sans-serif" font-size="14.00" fill="#000000"> &#160;Bootstrap</text>
<polygon fill="#fdb462" stroke="transparent" points="823.5,-10 823.5,-30 843.5,-30 843.5,-10 823.5,-10"/>
<text text-anchor="start" x="847.1732" y="-15.4" font-family="sans-serif" font-size="14.00" fill="#000000"> &#160;Providers</text>
<polygon fill="#fb8072" stroke="transparent" points="919.5,-10 919.5,-30 939.5,-30 939.5,-10 919.5,-10"/>
<text text-anchor="start" x="943.2258" y="-15.4" font-family="sans-serif" font-size="14.00" fill="#000000"> &#160;Exports</text>
<g id="clust1" class="cluster">
<title>cluster_NgxEditorjsPluginsModule</title>
<polygon fill="none" stroke="#000000" stroke-dasharray="1,5" points="8,-70 8,-268 1515,-268 1515,-70 8,-70"/>
</g>
<g id="clust3" class="cluster">
<title>cluster_NgxEditorjsPluginsModule_imports</title>
<polygon fill="none" stroke="#000000" points="270,-78 270,-130 1507,-130 1507,-78 270,-78"/>
</g>
<g id="clust4" class="cluster">
<title>cluster_NgxEditorjsPluginsModule_exports</title>
<polygon fill="none" stroke="#000000" points="179,-208 179,-260 1444,-260 1444,-208 179,-208"/>
</g>
<g id="clust6" class="cluster">
<title>cluster_NgxEditorjsPluginsModule_providers</title>
<polygon fill="none" stroke="#000000" points="16,-78 16,-130 262,-130 262,-78 16,-78"/>
</g>
<!-- PluginCodeModule -->
<g id="node1" class="node">
<title>PluginCodeModule</title>
<polygon fill="#8dd3c7" stroke="#000000" points="1498.6652,-122 1495.6652,-126 1474.6652,-126 1471.6652,-122 1373.3348,-122 1373.3348,-86 1498.6652,-86 1498.6652,-122"/>
<text text-anchor="middle" x="1436" y="-99.8" font-family="Times,serif" font-size="14.00" fill="#000000">PluginCodeModule</text>
</g>
<!-- NgxEditorjsPluginsModule -->
<g id="node9" class="node">
<title>NgxEditorjsPluginsModule</title>
<polygon fill="#8dd3c7" stroke="#000000" points="936.9944,-187 933.9944,-191 912.9944,-191 909.9944,-187 767.0056,-187 767.0056,-151 936.9944,-151 936.9944,-187"/>
<text text-anchor="middle" x="852" y="-164.8" font-family="Times,serif" font-size="14.00" fill="#000000">NgxEditorjsPluginsModule</text>
</g>
<!-- PluginCodeModule&#45;&gt;NgxEditorjsPluginsModule -->
<g id="edge1" class="edge">
<title>PluginCodeModule&#45;&gt;NgxEditorjsPluginsModule</title>
<path fill="none" stroke="#000000" d="M1404.375,-122.2222C1404.375,-140.8285 1404.375,-167 1404.375,-167 1404.375,-167 947.098,-167 947.098,-167"/>
<polygon fill="#000000" stroke="#000000" points="947.0981,-163.5001 937.098,-167 947.098,-170.5001 947.0981,-163.5001"/>
</g>
<!-- PluginHeaderModule -->
<g id="node2" class="node">
<title>PluginHeaderModule</title>
<polygon fill="#8dd3c7" stroke="#000000" points="1355.0254,-122 1352.0254,-126 1331.0254,-126 1328.0254,-122 1218.9746,-122 1218.9746,-86 1355.0254,-86 1355.0254,-122"/>
<text text-anchor="middle" x="1287" y="-99.8" font-family="Times,serif" font-size="14.00" fill="#000000">PluginHeaderModule</text>
</g>
<!-- PluginHeaderModule&#45;&gt;NgxEditorjsPluginsModule -->
<g id="edge2" class="edge">
<title>PluginHeaderModule&#45;&gt;NgxEditorjsPluginsModule</title>
<path fill="none" stroke="#000000" d="M1253.375,-122.0336C1253.375,-139.0597 1253.375,-162 1253.375,-162 1253.375,-162 947.1213,-162 947.1213,-162"/>
<polygon fill="#000000" stroke="#000000" points="947.1213,-158.5001 937.1213,-162 947.1213,-165.5001 947.1213,-158.5001"/>
</g>
<!-- PluginImageModule -->
<g id="node3" class="node">
<title>PluginImageModule</title>
<polygon fill="#8dd3c7" stroke="#000000" points="1200.594,-122 1197.594,-126 1176.594,-126 1173.594,-122 1069.406,-122 1069.406,-86 1200.594,-86 1200.594,-122"/>
<text text-anchor="middle" x="1135" y="-99.8" font-family="Times,serif" font-size="14.00" fill="#000000">PluginImageModule</text>
</g>
<!-- PluginImageModule&#45;&gt;NgxEditorjsPluginsModule -->
<g id="edge3" class="edge">
<title>PluginImageModule&#45;&gt;NgxEditorjsPluginsModule</title>
<path fill="none" stroke="#000000" d="M1099.875,-122.2396C1099.875,-137.5706 1099.875,-157 1099.875,-157 1099.875,-157 947.3045,-157 947.3045,-157"/>
<polygon fill="#000000" stroke="#000000" points="947.3045,-153.5001 937.3045,-157 947.3045,-160.5001 947.3045,-153.5001"/>
</g>
<!-- PluginLinkModule -->
<g id="node4" class="node">
<title>PluginLinkModule</title>
<polygon fill="#8dd3c7" stroke="#000000" points="1051.0576,-122 1048.0576,-126 1027.0576,-126 1024.0576,-122 928.9424,-122 928.9424,-86 1051.0576,-86 1051.0576,-122"/>
<text text-anchor="middle" x="990" y="-99.8" font-family="Times,serif" font-size="14.00" fill="#000000">PluginLinkModule</text>
</g>
<!-- PluginLinkModule&#45;&gt;NgxEditorjsPluginsModule -->
<g id="edge4" class="edge">
<title>PluginLinkModule&#45;&gt;NgxEditorjsPluginsModule</title>
<path fill="none" stroke="#000000" d="M932.8594,-122.1061C932.8594,-122.1061 932.8594,-140.991 932.8594,-140.991"/>
<polygon fill="#000000" stroke="#000000" points="929.3595,-140.9909 932.8594,-150.991 936.3595,-140.991 929.3595,-140.9909"/>
</g>
<!-- PluginListModule -->
<g id="node5" class="node">
<title>PluginListModule</title>
<polygon fill="#8dd3c7" stroke="#000000" points="910.892,-122 907.892,-126 886.892,-126 883.892,-122 793.108,-122 793.108,-86 910.892,-86 910.892,-122"/>
<text text-anchor="middle" x="852" y="-99.8" font-family="Times,serif" font-size="14.00" fill="#000000">PluginListModule</text>
</g>
<!-- PluginListModule&#45;&gt;NgxEditorjsPluginsModule -->
<g id="edge5" class="edge">
<title>PluginListModule&#45;&gt;NgxEditorjsPluginsModule</title>
<path fill="none" stroke="#000000" d="M852,-122.1061C852,-122.1061 852,-140.991 852,-140.991"/>
<polygon fill="#000000" stroke="#000000" points="848.5001,-140.9909 852,-150.991 855.5001,-140.991 848.5001,-140.9909"/>
</g>
<!-- PluginMarkerModule -->
<g id="node6" class="node">
<title>PluginMarkerModule</title>
<polygon fill="#8dd3c7" stroke="#000000" points="774.8089,-122 771.8089,-126 750.8089,-126 747.8089,-122 637.1911,-122 637.1911,-86 774.8089,-86 774.8089,-122"/>
<text text-anchor="middle" x="706" y="-99.8" font-family="Times,serif" font-size="14.00" fill="#000000">PluginMarkerModule</text>
</g>
<!-- PluginMarkerModule&#45;&gt;NgxEditorjsPluginsModule -->
<g id="edge6" class="edge">
<title>PluginMarkerModule&#45;&gt;NgxEditorjsPluginsModule</title>
<path fill="none" stroke="#000000" d="M770.8285,-122.1061C770.8285,-122.1061 770.8285,-140.991 770.8285,-140.991"/>
<polygon fill="#000000" stroke="#000000" points="767.3286,-140.9909 770.8285,-150.991 774.3286,-140.991 767.3286,-140.9909"/>
</g>
<!-- PluginParagraphModule -->
<g id="node7" class="node">
<title>PluginParagraphModule</title>
<polygon fill="#8dd3c7" stroke="#000000" points="619.3613,-122 616.3613,-126 595.3613,-126 592.3613,-122 466.6387,-122 466.6387,-86 619.3613,-86 619.3613,-122"/>
<text text-anchor="middle" x="543" y="-99.8" font-family="Times,serif" font-size="14.00" fill="#000000">PluginParagraphModule</text>
</g>
<!-- PluginParagraphModule&#45;&gt;NgxEditorjsPluginsModule -->
<g id="edge7" class="edge">
<title>PluginParagraphModule&#45;&gt;NgxEditorjsPluginsModule</title>
<path fill="none" stroke="#000000" d="M586.5132,-122.2396C586.5132,-137.5706 586.5132,-157 586.5132,-157 586.5132,-157 756.9028,-157 756.9028,-157"/>
<polygon fill="#000000" stroke="#000000" points="756.9029,-160.5001 766.9028,-157 756.9028,-153.5001 756.9029,-160.5001"/>
</g>
<!-- PluginSimpleImageModule -->
<g id="node8" class="node">
<title>PluginSimpleImageModule</title>
<polygon fill="#8dd3c7" stroke="#000000" points="448.2632,-122 445.2632,-126 424.2632,-126 421.2632,-122 277.7368,-122 277.7368,-86 448.2632,-86 448.2632,-122"/>
<text text-anchor="middle" x="363" y="-99.8" font-family="Times,serif" font-size="14.00" fill="#000000">PluginSimpleImageModule</text>
</g>
<!-- PluginSimpleImageModule&#45;&gt;NgxEditorjsPluginsModule -->
<g id="edge8" class="edge">
<title>PluginSimpleImageModule&#45;&gt;NgxEditorjsPluginsModule</title>
<path fill="none" stroke="#000000" d="M413.6005,-122.0336C413.6005,-139.0597 413.6005,-162 413.6005,-162 413.6005,-162 756.9523,-162 756.9523,-162"/>
<polygon fill="#000000" stroke="#000000" points="756.9524,-165.5001 766.9523,-162 756.9523,-158.5001 756.9524,-165.5001"/>
</g>
<!-- PluginCodeModule  -->
<g id="node10" class="node">
<title>PluginCodeModule </title>
<polygon fill="#fb8072" stroke="#000000" points="1435.6649,-252 1306.3351,-252 1306.3351,-216 1435.6649,-216 1435.6649,-252"/>
<text text-anchor="middle" x="1371" y="-229.8" font-family="Times,serif" font-size="14.00" fill="#000000">PluginCodeModule </text>
</g>
<!-- NgxEditorjsPluginsModule&#45;&gt;PluginCodeModule  -->
<g id="edge9" class="edge">
<title>NgxEditorjsPluginsModule&#45;&gt;PluginCodeModule </title>
<path fill="none" stroke="#000000" stroke-dasharray="5,2" d="M937.0552,-172C1074.6547,-172 1330.84,-172 1330.84,-172 1330.84,-172 1330.84,-205.7333 1330.84,-205.7333"/>
<polygon fill="#000000" stroke="#000000" points="1327.34,-205.7333 1330.84,-215.7333 1334.34,-205.7333 1327.34,-205.7333"/>
</g>
<!-- PluginHeaderModule  -->
<g id="node11" class="node">
<title>PluginHeaderModule </title>
<polygon fill="#fb8072" stroke="#000000" points="1288.0246,-252 1147.9754,-252 1147.9754,-216 1288.0246,-216 1288.0246,-252"/>
<text text-anchor="middle" x="1218" y="-229.8" font-family="Times,serif" font-size="14.00" fill="#000000">PluginHeaderModule </text>
</g>
<!-- NgxEditorjsPluginsModule&#45;&gt;PluginHeaderModule  -->
<g id="edge10" class="edge">
<title>NgxEditorjsPluginsModule&#45;&gt;PluginHeaderModule </title>
<path fill="none" stroke="#000000" stroke-dasharray="5,2" d="M937.0935,-177C1032.5719,-177 1174.2674,-177 1174.2674,-177 1174.2674,-177 1174.2674,-205.9648 1174.2674,-205.9648"/>
<polygon fill="#000000" stroke="#000000" points="1170.7674,-205.9648 1174.2674,-215.9648 1177.7674,-205.9649 1170.7674,-205.9648"/>
</g>
<!-- PluginImageModule  -->
<g id="node12" class="node">
<title>PluginImageModule </title>
<polygon fill="#fb8072" stroke="#000000" points="1130.0946,-252 995.9054,-252 995.9054,-216 1130.0946,-216 1130.0946,-252"/>
<text text-anchor="middle" x="1063" y="-229.8" font-family="Times,serif" font-size="14.00" fill="#000000">PluginImageModule </text>
</g>
<!-- NgxEditorjsPluginsModule&#45;&gt;PluginImageModule  -->
<g id="edge11" class="edge">
<title>NgxEditorjsPluginsModule&#45;&gt;PluginImageModule </title>
<path fill="none" stroke="#000000" stroke-dasharray="5,2" d="M937.2429,-182C980.2824,-182 1023.4907,-182 1023.4907,-182 1023.4907,-182 1023.4907,-205.8129 1023.4907,-205.8129"/>
<polygon fill="#000000" stroke="#000000" points="1019.9908,-205.8129 1023.4907,-215.8129 1026.9908,-205.813 1019.9908,-205.8129"/>
</g>
<!-- PluginLinkModule  -->
<g id="node13" class="node">
<title>PluginLinkModule </title>
<polygon fill="#fb8072" stroke="#000000" points="978.0568,-252 851.9432,-252 851.9432,-216 978.0568,-216 978.0568,-252"/>
<text text-anchor="middle" x="915" y="-229.8" font-family="Times,serif" font-size="14.00" fill="#000000">PluginLinkModule </text>
</g>
<!-- NgxEditorjsPluginsModule&#45;&gt;PluginLinkModule  -->
<g id="edge12" class="edge">
<title>NgxEditorjsPluginsModule&#45;&gt;PluginLinkModule </title>
<path fill="none" stroke="#000000" stroke-dasharray="5,2" d="M894.4844,-187.1061C894.4844,-187.1061 894.4844,-205.991 894.4844,-205.991"/>
<polygon fill="#000000" stroke="#000000" points="890.9845,-205.9909 894.4844,-215.991 897.9845,-205.991 890.9845,-205.9909"/>
</g>
<!-- PluginListModule  -->
<g id="node14" class="node">
<title>PluginListModule </title>
<polygon fill="#fb8072" stroke="#000000" points="833.8926,-252 712.1074,-252 712.1074,-216 833.8926,-216 833.8926,-252"/>
<text text-anchor="middle" x="773" y="-229.8" font-family="Times,serif" font-size="14.00" fill="#000000">PluginListModule </text>
</g>
<!-- NgxEditorjsPluginsModule&#45;&gt;PluginListModule  -->
<g id="edge13" class="edge">
<title>NgxEditorjsPluginsModule&#45;&gt;PluginListModule </title>
<path fill="none" stroke="#000000" stroke-dasharray="5,2" d="M800.3494,-187.1061C800.3494,-187.1061 800.3494,-205.991 800.3494,-205.991"/>
<polygon fill="#000000" stroke="#000000" points="796.8495,-205.9909 800.3494,-215.991 803.8495,-205.991 796.8495,-205.9909"/>
</g>
<!-- PluginMarkerModule  -->
<g id="node15" class="node">
<title>PluginMarkerModule </title>
<polygon fill="#fb8072" stroke="#000000" points="694.3087,-252 553.6913,-252 553.6913,-216 694.3087,-216 694.3087,-252"/>
<text text-anchor="middle" x="624" y="-229.8" font-family="Times,serif" font-size="14.00" fill="#000000">PluginMarkerModule </text>
</g>
<!-- NgxEditorjsPluginsModule&#45;&gt;PluginMarkerModule  -->
<g id="edge14" class="edge">
<title>NgxEditorjsPluginsModule&#45;&gt;PluginMarkerModule </title>
<path fill="none" stroke="#000000" stroke-dasharray="5,2" d="M766.8357,-182C717.8266,-182 665.875,-182 665.875,-182 665.875,-182 665.875,-205.8129 665.875,-205.8129"/>
<polygon fill="#000000" stroke="#000000" points="662.3751,-205.8129 665.875,-215.8129 669.3751,-205.813 662.3751,-205.8129"/>
</g>
<!-- PluginParagraphModule  -->
<g id="node16" class="node">
<title>PluginParagraphModule </title>
<polygon fill="#fb8072" stroke="#000000" points="535.3616,-252 378.6384,-252 378.6384,-216 535.3616,-216 535.3616,-252"/>
<text text-anchor="middle" x="457" y="-229.8" font-family="Times,serif" font-size="14.00" fill="#000000">PluginParagraphModule </text>
</g>
<!-- NgxEditorjsPluginsModule&#45;&gt;PluginParagraphModule  -->
<g id="edge15" class="edge">
<title>NgxEditorjsPluginsModule&#45;&gt;PluginParagraphModule </title>
<path fill="none" stroke="#000000" stroke-dasharray="5,2" d="M767.0024,-177C663.086,-177 500.875,-177 500.875,-177 500.875,-177 500.875,-205.9648 500.875,-205.9648"/>
<polygon fill="#000000" stroke="#000000" points="497.3751,-205.9648 500.875,-215.9648 504.3751,-205.9649 497.3751,-205.9648"/>
</g>
<!-- PluginSimpleImageModule  -->
<g id="node17" class="node">
<title>PluginSimpleImageModule </title>
<polygon fill="#fb8072" stroke="#000000" points="361.2632,-252 186.7368,-252 186.7368,-216 361.2632,-216 361.2632,-252"/>
<text text-anchor="middle" x="274" y="-229.8" font-family="Times,serif" font-size="14.00" fill="#000000">PluginSimpleImageModule </text>
</g>
<!-- NgxEditorjsPluginsModule&#45;&gt;PluginSimpleImageModule  -->
<g id="edge16" class="edge">
<title>NgxEditorjsPluginsModule&#45;&gt;PluginSimpleImageModule </title>
<path fill="none" stroke="#000000" stroke-dasharray="5,2" d="M766.72,-172C616.252,-172 319.375,-172 319.375,-172 319.375,-172 319.375,-205.7333 319.375,-205.7333"/>
<polygon fill="#000000" stroke="#000000" points="315.8751,-205.7333 319.375,-215.7333 322.8751,-205.7333 315.8751,-205.7333"/>
</g>
<!-- NgxEditorJSPluginService -->
<g id="node18" class="node">
<title>NgxEditorJSPluginService</title>
<ellipse fill="#fdb462" stroke="#000000" cx="139" cy="-104" rx="115.2073" ry="18"/>
<text text-anchor="middle" x="139" y="-99.8" font-family="Times,serif" font-size="14.00" fill="#000000">NgxEditorJSPluginService</text>
</g>
<!-- NgxEditorJSPluginService&#45;&gt;NgxEditorjsPluginsModule -->
<g id="edge17" class="edge">
<title>NgxEditorJSPluginService&#45;&gt;NgxEditorjsPluginsModule</title>
<path fill="none" stroke="#000000" d="M220.4861,-116.749C220.4861,-135.1578 220.4861,-167 220.4861,-167 220.4861,-167 756.8312,-167 756.8312,-167"/>
<polygon fill="#000000" stroke="#000000" points="756.8313,-170.5001 766.8312,-167 756.8312,-163.5001 756.8313,-170.5001"/>
</g>
</g>
</svg>
