<?xml version="1.0" encoding="UTF-8" standalone="no"?>
<!DOCTYPE svg PUBLIC "-//W3C//DTD SVG 1.1//EN"
 "http://www.w3.org/Graphics/SVG/1.1/DTD/svg11.dtd">
<!-- Generated by graphviz version 2.40.1 (20161225.0304)
 -->
<!-- Title: dependencies Pages: 1 -->
<svg width="1305pt" height="284pt"
 viewBox="0.00 0.00 1305.00 284.00" xmlns="http://www.w3.org/2000/svg" xmlns:xlink="http://www.w3.org/1999/xlink">
<g id="graph0" class="graph" transform="scale(1 1) rotate(0) translate(4 280)">
<title>dependencies</title>
<polygon fill="#ffffff" stroke="transparent" points="-4,4 -4,-280 1301,-280 1301,4 -4,4"/>
<text text-anchor="start" x="627.5091" y="-42.4" font-family="sans-serif" font-weight="bold" font-size="14.00" fill="#000000">Legend</text>
<polygon fill="#ffffb3" stroke="transparent" points="414.5,-10 414.5,-30 434.5,-30 434.5,-10 414.5,-10"/>
<text text-anchor="start" x="438.129" y="-15.4" font-family="sans-serif" font-size="14.00" fill="#000000"> &#160;Declarations</text>
<polygon fill="#8dd3c7" stroke="transparent" points="527.5,-10 527.5,-30 547.5,-30 547.5,-10 527.5,-10"/>
<text text-anchor="start" x="551.2251" y="-15.4" font-family="sans-serif" font-size="14.00" fill="#000000"> &#160;Module</text>
<polygon fill="#80b1d3" stroke="transparent" points="613.5,-10 613.5,-30 633.5,-30 633.5,-10 613.5,-10"/>
<text text-anchor="start" x="637.2812" y="-15.4" font-family="sans-serif" font-size="14.00" fill="#000000"> &#160;Bootstrap</text>
<polygon fill="#fdb462" stroke="transparent" points="710.5,-10 710.5,-30 730.5,-30 730.5,-10 710.5,-10"/>
<text text-anchor="start" x="734.1732" y="-15.4" font-family="sans-serif" font-size="14.00" fill="#000000"> &#160;Providers</text>
<polygon fill="#fb8072" stroke="transparent" points="806.5,-10 806.5,-30 826.5,-30 826.5,-10 806.5,-10"/>
<text text-anchor="start" x="830.2258" y="-15.4" font-family="sans-serif" font-size="14.00" fill="#000000"> &#160;Exports</text>
<g id="clust1" class="cluster">
<title>cluster_NgxEditorjsPluginsModule</title>
<polygon fill="none" stroke="#000000" stroke-dasharray="1,5" points="8,-70 8,-268 1289,-268 1289,-70 8,-70"/>
</g>
<g id="clust3" class="cluster">
<title>cluster_NgxEditorjsPluginsModule_imports</title>
<polygon fill="none" stroke="#000000" points="33,-78 33,-130 1270,-130 1270,-78 33,-78"/>
</g>
<g id="clust4" class="cluster">
<title>cluster_NgxEditorjsPluginsModule_exports</title>
<polygon fill="none" stroke="#000000" points="16,-208 16,-260 1281,-260 1281,-208 16,-208"/>
</g>
<!-- PluginCodeModule -->
<g id="node1" class="node">
<title>PluginCodeModule</title>
<polygon fill="#8dd3c7" stroke="#000000" points="1261.6652,-122 1258.6652,-126 1237.6652,-126 1234.6652,-122 1136.3348,-122 1136.3348,-86 1261.6652,-86 1261.6652,-122"/>
<text text-anchor="middle" x="1199" y="-99.8" font-family="Times,serif" font-size="14.00" fill="#000000">PluginCodeModule</text>
</g>
<!-- NgxEditorjsPluginsModule -->
<g id="node9" class="node">
<title>NgxEditorjsPluginsModule</title>
<polygon fill="#8dd3c7" stroke="#000000" points="705.9944,-187 702.9944,-191 681.9944,-191 678.9944,-187 536.0056,-187 536.0056,-151 705.9944,-151 705.9944,-187"/>
<text text-anchor="middle" x="621" y="-164.8" font-family="Times,serif" font-size="14.00" fill="#000000">NgxEditorjsPluginsModule</text>
</g>
<!-- PluginCodeModule&#45;&gt;NgxEditorjsPluginsModule -->
<g id="edge1" class="edge">
<title>PluginCodeModule&#45;&gt;NgxEditorjsPluginsModule</title>
<path fill="none" stroke="#000000" d="M1139.7926,-122.2222C1139.7926,-140.8285 1139.7926,-167 1139.7926,-167 1139.7926,-167 716.0871,-167 716.0871,-167"/>
<polygon fill="#000000" stroke="#000000" points="716.0872,-163.5001 706.0871,-167 716.0871,-170.5001 716.0872,-163.5001"/>
</g>
<!-- PluginHeaderModule -->
<g id="node2" class="node">
<title>PluginHeaderModule</title>
<polygon fill="#8dd3c7" stroke="#000000" points="1118.0254,-122 1115.0254,-126 1094.0254,-126 1091.0254,-122 981.9746,-122 981.9746,-86 1118.0254,-86 1118.0254,-122"/>
<text text-anchor="middle" x="1050" y="-99.8" font-family="Times,serif" font-size="14.00" fill="#000000">PluginHeaderModule</text>
</g>
<!-- PluginHeaderModule&#45;&gt;NgxEditorjsPluginsModule -->
<g id="edge2" class="edge">
<title>PluginHeaderModule&#45;&gt;NgxEditorjsPluginsModule</title>
<path fill="none" stroke="#000000" d="M1073.8374,-122.0336C1073.8374,-139.0597 1073.8374,-162 1073.8374,-162 1073.8374,-162 716.1753,-162 716.1753,-162"/>
<polygon fill="#000000" stroke="#000000" points="716.1753,-158.5001 706.1753,-162 716.1752,-165.5001 716.1753,-158.5001"/>
</g>
<!-- PluginImageModule -->
<g id="node3" class="node">
<title>PluginImageModule</title>
<polygon fill="#8dd3c7" stroke="#000000" points="963.594,-122 960.594,-126 939.594,-126 936.594,-122 832.406,-122 832.406,-86 963.594,-86 963.594,-122"/>
<text text-anchor="middle" x="898" y="-99.8" font-family="Times,serif" font-size="14.00" fill="#000000">PluginImageModule</text>
</g>
<!-- PluginImageModule&#45;&gt;NgxEditorjsPluginsModule -->
<g id="edge3" class="edge">
<title>PluginImageModule&#45;&gt;NgxEditorjsPluginsModule</title>
<path fill="none" stroke="#000000" d="M919.9323,-122.2396C919.9323,-137.5706 919.9323,-157 919.9323,-157 919.9323,-157 716.262,-157 716.262,-157"/>
<polygon fill="#000000" stroke="#000000" points="716.262,-153.5001 706.262,-157 716.2619,-160.5001 716.262,-153.5001"/>
</g>
<!-- PluginLinkModule -->
<g id="node4" class="node">
<title>PluginLinkModule</title>
<polygon fill="#8dd3c7" stroke="#000000" points="814.0576,-122 811.0576,-126 790.0576,-126 787.0576,-122 691.9424,-122 691.9424,-86 814.0576,-86 814.0576,-122"/>
<text text-anchor="middle" x="753" y="-99.8" font-family="Times,serif" font-size="14.00" fill="#000000">PluginLinkModule</text>
</g>
<!-- PluginLinkModule&#45;&gt;NgxEditorjsPluginsModule -->
<g id="edge4" class="edge">
<title>PluginLinkModule&#45;&gt;NgxEditorjsPluginsModule</title>
<path fill="none" stroke="#000000" d="M698.8594,-122.1061C698.8594,-122.1061 698.8594,-140.991 698.8594,-140.991"/>
<polygon fill="#000000" stroke="#000000" points="695.3595,-140.9909 698.8594,-150.991 702.3595,-140.991 695.3595,-140.9909"/>
</g>
<!-- PluginListModule -->
<g id="node5" class="node">
<title>PluginListModule</title>
<polygon fill="#8dd3c7" stroke="#000000" points="673.892,-122 670.892,-126 649.892,-126 646.892,-122 556.108,-122 556.108,-86 673.892,-86 673.892,-122"/>
<text text-anchor="middle" x="615" y="-99.8" font-family="Times,serif" font-size="14.00" fill="#000000">PluginListModule</text>
</g>
<!-- PluginListModule&#45;&gt;NgxEditorjsPluginsModule -->
<g id="edge5" class="edge">
<title>PluginListModule&#45;&gt;NgxEditorjsPluginsModule</title>
<path fill="none" stroke="#000000" d="M615,-122.1061C615,-122.1061 615,-140.991 615,-140.991"/>
<polygon fill="#000000" stroke="#000000" points="611.5001,-140.9909 615,-150.991 618.5001,-140.991 611.5001,-140.9909"/>
</g>
<!-- PluginMarkerModule -->
<g id="node6" class="node">
<title>PluginMarkerModule</title>
<polygon fill="#8dd3c7" stroke="#000000" points="537.8089,-122 534.8089,-126 513.8089,-126 510.8089,-122 400.1911,-122 400.1911,-86 537.8089,-86 537.8089,-122"/>
<text text-anchor="middle" x="469" y="-99.8" font-family="Times,serif" font-size="14.00" fill="#000000">PluginMarkerModule</text>
</g>
<!-- PluginMarkerModule&#45;&gt;NgxEditorjsPluginsModule -->
<g id="edge6" class="edge">
<title>PluginMarkerModule&#45;&gt;NgxEditorjsPluginsModule</title>
<path fill="none" stroke="#000000" d="M537.9233,-104C543.3901,-104 546.8542,-104 546.8542,-104 546.8542,-104 546.8542,-140.8939 546.8542,-140.8939"/>
<polygon fill="#000000" stroke="#000000" points="543.3542,-140.8938 546.8542,-150.8939 550.3542,-140.8939 543.3542,-140.8938"/>
</g>
<!-- PluginParagraphModule -->
<g id="node7" class="node">
<title>PluginParagraphModule</title>
<polygon fill="#8dd3c7" stroke="#000000" points="382.3613,-122 379.3613,-126 358.3613,-126 355.3613,-122 229.6387,-122 229.6387,-86 382.3613,-86 382.3613,-122"/>
<text text-anchor="middle" x="306" y="-99.8" font-family="Times,serif" font-size="14.00" fill="#000000">PluginParagraphModule</text>
</g>
<!-- PluginParagraphModule&#45;&gt;NgxEditorjsPluginsModule -->
<g id="edge7" class="edge">
<title>PluginParagraphModule&#45;&gt;NgxEditorjsPluginsModule</title>
<path fill="none" stroke="#000000" d="M377.3056,-122.0091C377.3056,-138.0494 377.3056,-159 377.3056,-159 377.3056,-159 525.7675,-159 525.7675,-159"/>
<polygon fill="#000000" stroke="#000000" points="525.7676,-162.5001 535.7675,-159 525.7675,-155.5001 525.7676,-162.5001"/>
</g>
<!-- PluginSimpleImageModule -->
<g id="node8" class="node">
<title>PluginSimpleImageModule</title>
<polygon fill="#8dd3c7" stroke="#000000" points="211.2632,-122 208.2632,-126 187.2632,-126 184.2632,-122 40.7368,-122 40.7368,-86 211.2632,-86 211.2632,-122"/>
<text text-anchor="middle" x="126" y="-99.8" font-family="Times,serif" font-size="14.00" fill="#000000">PluginSimpleImageModule</text>
</g>
<!-- PluginSimpleImageModule&#45;&gt;NgxEditorjsPluginsModule -->
<g id="edge8" class="edge">
<title>PluginSimpleImageModule&#45;&gt;NgxEditorjsPluginsModule</title>
<path fill="none" stroke="#000000" d="M204.7565,-122.2667C204.7565,-140.5552 204.7565,-166 204.7565,-166 204.7565,-166 525.7625,-166 525.7625,-166"/>
<polygon fill="#000000" stroke="#000000" points="525.7625,-169.5001 535.7625,-166 525.7625,-162.5001 525.7625,-169.5001"/>
</g>
<!-- PluginCodeModule  -->
<g id="node10" class="node">
<title>PluginCodeModule </title>
<polygon fill="#fb8072" stroke="#000000" points="1272.6649,-252 1143.3351,-252 1143.3351,-216 1272.6649,-216 1272.6649,-252"/>
<text text-anchor="middle" x="1208" y="-229.8" font-family="Times,serif" font-size="14.00" fill="#000000">PluginCodeModule </text>
</g>
<!-- NgxEditorjsPluginsModule&#45;&gt;PluginCodeModule  -->
<g id="edge9" class="edge">
<title>NgxEditorjsPluginsModule&#45;&gt;PluginCodeModule </title>
<path fill="none" stroke="#000000" stroke-dasharray="5,2" d="M706.1962,-172C867.7481,-172 1202.625,-172 1202.625,-172 1202.625,-172 1202.625,-205.7333 1202.625,-205.7333"/>
<polygon fill="#000000" stroke="#000000" points="1199.1251,-205.7333 1202.625,-215.7333 1206.1251,-205.7333 1199.1251,-205.7333"/>
</g>
<!-- PluginHeaderModule  -->
<g id="node11" class="node">
<title>PluginHeaderModule </title>
<polygon fill="#fb8072" stroke="#000000" points="1125.0246,-252 984.9754,-252 984.9754,-216 1125.0246,-216 1125.0246,-252"/>
<text text-anchor="middle" x="1055" y="-229.8" font-family="Times,serif" font-size="14.00" fill="#000000">PluginHeaderModule </text>
</g>
<!-- NgxEditorjsPluginsModule&#45;&gt;PluginHeaderModule  -->
<g id="edge10" class="edge">
<title>NgxEditorjsPluginsModule&#45;&gt;PluginHeaderModule </title>
<path fill="none" stroke="#000000" stroke-dasharray="5,2" d="M706.1195,-177C825.8135,-177 1029.4126,-177 1029.4126,-177 1029.4126,-177 1029.4126,-205.9648 1029.4126,-205.9648"/>
<polygon fill="#000000" stroke="#000000" points="1025.9127,-205.9648 1029.4126,-215.9648 1032.9127,-205.9649 1025.9127,-205.9648"/>
</g>
<!-- PluginImageModule  -->
<g id="node12" class="node">
<title>PluginImageModule </title>
<polygon fill="#fb8072" stroke="#000000" points="967.0946,-252 832.9054,-252 832.9054,-216 967.0946,-216 967.0946,-252"/>
<text text-anchor="middle" x="900" y="-229.8" font-family="Times,serif" font-size="14.00" fill="#000000">PluginImageModule </text>
</g>
<!-- NgxEditorjsPluginsModule&#45;&gt;PluginImageModule  -->
<g id="edge11" class="edge">
<title>NgxEditorjsPluginsModule&#45;&gt;PluginImageModule </title>
<path fill="none" stroke="#000000" stroke-dasharray="5,2" d="M706.0171,-182C780.2891,-182 876.3177,-182 876.3177,-182 876.3177,-182 876.3177,-205.8129 876.3177,-205.8129"/>
<polygon fill="#000000" stroke="#000000" points="872.8178,-205.8129 876.3177,-215.8129 879.8178,-205.813 872.8178,-205.8129"/>
</g>
<!-- PluginLinkModule  -->
<g id="node13" class="node">
<title>PluginLinkModule </title>
<polygon fill="#fb8072" stroke="#000000" points="815.0568,-252 688.9432,-252 688.9432,-216 815.0568,-216 815.0568,-252"/>
<text text-anchor="middle" x="752" y="-229.8" font-family="Times,serif" font-size="14.00" fill="#000000">PluginLinkModule </text>
</g>
<!-- NgxEditorjsPluginsModule&#45;&gt;PluginLinkModule  -->
<g id="edge12" class="edge">
<title>NgxEditorjsPluginsModule&#45;&gt;PluginLinkModule </title>
<path fill="none" stroke="#000000" stroke-dasharray="5,2" d="M697.4844,-187.1061C697.4844,-187.1061 697.4844,-205.991 697.4844,-205.991"/>
<polygon fill="#000000" stroke="#000000" points="693.9845,-205.9909 697.4844,-215.991 700.9845,-205.991 693.9845,-205.9909"/>
</g>
<!-- PluginListModule  -->
<g id="node14" class="node">
<title>PluginListModule </title>
<polygon fill="#fb8072" stroke="#000000" points="670.8926,-252 549.1074,-252 549.1074,-216 670.8926,-216 670.8926,-252"/>
<text text-anchor="middle" x="610" y="-229.8" font-family="Times,serif" font-size="14.00" fill="#000000">PluginListModule </text>
</g>
<!-- NgxEditorjsPluginsModule&#45;&gt;PluginListModule  -->
<g id="edge13" class="edge">
<title>NgxEditorjsPluginsModule&#45;&gt;PluginListModule </title>
<path fill="none" stroke="#000000" stroke-dasharray="5,2" d="M610,-187.1061C610,-187.1061 610,-205.991 610,-205.991"/>
<polygon fill="#000000" stroke="#000000" points="606.5001,-205.9909 610,-215.991 613.5001,-205.991 606.5001,-205.9909"/>
</g>
<!-- PluginMarkerModule  -->
<g id="node15" class="node">
<title>PluginMarkerModule </title>
<polygon fill="#fb8072" stroke="#000000" points="531.3087,-252 390.6913,-252 390.6913,-216 531.3087,-216 531.3087,-252"/>
<text text-anchor="middle" x="461" y="-229.8" font-family="Times,serif" font-size="14.00" fill="#000000">PluginMarkerModule </text>
</g>
<!-- NgxEditorjsPluginsModule&#45;&gt;PluginMarkerModule  -->
<g id="edge14" class="edge">
<title>NgxEditorjsPluginsModule&#45;&gt;PluginMarkerModule </title>
<path fill="none" stroke="#000000" stroke-dasharray="5,2" d="M542.6534,-187.1061C542.6534,-206.3391 542.6534,-234 542.6534,-234 542.6534,-234 541.5522,-234 541.5522,-234"/>
<polygon fill="#000000" stroke="#000000" points="541.6413,-230.5001 531.6413,-234 541.6412,-237.5001 541.6413,-230.5001"/>
</g>
<!-- PluginParagraphModule  -->
<g id="node16" class="node">
<title>PluginParagraphModule </title>
<polygon fill="#fb8072" stroke="#000000" points="372.3616,-252 215.6384,-252 215.6384,-216 372.3616,-216 372.3616,-252"/>
<text text-anchor="middle" x="294" y="-229.8" font-family="Times,serif" font-size="14.00" fill="#000000">PluginParagraphModule </text>
</g>
<!-- NgxEditorjsPluginsModule&#45;&gt;PluginParagraphModule  -->
<g id="edge15" class="edge">
<title>NgxEditorjsPluginsModule&#45;&gt;PluginParagraphModule </title>
<path fill="none" stroke="#000000" stroke-dasharray="5,2" d="M535.6329,-180C440.8005,-180 300.875,-180 300.875,-180 300.875,-180 300.875,-205.7181 300.875,-205.7181"/>
<polygon fill="#000000" stroke="#000000" points="297.3751,-205.718 300.875,-215.7181 304.3751,-205.7181 297.3751,-205.718"/>
</g>
<!-- PluginSimpleImageModule  -->
<g id="node17" class="node">
<title>PluginSimpleImageModule </title>
<polygon fill="#fb8072" stroke="#000000" points="198.2632,-252 23.7368,-252 23.7368,-216 198.2632,-216 198.2632,-252"/>
<text text-anchor="middle" x="111" y="-229.8" font-family="Times,serif" font-size="14.00" fill="#000000">PluginSimpleImageModule </text>
</g>
<!-- NgxEditorjsPluginsModule&#45;&gt;PluginSimpleImageModule  -->
<g id="edge16" class="edge">
<title>NgxEditorjsPluginsModule&#45;&gt;PluginSimpleImageModule </title>
<path fill="none" stroke="#000000" stroke-dasharray="5,2" d="M535.9062,-173C392.7903,-173 119.375,-173 119.375,-173 119.375,-173 119.375,-205.698 119.375,-205.698"/>
<polygon fill="#000000" stroke="#000000" points="115.8751,-205.698 119.375,-215.698 122.8751,-205.698 115.8751,-205.698"/>
</g>
</g>
</svg>
