<?xml version="1.0" encoding="UTF-8" standalone="no"?>
<!DOCTYPE svg PUBLIC "-//W3C//DTD SVG 1.1//EN"
 "http://www.w3.org/Graphics/SVG/1.1/DTD/svg11.dtd">
<!-- Generated by graphviz version 2.40.1 (20161225.0304)
 -->
<!-- Title: dependencies Pages: 1 -->
<svg width="572pt" height="349pt"
 viewBox="0.00 0.00 572.00 349.00" xmlns="http://www.w3.org/2000/svg" xmlns:xlink="http://www.w3.org/1999/xlink">
<g id="graph0" class="graph" transform="scale(1 1) rotate(0) translate(4 345)">
<title>dependencies</title>
<polygon fill="#ffffff" stroke="transparent" points="-4,4 -4,-345 568,-345 568,4 -4,4"/>
<text text-anchor="start" x="261.0091" y="-42.4" font-family="sans-serif" font-weight="bold" font-size="14.00" fill="#000000">Legend</text>
<polygon fill="#ffffb3" stroke="transparent" points="48,-10 48,-30 68,-30 68,-10 48,-10"/>
<text text-anchor="start" x="71.629" y="-15.4" font-family="sans-serif" font-size="14.00" fill="#000000"> &#160;Declarations</text>
<polygon fill="#8dd3c7" stroke="transparent" points="161,-10 161,-30 181,-30 181,-10 161,-10"/>
<text text-anchor="start" x="184.7251" y="-15.4" font-family="sans-serif" font-size="14.00" fill="#000000"> &#160;Module</text>
<polygon fill="#80b1d3" stroke="transparent" points="247,-10 247,-30 267,-30 267,-10 247,-10"/>
<text text-anchor="start" x="270.7812" y="-15.4" font-family="sans-serif" font-size="14.00" fill="#000000"> &#160;Bootstrap</text>
<polygon fill="#fdb462" stroke="transparent" points="344,-10 344,-30 364,-30 364,-10 344,-10"/>
<text text-anchor="start" x="367.6732" y="-15.4" font-family="sans-serif" font-size="14.00" fill="#000000"> &#160;Providers</text>
<polygon fill="#fb8072" stroke="transparent" points="440,-10 440,-30 460,-30 460,-10 440,-10"/>
<text text-anchor="start" x="463.7258" y="-15.4" font-family="sans-serif" font-size="14.00" fill="#000000"> &#160;Exports</text>
<g id="clust1" class="cluster">
<title>cluster_NgxEditorJSComponentModule</title>
<polygon fill="none" stroke="#000000" stroke-dasharray="1,5" points="8,-70 8,-333 556,-333 556,-70 8,-70"/>
</g>
<g id="clust2" class="cluster">
<title>cluster_NgxEditorJSComponentModule_declarations</title>
<polygon fill="none" stroke="#000000" points="220,-143 220,-195 548,-195 548,-143 220,-143"/>
</g>
<g id="clust3" class="cluster">
<title>cluster_NgxEditorJSComponentModule_NgxEditorJSComponent_providers</title>
<polygon fill="none" stroke="#000000" points="172,-78 172,-130 548,-130 548,-78 172,-78"/>
</g>
<g id="clust6" class="cluster">
<title>cluster_NgxEditorJSComponentModule_exports</title>
<polygon fill="none" stroke="#000000" points="130,-273 130,-325 466,-325 466,-273 130,-273"/>
</g>
<g id="clust8" class="cluster">
<title>cluster_NgxEditorJSComponentModule_providers</title>
<polygon fill="none" stroke="#000000" points="16,-143 16,-195 212,-195 212,-143 16,-143"/>
</g>
<!-- NgxEditorJSComponent -->
<g id="node1" class="node">
<title>NgxEditorJSComponent</title>
<polygon fill="#ffffb3" stroke="#000000" points="539.661,-187 386.339,-187 386.339,-151 539.661,-151 539.661,-187"/>
<text text-anchor="middle" x="463" y="-164.8" font-family="Times,serif" font-size="14.00" fill="#000000">NgxEditorJSComponent</text>
</g>
<!-- NgxEditorJSComponentModule -->
<g id="node3" class="node">
<title>NgxEditorJSComponentModule</title>
<polygon fill="#8dd3c7" stroke="#000000" points="396.7105,-252 393.7105,-256 372.7105,-256 369.7105,-252 199.2895,-252 199.2895,-216 396.7105,-216 396.7105,-252"/>
<text text-anchor="middle" x="298" y="-229.8" font-family="Times,serif" font-size="14.00" fill="#000000">NgxEditorJSComponentModule</text>
</g>
<!-- NgxEditorJSComponent&#45;&gt;NgxEditorJSComponentModule -->
<g id="edge1" class="edge">
<title>NgxEditorJSComponent&#45;&gt;NgxEditorJSComponentModule</title>
<path fill="none" stroke="#000000" d="M391.3875,-187.1061C391.3875,-187.1061 391.3875,-205.991 391.3875,-205.991"/>
<polygon fill="#000000" stroke="#000000" points="387.8875,-205.9909 391.3875,-215.991 394.8875,-205.991 387.8875,-205.9909"/>
</g>
<!-- NgxEditorJSDirective -->
<g id="node2" class="node">
<title>NgxEditorJSDirective</title>
<polygon fill="#ffffb3" stroke="#000000" points="368.4116,-187 227.5884,-187 227.5884,-151 368.4116,-151 368.4116,-187"/>
<text text-anchor="middle" x="298" y="-164.8" font-family="Times,serif" font-size="14.00" fill="#000000">NgxEditorJSDirective</text>
</g>
<!-- NgxEditorJSDirective&#45;&gt;NgxEditorJSComponentModule -->
<g id="edge3" class="edge">
<title>NgxEditorJSDirective&#45;&gt;NgxEditorJSComponentModule</title>
<path fill="none" stroke="#000000" d="M298,-187.1061C298,-187.1061 298,-205.991 298,-205.991"/>
<polygon fill="#000000" stroke="#000000" points="294.5001,-205.9909 298,-215.991 301.5001,-205.991 294.5001,-205.9909"/>
</g>
<!-- NgxEditorJSComponent  -->
<g id="node5" class="node">
<title>NgxEditorJSComponent </title>
<polygon fill="#fb8072" stroke="#000000" points="457.6607,-317 300.3393,-317 300.3393,-281 457.6607,-281 457.6607,-317"/>
<text text-anchor="middle" x="379" y="-294.8" font-family="Times,serif" font-size="14.00" fill="#000000">NgxEditorJSComponent </text>
</g>
<!-- NgxEditorJSComponentModule&#45;&gt;NgxEditorJSComponent  -->
<g id="edge4" class="edge">
<title>NgxEditorJSComponentModule&#45;&gt;NgxEditorJSComponent </title>
<path fill="none" stroke="#000000" stroke-dasharray="5,2" d="M348.5125,-252.1061C348.5125,-252.1061 348.5125,-270.991 348.5125,-270.991"/>
<polygon fill="#000000" stroke="#000000" points="345.0125,-270.9909 348.5125,-280.991 352.0125,-270.991 345.0125,-270.9909"/>
</g>
<!-- NgxEditorJSDirective  -->
<g id="node6" class="node">
<title>NgxEditorJSDirective </title>
<polygon fill="#fb8072" stroke="#000000" points="281.911,-317 138.089,-317 138.089,-281 281.911,-281 281.911,-317"/>
<text text-anchor="middle" x="210" y="-294.8" font-family="Times,serif" font-size="14.00" fill="#000000">NgxEditorJSDirective </text>
</g>
<!-- NgxEditorJSComponentModule&#45;&gt;NgxEditorJSDirective  -->
<g id="edge5" class="edge">
<title>NgxEditorJSComponentModule&#45;&gt;NgxEditorJSDirective </title>
<path fill="none" stroke="#000000" stroke-dasharray="5,2" d="M240.6752,-252.1061C240.6752,-252.1061 240.6752,-270.991 240.6752,-270.991"/>
<polygon fill="#000000" stroke="#000000" points="237.1752,-270.9909 240.6752,-280.991 244.1752,-270.991 237.1752,-270.9909"/>
</g>
<!-- EDITORJS_FORM_VALUE_ACCESSOR -->
<g id="node4" class="node">
<title>EDITORJS_FORM_VALUE_ACCESSOR</title>
<ellipse fill="#fdb462" stroke="#000000" cx="360" cy="-104" rx="180.0371" ry="18"/>
<text text-anchor="middle" x="360" y="-99.8" font-family="Times,serif" font-size="14.00" fill="#000000">EDITORJS_FORM_VALUE_ACCESSOR</text>
</g>
<!-- EDITORJS_FORM_VALUE_ACCESSOR&#45;&gt;NgxEditorJSComponent -->
<g id="edge2" class="edge">
<title>EDITORJS_FORM_VALUE_ACCESSOR&#45;&gt;NgxEditorJSComponent</title>
<path fill="none" stroke="#000000" d="M463,-119.0757C463,-119.0757 463,-140.7642 463,-140.7642"/>
<polygon fill="#000000" stroke="#000000" points="459.5001,-140.7642 463,-150.7642 466.5001,-140.7642 459.5001,-140.7642"/>
</g>
<!-- NgxEditorJSService -->
<g id="node7" class="node">
<title>NgxEditorJSService</title>
<ellipse fill="#fdb462" stroke="#000000" cx="114" cy="-169" rx="89.7653" ry="18"/>
<text text-anchor="middle" x="114" y="-164.8" font-family="Times,serif" font-size="14.00" fill="#000000">NgxEditorJSService</text>
</g>
<!-- NgxEditorJSService&#45;&gt;NgxEditorJSComponentModule -->
<g id="edge6" class="edge">
<title>NgxEditorJSService&#45;&gt;NgxEditorJSComponentModule</title>
<path fill="none" stroke="#000000" d="M204.1564,-169C211.3073,-169 215.8385,-169 215.8385,-169 215.8385,-169 215.8385,-205.8939 215.8385,-205.8939"/>
<polygon fill="#000000" stroke="#000000" points="212.3386,-205.8938 215.8385,-215.8939 219.3386,-205.8939 212.3386,-205.8938"/>
</g>
</g>
</svg>
