<?xml version="1.0" encoding="UTF-8" standalone="no"?>
<!DOCTYPE svg PUBLIC "-//W3C//DTD SVG 1.1//EN"
 "http://www.w3.org/Graphics/SVG/1.1/DTD/svg11.dtd">
<!-- Generated by graphviz version 2.40.1 (20161225.0304)
 -->
<!-- Title: dependencies Pages: 1 -->
<svg width="579pt" height="211pt"
 viewBox="0.00 0.00 579.00 211.00" xmlns="http://www.w3.org/2000/svg" xmlns:xlink="http://www.w3.org/1999/xlink">
<g id="graph0" class="graph" transform="scale(1 1) rotate(0) translate(4 207)">
<title>dependencies</title>
<polygon fill="#ffffff" stroke="transparent" points="-4,4 -4,-207 575,-207 575,4 -4,4"/>
<text text-anchor="start" x="264.5091" y="-42.4" font-family="sans-serif" font-weight="bold" font-size="14.00" fill="#000000">Legend</text>
<polygon fill="#ffffb3" stroke="transparent" points="51.5,-10 51.5,-30 71.5,-30 71.5,-10 51.5,-10"/>
<text text-anchor="start" x="75.129" y="-15.4" font-family="sans-serif" font-size="14.00" fill="#000000"> &#160;Declarations</text>
<polygon fill="#8dd3c7" stroke="transparent" points="164.5,-10 164.5,-30 184.5,-30 184.5,-10 164.5,-10"/>
<text text-anchor="start" x="188.2251" y="-15.4" font-family="sans-serif" font-size="14.00" fill="#000000"> &#160;Module</text>
<polygon fill="#80b1d3" stroke="transparent" points="250.5,-10 250.5,-30 270.5,-30 270.5,-10 250.5,-10"/>
<text text-anchor="start" x="274.2812" y="-15.4" font-family="sans-serif" font-size="14.00" fill="#000000"> &#160;Bootstrap</text>
<polygon fill="#fdb462" stroke="transparent" points="347.5,-10 347.5,-30 367.5,-30 367.5,-10 347.5,-10"/>
<text text-anchor="start" x="371.1732" y="-15.4" font-family="sans-serif" font-size="14.00" fill="#000000"> &#160;Providers</text>
<polygon fill="#fb8072" stroke="transparent" points="443.5,-10 443.5,-30 463.5,-30 463.5,-10 443.5,-10"/>
<text text-anchor="start" x="467.2258" y="-15.4" font-family="sans-serif" font-size="14.00" fill="#000000"> &#160;Exports</text>
<g id="clust1" class="cluster">
<title>cluster_ApplicationDataModule</title>
<polygon fill="none" stroke="#000000" stroke-dasharray="1,5" points="8,-70 8,-195 563,-195 563,-70 8,-70"/>
</g>
<g id="clust6" class="cluster">
<title>cluster_ApplicationDataModule_providers</title>
<polygon fill="none" stroke="#000000" points="16,-78 16,-130 555,-130 555,-78 16,-78"/>
</g>
<!-- ApplicationQuery -->
<g id="node1" class="node">
<title>ApplicationQuery</title>
<ellipse fill="#fdb462" stroke="#000000" cx="466" cy="-104" rx="80.52" ry="18"/>
<text text-anchor="middle" x="466" y="-99.8" font-family="Times,serif" font-size="14.00" fill="#000000">ApplicationQuery</text>
</g>
<!-- ApplicationDataModule -->
<g id="node4" class="node">
<title>ApplicationDataModule</title>
<polygon fill="#8dd3c7" stroke="#000000" points="358.0744,-187 355.0744,-191 334.0744,-191 331.0744,-187 205.9256,-187 205.9256,-151 358.0744,-151 358.0744,-187"/>
<text text-anchor="middle" x="282" y="-164.8" font-family="Times,serif" font-size="14.00" fill="#000000">ApplicationDataModule</text>
</g>
<!-- ApplicationQuery&#45;&gt;ApplicationDataModule -->
<g id="edge1" class="edge">
<title>ApplicationQuery&#45;&gt;ApplicationDataModule</title>
<path fill="none" stroke="#000000" d="M466,-122.1061C466,-141.3391 466,-169 466,-169 466,-169 368.168,-169 368.168,-169"/>
<polygon fill="#000000" stroke="#000000" points="368.1681,-165.5001 358.168,-169 368.168,-172.5001 368.1681,-165.5001"/>
</g>
<!-- ApplicationService -->
<g id="node2" class="node">
<title>ApplicationService</title>
<ellipse fill="#fdb462" stroke="#000000" cx="282" cy="-104" rx="85.6705" ry="18"/>
<text text-anchor="middle" x="282" y="-99.8" font-family="Times,serif" font-size="14.00" fill="#000000">ApplicationService</text>
</g>
<!-- ApplicationService&#45;&gt;ApplicationDataModule -->
<g id="edge2" class="edge">
<title>ApplicationService&#45;&gt;ApplicationDataModule</title>
<path fill="none" stroke="#000000" d="M282,-122.1061C282,-122.1061 282,-140.991 282,-140.991"/>
<polygon fill="#000000" stroke="#000000" points="278.5001,-140.9909 282,-150.991 285.5001,-140.991 278.5001,-140.9909"/>
</g>
<!-- ApplicationStore -->
<g id="node3" class="node">
<title>ApplicationStore</title>
<ellipse fill="#fdb462" stroke="#000000" cx="101" cy="-104" rx="77.0236" ry="18"/>
<text text-anchor="middle" x="101" y="-99.8" font-family="Times,serif" font-size="14.00" fill="#000000">ApplicationStore</text>
</g>
<!-- ApplicationStore&#45;&gt;ApplicationDataModule -->
<g id="edge3" class="edge">
<title>ApplicationStore&#45;&gt;ApplicationDataModule</title>
<path fill="none" stroke="#000000" d="M101,-122.1061C101,-141.3391 101,-169 101,-169 101,-169 195.7643,-169 195.7643,-169"/>
<polygon fill="#000000" stroke="#000000" points="195.7643,-172.5001 205.7643,-169 195.7643,-165.5001 195.7643,-172.5001"/>
</g>
</g>
</svg>
