<?xml version="1.0" encoding="UTF-8" standalone="no"?>
<!DOCTYPE svg PUBLIC "-//W3C//DTD SVG 1.1//EN"
 "http://www.w3.org/Graphics/SVG/1.1/DTD/svg11.dtd">
<!-- Generated by graphviz version 2.40.1 (20161225.0304)
 -->
<!-- Title: dependencies Pages: 1 -->
<svg width="521pt" height="211pt"
 viewBox="0.00 0.00 521.00 211.00" xmlns="http://www.w3.org/2000/svg" xmlns:xlink="http://www.w3.org/1999/xlink">
<g id="graph0" class="graph" transform="scale(1 1) rotate(0) translate(4 207)">
<title>dependencies</title>
<polygon fill="#ffffff" stroke="transparent" points="-4,4 -4,-207 517,-207 517,4 -4,4"/>
<text text-anchor="start" x="235.5091" y="-42.4" font-family="sans-serif" font-weight="bold" font-size="14.00" fill="#000000">Legend</text>
<polygon fill="#ffffb3" stroke="transparent" points="22.5,-10 22.5,-30 42.5,-30 42.5,-10 22.5,-10"/>
<text text-anchor="start" x="46.129" y="-15.4" font-family="sans-serif" font-size="14.00" fill="#000000"> &#160;Declarations</text>
<polygon fill="#8dd3c7" stroke="transparent" points="135.5,-10 135.5,-30 155.5,-30 155.5,-10 135.5,-10"/>
<text text-anchor="start" x="159.2251" y="-15.4" font-family="sans-serif" font-size="14.00" fill="#000000"> &#160;Module</text>
<polygon fill="#80b1d3" stroke="transparent" points="221.5,-10 221.5,-30 241.5,-30 241.5,-10 221.5,-10"/>
<text text-anchor="start" x="245.2812" y="-15.4" font-family="sans-serif" font-size="14.00" fill="#000000"> &#160;Bootstrap</text>
<polygon fill="#fdb462" stroke="transparent" points="318.5,-10 318.5,-30 338.5,-30 338.5,-10 318.5,-10"/>
<text text-anchor="start" x="342.1732" y="-15.4" font-family="sans-serif" font-size="14.00" fill="#000000"> &#160;Providers</text>
<polygon fill="#fb8072" stroke="transparent" points="414.5,-10 414.5,-30 434.5,-30 434.5,-10 414.5,-10"/>
<text text-anchor="start" x="438.2258" y="-15.4" font-family="sans-serif" font-size="14.00" fill="#000000"> &#160;Exports</text>
<g id="clust1" class="cluster">
<title>cluster_ApplicationDataModule</title>
<polygon fill="none" stroke="#000000" stroke-dasharray="1,5" points="8,-70 8,-195 505,-195 505,-70 8,-70"/>
</g>
<g id="clust6" class="cluster">
<title>cluster_ApplicationDataModule_providers</title>
<polygon fill="none" stroke="#000000" points="16,-78 16,-130 497,-130 497,-78 16,-78"/>
</g>
<!-- AppService -->
<g id="node1" class="node">
<title>AppService</title>
<ellipse fill="#fdb462" stroke="#000000" cx="432" cy="-104" rx="56.7406" ry="18"/>
<text text-anchor="middle" x="432" y="-99.8" font-family="Times,serif" font-size="14.00" fill="#000000">AppService</text>
</g>
<!-- ApplicationDataModule -->
<g id="node4" class="node">
<title>ApplicationDataModule</title>
<polygon fill="#8dd3c7" stroke="#000000" points="353.0744,-187 350.0744,-191 329.0744,-191 326.0744,-187 200.9256,-187 200.9256,-151 353.0744,-151 353.0744,-187"/>
<text text-anchor="middle" x="277" y="-164.8" font-family="Times,serif" font-size="14.00" fill="#000000">ApplicationDataModule</text>
</g>
<!-- AppService&#45;&gt;ApplicationDataModule -->
<g id="edge1" class="edge">
<title>AppService&#45;&gt;ApplicationDataModule</title>
<path fill="none" stroke="#000000" d="M432,-122.1061C432,-141.3391 432,-169 432,-169 432,-169 363.1378,-169 363.1378,-169"/>
<polygon fill="#000000" stroke="#000000" points="363.1378,-165.5001 353.1378,-169 363.1377,-172.5001 363.1378,-165.5001"/>
</g>
<!-- ApplicationQuery -->
<g id="node2" class="node">
<title>ApplicationQuery</title>
<ellipse fill="#fdb462" stroke="#000000" cx="277" cy="-104" rx="80.52" ry="18"/>
<text text-anchor="middle" x="277" y="-99.8" font-family="Times,serif" font-size="14.00" fill="#000000">ApplicationQuery</text>
</g>
<!-- ApplicationQuery&#45;&gt;ApplicationDataModule -->
<g id="edge2" class="edge">
<title>ApplicationQuery&#45;&gt;ApplicationDataModule</title>
<path fill="none" stroke="#000000" d="M277,-122.1061C277,-122.1061 277,-140.991 277,-140.991"/>
<polygon fill="#000000" stroke="#000000" points="273.5001,-140.9909 277,-150.991 280.5001,-140.991 273.5001,-140.9909"/>
</g>
<!-- ApplicationStore -->
<g id="node3" class="node">
<title>ApplicationStore</title>
<ellipse fill="#fdb462" stroke="#000000" cx="101" cy="-104" rx="77.0236" ry="18"/>
<text text-anchor="middle" x="101" y="-99.8" font-family="Times,serif" font-size="14.00" fill="#000000">ApplicationStore</text>
</g>
<!-- ApplicationStore&#45;&gt;ApplicationDataModule -->
<g id="edge3" class="edge">
<title>ApplicationStore&#45;&gt;ApplicationDataModule</title>
<path fill="none" stroke="#000000" d="M101,-122.1061C101,-141.3391 101,-169 101,-169 101,-169 190.8275,-169 190.8275,-169"/>
<polygon fill="#000000" stroke="#000000" points="190.8275,-172.5001 200.8275,-169 190.8274,-165.5001 190.8275,-172.5001"/>
</g>
</g>
</svg>
